<?xml version="1.0" encoding="utf-8"?>
<!-- Generator: Adobe Illustrator 17.1.0, SVG Export Plug-In . SVG Version: 6.00 Build 0)  -->
<!DOCTYPE svg PUBLIC "-//W3C//DTD SVG 1.1//EN" "http://www.w3.org/Graphics/SVG/1.1/DTD/svg11.dtd">
<svg version="1.1" id="Ebene_1" xmlns="http://www.w3.org/2000/svg" xmlns:xlink="http://www.w3.org/1999/xlink" x="0px" y="0px"
	 viewBox="0 0 1280 800" enable-background="new 0 0 1280 800" xml:space="preserve">
<g>
	<g>
		<path fill="#940517" d="M632.4,514.3c-144.8,0-259-114.3-259-255.2S487.6,0,632.4,0s259,114.3,259,259S773.3,514.3,632.4,514.3z
			 M632.4,68.6c-106.7,0-190.5,83.8-190.5,190.5s83.8,186.7,186.7,186.7S815.2,361.9,815.2,259S735.2,68.6,632.4,68.6z"/>
	</g>
	<g>
		<path fill="#940517" d="M632.4,800c-19,0-34.3-15.2-34.3-34.3V495.2c0-19,15.2-34.3,34.3-34.3s34.3,15.2,34.3,34.3v270.5
			C666.7,784.8,651.4,800,632.4,800z"/>
	</g>
	<g>
		<path fill="#940517" d="M723.8,704.8H533.3c-19,0-34.3-15.2-34.3-34.3s15.2-34.3,34.3-34.3h190.5c19,0,34.3,15.2,34.3,34.3
			C761.9,689.5,746.7,704.8,723.8,704.8z"/>
	</g>
</g>
</svg>
