<?xml version="1.0" encoding="utf-8"?>
<!-- Generator: Adobe Illustrator 17.1.0, SVG Export Plug-In . SVG Version: 6.00 Build 0)  -->
<!DOCTYPE svg PUBLIC "-//W3C//DTD SVG 1.1//EN" "http://www.w3.org/Graphics/SVG/1.1/DTD/svg11.dtd">
<svg version="1.1" id="Fakultät_Detail_Kopie_Kopie_Kopie_2_Kopie_2_Kopie_3_Kopie_Kopie_2_Kopie"
	 xmlns="http://www.w3.org/2000/svg" xmlns:xlink="http://www.w3.org/1999/xlink" x="0px" y="0px" viewBox="0 0 1200 295"
	 enable-background="new 0 0 1200 295" xml:space="preserve">
<g>
	<g>
		<linearGradient id="SVGID_1_" gradientUnits="userSpaceOnUse" x1="1192.7736" y1="147.5" x2="0.2484" y2="147.5">
			<stop  offset="0" style="stop-color:#063462"/>
			<stop  offset="0.3956" style="stop-color:#442041"/>
			<stop  offset="0.8037" style="stop-color:#7D0C23"/>
			<stop  offset="1" style="stop-color:#940517"/>
		</linearGradient>
		<rect x="0" fill="url(#SVGID_1_)" width="1200" height="295"/>
	</g>
</g>
<path fill="#FFFFFF" d="M548.9,48c-5.3,0-9.6-4.3-9.6-9.5s4.3-9.5,9.6-9.5h101.8c5.3,0,9.6,4.3,9.6,9.5S656,48,650.7,48H548.9z"/>
<g>
	<path fill="#2A212B" d="M557.4,42.3c0,0.3-0.2,0.6-0.6,0.6c-0.3,0-0.6-0.3-0.6-0.6v-7.7c0-0.3,0.2-0.6,0.6-0.6
		c0.3,0,0.6,0.3,0.6,0.6v3.2h3.8v-3.2c0-0.3,0.2-0.6,0.6-0.6c0.3,0,0.6,0.3,0.6,0.6v7.7c0,0.3-0.2,0.6-0.6,0.6
		c-0.3,0-0.6-0.3-0.6-0.6v-3.4h-3.8V42.3z"/>
	<path fill="#2A212B" d="M569.6,34.6c0-0.3,0.2-0.6,0.6-0.6c0.3,0,0.6,0.3,0.6,0.6v5c0,2.1-1.2,3.3-3.2,3.3c-2,0-3.2-1.2-3.2-3.3v-5
		c0-0.3,0.2-0.6,0.6-0.6s0.6,0.3,0.6,0.6v5.1c0,1.4,0.7,2.1,2,2.1c1.3,0,2-0.8,2-2.1V34.6z"/>
	<path fill="#2A212B" d="M580.5,42.3c0,0.3-0.2,0.6-0.6,0.6c-0.3,0-0.6-0.2-0.6-0.6v-5.2l-2.2,5.4c-0.1,0.2-0.2,0.3-0.5,0.3
		c-0.3,0-0.4-0.1-0.5-0.3l-2.2-5.4v5.2c0,0.3-0.2,0.6-0.6,0.6c-0.3,0-0.6-0.2-0.6-0.6v-7.7c0-0.4,0.2-0.6,0.6-0.6
		c0.3,0,0.4,0.1,0.5,0.4l2.8,6.7l2.8-6.7c0.1-0.3,0.3-0.4,0.5-0.4c0.3,0,0.6,0.2,0.6,0.6V42.3z"/>
	<path fill="#2A212B" d="M588.9,42.1c0,0.1,0.1,0.2,0.1,0.2c0,0.3-0.2,0.5-0.6,0.5c-0.3,0-0.4-0.1-0.5-0.4l-0.7-1.8h-3.5l-0.7,1.8
		c-0.1,0.2-0.2,0.4-0.5,0.4c-0.4,0-0.6-0.2-0.6-0.5c0-0.1,0-0.2,0.1-0.2l2.9-7.7c0.1-0.3,0.2-0.4,0.6-0.4c0.3,0,0.5,0.1,0.6,0.4
		L588.9,42.1z M585.5,35.9l-1.4,3.8h2.7L585.5,35.9z"/>
	<path fill="#2A212B" d="M596.1,42.9c-0.2,0-0.4-0.1-0.5-0.2l-4.1-6.2v5.9c0,0.3-0.2,0.6-0.6,0.6s-0.6-0.3-0.6-0.6v-7.7
		c0-0.3,0.2-0.6,0.6-0.6c0.2,0,0.4,0.1,0.5,0.3l4.1,6.2v-5.9c0-0.3,0.2-0.6,0.6-0.6c0.3,0,0.6,0.2,0.6,0.6v7.7
		C596.7,42.6,596.5,42.9,596.1,42.9z"/>
	<path fill="#2A212B" d="M606.5,42.3c0,0.3-0.2,0.6-0.6,0.6c-0.3,0-0.6-0.2-0.6-0.6v-5.2l-2.2,5.4c-0.1,0.2-0.2,0.3-0.5,0.3
		c-0.3,0-0.4-0.1-0.5-0.3l-2.2-5.4v5.2c0,0.3-0.2,0.6-0.6,0.6c-0.3,0-0.6-0.2-0.6-0.6v-7.7c0-0.4,0.2-0.6,0.6-0.6
		c0.3,0,0.4,0.1,0.5,0.4l2.8,6.7l2.8-6.7c0.1-0.3,0.3-0.4,0.5-0.4c0.3,0,0.6,0.2,0.6,0.6V42.3z"/>
	<path fill="#2A212B" d="M609.7,37.8h2.2c0.3,0,0.5,0.2,0.5,0.5c0,0.3-0.2,0.5-0.5,0.5h-2.2v2.8h3.7c0.3,0,0.5,0.2,0.5,0.5
		c0,0.3-0.2,0.5-0.5,0.5h-4.2c-0.4,0-0.6-0.3-0.6-0.6v-7.5c0-0.3,0.3-0.6,0.6-0.6h4.1c0.3,0,0.5,0.2,0.5,0.5c0,0.3-0.2,0.5-0.5,0.5
		h-3.5V37.8z"/>
	<path fill="#2A212B" d="M617.9,42.8H616c-0.3,0-0.6-0.3-0.6-0.6v-7.5c0-0.3,0.3-0.6,0.6-0.6h1.9c2.4,0,3.8,1.8,3.8,4.3
		C621.7,41,620.3,42.8,617.9,42.8z M617.9,35.2h-1.3v6.5h1.3c1.8,0,2.6-1.5,2.6-3.3S619.7,35.2,617.9,35.2z"/>
	<path fill="#2A212B" d="M624.6,42.3c0,0.3-0.2,0.6-0.6,0.6s-0.6-0.3-0.6-0.6v-7.7c0-0.3,0.2-0.6,0.6-0.6s0.6,0.3,0.6,0.6V42.3z"/>
	<path fill="#2A212B" d="M631.7,42.8H627c-0.3,0-0.6-0.2-0.6-0.5c0-0.1,0.1-0.2,0.1-0.3l4.1-6.8H627c-0.3,0-0.5-0.2-0.5-0.5
		c0-0.3,0.2-0.5,0.5-0.5h4.6c0.3,0,0.5,0.2,0.5,0.5c0,0.1-0.1,0.2-0.1,0.3l-4.1,6.8h3.7c0.3,0,0.5,0.2,0.5,0.5
		C632.2,42.6,632,42.8,631.7,42.8z"/>
	<path fill="#2A212B" d="M635.1,42.3c0,0.3-0.2,0.6-0.6,0.6s-0.6-0.3-0.6-0.6v-7.7c0-0.3,0.2-0.6,0.6-0.6s0.6,0.3,0.6,0.6V42.3z"/>
	<path fill="#2A212B" d="M642.9,42.9c-0.2,0-0.4-0.1-0.5-0.2l-4.1-6.2v5.9c0,0.3-0.2,0.6-0.6,0.6s-0.6-0.3-0.6-0.6v-7.7
		c0-0.3,0.2-0.6,0.6-0.6c0.2,0,0.4,0.1,0.5,0.3l4.1,6.2v-5.9c0-0.3,0.2-0.6,0.6-0.6c0.3,0,0.6,0.2,0.6,0.6v7.7
		C643.5,42.6,643.3,42.9,642.9,42.9z"/>
</g>
<g>
	<path fill="#FFFFFF" d="M148.4,43.9c0,0.4-0.3,0.7-0.7,0.7s-0.7-0.3-0.7-0.7v-8.8c0-0.4,0.3-0.7,0.7-0.7h4.8c0.3,0,0.6,0.3,0.6,0.6
		c0,0.4-0.3,0.6-0.6,0.6h-4.1v3h2.5c0.3,0,0.6,0.3,0.6,0.6c0,0.3-0.3,0.6-0.6,0.6h-2.5V43.9z"/>
	<path fill="#FFFFFF" d="M155.3,34.5h2.9c2.1,0,3.4,1,3.4,3c0,1.2-0.7,2.3-1.9,2.7l1.8,3.5c0.1,0.1,0.1,0.2,0.1,0.3
		c0,0.3-0.2,0.7-0.7,0.7c-0.3,0-0.5-0.1-0.6-0.4l-2-3.9H156v3.6c0,0.4-0.3,0.7-0.7,0.7c-0.4,0-0.7-0.3-0.7-0.7v-8.7
		C154.6,34.7,154.9,34.5,155.3,34.5z M156,39.1h2.5c1.2,0,1.7-0.7,1.7-1.7c0-1-0.6-1.7-1.7-1.7H156V39.1z"/>
	<path fill="#FFFFFF" d="M170.9,43.7c0,0.1,0.1,0.2,0.1,0.3c0,0.3-0.2,0.6-0.7,0.6c-0.3,0-0.5-0.2-0.6-0.4l-0.8-2.1h-4l-0.8,2.1
		c-0.1,0.2-0.3,0.4-0.6,0.4c-0.4,0-0.7-0.3-0.7-0.6c0-0.1,0-0.2,0.1-0.3l3.3-8.9c0.1-0.3,0.3-0.5,0.6-0.5c0.4,0,0.5,0.2,0.6,0.5
		L170.9,43.7z M166.9,36.5l-1.6,4.4h3.1L166.9,36.5z"/>
	<path fill="#FFFFFF" d="M178.3,35c0-0.4,0.3-0.7,0.7-0.7c0.4,0,0.7,0.3,0.7,0.7v5.8c0,2.4-1.3,3.8-3.7,3.8s-3.7-1.4-3.7-3.8V35
		c0-0.4,0.3-0.7,0.7-0.7c0.4,0,0.7,0.3,0.7,0.7v5.9c0,1.6,0.8,2.5,2.3,2.5c1.5,0,2.3-0.9,2.3-2.5V35z"/>
	<path fill="#FFFFFF" d="M183.3,38.7h2.5c0.3,0,0.6,0.3,0.6,0.6c0,0.3-0.3,0.6-0.6,0.6h-2.5v3.3h4.2c0.3,0,0.6,0.3,0.6,0.6
		c0,0.3-0.3,0.6-0.6,0.6h-4.9c-0.4,0-0.7-0.3-0.7-0.7v-8.6c0-0.4,0.3-0.7,0.7-0.7h4.8c0.3,0,0.6,0.3,0.6,0.6c0,0.4-0.3,0.6-0.6,0.6
		h-4.1V38.7z"/>
	<path fill="#FFFFFF" d="M196.4,44.6c-0.2,0-0.4-0.1-0.6-0.3l-4.7-7.2v6.8c0,0.3-0.3,0.6-0.6,0.6s-0.6-0.3-0.6-0.6V35
		c0-0.4,0.3-0.6,0.6-0.6c0.3,0,0.4,0.1,0.6,0.3l4.7,7.2V35c0-0.4,0.3-0.6,0.6-0.6c0.4,0,0.6,0.3,0.6,0.6v8.9
		C197,44.2,196.8,44.6,196.4,44.6z"/>
	<path fill="#FFFFFF" d="M153.5,79.7c-0.6,0-1.1-0.5-1.1-1.1V56.2l-4.4,1.4c-0.2,0-0.3,0.1-0.5,0.1c-0.5,0-1.1-0.3-1.1-1
		s0.3-0.8,0.8-1l5.5-1.7c0.3-0.1,0.5-0.2,0.8-0.2c0.7,0,1.1,0.4,1.1,1.1v23.7C154.6,79.2,154.1,79.7,153.5,79.7z"/>
	<path fill="#FFFFFF" d="M175.1,79.4h-13.9c-0.5,0-1-0.5-1-1v-1.3c0-5.5,3.4-7.8,7-10.1c4.6-3.1,6.4-4.5,6.4-7.3c0-2.7-2.1-4-5.4-4
		c-2.3,0-4.1,0.7-5.9,2.1c-0.2,0.2-0.4,0.3-0.7,0.3c-0.6,0-1-0.4-1-1c0-0.6,0.4-0.9,1-1.3c1.7-1.2,4-2.1,6.8-2.1
		c4.2,0,7.5,1.9,7.5,6c0,2.9-1.8,5.1-6.8,8.4c-4.7,3.1-6.5,4.8-6.5,8.7v0.6h12.7c0.6,0,1,0.4,1,0.9S175.6,79.4,175.1,79.4z"/>
	<path fill="#FFFFFF" d="M187.3,79.9c-3.3,0-5.6-1.1-7.4-2.7c-0.5-0.4-0.8-0.9-0.8-1.4c0-0.6,0.5-1,1-1c0.4,0,0.6,0.2,0.8,0.4
		c1.6,1.7,3.4,2.7,6.4,2.7c3.6,0,6.3-2.1,6.3-5.5c0-3.3-2.4-5.5-6.6-5.5h-2.2c-0.6,0-1-0.4-1-1c0-0.6,0.4-1,1-1h2.1
		c3.5,0,5.7-2.2,5.7-4.9c0-2.7-1.9-4.4-5.1-4.4c-1.9,0-3.3,0.5-4.7,1.4c-0.3,0.2-0.6,0.3-0.9,0.3c-0.6,0-0.9-0.4-0.9-0.9
		c0-0.6,0.3-0.9,0.8-1.2c1.7-1.1,3.9-1.6,5.8-1.6c4.5,0,7.3,2.4,7.3,6.2c0,2.5-1.5,4.7-4.2,6c2.8,0.6,5.4,3,5.4,6.6
		C195.8,76.5,192.7,79.9,187.3,79.9z"/>
	<path fill="#FFFFFF" d="M215.1,79.4h-13.9c-0.5,0-1-0.5-1-1v-1.3c0-5.5,3.4-7.8,7-10.1c4.6-3.1,6.4-4.5,6.4-7.3c0-2.7-2.1-4-5.4-4
		c-2.3,0-4.1,0.7-5.9,2.1c-0.2,0.2-0.4,0.3-0.7,0.3c-0.6,0-1-0.4-1-1c0-0.6,0.4-0.9,1-1.3c1.7-1.2,4-2.1,6.8-2.1
		c4.2,0,7.5,1.9,7.5,6c0,2.9-1.8,5.1-6.8,8.4c-4.7,3.1-6.5,4.8-6.5,8.7v0.6h12.7c0.6,0,1,0.4,1,0.9S215.6,79.4,215.1,79.4z"/>
</g>
<g>
	<path fill="#FFFFFF" d="M38.4,43.7c0,0.1,0.1,0.2,0.1,0.3c0,0.3-0.2,0.6-0.7,0.6c-0.3,0-0.5-0.2-0.6-0.4l-0.8-2.1h-4l-0.8,2.1
		c-0.1,0.2-0.3,0.4-0.6,0.4c-0.4,0-0.7-0.3-0.7-0.6c0-0.1,0-0.2,0.1-0.3l3.3-8.9c0.1-0.3,0.3-0.5,0.6-0.5c0.4,0,0.5,0.2,0.6,0.5
		L38.4,43.7z M34.4,36.5l-1.6,4.4H36L34.4,36.5z"/>
	<path fill="#FFFFFF" d="M46.7,44.6c-0.2,0-0.4-0.1-0.6-0.3l-4.7-7.2v6.8c0,0.3-0.3,0.6-0.6,0.6s-0.6-0.3-0.6-0.6V35
		c0-0.4,0.3-0.6,0.6-0.6c0.3,0,0.4,0.1,0.6,0.3l4.7,7.2V35c0-0.4,0.3-0.6,0.6-0.6c0.4,0,0.6,0.3,0.6,0.6v8.9
		C47.3,44.2,47.1,44.6,46.7,44.6z"/>
	<path fill="#FFFFFF" d="M51.6,35.7h-2.3c-0.3,0-0.6-0.3-0.6-0.6c0-0.3,0.3-0.6,0.6-0.6h6c0.3,0,0.6,0.3,0.6,0.6
		c0,0.4-0.3,0.6-0.6,0.6h-2.3v8.2c0,0.4-0.3,0.7-0.7,0.7c-0.4,0-0.7-0.3-0.7-0.7V35.7z"/>
	<path fill="#FFFFFF" d="M58.5,38.7H61c0.3,0,0.6,0.3,0.6,0.6c0,0.3-0.3,0.6-0.6,0.6h-2.5v3.3h4.2c0.3,0,0.6,0.3,0.6,0.6
		c0,0.3-0.3,0.6-0.6,0.6h-4.9c-0.4,0-0.7-0.3-0.7-0.7v-8.6c0-0.4,0.3-0.7,0.7-0.7h4.8c0.3,0,0.6,0.3,0.6,0.6c0,0.4-0.3,0.6-0.6,0.6
		h-4.1V38.7z"/>
	<path fill="#FFFFFF" d="M66.5,43.9c0,0.4-0.3,0.7-0.7,0.7s-0.7-0.3-0.7-0.7V35c0-0.4,0.3-0.7,0.7-0.7s0.7,0.3,0.7,0.7V43.9z"/>
	<path fill="#FFFFFF" d="M70.3,43.2h3.9c0.3,0,0.6,0.3,0.6,0.6c0,0.3-0.3,0.6-0.6,0.6h-4.6c-0.4,0-0.7-0.3-0.7-0.7V35
		c0-0.4,0.3-0.7,0.7-0.7s0.7,0.3,0.7,0.7V43.2z"/>
	<path fill="#FFFFFF" d="M40.1,79.9c-3.2,0-5.9-1.3-7.6-3.3c-0.2-0.2-0.3-0.4-0.3-0.8c0-0.6,0.4-0.9,0.9-0.9c0.4,0,0.6,0.2,0.7,0.3
		c1.8,1.8,3.3,2.7,6.2,2.7c4.1,0,6.2-3,6.2-6.3c0-3.7-2.2-6-5.8-6c-2.1,0-3.7,0.8-5.1,2c-0.3,0.3-0.6,0.5-1.1,0.5
		c-0.8,0-1.1-0.6-1.1-1.3l1.3-11.8c0.1-0.7,0.5-1,1.1-1h10.7c0.5,0,1,0.4,1,0.9c0,0.5-0.4,1-1,1h-9.8l-1,9.4
		c1.5-1.3,3.3-1.7,5.2-1.7c4.9,0,7.8,3.5,7.8,7.8C48.5,76,45.6,79.9,40.1,79.9z"/>
	<path fill="#FFFFFF" d="M69.6,72.3h-3.4v6.3c0,0.6-0.4,1.1-1.1,1.1c-0.6,0-1.1-0.5-1.1-1.1v-6.4H52.2c-0.6,0-1-0.4-1-0.9
		c0-0.3,0.1-0.5,0.3-0.7l12.7-16.3c0.3-0.4,0.5-0.5,1-0.5c0.6,0,1,0.4,1,1.1v15.5h3.3c0.5,0,1,0.4,1,0.9S70.1,72.3,69.6,72.3z
		 M64,57.5l-9.8,12.9H64V57.5z"/>
	<path fill="#FFFFFF" d="M74.7,76.6c0.9,0,1.6,0.7,1.6,1.6c0,0.9-0.7,1.6-1.6,1.6c-0.9,0-1.6-0.7-1.6-1.6
		C73.2,77.2,73.9,76.6,74.7,76.6z"/>
	<path fill="#FFFFFF" d="M84.8,79.7c-0.6,0-1.1-0.5-1.1-1.1V56.2l-4.4,1.4c-0.2,0-0.3,0.1-0.5,0.1c-0.5,0-1.1-0.3-1.1-1
		s0.3-0.8,0.8-1L84,54c0.3-0.1,0.5-0.2,0.8-0.2c0.7,0,1.1,0.4,1.1,1.1v23.7C85.9,79.2,85.4,79.7,84.8,79.7z"/>
	<path fill="#FFFFFF" d="M97.1,66c-3.3,0-5.4-2.8-5.4-6.2c0-3.4,2.1-6.2,5.4-6.2c3.3,0,5.4,2.8,5.4,6.2C102.5,63.2,100.4,66,97.1,66
		z M97.1,64.3c2.3,0,3.5-2.2,3.5-4.5s-1.2-4.5-3.5-4.5c-2.3,0-3.5,2.2-3.5,4.5S94.9,64.3,97.1,64.3z M111.8,55.4L96.9,79.4
		c-0.2,0.3-0.5,0.5-0.8,0.5c-0.6,0-1-0.4-1-1c0-0.3,0.2-0.5,0.3-0.6l14.9-23.9c0.2-0.4,0.5-0.6,0.8-0.6c0.5,0,1,0.3,1,0.9
		C112.1,55,112,55.2,111.8,55.4z M110.2,79.9c-3.3,0-5.4-2.8-5.4-6.2s2.1-6.2,5.4-6.2c3.3,0,5.4,2.8,5.4,6.2S113.5,79.9,110.2,79.9z
		 M110.2,78.2c2.3,0,3.5-2.2,3.5-4.5s-1.2-4.5-3.5-4.5c-2.3,0-3.5,2.2-3.5,4.5S107.9,78.2,110.2,78.2z"/>
</g>
<g>
	<path fill="#FFFFFF" d="M252.7,44.4h-5.4c-0.4,0-0.6-0.3-0.6-0.6c0-0.1,0.1-0.3,0.1-0.4l4.7-7.8h-4.2c-0.4,0-0.6-0.2-0.6-0.6
		c0-0.3,0.3-0.6,0.6-0.6h5.3c0.3,0,0.6,0.2,0.6,0.6c0,0.2-0.1,0.3-0.1,0.4l-4.7,7.8h4.3c0.3,0,0.6,0.2,0.6,0.6
		C253.3,44.2,253,44.4,252.7,44.4z"/>
	<path fill="#FFFFFF" d="M261.1,35c0-0.4,0.3-0.7,0.7-0.7c0.4,0,0.7,0.3,0.7,0.7v5.8c0,2.4-1.3,3.8-3.7,3.8s-3.7-1.4-3.7-3.8V35
		c0-0.4,0.3-0.7,0.7-0.7c0.4,0,0.7,0.3,0.7,0.7v5.9c0,1.6,0.8,2.5,2.3,2.5c1.5,0,2.3-0.9,2.3-2.5V35z"/>
	<path fill="#FFFFFF" d="M265.6,45.9c-0.1,0.2-0.2,0.4-0.6,0.4c-0.3,0-0.6-0.2-0.6-0.5c0-0.1,0-0.2,0-0.2l3.4-11.4
		c0.1-0.3,0.2-0.4,0.6-0.4c0.4,0,0.6,0.2,0.6,0.6c0,0.1,0,0.2,0,0.3L265.6,45.9z"/>
	<path fill="#FFFFFF" d="M277.8,43.7c0,0.1,0.1,0.2,0.1,0.3c0,0.3-0.2,0.6-0.7,0.6c-0.3,0-0.5-0.2-0.6-0.4l-0.8-2.1h-4l-0.8,2.1
		c-0.1,0.2-0.3,0.4-0.6,0.4c-0.4,0-0.7-0.3-0.7-0.6c0-0.1,0-0.2,0.1-0.3l3.3-8.9c0.1-0.3,0.3-0.5,0.6-0.5c0.4,0,0.5,0.2,0.6,0.5
		L277.8,43.7z M273.8,36.5l-1.6,4.4h3.1L273.8,36.5z"/>
	<path fill="#FFFFFF" d="M283,44.4h-2.8c-0.4,0-0.7-0.3-0.7-0.7v-8.6c0-0.4,0.3-0.7,0.7-0.7h2.7c1.8,0,2.9,1,2.9,2.5
		c0,1-0.6,1.9-1.5,2.2c1.2,0.3,2,1,2,2.4C286.4,43.2,285.3,44.4,283,44.4z M282.9,35.7h-2v3h2c1,0,1.5-0.8,1.5-1.5
		C284.5,36.2,283.9,35.7,282.9,35.7z M283.1,39.9h-2.2v3.3h2.2c1.3,0,1.9-0.7,1.9-1.6C285,40.5,284.3,39.9,283.1,39.9z"/>
	<path fill="#FFFFFF" d="M291.2,44.6c-1.3,0-2.4-0.5-3.1-1.2c-0.2-0.2-0.3-0.4-0.3-0.7c0-0.4,0.2-0.6,0.6-0.6c0.2,0,0.3,0.1,0.5,0.3
		c0.6,0.6,1.3,1,2.4,1c1.4,0,1.9-0.6,1.9-1.4c0-0.9-0.8-1.4-2.4-2.1c-2.1-0.9-2.8-1.7-2.8-3.1c0-1.7,1.4-2.5,3.3-2.5
		c0.8,0,1.5,0.2,2.2,0.5c0.5,0.2,0.9,0.6,0.9,1c0,0.3-0.2,0.6-0.6,0.6c-0.2,0-0.4-0.1-0.5-0.2c-0.6-0.4-1.2-0.6-2-0.6
		c-1.1,0-1.9,0.4-1.9,1.3c0,0.8,0.6,1.3,2.1,1.9c1.9,0.9,3.1,1.6,3.1,3.2C294.5,43.4,293.4,44.6,291.2,44.6z"/>
	<path fill="#FFFFFF" d="M298.1,35.7h-2.3c-0.3,0-0.6-0.3-0.6-0.6c0-0.3,0.3-0.6,0.6-0.6h6c0.3,0,0.6,0.3,0.6,0.6
		c0,0.4-0.3,0.6-0.6,0.6h-2.3v8.2c0,0.4-0.3,0.7-0.7,0.7c-0.4,0-0.7-0.3-0.7-0.7V35.7z"/>
	<path fill="#FFFFFF" d="M305.2,43.9c0,0.4-0.3,0.7-0.7,0.7s-0.7-0.3-0.7-0.7V35c0-0.4,0.3-0.7,0.7-0.7s0.7,0.3,0.7,0.7V43.9z"/>
	<path fill="#FFFFFF" d="M309,38.7h2.5c0.3,0,0.6,0.3,0.6,0.6c0,0.3-0.3,0.6-0.6,0.6H309v3.3h4.2c0.3,0,0.6,0.3,0.6,0.6
		c0,0.3-0.3,0.6-0.6,0.6h-4.9c-0.4,0-0.7-0.3-0.7-0.7v-8.6c0-0.4,0.3-0.7,0.7-0.7h4.8c0.3,0,0.6,0.3,0.6,0.6c0,0.4-0.3,0.6-0.6,0.6
		H309V38.7z"/>
	<path fill="#FFFFFF" d="M322.3,43.4c-0.9,0.8-1.9,1.2-3.3,1.2c-2.6,0-4.2-2-4.2-5.2c0-3.1,1.8-5.2,4.2-5.2c1.3,0,2.3,0.6,3,1.4
		c0.1,0.1,0.2,0.3,0.2,0.5c0,0.3-0.2,0.6-0.6,0.6c-0.2,0-0.4-0.1-0.5-0.3c-0.6-0.6-1.1-0.9-2-0.9c-1.7,0-2.8,1.5-2.8,3.9
		c0,2.4,1.1,4,3,4c0.8,0,1.5-0.2,2.1-0.7v-2.1h-1.7c-0.3,0-0.6-0.3-0.6-0.6c0-0.3,0.3-0.6,0.6-0.6h2.3c0.4,0,0.7,0.3,0.7,0.7v2.8
		C322.5,43.1,322.4,43.3,322.3,43.4z"/>
	<path fill="#FFFFFF" d="M263.7,68.1h-6.3v6.5c0,0.6-0.4,1.1-1,1.1c-0.6,0-1-0.5-1-1v-6.6h-6.3c-0.6,0-1-0.4-1-0.9c0-0.5,0.5-1,1-1
		h6.3v-6.5c0-0.6,0.5-1.1,1.1-1.1c0.6,0,1,0.5,1,1v6.6h6.3c0.5,0,1,0.4,1,1C264.7,67.7,264.3,68.1,263.7,68.1z"/>
	<path fill="#FFFFFF" d="M277.5,79.9c-5.3,0-8.4-3.7-8.4-8.7c0-7.4,4-13.7,10-17c0.5-0.3,0.9-0.5,1.6-0.5c0.6,0,0.9,0.3,0.9,0.8
		c0,0.5-0.5,0.8-1.1,1.1c-5,2.7-7.9,6.8-9.4,12.4c1.2-2.4,3.9-3.7,6.8-3.7c4.4,0,7.7,2.9,7.7,7.7C285.7,76.2,282.6,79.9,277.5,79.9z
		 M271.4,72c0,3.4,2,6.1,6.1,6.1c3.8,0,6-2.6,6-6c0-3.3-2.1-5.9-5.8-5.9C274.2,66.1,271.4,68.6,271.4,72z"/>
	<path fill="#FFFFFF" d="M295.2,66c-3.3,0-5.4-2.8-5.4-6.2c0-3.4,2.1-6.2,5.4-6.2c3.3,0,5.4,2.8,5.4,6.2
		C300.6,63.2,298.5,66,295.2,66z M295.2,64.3c2.3,0,3.5-2.2,3.5-4.5s-1.2-4.5-3.5-4.5c-2.3,0-3.5,2.2-3.5,4.5S292.9,64.3,295.2,64.3
		z M309.9,55.4L295,79.4c-0.2,0.3-0.5,0.5-0.8,0.5c-0.6,0-1-0.4-1-1c0-0.3,0.2-0.5,0.3-0.6l14.9-23.9c0.2-0.4,0.5-0.6,0.8-0.6
		c0.5,0,1,0.3,1,0.9C310.2,55,310,55.2,309.9,55.4z M308.3,79.9c-3.3,0-5.4-2.8-5.4-6.2s2.1-6.2,5.4-6.2c3.3,0,5.4,2.8,5.4,6.2
		S311.6,79.9,308.3,79.9z M308.3,78.2c2.3,0,3.5-2.2,3.5-4.5s-1.2-4.5-3.5-4.5c-2.3,0-3.5,2.2-3.5,4.5S306,78.2,308.3,78.2z"/>
</g>
<g>
	<path fill="#FFFFFF" d="M354.4,43.1c-0.8-0.9-1.2-2.3-1.2-3.7c0-2.8,1.6-5.2,4.2-5.2c1,0,1.8,0.3,2.4,0.9l1-1.5
		c0.1-0.1,0.1-0.2,0.3-0.2c0.2,0,0.4,0.2,0.4,0.4c0,0.1,0,0.2-0.1,0.3l-1.1,1.6c0.8,0.9,1.2,2.3,1.2,3.7c0,2.8-1.6,5.2-4.2,5.2
		c-1,0-1.8-0.3-2.4-0.9l-1,1.4c-0.1,0.1-0.2,0.2-0.3,0.2c-0.2,0-0.4-0.2-0.4-0.4c0-0.1,0-0.1,0.1-0.2L354.4,43.1z M355.2,42l4-5.8
		c-0.5-0.4-1-0.7-1.7-0.7c-1.9,0-2.8,1.9-2.8,4C354.6,40.4,354.8,41.3,355.2,42z M359.7,36.9l-4,5.8c0.4,0.4,1,0.7,1.7,0.7
		c1.9,0,2.8-1.9,2.8-4C360.3,38.5,360.1,37.6,359.7,36.9z"/>
	<path fill="#FFFFFF" d="M374.5,43.7c0,0.1,0.1,0.2,0.1,0.3c0,0.3-0.2,0.6-0.7,0.6c-0.3,0-0.5-0.2-0.6-0.4l-0.8-2.1h-4l-0.8,2.1
		c-0.1,0.2-0.3,0.4-0.6,0.4c-0.4,0-0.7-0.3-0.7-0.6c0-0.1,0-0.2,0.1-0.3l3.3-8.9c0.1-0.3,0.3-0.5,0.6-0.5c0.4,0,0.5,0.2,0.6,0.5
		L374.5,43.7z M370.6,36.5l-1.6,4.4h3.1L370.6,36.5z"/>
	<path fill="#FFFFFF" d="M377.6,43.2h3.9c0.3,0,0.6,0.3,0.6,0.6c0,0.3-0.3,0.6-0.6,0.6h-4.6c-0.4,0-0.7-0.3-0.7-0.7V35
		c0-0.4,0.3-0.7,0.7-0.7s0.7,0.3,0.7,0.7V43.2z"/>
	<path fill="#FFFFFF" d="M384.1,35.7h-2.3c-0.3,0-0.6-0.3-0.6-0.6c0-0.3,0.3-0.6,0.6-0.6h6c0.3,0,0.6,0.3,0.6,0.6
		c0,0.4-0.3,0.6-0.6,0.6h-2.3v8.2c0,0.4-0.3,0.7-0.7,0.7c-0.4,0-0.7-0.3-0.7-0.7V35.7z"/>
	<path fill="#FFFFFF" d="M391,38.7h2.5c0.3,0,0.6,0.3,0.6,0.6c0,0.3-0.3,0.6-0.6,0.6H391v3.3h4.2c0.3,0,0.6,0.3,0.6,0.6
		c0,0.3-0.3,0.6-0.6,0.6h-4.9c-0.4,0-0.7-0.3-0.7-0.7v-8.6c0-0.4,0.3-0.7,0.7-0.7h4.8c0.3,0,0.6,0.3,0.6,0.6c0,0.4-0.3,0.6-0.6,0.6
		H391V38.7z"/>
	<path fill="#FFFFFF" d="M398.3,34.5h2.9c2.1,0,3.4,1,3.4,3c0,1.2-0.7,2.3-1.9,2.7l1.8,3.5c0.1,0.1,0.1,0.2,0.1,0.3
		c0,0.3-0.2,0.7-0.7,0.7c-0.3,0-0.5-0.1-0.6-0.4l-2-3.9h-2.4v3.6c0,0.4-0.3,0.7-0.7,0.7c-0.4,0-0.7-0.3-0.7-0.7v-8.7
		C397.6,34.7,397.9,34.5,398.3,34.5z M398.9,39.1h2.5c1.2,0,1.7-0.7,1.7-1.7c0-1-0.6-1.7-1.7-1.7h-2.5V39.1z"/>
	<path fill="#FFFFFF" d="M369.7,79.4h-13.9c-0.5,0-1-0.5-1-1v-1.3c0-5.5,3.4-7.8,7-10.1c4.6-3.1,6.4-4.5,6.4-7.3c0-2.7-2.1-4-5.4-4
		c-2.3,0-4.1,0.7-5.9,2.1c-0.2,0.2-0.4,0.3-0.7,0.3c-0.6,0-1-0.4-1-1c0-0.6,0.4-0.9,1-1.3c1.7-1.2,4-2.1,6.8-2.1
		c4.2,0,7.5,1.9,7.5,6c0,2.9-1.8,5.1-6.8,8.4c-4.7,3.1-6.5,4.8-6.5,8.7v0.6h12.7c0.6,0,1,0.4,1,0.9S370.2,79.4,369.7,79.4z"/>
	<path fill="#FFFFFF" d="M382.5,79.9c-3.2,0-5.9-1.3-7.6-3.3c-0.2-0.2-0.3-0.4-0.3-0.8c0-0.6,0.4-0.9,0.9-0.9c0.4,0,0.6,0.2,0.7,0.3
		c1.8,1.8,3.3,2.7,6.2,2.7c4.1,0,6.2-3,6.2-6.3c0-3.7-2.2-6-5.8-6c-2.1,0-3.7,0.8-5.1,2c-0.3,0.3-0.6,0.5-1.1,0.5
		c-0.8,0-1.1-0.6-1.1-1.3l1.3-11.8c0.1-0.7,0.5-1,1.1-1h10.7c0.5,0,1,0.4,1,0.9c0,0.5-0.4,1-1,1h-9.8l-1,9.4
		c1.5-1.3,3.3-1.7,5.2-1.7c4.9,0,7.8,3.5,7.8,7.8C390.9,76,387.9,79.9,382.5,79.9z"/>
	<path fill="#FFFFFF" d="M396.6,76.6c0.9,0,1.6,0.7,1.6,1.6c0,0.9-0.7,1.6-1.6,1.6c-0.9,0-1.6-0.7-1.6-1.6
		C395.1,77.2,395.7,76.6,396.6,76.6z"/>
	<path fill="#FFFFFF" d="M409.8,53.7c5.5,0,8.4,3.6,8.4,8.7c0,7.3-4,13.7-10,17c-0.5,0.3-1,0.5-1.6,0.5c-0.6,0-1-0.3-1-0.8
		c0-0.5,0.5-0.8,1.1-1.1c5.3-2.8,8.1-7.4,9.4-12.4c-1.2,2.4-4,3.7-6.8,3.7c-4.6,0-7.7-3.2-7.7-7.7S405,53.7,409.8,53.7z M415.9,61.6
		c0-3.4-2-6.1-6.1-6.1c-3.6,0-6,2.7-6,6c0,3.5,1.8,5.9,5.8,5.9C413.1,67.4,415.9,65,415.9,61.6z"/>
	<path fill="#FFFFFF" d="M429.9,79.9c-3.2,0-5.9-1.3-7.6-3.3c-0.2-0.2-0.3-0.4-0.3-0.8c0-0.6,0.4-0.9,0.9-0.9c0.4,0,0.6,0.2,0.7,0.3
		c1.8,1.8,3.3,2.7,6.2,2.7c4.1,0,6.2-3,6.2-6.3c0-3.7-2.2-6-5.8-6c-2.1,0-3.7,0.8-5.1,2c-0.3,0.3-0.6,0.5-1.1,0.5
		c-0.8,0-1.1-0.6-1.1-1.3l1.3-11.8c0.1-0.7,0.5-1,1.1-1H436c0.5,0,1,0.4,1,0.9c0,0.5-0.4,1-1,1h-9.8l-1,9.4c1.5-1.3,3.3-1.7,5.2-1.7
		c4.9,0,7.8,3.5,7.8,7.8C438.3,76,435.4,79.9,429.9,79.9z"/>
</g>
<g>
	<g>
		<path fill="#FFFFFF" d="M882.2,43.9c0,0.4-0.3,0.6-0.6,0.6s-0.6-0.3-0.6-0.6v-6l-2.6,6.2c-0.1,0.2-0.3,0.4-0.6,0.4
			c-0.3,0-0.5-0.2-0.6-0.4l-2.6-6.2v6c0,0.4-0.3,0.6-0.6,0.6c-0.4,0-0.6-0.3-0.6-0.6V35c0-0.4,0.3-0.6,0.6-0.6
			c0.3,0,0.5,0.1,0.6,0.4l3.2,7.7l3.2-7.7c0.1-0.3,0.3-0.4,0.6-0.4c0.4,0,0.6,0.2,0.6,0.6V43.9z"/>
		<path fill="#FFFFFF" d="M892,43.7c0,0.1,0.1,0.2,0.1,0.3c0,0.3-0.2,0.6-0.7,0.6c-0.3,0-0.5-0.2-0.6-0.4l-0.8-2.1h-4l-0.8,2.1
			c-0.1,0.2-0.3,0.4-0.6,0.4c-0.4,0-0.7-0.3-0.7-0.6c0-0.1,0-0.2,0.1-0.3l3.3-8.9c0.1-0.3,0.3-0.5,0.6-0.5c0.4,0,0.5,0.2,0.6,0.5
			L892,43.7z M886.8,32c0.4,0,0.7,0.3,0.7,0.7c0,0.4-0.3,0.7-0.7,0.7s-0.7-0.3-0.7-0.7C886,32.4,886.4,32,886.8,32z M888,36.5
			l-1.6,4.4h3.2L888,36.5z M889.3,32c0.4,0,0.7,0.3,0.7,0.7c0,0.4-0.3,0.7-0.7,0.7s-0.7-0.3-0.7-0.7C888.5,32.4,888.9,32,889.3,32z"
			/>
		<path fill="#FFFFFF" d="M900.3,44.6c-0.2,0-0.4-0.1-0.6-0.3l-4.7-7.2v6.8c0,0.3-0.3,0.6-0.6,0.6s-0.6-0.3-0.6-0.6V35
			c0-0.4,0.3-0.6,0.6-0.6c0.3,0,0.4,0.1,0.6,0.3l4.7,7.2V35c0-0.4,0.3-0.6,0.6-0.6c0.4,0,0.6,0.3,0.6,0.6v8.9
			C901,44.2,900.7,44.6,900.3,44.6z"/>
		<path fill="#FFFFFF" d="M909.9,44.6c-0.2,0-0.4-0.1-0.6-0.3l-4.7-7.2v6.8c0,0.3-0.3,0.6-0.6,0.6s-0.6-0.3-0.6-0.6V35
			c0-0.4,0.3-0.6,0.6-0.6c0.3,0,0.4,0.1,0.6,0.3l4.7,7.2V35c0-0.4,0.3-0.6,0.6-0.6c0.4,0,0.6,0.3,0.6,0.6v8.9
			C910.5,44.2,910.3,44.6,909.9,44.6z"/>
		<path fill="#FFFFFF" d="M914.3,38.7h2.5c0.3,0,0.6,0.3,0.6,0.6c0,0.3-0.3,0.6-0.6,0.6h-2.5v3.3h4.2c0.3,0,0.6,0.3,0.6,0.6
			c0,0.3-0.3,0.6-0.6,0.6h-4.9c-0.4,0-0.7-0.3-0.7-0.7v-8.6c0-0.4,0.3-0.7,0.7-0.7h4.8c0.3,0,0.6,0.3,0.6,0.6c0,0.4-0.3,0.6-0.6,0.6
			h-4.1V38.7z"/>
		<path fill="#FFFFFF" d="M921.5,34.5h2.9c2.1,0,3.4,1,3.4,3c0,1.2-0.7,2.3-1.9,2.7l1.8,3.5c0.1,0.1,0.1,0.2,0.1,0.3
			c0,0.3-0.2,0.7-0.7,0.7c-0.3,0-0.5-0.1-0.6-0.4l-2-3.9h-2.4v3.6c0,0.4-0.3,0.7-0.7,0.7c-0.4,0-0.7-0.3-0.7-0.7v-8.7
			C920.8,34.7,921.1,34.5,921.5,34.5z M922.2,39.1h2.5c1.2,0,1.7-0.7,1.7-1.7c0-1-0.6-1.7-1.7-1.7h-2.5V39.1z"/>
		<path fill="#FFFFFF" d="M879.7,79.7c-0.6,0-1.1-0.5-1.1-1.1V56.2l-4.4,1.4c-0.2,0-0.3,0.1-0.5,0.1c-0.5,0-1.1-0.3-1.1-1
			s0.3-0.8,0.8-1L879,54c0.3-0.1,0.5-0.2,0.8-0.2c0.7,0,1.1,0.4,1.1,1.1v23.7C880.8,79.2,880.4,79.7,879.7,79.7z"/>
		<path fill="#FFFFFF" d="M895.5,79.9c-6.1,0-9.2-5.8-9.2-13.1c0-7.3,3.1-13.1,9.2-13.1s9.2,5.8,9.2,13.1
			C904.6,74.1,901.6,79.9,895.5,79.9z M902.4,66.8c0-6.2-2.1-11.2-7-11.2s-7,5-7,11.2c0,6.2,2.1,11.2,7,11.2S902.4,73,902.4,66.8z"
			/>
		<path fill="#FFFFFF" d="M925.9,72.3h-3.4v6.3c0,0.6-0.4,1.1-1.1,1.1c-0.6,0-1.1-0.5-1.1-1.1v-6.4h-11.8c-0.6,0-1-0.4-1-0.9
			c0-0.3,0.1-0.5,0.3-0.7l12.7-16.3c0.3-0.4,0.5-0.5,1-0.5c0.6,0,1,0.4,1,1.1v15.5h3.3c0.5,0,1,0.4,1,0.9S926.4,72.3,925.9,72.3z
			 M920.4,57.5l-9.8,12.9h9.8V57.5z"/>
		<path fill="#FFFFFF" d="M937.7,79.9c-3.2,0-5.9-1.3-7.6-3.3c-0.2-0.2-0.3-0.4-0.3-0.8c0-0.6,0.4-0.9,0.9-0.9
			c0.4,0,0.6,0.2,0.7,0.3c1.8,1.8,3.3,2.7,6.2,2.7c4.1,0,6.2-3,6.2-6.3c0-3.7-2.2-6-5.8-6c-2.1,0-3.7,0.8-5.1,2
			c-0.3,0.3-0.6,0.5-1.1,0.5c-0.8,0-1.1-0.6-1.1-1.3l1.3-11.8c0.1-0.7,0.5-1,1.1-1h10.7c0.5,0,1,0.4,1,0.9c0,0.5-0.4,1-1,1H934
			l-1,9.4c1.5-1.3,3.3-1.7,5.2-1.7c4.9,0,7.8,3.5,7.8,7.8C946.1,76,943.2,79.9,937.7,79.9z"/>
	</g>
	<g>
		<path fill="#FFFFFF" d="M754.8,43.7c0,0.1,0.1,0.2,0.1,0.3c0,0.3-0.2,0.6-0.7,0.6c-0.3,0-0.5-0.2-0.6-0.4l-0.8-2.1h-4l-0.8,2.1
			c-0.1,0.2-0.3,0.4-0.6,0.4c-0.4,0-0.7-0.3-0.7-0.6c0-0.1,0-0.2,0.1-0.3l3.3-8.9c0.1-0.3,0.3-0.5,0.6-0.5c0.4,0,0.5,0.2,0.6,0.5
			L754.8,43.7z M750.8,36.5l-1.6,4.4h3.1L750.8,36.5z"/>
		<path fill="#FFFFFF" d="M763,44.6c-0.2,0-0.4-0.1-0.6-0.3l-4.7-7.2v6.8c0,0.3-0.3,0.6-0.6,0.6s-0.6-0.3-0.6-0.6V35
			c0-0.4,0.3-0.6,0.6-0.6c0.3,0,0.4,0.1,0.6,0.3l4.7,7.2V35c0-0.4,0.3-0.6,0.6-0.6c0.4,0,0.6,0.3,0.6,0.6v8.9
			C763.7,44.2,763.5,44.6,763,44.6z"/>
		<path fill="#FFFFFF" d="M767.9,35.7h-2.3c-0.3,0-0.6-0.3-0.6-0.6c0-0.3,0.3-0.6,0.6-0.6h6c0.3,0,0.6,0.3,0.6,0.6
			c0,0.4-0.3,0.6-0.6,0.6h-2.3v8.2c0,0.4-0.3,0.7-0.7,0.7c-0.4,0-0.7-0.3-0.7-0.7V35.7z"/>
		<path fill="#FFFFFF" d="M774.9,38.7h2.5c0.3,0,0.6,0.3,0.6,0.6c0,0.3-0.3,0.6-0.6,0.6h-2.5v3.3h4.2c0.3,0,0.6,0.3,0.6,0.6
			c0,0.3-0.3,0.6-0.6,0.6h-4.9c-0.4,0-0.7-0.3-0.7-0.7v-8.6c0-0.4,0.3-0.7,0.7-0.7h4.8c0.3,0,0.6,0.3,0.6,0.6c0,0.4-0.3,0.6-0.6,0.6
			h-4.1V38.7z"/>
		<path fill="#FFFFFF" d="M782.8,43.9c0,0.4-0.3,0.7-0.7,0.7s-0.7-0.3-0.7-0.7V35c0-0.4,0.3-0.7,0.7-0.7s0.7,0.3,0.7,0.7V43.9z"/>
		<path fill="#FFFFFF" d="M786.7,43.2h3.9c0.3,0,0.6,0.3,0.6,0.6c0,0.3-0.3,0.6-0.6,0.6H786c-0.4,0-0.7-0.3-0.7-0.7V35
			c0-0.4,0.3-0.7,0.7-0.7s0.7,0.3,0.7,0.7V43.2z"/>
		<path fill="#FFFFFF" d="M765.5,72.3h-3.4v6.3c0,0.6-0.4,1.1-1.1,1.1c-0.6,0-1.1-0.5-1.1-1.1v-6.4h-11.8c-0.6,0-1-0.4-1-0.9
			c0-0.3,0.1-0.5,0.3-0.7l12.7-16.3c0.3-0.4,0.5-0.5,1-0.5c0.6,0,1,0.4,1,1.1v15.5h3.3c0.5,0,1,0.4,1,0.9S766,72.3,765.5,72.3z
			 M760,57.5l-9.8,12.9h9.8V57.5z"/>
		<path fill="#FFFFFF" d="M777.3,79.9c-3.2,0-5.9-1.3-7.6-3.3c-0.2-0.2-0.3-0.4-0.3-0.8c0-0.6,0.4-0.9,0.9-0.9
			c0.4,0,0.6,0.2,0.7,0.3c1.8,1.8,3.3,2.7,6.2,2.7c4.1,0,6.2-3,6.2-6.3c0-3.7-2.2-6-5.8-6c-2.1,0-3.7,0.8-5.1,2
			c-0.3,0.3-0.6,0.5-1.1,0.5c-0.8,0-1.1-0.6-1.1-1.3l1.3-11.8c0.1-0.7,0.5-1,1.1-1h10.7c0.5,0,1,0.4,1,0.9c0,0.5-0.4,1-1,1h-9.8
			l-1,9.4c1.5-1.3,3.3-1.7,5.2-1.7c4.9,0,7.8,3.5,7.8,7.8C785.7,76,782.8,79.9,777.3,79.9z"/>
		<path fill="#FFFFFF" d="M791.4,76.6c0.9,0,1.6,0.7,1.6,1.6c0,0.9-0.7,1.6-1.6,1.6c-0.9,0-1.6-0.7-1.6-1.6
			C789.9,77.2,790.6,76.6,791.4,76.6z"/>
		<path fill="#FFFFFF" d="M804.7,53.7c5.5,0,8.4,3.6,8.4,8.7c0,7.3-4,13.7-10,17c-0.5,0.3-1,0.5-1.6,0.5c-0.6,0-1-0.3-1-0.8
			c0-0.5,0.5-0.8,1.1-1.1c5.3-2.8,8.1-7.4,9.4-12.4c-1.2,2.4-4,3.7-6.8,3.7c-4.6,0-7.7-3.2-7.7-7.7S799.8,53.7,804.7,53.7z
			 M810.7,61.6c0-3.4-2-6.1-6.1-6.1c-3.6,0-6,2.7-6,6c0,3.5,1.8,5.9,5.8,5.9C808,67.4,810.7,65,810.7,61.6z"/>
		<path fill="#FFFFFF" d="M823.3,66c-3.3,0-5.4-2.8-5.4-6.2c0-3.4,2.1-6.2,5.4-6.2c3.3,0,5.4,2.8,5.4,6.2
			C828.7,63.2,826.6,66,823.3,66z M823.3,64.3c2.3,0,3.5-2.2,3.5-4.5s-1.2-4.5-3.5-4.5c-2.3,0-3.5,2.2-3.5,4.5S821,64.3,823.3,64.3z
			 M837.9,55.4l-14.9,23.9c-0.2,0.3-0.5,0.5-0.8,0.5c-0.6,0-1-0.4-1-1c0-0.3,0.2-0.5,0.3-0.6l14.9-23.9c0.2-0.4,0.5-0.6,0.8-0.6
			c0.5,0,1,0.3,1,0.9C838.2,55,838.1,55.2,837.9,55.4z M836.3,79.9c-3.3,0-5.4-2.8-5.4-6.2s2.1-6.2,5.4-6.2c3.3,0,5.4,2.8,5.4,6.2
			S839.6,79.9,836.3,79.9z M836.3,78.2c2.3,0,3.5-2.2,3.5-4.5s-1.2-4.5-3.5-4.5c-2.3,0-3.5,2.2-3.5,4.5S834,78.2,836.3,78.2z"/>
	</g>
	<g>
		<path fill="#FFFFFF" d="M1084.2,43.1c-0.8-0.9-1.2-2.3-1.2-3.7c0-2.8,1.6-5.2,4.2-5.2c1,0,1.8,0.3,2.4,0.9l1-1.5
			c0.1-0.1,0.1-0.2,0.3-0.2c0.2,0,0.4,0.2,0.4,0.4c0,0.1,0,0.2-0.1,0.3l-1.1,1.6c0.8,0.9,1.2,2.3,1.2,3.7c0,2.8-1.6,5.2-4.2,5.2
			c-1,0-1.8-0.3-2.4-0.9l-1,1.4c-0.1,0.1-0.2,0.2-0.3,0.2c-0.2,0-0.4-0.2-0.4-0.4c0-0.1,0-0.1,0.1-0.2L1084.2,43.1z M1084.9,42
			l4-5.8c-0.5-0.4-1-0.7-1.7-0.7c-1.9,0-2.8,1.9-2.8,4C1084.4,40.4,1084.6,41.3,1084.9,42z M1089.4,36.9l-4,5.8
			c0.4,0.4,1,0.7,1.7,0.7c1.9,0,2.8-1.9,2.8-4C1090,38.5,1089.8,37.6,1089.4,36.9z"/>
		<path fill="#FFFFFF" d="M1104.3,43.7c0,0.1,0.1,0.2,0.1,0.3c0,0.3-0.2,0.6-0.7,0.6c-0.3,0-0.5-0.2-0.6-0.4l-0.8-2.1h-4l-0.8,2.1
			c-0.1,0.2-0.3,0.4-0.6,0.4c-0.4,0-0.7-0.3-0.7-0.6c0-0.1,0-0.2,0.1-0.3l3.3-8.9c0.1-0.3,0.3-0.5,0.6-0.5c0.4,0,0.5,0.2,0.6,0.5
			L1104.3,43.7z M1100.3,36.5l-1.6,4.4h3.1L1100.3,36.5z"/>
		<path fill="#FFFFFF" d="M1107.4,43.2h3.9c0.3,0,0.6,0.3,0.6,0.6c0,0.3-0.3,0.6-0.6,0.6h-4.6c-0.4,0-0.7-0.3-0.7-0.7V35
			c0-0.4,0.3-0.7,0.7-0.7s0.7,0.3,0.7,0.7V43.2z"/>
		<path fill="#FFFFFF" d="M1113.9,35.7h-2.3c-0.3,0-0.6-0.3-0.6-0.6c0-0.3,0.3-0.6,0.6-0.6h6c0.3,0,0.6,0.3,0.6,0.6
			c0,0.4-0.3,0.6-0.6,0.6h-2.3v8.2c0,0.4-0.3,0.7-0.7,0.7c-0.4,0-0.7-0.3-0.7-0.7V35.7z"/>
		<path fill="#FFFFFF" d="M1120.8,38.7h2.5c0.3,0,0.6,0.3,0.6,0.6c0,0.3-0.3,0.6-0.6,0.6h-2.5v3.3h4.2c0.3,0,0.6,0.3,0.6,0.6
			c0,0.3-0.3,0.6-0.6,0.6h-4.9c-0.4,0-0.7-0.3-0.7-0.7v-8.6c0-0.4,0.3-0.7,0.7-0.7h4.8c0.3,0,0.6,0.3,0.6,0.6c0,0.4-0.3,0.6-0.6,0.6
			h-4.1V38.7z"/>
		<path fill="#FFFFFF" d="M1128,34.5h2.9c2.1,0,3.4,1,3.4,3c0,1.2-0.7,2.3-1.9,2.7l1.8,3.5c0.1,0.1,0.1,0.2,0.1,0.3
			c0,0.3-0.2,0.7-0.7,0.7c-0.3,0-0.5-0.1-0.6-0.4l-2-3.9h-2.4v3.6c0,0.4-0.3,0.7-0.7,0.7c-0.4,0-0.7-0.3-0.7-0.7v-8.7
			C1127.4,34.7,1127.6,34.5,1128,34.5z M1128.7,39.1h2.5c1.2,0,1.7-0.7,1.7-1.7c0-1-0.6-1.7-1.7-1.7h-2.5V39.1z"/>
		<path fill="#FFFFFF" d="M1099.4,79.4h-13.9c-0.5,0-1-0.5-1-1v-1.3c0-5.5,3.4-7.8,7-10.1c4.6-3.1,6.4-4.5,6.4-7.3
			c0-2.7-2.1-4-5.4-4c-2.3,0-4.1,0.7-5.9,2.1c-0.2,0.2-0.4,0.3-0.7,0.3c-0.6,0-1-0.4-1-1c0-0.6,0.4-0.9,1-1.3c1.7-1.2,4-2.1,6.8-2.1
			c4.2,0,7.5,1.9,7.5,6c0,2.9-1.8,5.1-6.8,8.4c-4.7,3.1-6.5,4.8-6.5,8.7v0.6h12.7c0.6,0,1,0.4,1,0.9S1100,79.4,1099.4,79.4z"/>
		<path fill="#FFFFFF" d="M1112.2,79.9c-3.2,0-5.9-1.3-7.6-3.3c-0.2-0.2-0.3-0.4-0.3-0.8c0-0.6,0.4-0.9,0.9-0.9
			c0.4,0,0.6,0.2,0.7,0.3c1.8,1.8,3.3,2.7,6.2,2.7c4.1,0,6.2-3,6.2-6.3c0-3.7-2.2-6-5.8-6c-2.1,0-3.7,0.8-5.1,2
			c-0.3,0.3-0.6,0.5-1.1,0.5c-0.8,0-1.1-0.6-1.1-1.3l1.3-11.8c0.1-0.7,0.5-1,1.1-1h10.7c0.5,0,1,0.4,1,0.9c0,0.5-0.4,1-1,1h-9.8
			l-1,9.4c1.5-1.3,3.3-1.7,5.2-1.7c4.9,0,7.8,3.5,7.8,7.8C1120.6,76,1117.7,79.9,1112.2,79.9z"/>
		<path fill="#FFFFFF" d="M1126.4,76.6c0.9,0,1.6,0.7,1.6,1.6c0,0.9-0.7,1.6-1.6,1.6c-0.9,0-1.6-0.7-1.6-1.6
			C1124.8,77.2,1125.5,76.6,1126.4,76.6z"/>
		<path fill="#FFFFFF" d="M1139.6,53.7c5.5,0,8.4,3.6,8.4,8.7c0,7.3-4,13.7-10,17c-0.5,0.3-1,0.5-1.6,0.5c-0.6,0-1-0.3-1-0.8
			c0-0.5,0.5-0.8,1.1-1.1c5.3-2.8,8.1-7.4,9.4-12.4c-1.2,2.4-4,3.7-6.8,3.7c-4.6,0-7.7-3.2-7.7-7.7S1134.8,53.7,1139.6,53.7z
			 M1145.7,61.6c0-3.4-2-6.1-6.1-6.1c-3.6,0-6,2.7-6,6c0,3.5,1.8,5.9,5.8,5.9C1142.9,67.4,1145.7,65,1145.7,61.6z"/>
		<path fill="#FFFFFF" d="M1159.7,79.9c-3.2,0-5.9-1.3-7.6-3.3c-0.2-0.2-0.3-0.4-0.3-0.8c0-0.6,0.4-0.9,0.9-0.9
			c0.4,0,0.6,0.2,0.7,0.3c1.8,1.8,3.3,2.7,6.2,2.7c4.1,0,6.2-3,6.2-6.3c0-3.7-2.2-6-5.8-6c-2.1,0-3.7,0.8-5.1,2
			c-0.3,0.3-0.6,0.5-1.1,0.5c-0.8,0-1.1-0.6-1.1-1.3l1.3-11.8c0.1-0.7,0.5-1,1.1-1h10.7c0.5,0,1,0.4,1,0.9c0,0.5-0.4,1-1,1h-9.8
			l-1,9.4c1.5-1.3,3.3-1.7,5.2-1.7c4.9,0,7.8,3.5,7.8,7.8C1168.1,76,1165.2,79.9,1159.7,79.9z"/>
	</g>
	<g>
		<path fill="#FFFFFF" d="M982.7,44.4h-5.4c-0.4,0-0.6-0.3-0.6-0.6c0-0.1,0.1-0.3,0.1-0.4l4.7-7.8h-4.2c-0.4,0-0.6-0.2-0.6-0.6
			c0-0.3,0.3-0.6,0.6-0.6h5.3c0.3,0,0.6,0.2,0.6,0.6c0,0.2-0.1,0.3-0.1,0.4l-4.7,7.8h4.3c0.3,0,0.6,0.2,0.6,0.6
			C983.3,44.2,983.1,44.4,982.7,44.4z"/>
		<path fill="#FFFFFF" d="M991.2,35c0-0.4,0.3-0.7,0.7-0.7c0.4,0,0.7,0.3,0.7,0.7v5.8c0,2.4-1.3,3.8-3.7,3.8s-3.7-1.4-3.7-3.8V35
			c0-0.4,0.3-0.7,0.7-0.7c0.4,0,0.7,0.3,0.7,0.7v5.9c0,1.6,0.8,2.5,2.3,2.5c1.5,0,2.3-0.9,2.3-2.5V35z"/>
		<path fill="#FFFFFF" d="M995.7,45.9c-0.1,0.2-0.2,0.4-0.6,0.4c-0.3,0-0.6-0.2-0.6-0.5c0-0.1,0-0.2,0-0.2l3.4-11.4
			c0.1-0.3,0.2-0.4,0.6-0.4c0.4,0,0.6,0.2,0.6,0.6c0,0.1,0,0.2,0,0.3L995.7,45.9z"/>
		<path fill="#FFFFFF" d="M1007.9,43.7c0,0.1,0.1,0.2,0.1,0.3c0,0.3-0.2,0.6-0.7,0.6c-0.3,0-0.5-0.2-0.6-0.4l-0.8-2.1h-4l-0.8,2.1
			c-0.1,0.2-0.3,0.4-0.6,0.4c-0.4,0-0.7-0.3-0.7-0.6c0-0.1,0-0.2,0.1-0.3l3.3-8.9c0.1-0.3,0.3-0.5,0.6-0.5c0.4,0,0.5,0.2,0.6,0.5
			L1007.9,43.7z M1003.9,36.5l-1.6,4.4h3.1L1003.9,36.5z"/>
		<path fill="#FFFFFF" d="M1013,44.4h-2.8c-0.4,0-0.7-0.3-0.7-0.7v-8.6c0-0.4,0.3-0.7,0.7-0.7h2.7c1.8,0,2.9,1,2.9,2.5
			c0,1-0.6,1.9-1.5,2.2c1.2,0.3,2,1,2,2.4C1016.4,43.2,1015.3,44.4,1013,44.4z M1012.9,35.7h-2v3h2c1,0,1.5-0.8,1.5-1.5
			C1014.5,36.2,1013.9,35.7,1012.9,35.7z M1013.1,39.9h-2.2v3.3h2.2c1.3,0,1.9-0.7,1.9-1.6C1015.1,40.5,1014.3,39.9,1013.1,39.9z"/>
		<path fill="#FFFFFF" d="M1021.2,44.6c-1.3,0-2.4-0.5-3.1-1.2c-0.2-0.2-0.3-0.4-0.3-0.7c0-0.4,0.2-0.6,0.6-0.6
			c0.2,0,0.3,0.1,0.5,0.3c0.6,0.6,1.3,1,2.4,1c1.4,0,1.9-0.6,1.9-1.4c0-0.9-0.8-1.4-2.4-2.1c-2.1-0.9-2.8-1.7-2.8-3.1
			c0-1.7,1.4-2.5,3.3-2.5c0.8,0,1.5,0.2,2.2,0.5c0.5,0.2,0.9,0.6,0.9,1c0,0.3-0.2,0.6-0.6,0.6c-0.2,0-0.4-0.1-0.5-0.2
			c-0.6-0.4-1.2-0.6-2-0.6c-1.1,0-1.9,0.4-1.9,1.3c0,0.8,0.6,1.3,2.1,1.9c1.9,0.9,3.1,1.6,3.1,3.2
			C1024.5,43.4,1023.5,44.6,1021.2,44.6z"/>
		<path fill="#FFFFFF" d="M1028.2,35.7h-2.3c-0.3,0-0.6-0.3-0.6-0.6c0-0.3,0.3-0.6,0.6-0.6h6c0.3,0,0.6,0.3,0.6,0.6
			c0,0.4-0.3,0.6-0.6,0.6h-2.3v8.2c0,0.4-0.3,0.7-0.7,0.7c-0.4,0-0.7-0.3-0.7-0.7V35.7z"/>
		<path fill="#FFFFFF" d="M1035.2,43.9c0,0.4-0.3,0.7-0.7,0.7s-0.7-0.3-0.7-0.7V35c0-0.4,0.3-0.7,0.7-0.7s0.7,0.3,0.7,0.7V43.9z"/>
		<path fill="#FFFFFF" d="M1039,38.7h2.5c0.3,0,0.6,0.3,0.6,0.6c0,0.3-0.3,0.6-0.6,0.6h-2.5v3.3h4.2c0.3,0,0.6,0.3,0.6,0.6
			c0,0.3-0.3,0.6-0.6,0.6h-4.9c-0.4,0-0.7-0.3-0.7-0.7v-8.6c0-0.4,0.3-0.7,0.7-0.7h4.8c0.3,0,0.6,0.3,0.6,0.6c0,0.4-0.3,0.6-0.6,0.6
			h-4.1V38.7z"/>
		<path fill="#FFFFFF" d="M1052.3,43.4c-0.9,0.8-1.9,1.2-3.3,1.2c-2.6,0-4.2-2-4.2-5.2c0-3.1,1.8-5.2,4.2-5.2c1.3,0,2.3,0.6,3,1.4
			c0.1,0.1,0.2,0.3,0.2,0.5c0,0.3-0.2,0.6-0.6,0.6c-0.2,0-0.4-0.1-0.5-0.3c-0.6-0.6-1.1-0.9-2-0.9c-1.7,0-2.8,1.5-2.8,3.9
			c0,2.4,1.1,4,3,4c0.8,0,1.5-0.2,2.1-0.7v-2.1h-1.7c-0.3,0-0.6-0.3-0.6-0.6c0-0.3,0.3-0.6,0.6-0.6h2.3c0.4,0,0.7,0.3,0.7,0.7v2.8
			C1052.5,43.1,1052.4,43.3,1052.3,43.4z"/>
		<path fill="#FFFFFF" d="M987.5,70.9h-8.4c-0.5,0-1-0.4-1-0.9c0-0.5,0.4-1,1-1h8.4c0.5,0,1,0.4,1,1C988.4,70.5,988,70.9,987.5,70.9
			z"/>
		<path fill="#FFFFFF" d="M1010.1,72.3h-3.4v6.3c0,0.6-0.4,1.1-1.1,1.1c-0.6,0-1.1-0.5-1.1-1.1v-6.4h-11.8c-0.6,0-1-0.4-1-0.9
			c0-0.3,0.1-0.5,0.3-0.7l12.7-16.3c0.3-0.4,0.5-0.5,1-0.5c0.6,0,1,0.4,1,1.1v15.5h3.3c0.5,0,1,0.4,1,0.9S1010.6,72.3,1010.1,72.3z
			 M1004.6,57.5l-9.8,12.9h9.8V57.5z"/>
		<path fill="#FFFFFF" d="M1019.6,66c-3.3,0-5.4-2.8-5.4-6.2c0-3.4,2.1-6.2,5.4-6.2c3.3,0,5.4,2.8,5.4,6.2
			C1025,63.2,1022.9,66,1019.6,66z M1019.6,64.3c2.3,0,3.5-2.2,3.5-4.5s-1.2-4.5-3.5-4.5c-2.3,0-3.5,2.2-3.5,4.5
			S1017.4,64.3,1019.6,64.3z M1034.3,55.4l-14.9,23.9c-0.2,0.3-0.5,0.5-0.8,0.5c-0.6,0-1-0.4-1-1c0-0.3,0.2-0.5,0.3-0.6l14.9-23.9
			c0.2-0.4,0.5-0.6,0.8-0.6c0.5,0,1,0.3,1,0.9C1034.6,55,1034.5,55.2,1034.3,55.4z M1032.7,79.9c-3.3,0-5.4-2.8-5.4-6.2
			s2.1-6.2,5.4-6.2c3.3,0,5.4,2.8,5.4,6.2S1036,79.9,1032.7,79.9z M1032.7,78.2c2.3,0,3.5-2.2,3.5-4.5s-1.2-4.5-3.5-4.5
			c-2.3,0-3.5,2.2-3.5,4.5S1030.4,78.2,1032.7,78.2z"/>
	</g>
</g>
<g>
	<path fill="#FFFFFF" d="M646.2,283.6h-4.8c-0.2,0-0.3-0.2-0.3-0.3v-0.5c0-1.9,1.2-2.7,2.4-3.5c1.6-1.1,2.2-1.5,2.2-2.5
		c0-0.9-0.7-1.4-1.9-1.4c-0.8,0-1.4,0.2-2,0.7c-0.1,0.1-0.1,0.1-0.2,0.1c-0.2,0-0.4-0.1-0.4-0.3s0.1-0.3,0.3-0.5
		c0.6-0.4,1.4-0.7,2.3-0.7c1.4,0,2.6,0.6,2.6,2.1c0,1-0.6,1.8-2.3,2.9c-1.6,1.1-2.2,1.7-2.2,3v0.2h4.3c0.2,0,0.3,0.1,0.3,0.3
		C646.5,283.5,646.4,283.6,646.2,283.6z"/>
	<path fill="#FFFFFF" d="M650.9,283.8c-2.1,0-3.1-2-3.1-4.5s1.1-4.5,3.1-4.5s3.1,2,3.1,4.5S653,283.8,650.9,283.8z M653.3,279.3
		c0-2.1-0.7-3.8-2.4-3.8c-1.7,0-2.4,1.7-2.4,3.8s0.7,3.8,2.4,3.8C652.6,283.1,653.3,281.4,653.3,279.3z"/>
	<path fill="#FFFFFF" d="M658.6,283.8c-2.1,0-3.1-2-3.1-4.5s1.1-4.5,3.1-4.5s3.1,2,3.1,4.5S660.7,283.8,658.6,283.8z M661,279.3
		c0-2.1-0.7-3.8-2.4-3.8c-1.7,0-2.4,1.7-2.4,3.8s0.7,3.8,2.4,3.8C660.3,283.1,661,281.4,661,279.3z"/>
	<path fill="#FFFFFF" d="M666.1,283.8c-1.8,0-2.9-1.3-2.9-3c0-2.5,1.4-4.7,3.4-5.8c0.2-0.1,0.3-0.2,0.5-0.2c0.2,0,0.3,0.1,0.3,0.3
		c0,0.2-0.2,0.3-0.4,0.4c-1.7,0.9-2.7,2.3-3.2,4.3c0.4-0.8,1.3-1.3,2.3-1.3c1.5,0,2.6,1,2.6,2.6
		C668.9,282.5,667.9,283.8,666.1,283.8z M664.1,281.1c0,1.2,0.7,2.1,2.1,2.1c1.3,0,2.1-0.9,2.1-2.1c0-1.1-0.7-2-2-2
		C665,279.1,664.1,279.9,664.1,281.1z"/>
</g>
<g>
	<path fill="#FFFFFF" d="M748.3,283.6h-4.8c-0.2,0-0.3-0.2-0.3-0.3v-0.5c0-1.9,1.2-2.7,2.4-3.5c1.6-1.1,2.2-1.5,2.2-2.5
		c0-0.9-0.7-1.4-1.9-1.4c-0.8,0-1.4,0.2-2,0.7c-0.1,0.1-0.1,0.1-0.2,0.1c-0.2,0-0.4-0.1-0.4-0.3s0.1-0.3,0.3-0.5
		c0.6-0.4,1.4-0.7,2.3-0.7c1.4,0,2.6,0.6,2.6,2.1c0,1-0.6,1.8-2.3,2.9c-1.6,1.1-2.2,1.7-2.2,3v0.2h4.3c0.2,0,0.3,0.1,0.3,0.3
		C748.7,283.5,748.5,283.6,748.3,283.6z"/>
	<path fill="#FFFFFF" d="M753.1,283.8c-2.1,0-3.1-2-3.1-4.5s1.1-4.5,3.1-4.5s3.1,2,3.1,4.5S755.2,283.8,753.1,283.8z M755.5,279.3
		c0-2.1-0.7-3.8-2.4-3.8s-2.4,1.7-2.4,3.8s0.7,3.8,2.4,3.8S755.5,281.4,755.5,279.3z"/>
	<path fill="#FFFFFF" d="M760.8,283.8c-2.1,0-3.1-2-3.1-4.5s1.1-4.5,3.1-4.5s3.1,2,3.1,4.5S762.9,283.8,760.8,283.8z M763.2,279.3
		c0-2.1-0.7-3.8-2.4-3.8c-1.7,0-2.4,1.7-2.4,3.8s0.7,3.8,2.4,3.8C762.4,283.1,763.2,281.4,763.2,279.3z"/>
	<path fill="#FFFFFF" d="M770.1,275.5c-1.8,2.4-2.7,4.4-2.7,7.8v0c0,0.2-0.1,0.4-0.4,0.4c-0.2,0-0.4-0.2-0.4-0.4v-0.1
		c0-3.2,1-5.4,2.6-7.7h-4.3c-0.2,0-0.3-0.1-0.3-0.3s0.1-0.3,0.3-0.3h4.9c0.2,0,0.4,0.1,0.4,0.3C770.2,275.4,770.1,275.5,770.1,275.5
		z"/>
</g>
<g>
	<path fill="#FFFFFF" d="M849.2,283.6h-4.8c-0.2,0-0.3-0.2-0.3-0.3v-0.5c0-1.9,1.2-2.7,2.4-3.5c1.6-1.1,2.2-1.5,2.2-2.5
		c0-0.9-0.7-1.4-1.9-1.4c-0.8,0-1.4,0.2-2,0.7c-0.1,0.1-0.1,0.1-0.2,0.1c-0.2,0-0.4-0.1-0.4-0.3s0.1-0.3,0.3-0.5
		c0.6-0.4,1.4-0.7,2.3-0.7c1.4,0,2.6,0.6,2.6,2.1c0,1-0.6,1.8-2.3,2.9c-1.6,1.1-2.2,1.7-2.2,3v0.2h4.3c0.2,0,0.3,0.1,0.3,0.3
		C849.6,283.5,849.4,283.6,849.2,283.6z"/>
	<path fill="#FFFFFF" d="M853.9,283.8c-2.1,0-3.1-2-3.1-4.5s1.1-4.5,3.1-4.5s3.1,2,3.1,4.5S856,283.8,853.9,283.8z M856.3,279.3
		c0-2.1-0.7-3.8-2.4-3.8c-1.7,0-2.4,1.7-2.4,3.8s0.7,3.8,2.4,3.8C855.6,283.1,856.3,281.4,856.3,279.3z"/>
	<path fill="#FFFFFF" d="M861.6,283.8c-2.1,0-3.1-2-3.1-4.5s1.1-4.5,3.1-4.5s3.1,2,3.1,4.5S863.7,283.8,861.6,283.8z M864,279.3
		c0-2.1-0.7-3.8-2.4-3.8c-1.7,0-2.4,1.7-2.4,3.8s0.7,3.8,2.4,3.8C863.3,283.1,864,281.4,864,279.3z"/>
	<path fill="#FFFFFF" d="M869.2,274.8c1.5,0,2.5,0.9,2.5,2.2c0,0.8-0.5,1.5-1.3,2c1,0.3,1.8,1.1,1.8,2.3c0,1.4-1.1,2.5-2.9,2.5
		c-1.9,0-2.9-1.2-2.9-2.5c0-1.2,0.8-2,1.8-2.3c-0.9-0.4-1.3-1.2-1.3-2C866.8,275.7,867.7,274.8,869.2,274.8z M867,281.2
		c0,1.1,0.9,1.9,2.2,1.9c1.4,0,2.2-0.8,2.2-1.9c0-1.2-1-1.9-2.2-1.9C868,279.3,867,280,867,281.2z M869.2,278.7c1,0,1.7-0.7,1.7-1.7
		c0-1-0.7-1.6-1.7-1.6c-1,0-1.7,0.6-1.7,1.6C867.5,278,868.2,278.7,869.2,278.7z"/>
</g>
<g>
	<path fill="#FFFFFF" d="M951.8,283.6H947c-0.2,0-0.3-0.2-0.3-0.3v-0.5c0-1.9,1.2-2.7,2.4-3.5c1.6-1.1,2.2-1.5,2.2-2.5
		c0-0.9-0.7-1.4-1.9-1.4c-0.8,0-1.4,0.2-2,0.7c-0.1,0.1-0.1,0.1-0.2,0.1c-0.2,0-0.4-0.1-0.4-0.3s0.1-0.3,0.3-0.5
		c0.6-0.4,1.4-0.7,2.3-0.7c1.4,0,2.6,0.6,2.6,2.1c0,1-0.6,1.8-2.3,2.9c-1.6,1.1-2.2,1.7-2.2,3v0.2h4.3c0.2,0,0.3,0.1,0.3,0.3
		C952.1,283.5,952,283.6,951.8,283.6z"/>
	<path fill="#FFFFFF" d="M956.5,283.8c-2.1,0-3.1-2-3.1-4.5s1.1-4.5,3.1-4.5s3.1,2,3.1,4.5S958.6,283.8,956.5,283.8z M958.9,279.3
		c0-2.1-0.7-3.8-2.4-3.8c-1.7,0-2.4,1.7-2.4,3.8s0.7,3.8,2.4,3.8C958.2,283.1,958.9,281.4,958.9,279.3z"/>
	<path fill="#FFFFFF" d="M964.2,283.8c-2.1,0-3.1-2-3.1-4.5s1.1-4.5,3.1-4.5s3.1,2,3.1,4.5S966.3,283.8,964.2,283.8z M966.6,279.3
		c0-2.1-0.7-3.8-2.4-3.8c-1.7,0-2.4,1.7-2.4,3.8s0.7,3.8,2.4,3.8C965.8,283.1,966.6,281.4,966.6,279.3z"/>
	<path fill="#FFFFFF" d="M971.4,274.8c1.9,0,2.9,1.2,2.9,3c0,2.5-1.4,4.7-3.4,5.8c-0.2,0.1-0.3,0.2-0.5,0.2c-0.2,0-0.3-0.1-0.3-0.3
		c0-0.2,0.2-0.3,0.4-0.4c1.8-0.9,2.8-2.5,3.2-4.3c-0.4,0.8-1.4,1.3-2.3,1.3c-1.6,0-2.6-1.1-2.6-2.6
		C968.6,276,969.8,274.8,971.4,274.8z M973.5,277.5c0-1.2-0.7-2.1-2.1-2.1c-1.2,0-2.1,0.9-2.1,2.1c0,1.2,0.6,2,2,2
		C972.5,279.5,973.5,278.7,973.5,277.5z"/>
</g>
<g>
	<path fill="#FFFFFF" d="M1053.9,283.6h-4.8c-0.2,0-0.3-0.2-0.3-0.3v-0.5c0-1.9,1.2-2.7,2.4-3.5c1.6-1.1,2.2-1.5,2.2-2.5
		c0-0.9-0.7-1.4-1.9-1.4c-0.8,0-1.4,0.2-2,0.7c-0.1,0.1-0.1,0.1-0.2,0.1c-0.2,0-0.4-0.1-0.4-0.3s0.1-0.3,0.3-0.5
		c0.6-0.4,1.4-0.7,2.3-0.7c1.4,0,2.6,0.6,2.6,2.1c0,1-0.6,1.8-2.3,2.9c-1.6,1.1-2.2,1.7-2.2,3v0.2h4.3c0.2,0,0.3,0.1,0.3,0.3
		C1054.3,283.5,1054.1,283.6,1053.9,283.6z"/>
	<path fill="#FFFFFF" d="M1058.7,283.8c-2.1,0-3.1-2-3.1-4.5s1.1-4.5,3.1-4.5s3.1,2,3.1,4.5S1060.7,283.8,1058.7,283.8z M1061,279.3
		c0-2.1-0.7-3.8-2.4-3.8c-1.7,0-2.4,1.7-2.4,3.8s0.7,3.8,2.4,3.8C1060.3,283.1,1061,281.4,1061,279.3z"/>
	<path fill="#FFFFFF" d="M1065.1,283.7c-0.2,0-0.4-0.2-0.4-0.4v-7.7l-1.5,0.5c-0.1,0-0.1,0-0.2,0c-0.2,0-0.4-0.1-0.4-0.3
		c0-0.2,0.1-0.3,0.3-0.3l1.9-0.6c0.1,0,0.2-0.1,0.3-0.1c0.2,0,0.4,0.1,0.4,0.4v8.1C1065.5,283.6,1065.3,283.7,1065.1,283.7z"/>
	<path fill="#FFFFFF" d="M1070.5,283.8c-2.1,0-3.1-2-3.1-4.5s1.1-4.5,3.1-4.5s3.1,2,3.1,4.5S1072.6,283.8,1070.5,283.8z
		 M1072.9,279.3c0-2.1-0.7-3.8-2.4-3.8c-1.7,0-2.4,1.7-2.4,3.8s0.7,3.8,2.4,3.8C1072.1,283.1,1072.9,281.4,1072.9,279.3z"/>
</g>
<g>
	<path fill="#FFFFFF" d="M1153.2,283.6h-4.8c-0.2,0-0.3-0.2-0.3-0.3v-0.5c0-1.9,1.2-2.7,2.4-3.5c1.6-1.1,2.2-1.5,2.2-2.5
		c0-0.9-0.7-1.4-1.9-1.4c-0.8,0-1.4,0.2-2,0.7c-0.1,0.1-0.1,0.1-0.2,0.1c-0.2,0-0.4-0.1-0.4-0.3s0.1-0.3,0.3-0.5
		c0.6-0.4,1.4-0.7,2.3-0.7c1.4,0,2.6,0.6,2.6,2.1c0,1-0.6,1.8-2.3,2.9c-1.6,1.1-2.2,1.7-2.2,3v0.2h4.3c0.2,0,0.3,0.1,0.3,0.3
		C1153.5,283.5,1153.4,283.6,1153.2,283.6z"/>
	<path fill="#FFFFFF" d="M1157.9,283.8c-2.1,0-3.1-2-3.1-4.5s1.1-4.5,3.1-4.5s3.1,2,3.1,4.5S1160,283.8,1157.9,283.8z M1160.3,279.3
		c0-2.1-0.7-3.8-2.4-3.8c-1.7,0-2.4,1.7-2.4,3.8s0.7,3.8,2.4,3.8C1159.6,283.1,1160.3,281.4,1160.3,279.3z"/>
	<path fill="#FFFFFF" d="M1164.3,283.7c-0.2,0-0.4-0.2-0.4-0.4v-7.7l-1.5,0.5c-0.1,0-0.1,0-0.2,0c-0.2,0-0.4-0.1-0.4-0.3
		c0-0.2,0.1-0.3,0.3-0.3l1.9-0.6c0.1,0,0.2-0.1,0.3-0.1c0.2,0,0.4,0.1,0.4,0.4v8.1C1164.7,283.6,1164.6,283.7,1164.3,283.7z"/>
	<path fill="#FFFFFF" d="M1168.5,283.7c-0.2,0-0.4-0.2-0.4-0.4v-7.7l-1.5,0.5c-0.1,0-0.1,0-0.2,0c-0.2,0-0.4-0.1-0.4-0.3
		c0-0.2,0.1-0.3,0.3-0.3l1.9-0.6c0.1,0,0.2-0.1,0.3-0.1c0.2,0,0.4,0.1,0.4,0.4v8.1C1168.8,283.6,1168.7,283.7,1168.5,283.7z"/>
</g>
<g>
	<path fill="#FFFFFF" d="M441.8,283.6h-4.8c-0.2,0-0.3-0.2-0.3-0.3v-0.5c0-1.9,1.2-2.7,2.4-3.5c1.6-1.1,2.2-1.5,2.2-2.5
		c0-0.9-0.7-1.4-1.9-1.4c-0.8,0-1.4,0.2-2,0.7c-0.1,0.1-0.1,0.1-0.2,0.1c-0.2,0-0.4-0.1-0.4-0.3s0.1-0.3,0.3-0.5
		c0.6-0.4,1.4-0.7,2.3-0.7c1.4,0,2.6,0.6,2.6,2.1c0,1-0.6,1.8-2.3,2.9c-1.6,1.1-2.2,1.7-2.2,3v0.2h4.3c0.2,0,0.3,0.1,0.3,0.3
		C442.2,283.5,442,283.6,441.8,283.6z"/>
	<path fill="#FFFFFF" d="M446.6,283.8c-2.1,0-3.1-2-3.1-4.5s1.1-4.5,3.1-4.5s3.1,2,3.1,4.5S448.6,283.8,446.6,283.8z M448.9,279.3
		c0-2.1-0.7-3.8-2.4-3.8c-1.7,0-2.4,1.7-2.4,3.8s0.7,3.8,2.4,3.8C448.2,283.1,448.9,281.4,448.9,279.3z"/>
	<path fill="#FFFFFF" d="M454.3,283.8c-2.1,0-3.1-2-3.1-4.5s1.1-4.5,3.1-4.5s3.1,2,3.1,4.5S456.3,283.8,454.3,283.8z M456.6,279.3
		c0-2.1-0.7-3.8-2.4-3.8c-1.7,0-2.4,1.7-2.4,3.8s0.7,3.8,2.4,3.8C455.9,283.1,456.6,281.4,456.6,279.3z"/>
	<path fill="#FFFFFF" d="M464.7,281.2h-1.2v2.2c0,0.2-0.1,0.4-0.4,0.4c-0.2,0-0.4-0.2-0.4-0.4v-2.2h-4c-0.2,0-0.3-0.1-0.3-0.3
		c0-0.1,0-0.2,0.1-0.2l4.3-5.6c0.1-0.1,0.2-0.2,0.3-0.2c0.2,0,0.4,0.1,0.4,0.4v5.3h1.1c0.2,0,0.3,0.1,0.3,0.3
		S464.8,281.2,464.7,281.2z M462.8,276.1l-3.4,4.4h3.4V276.1z"/>
</g>
<g>
	<path fill="#FFFFFF" d="M339.8,283.6H335c-0.2,0-0.3-0.2-0.3-0.3v-0.5c0-1.9,1.2-2.7,2.4-3.5c1.6-1.1,2.2-1.5,2.2-2.5
		c0-0.9-0.7-1.4-1.9-1.4c-0.8,0-1.4,0.2-2,0.7c-0.1,0.1-0.1,0.1-0.2,0.1c-0.2,0-0.4-0.1-0.4-0.3s0.1-0.3,0.3-0.5
		c0.6-0.4,1.4-0.7,2.3-0.7c1.4,0,2.6,0.6,2.6,2.1c0,1-0.6,1.8-2.3,2.9c-1.6,1.1-2.2,1.7-2.2,3v0.2h4.3c0.2,0,0.3,0.1,0.3,0.3
		C340.1,283.5,340,283.6,339.8,283.6z"/>
	<path fill="#FFFFFF" d="M344.5,283.8c-2.1,0-3.1-2-3.1-4.5s1.1-4.5,3.1-4.5s3.1,2,3.1,4.5S346.6,283.8,344.5,283.8z M346.9,279.3
		c0-2.1-0.7-3.8-2.4-3.8c-1.7,0-2.4,1.7-2.4,3.8s0.7,3.8,2.4,3.8C346.2,283.1,346.9,281.4,346.9,279.3z"/>
	<path fill="#FFFFFF" d="M352.2,283.8c-2.1,0-3.1-2-3.1-4.5s1.1-4.5,3.1-4.5s3.1,2,3.1,4.5S354.3,283.8,352.2,283.8z M354.6,279.3
		c0-2.1-0.7-3.8-2.4-3.8c-1.7,0-2.4,1.7-2.4,3.8s0.7,3.8,2.4,3.8C353.9,283.1,354.6,281.4,354.6,279.3z"/>
	<path fill="#FFFFFF" d="M359.3,283.8c-1.1,0-1.9-0.4-2.5-0.9c-0.2-0.1-0.3-0.3-0.3-0.5c0-0.2,0.2-0.3,0.3-0.3
		c0.1,0,0.2,0.1,0.3,0.1c0.5,0.6,1.2,0.9,2.2,0.9c1.2,0,2.2-0.7,2.2-1.9s-0.8-1.9-2.3-1.9h-0.8c-0.2,0-0.4-0.1-0.4-0.3
		c0-0.2,0.1-0.3,0.3-0.3h0.7c1.2,0,1.9-0.8,1.9-1.7s-0.7-1.5-1.8-1.5c-0.6,0-1.1,0.2-1.6,0.5c-0.1,0.1-0.2,0.1-0.3,0.1
		c-0.2,0-0.3-0.1-0.3-0.3c0-0.2,0.1-0.3,0.3-0.4c0.6-0.4,1.3-0.6,2-0.6c1.5,0,2.5,0.8,2.5,2.1c0,0.9-0.5,1.6-1.4,2
		c1,0.2,1.8,1,1.8,2.3C362.2,282.6,361.2,283.8,359.3,283.8z"/>
</g>
<g>
	<path fill="#FFFFFF" d="M237.9,283.6h-4.8c-0.2,0-0.3-0.2-0.3-0.3v-0.5c0-1.9,1.2-2.7,2.4-3.5c1.6-1.1,2.2-1.5,2.2-2.5
		c0-0.9-0.7-1.4-1.9-1.4c-0.8,0-1.4,0.2-2,0.7c-0.1,0.1-0.1,0.1-0.2,0.1c-0.2,0-0.4-0.1-0.4-0.3s0.1-0.3,0.3-0.5
		c0.6-0.4,1.4-0.7,2.3-0.7c1.4,0,2.6,0.6,2.6,2.1c0,1-0.6,1.8-2.3,2.9c-1.6,1.1-2.2,1.7-2.2,3v0.2h4.3c0.2,0,0.3,0.1,0.3,0.3
		C238.2,283.5,238.1,283.6,237.9,283.6z"/>
	<path fill="#FFFFFF" d="M242.6,283.8c-2.1,0-3.1-2-3.1-4.5s1.1-4.5,3.1-4.5s3.1,2,3.1,4.5S244.7,283.8,242.6,283.8z M245,279.3
		c0-2.1-0.7-3.8-2.4-3.8c-1.7,0-2.4,1.7-2.4,3.8s0.7,3.8,2.4,3.8C244.3,283.1,245,281.4,245,279.3z"/>
	<path fill="#FFFFFF" d="M250.3,283.8c-2.1,0-3.1-2-3.1-4.5s1.1-4.5,3.1-4.5s3.1,2,3.1,4.5S252.4,283.8,250.3,283.8z M252.7,279.3
		c0-2.1-0.7-3.8-2.4-3.8c-1.7,0-2.4,1.7-2.4,3.8s0.7,3.8,2.4,3.8C252,283.1,252.7,281.4,252.7,279.3z"/>
	<path fill="#FFFFFF" d="M260,283.6h-4.8c-0.2,0-0.3-0.2-0.3-0.3v-0.5c0-1.9,1.2-2.7,2.4-3.5c1.6-1.1,2.2-1.5,2.2-2.5
		c0-0.9-0.7-1.4-1.9-1.4c-0.8,0-1.4,0.2-2,0.7c-0.1,0.1-0.1,0.1-0.2,0.1c-0.2,0-0.4-0.1-0.4-0.3s0.1-0.3,0.3-0.5
		c0.6-0.4,1.4-0.7,2.3-0.7c1.4,0,2.6,0.6,2.6,2.1c0,1-0.6,1.8-2.3,2.9c-1.6,1.1-2.2,1.7-2.2,3v0.2h4.3c0.2,0,0.3,0.1,0.3,0.3
		C260.4,283.5,260.2,283.6,260,283.6z"/>
</g>
<g>
	<path fill="#FFFFFF" d="M138.7,283.6h-4.8c-0.2,0-0.3-0.2-0.3-0.3v-0.5c0-1.9,1.2-2.7,2.4-3.5c1.6-1.1,2.2-1.5,2.2-2.5
		c0-0.9-0.7-1.4-1.9-1.4c-0.8,0-1.4,0.2-2,0.7c-0.1,0.1-0.1,0.1-0.2,0.1c-0.2,0-0.4-0.1-0.4-0.3s0.1-0.3,0.3-0.5
		c0.6-0.4,1.4-0.7,2.3-0.7c1.4,0,2.6,0.6,2.6,2.1c0,1-0.6,1.8-2.3,2.9c-1.6,1.1-2.2,1.7-2.2,3v0.2h4.3c0.2,0,0.3,0.1,0.3,0.3
		C139,283.5,138.8,283.6,138.7,283.6z"/>
	<path fill="#FFFFFF" d="M143.4,283.8c-2.1,0-3.1-2-3.1-4.5s1.1-4.5,3.1-4.5s3.1,2,3.1,4.5S145.5,283.8,143.4,283.8z M145.8,279.3
		c0-2.1-0.7-3.8-2.4-3.8c-1.7,0-2.4,1.7-2.4,3.8s0.7,3.8,2.4,3.8C145,283.1,145.8,281.4,145.8,279.3z"/>
	<path fill="#FFFFFF" d="M151.1,283.8c-2.1,0-3.1-2-3.1-4.5s1.1-4.5,3.1-4.5s3.1,2,3.1,4.5S153.2,283.8,151.1,283.8z M153.5,279.3
		c0-2.1-0.7-3.8-2.4-3.8c-1.7,0-2.4,1.7-2.4,3.8s0.7,3.8,2.4,3.8C152.7,283.1,153.5,281.4,153.5,279.3z"/>
	<path fill="#FFFFFF" d="M157.5,283.7c-0.2,0-0.4-0.2-0.4-0.4v-7.7l-1.5,0.5c-0.1,0-0.1,0-0.2,0c-0.2,0-0.4-0.1-0.4-0.3
		c0-0.2,0.1-0.3,0.3-0.3l1.9-0.6c0.1,0,0.2-0.1,0.3-0.1c0.2,0,0.4,0.1,0.4,0.4v8.1C157.9,283.6,157.7,283.7,157.5,283.7z"/>
</g>
<g>
	<path fill="#FFFFFF" d="M35.9,283.6h-4.8c-0.2,0-0.3-0.2-0.3-0.3v-0.5c0-1.9,1.2-2.7,2.4-3.5c1.6-1.1,2.2-1.5,2.2-2.5
		c0-0.9-0.7-1.4-1.9-1.4c-0.8,0-1.4,0.2-2,0.7c-0.1,0.1-0.1,0.1-0.2,0.1c-0.2,0-0.4-0.1-0.4-0.3s0.1-0.3,0.3-0.5
		c0.6-0.4,1.4-0.7,2.3-0.7c1.4,0,2.6,0.6,2.6,2.1c0,1-0.6,1.8-2.3,2.9c-1.6,1.1-2.2,1.7-2.2,3v0.2h4.3c0.2,0,0.3,0.1,0.3,0.3
		C36.2,283.5,36,283.6,35.9,283.6z"/>
	<path fill="#FFFFFF" d="M40.6,283.8c-2.1,0-3.1-2-3.1-4.5s1.1-4.5,3.1-4.5s3.1,2,3.1,4.5S42.7,283.8,40.6,283.8z M43,279.3
		c0-2.1-0.7-3.8-2.4-3.8c-1.7,0-2.4,1.7-2.4,3.8s0.7,3.8,2.4,3.8C42.2,283.1,43,281.4,43,279.3z"/>
	<path fill="#FFFFFF" d="M48.3,283.8c-2.1,0-3.1-2-3.1-4.5s1.1-4.5,3.1-4.5s3.1,2,3.1,4.5S50.4,283.8,48.3,283.8z M50.7,279.3
		c0-2.1-0.7-3.8-2.4-3.8c-1.7,0-2.4,1.7-2.4,3.8s0.7,3.8,2.4,3.8C49.9,283.1,50.7,281.4,50.7,279.3z"/>
	<path fill="#FFFFFF" d="M56,283.8c-2.1,0-3.1-2-3.1-4.5s1.1-4.5,3.1-4.5s3.1,2,3.1,4.5S58.1,283.8,56,283.8z M58.4,279.3
		c0-2.1-0.7-3.8-2.4-3.8c-1.7,0-2.4,1.7-2.4,3.8s0.7,3.8,2.4,3.8C57.6,283.1,58.4,281.4,58.4,279.3z"/>
</g>
<line opacity="0.65" fill="none" stroke="#FFFFFF" stroke-linecap="round" stroke-linejoin="round" stroke-miterlimit="10" x1="96.5" y1="284" x2="96.5" y2="294"/>
<line opacity="0.65" fill="none" stroke="#FFFFFF" stroke-linecap="round" stroke-linejoin="round" stroke-miterlimit="10" x1="195.5" y1="284" x2="195.5" y2="294"/>
<line opacity="0.65" fill="none" stroke="#FFFFFF" stroke-linecap="round" stroke-linejoin="round" stroke-miterlimit="10" x1="297.5" y1="284" x2="297.5" y2="294"/>
<line opacity="0.65" fill="none" stroke="#FFFFFF" stroke-linecap="round" stroke-linejoin="round" stroke-miterlimit="10" x1="399.5" y1="284" x2="399.5" y2="294"/>
<line opacity="0.65" fill="none" stroke="#FFFFFF" stroke-linecap="round" stroke-linejoin="round" stroke-miterlimit="10" x1="706.5" y1="284" x2="706.5" y2="294"/>
<line opacity="0.65" fill="none" stroke="#FFFFFF" stroke-linecap="round" stroke-linejoin="round" stroke-miterlimit="10" x1="806.5" y1="284" x2="806.5" y2="294"/>
<line opacity="0.65" fill="none" stroke="#FFFFFF" stroke-linecap="round" stroke-linejoin="round" stroke-miterlimit="10" x1="909.5" y1="284" x2="909.5" y2="294"/>
<line opacity="0.65" fill="none" stroke="#FFFFFF" stroke-linecap="round" stroke-linejoin="round" stroke-miterlimit="10" x1="1011.5" y1="284" x2="1011.5" y2="294"/>
<line opacity="0.65" fill="none" stroke="#FFFFFF" stroke-linecap="round" stroke-linejoin="round" stroke-miterlimit="10" x1="1110.5" y1="284" x2="1110.5" y2="294"/>
<polygon opacity="0.25" fill="#0F0623" points="603,294 502,294 502,199 553.2,189.1 603,188 "/>
<g>
	<path fill="#FFFFFF" d="M544.1,283.6h-4.8c-0.2,0-0.3-0.2-0.3-0.3v-0.5c0-1.9,1.2-2.7,2.4-3.5c1.6-1.1,2.2-1.5,2.2-2.5
		c0-0.9-0.7-1.4-1.9-1.4c-0.8,0-1.4,0.2-2,0.7c-0.1,0.1-0.1,0.1-0.2,0.1c-0.2,0-0.4-0.1-0.4-0.3s0.1-0.3,0.3-0.5
		c0.6-0.4,1.4-0.7,2.3-0.7c1.4,0,2.6,0.6,2.6,2.1c0,1-0.6,1.8-2.3,2.9c-1.6,1.1-2.2,1.7-2.2,3v0.2h4.3c0.2,0,0.3,0.1,0.3,0.3
		C544.4,283.5,544.3,283.6,544.1,283.6z"/>
	<path fill="#FFFFFF" d="M548.8,283.8c-2.1,0-3.1-2-3.1-4.5s1.1-4.5,3.1-4.5s3.1,2,3.1,4.5S550.9,283.8,548.8,283.8z M551.2,279.3
		c0-2.1-0.7-3.8-2.4-3.8c-1.7,0-2.4,1.7-2.4,3.8s0.7,3.8,2.4,3.8C550.5,283.1,551.2,281.4,551.2,279.3z"/>
	<path fill="#FFFFFF" d="M556.5,283.8c-2.1,0-3.1-2-3.1-4.5s1.1-4.5,3.1-4.5s3.1,2,3.1,4.5S558.6,283.8,556.5,283.8z M558.9,279.3
		c0-2.1-0.7-3.8-2.4-3.8c-1.7,0-2.4,1.7-2.4,3.8s0.7,3.8,2.4,3.8C558.2,283.1,558.9,281.4,558.9,279.3z"/>
	<path fill="#FFFFFF" d="M563.8,283.8c-1.1,0-2-0.4-2.6-1.1c-0.1-0.1-0.1-0.1-0.1-0.3c0-0.2,0.1-0.3,0.3-0.3c0.1,0,0.2,0.1,0.2,0.1
		c0.6,0.6,1.1,0.9,2.1,0.9c1.4,0,2.1-1,2.1-2.2c0-1.3-0.8-2.1-2-2.1c-0.7,0-1.3,0.3-1.8,0.7c-0.1,0.1-0.2,0.2-0.4,0.2
		c-0.3,0-0.4-0.2-0.4-0.4l0.4-4c0-0.2,0.2-0.3,0.4-0.3h3.7c0.2,0,0.3,0.1,0.3,0.3c0,0.2-0.1,0.3-0.3,0.3h-3.3l-0.3,3.2
		c0.5-0.4,1.1-0.6,1.8-0.6c1.7,0,2.7,1.2,2.7,2.7C566.7,282.5,565.7,283.8,563.8,283.8z"/>
</g>
<line opacity="0.65" fill="none" stroke="#FFFFFF" stroke-linecap="round" stroke-linejoin="round" stroke-miterlimit="10" x1="501.5" y1="284" x2="501.5" y2="294"/>
<line opacity="0.65" fill="none" stroke="#FFFFFF" stroke-linecap="round" stroke-linejoin="round" stroke-miterlimit="10" x1="603.5" y1="284" x2="603.5" y2="294"/>
<g>
	<g>
		<line fill="none" stroke="#000000" stroke-miterlimit="10" x1="87.6" y1="1337.7" x2="1225.6" y2="1337.7"/>
		<g>
			<g>
				<line fill="none" stroke="#000000" stroke-miterlimit="10" x1="87.6" y1="1337.7" x2="87.6" y2="1333.1"/>
				<line fill="none" stroke="#000000" stroke-miterlimit="10" x1="182.5" y1="1337.7" x2="182.5" y2="1333.1"/>
				<line fill="none" stroke="#000000" stroke-miterlimit="10" x1="277.3" y1="1337.7" x2="277.3" y2="1333.1"/>
				<line fill="none" stroke="#000000" stroke-miterlimit="10" x1="372.1" y1="1337.7" x2="372.1" y2="1333.1"/>
				<line fill="none" stroke="#000000" stroke-miterlimit="10" x1="467" y1="1337.7" x2="467" y2="1333.1"/>
				<line fill="none" stroke="#000000" stroke-miterlimit="10" x1="561.8" y1="1337.7" x2="561.8" y2="1333.1"/>
				<line fill="none" stroke="#000000" stroke-miterlimit="10" x1="656.6" y1="1337.7" x2="656.6" y2="1333.1"/>
				<line fill="none" stroke="#000000" stroke-miterlimit="10" x1="751.5" y1="1337.7" x2="751.5" y2="1333.1"/>
				<line fill="none" stroke="#000000" stroke-miterlimit="10" x1="846.3" y1="1337.7" x2="846.3" y2="1333.1"/>
				<line fill="none" stroke="#000000" stroke-miterlimit="10" x1="941.1" y1="1337.7" x2="941.1" y2="1333.1"/>
				<line fill="none" stroke="#000000" stroke-miterlimit="10" x1="1036" y1="1337.7" x2="1036" y2="1333.1"/>
				<line fill="none" stroke="#000000" stroke-miterlimit="10" x1="1130.8" y1="1337.7" x2="1130.8" y2="1333.1"/>
				<line fill="none" stroke="#000000" stroke-miterlimit="10" x1="1225.6" y1="1337.7" x2="1225.6" y2="1333.1"/>
			</g>
			<g>
			</g>
		</g>
	</g>
	<g>
		<g>
			<text transform="matrix(1 0 0 1 41.3913 1344.0869)" font-family="'MyriadPro-Regular'" font-size="17.0625">500</text>
			<text transform="matrix(1 0 0 1 31.9021 1283.4199)" font-family="'MyriadPro-Regular'" font-size="17.0625">1000</text>
			<text transform="matrix(1 0 0 1 31.9021 1222.7539)" font-family="'MyriadPro-Regular'" font-size="17.0625">1500</text>
			<text transform="matrix(1 0 0 1 31.9021 1162.0869)" font-family="'MyriadPro-Regular'" font-size="17.0625">2000</text>
		</g>
		<line fill="none" stroke="#000000" stroke-miterlimit="10" x1="87.6" y1="1337.7" x2="87.6" y2="1155.7"/>
		<g>
			<g>
				<line fill="none" stroke="#000000" stroke-miterlimit="10" x1="87.6" y1="1337.7" x2="116.1" y2="1337.7"/>
				<line fill="none" stroke="#000000" stroke-miterlimit="10" x1="87.6" y1="1277" x2="116.1" y2="1277"/>
				<line fill="none" stroke="#000000" stroke-miterlimit="10" x1="87.6" y1="1216.4" x2="116.1" y2="1216.4"/>
				<line fill="none" stroke="#000000" stroke-miterlimit="10" x1="87.6" y1="1155.7" x2="116.1" y2="1155.7"/>
			</g>
			<g>
			</g>
		</g>
	</g>
	<g>
		<g>
			<g>
				
					<line fill="none" stroke="#DFDFDF" stroke-width="2" stroke-linecap="round" stroke-miterlimit="10" x1="229.9" y1="1275.7" x2="135.1" y2="1270.3"/>
				
					<line fill="none" stroke="#DFDFDF" stroke-width="2" stroke-linecap="round" stroke-miterlimit="10" x1="324.7" y1="1282.2" x2="229.9" y2="1275.7"/>
				
					<line fill="none" stroke="#DFDFDF" stroke-width="2" stroke-linecap="round" stroke-miterlimit="10" x1="419.6" y1="1286.1" x2="324.7" y2="1282.2"/>
				
					<line fill="none" stroke="#DFDFDF" stroke-width="2" stroke-linecap="round" stroke-miterlimit="10" x1="514.4" y1="1291.1" x2="419.6" y2="1286.1"/>
				
					<line fill="none" stroke="#DFDFDF" stroke-width="2" stroke-linecap="round" stroke-miterlimit="10" x1="609.2" y1="1271.6" x2="514.4" y2="1291.1"/>
				
					<line fill="none" stroke="#DFDFDF" stroke-width="2" stroke-linecap="round" stroke-miterlimit="10" x1="704.1" y1="1278" x2="609.2" y2="1271.6"/>
				
					<line fill="none" stroke="#DFDFDF" stroke-width="2" stroke-linecap="round" stroke-miterlimit="10" x1="798.9" y1="1273.5" x2="704.1" y2="1278"/>
				
					<line fill="none" stroke="#DFDFDF" stroke-width="2" stroke-linecap="round" stroke-miterlimit="10" x1="893.7" y1="1272.8" x2="798.9" y2="1273.5"/>
				
					<line fill="none" stroke="#DFDFDF" stroke-width="2" stroke-linecap="round" stroke-miterlimit="10" x1="988.6" y1="1267.2" x2="893.7" y2="1272.8"/>
				
					<line fill="none" stroke="#DFDFDF" stroke-width="2" stroke-linecap="round" stroke-miterlimit="10" x1="1083.4" y1="1262.2" x2="988.6" y2="1267.2"/>
				
					<line fill="none" stroke="#DFDFDF" stroke-width="2" stroke-linecap="round" stroke-miterlimit="10" x1="1178.2" y1="1253.7" x2="1083.4" y2="1262.2"/>
			</g>
		</g>
		<g>
			<g>
				
					<line fill="none" stroke="#000000" stroke-width="2" stroke-linecap="round" stroke-miterlimit="10" x1="229.9" y1="1274.6" x2="135.1" y2="1271"/>
				
					<line fill="none" stroke="#000000" stroke-width="2" stroke-linecap="round" stroke-miterlimit="10" x1="324.7" y1="1270.8" x2="229.9" y2="1274.6"/>
				
					<line fill="none" stroke="#000000" stroke-width="2" stroke-linecap="round" stroke-miterlimit="10" x1="419.6" y1="1265.5" x2="324.7" y2="1270.8"/>
				
					<line fill="none" stroke="#000000" stroke-width="2" stroke-linecap="round" stroke-miterlimit="10" x1="514.4" y1="1273.5" x2="419.6" y2="1265.5"/>
				
					<line fill="none" stroke="#000000" stroke-width="2" stroke-linecap="round" stroke-miterlimit="10" x1="609.2" y1="1248.9" x2="514.4" y2="1273.5"/>
				
					<line fill="none" stroke="#000000" stroke-width="2" stroke-linecap="round" stroke-miterlimit="10" x1="704.1" y1="1246.2" x2="609.2" y2="1248.9"/>
				
					<line fill="none" stroke="#000000" stroke-width="2" stroke-linecap="round" stroke-miterlimit="10" x1="798.9" y1="1238.7" x2="704.1" y2="1246.2"/>
				
					<line fill="none" stroke="#000000" stroke-width="2" stroke-linecap="round" stroke-miterlimit="10" x1="893.7" y1="1233.1" x2="798.9" y2="1238.7"/>
				
					<line fill="none" stroke="#000000" stroke-width="2" stroke-linecap="round" stroke-miterlimit="10" x1="988.6" y1="1225" x2="893.7" y2="1233.1"/>
				
					<line fill="none" stroke="#000000" stroke-width="2" stroke-linecap="round" stroke-miterlimit="10" x1="1083.4" y1="1219.9" x2="988.6" y2="1225"/>
				
					<line fill="none" stroke="#000000" stroke-width="2" stroke-linecap="round" stroke-miterlimit="10" x1="1178.2" y1="1208.1" x2="1083.4" y2="1219.9"/>
			</g>
		</g>
	</g>
	<g>
		<g>
			<g>
				<rect x="132.1" y="1267.3" fill="#DFDFDF" stroke="#000000" stroke-width="0.5" stroke-miterlimit="10" width="6" height="6"/>
				<rect x="226.9" y="1272.7" fill="#DFDFDF" stroke="#000000" stroke-width="0.5" stroke-miterlimit="10" width="6" height="6"/>
				<rect x="321.7" y="1279.2" fill="#DFDFDF" stroke="#000000" stroke-width="0.5" stroke-miterlimit="10" width="6" height="6"/>
				<rect x="416.6" y="1283.1" fill="#DFDFDF" stroke="#000000" stroke-width="0.5" stroke-miterlimit="10" width="6" height="6"/>
				<rect x="511.4" y="1288.1" fill="#DFDFDF" stroke="#000000" stroke-width="0.5" stroke-miterlimit="10" width="6" height="6"/>
				<rect x="606.2" y="1268.6" fill="#DFDFDF" stroke="#000000" stroke-width="0.5" stroke-miterlimit="10" width="6" height="6"/>
				<rect x="701.1" y="1275" fill="#DFDFDF" stroke="#000000" stroke-width="0.5" stroke-miterlimit="10" width="6" height="6"/>
				<rect x="795.9" y="1270.5" fill="#DFDFDF" stroke="#000000" stroke-width="0.5" stroke-miterlimit="10" width="6" height="6"/>
				<rect x="890.7" y="1269.8" fill="#DFDFDF" stroke="#000000" stroke-width="0.5" stroke-miterlimit="10" width="6" height="6"/>
				<rect x="985.6" y="1264.2" fill="#DFDFDF" stroke="#000000" stroke-width="0.5" stroke-miterlimit="10" width="6" height="6"/>
				<rect x="1080.4" y="1259.2" fill="#DFDFDF" stroke="#000000" stroke-width="0.5" stroke-miterlimit="10" width="6" height="6"/>
				<rect x="1175.2" y="1250.7" fill="#DFDFDF" stroke="#000000" stroke-width="0.5" stroke-miterlimit="10" width="6" height="6"/>
			</g>
		</g>
		<g>
			<g>
				<rect x="132.1" y="1268" stroke="#000000" stroke-width="0.5" stroke-miterlimit="10" width="6" height="6"/>
				<rect x="226.9" y="1271.6" stroke="#000000" stroke-width="0.5" stroke-miterlimit="10" width="6" height="6"/>
				<rect x="321.7" y="1267.8" stroke="#000000" stroke-width="0.5" stroke-miterlimit="10" width="6" height="6"/>
				<rect x="416.6" y="1262.5" stroke="#000000" stroke-width="0.5" stroke-miterlimit="10" width="6" height="6"/>
				<rect x="511.4" y="1270.5" stroke="#000000" stroke-width="0.5" stroke-miterlimit="10" width="6" height="6"/>
				<rect x="606.2" y="1245.9" stroke="#000000" stroke-width="0.5" stroke-miterlimit="10" width="6" height="6"/>
				<rect x="701.1" y="1243.2" stroke="#000000" stroke-width="0.5" stroke-miterlimit="10" width="6" height="6"/>
				<rect x="795.9" y="1235.7" stroke="#000000" stroke-width="0.5" stroke-miterlimit="10" width="6" height="6"/>
				<rect x="890.7" y="1230.1" stroke="#000000" stroke-width="0.5" stroke-miterlimit="10" width="6" height="6"/>
				<rect x="985.6" y="1222" stroke="#000000" stroke-width="0.5" stroke-miterlimit="10" width="6" height="6"/>
				<rect x="1080.4" y="1216.9" stroke="#000000" stroke-width="0.5" stroke-miterlimit="10" width="6" height="6"/>
				<rect x="1175.2" y="1205.1" stroke="#000000" stroke-width="0.5" stroke-miterlimit="10" width="6" height="6"/>
			</g>
		</g>
	</g>
</g>
<polyline fill="none" stroke="#257DFF" stroke-width="3" stroke-linecap="round" stroke-linejoin="round" stroke-miterlimit="10" points="
	1145.2,193.7 1045.7,200.9 946.2,205.1 846.7,209.8 747.3,210.4 647.8,214.2 548.3,208.8 448.8,225.3 349.3,221.1 249.9,217.8 
	150.4,212.3 50.9,207.8 "/>
<polyline fill="none" stroke="#E04244" stroke-width="3" stroke-linecap="round" stroke-linejoin="round" stroke-miterlimit="10" points="
	1145.2,155.1 1045.7,165 946.2,169.4 846.7,176.2 747.3,181 647.8,187.3 548.3,189.6 448.8,210.4 349.3,203.6 249.9,208.2 
	150.4,211.3 50.9,208.3 "/>
<g>
	<circle fill="#257DFF" cx="1145" cy="193.5" r="4"/>
</g>
<g>
	<circle fill="#E04244" cx="1145" cy="154.5" r="4"/>
</g>
<g>
	<circle fill="#257DFF" cx="1048" cy="200.5" r="4"/>
</g>
<g>
	<circle fill="#E04244" cx="1048" cy="164.5" r="4"/>
</g>
<g>
	<circle fill="#257DFF" cx="948" cy="205.5" r="4"/>
</g>
<g>
	<circle fill="#E04244" cx="948" cy="169.5" r="4"/>
</g>
<g>
	<circle fill="#E04244" cx="848" cy="176.5" r="4"/>
</g>
<g>
	<circle fill="#257DFF" cx="848" cy="209.5" r="4"/>
</g>
<g>
	<circle fill="#257DFF" cx="748" cy="210.5" r="4"/>
</g>
<g>
	<circle fill="#E04244" cx="748" cy="180.5" r="4"/>
</g>
<g>
	<circle fill="#E04244" cx="650" cy="187.5" r="4"/>
</g>
<g>
	<circle fill="#257DFF" cx="650" cy="214.5" r="4"/>
</g>
<g>
	<circle fill="#257DFF" cx="550" cy="208.5" r="4"/>
</g>
<g>
	<circle fill="#E04244" cx="550" cy="189.5" r="4"/>
</g>
<g>
	<circle fill="#E04244" cx="450" cy="210.5" r="4"/>
</g>
<g>
	<circle fill="#257DFF" cx="450" cy="225.5" r="4"/>
</g>
<g>
	<circle fill="#257DFF" cx="350" cy="221.5" r="4"/>
</g>
<g>
	<circle fill="#E04244" cx="350" cy="203.5" r="4"/>
</g>
<g>
	<circle fill="#E04244" cx="251" cy="208.5" r="4"/>
</g>
<g>
	<circle fill="#257DFF" cx="251" cy="218.5" r="4"/>
</g>
<g>
	<circle fill="#E04244" cx="151" cy="211.5" r="4"/>
</g>
<g>
	<circle fill="#E04244" cx="52" cy="208.5" r="4"/>
</g>
</svg>
