<?xml version="1.0" encoding="utf-8"?>
<!-- Generator: Adobe Illustrator 17.1.0, SVG Export Plug-In . SVG Version: 6.00 Build 0)  -->
<!DOCTYPE svg PUBLIC "-//W3C//DTD SVG 1.1//EN" "http://www.w3.org/Graphics/SVG/1.1/DTD/svg11.dtd">
<svg version="1.1" id="Ebene_1" xmlns="http://www.w3.org/2000/svg" xmlns:xlink="http://www.w3.org/1999/xlink" x="0px" y="0px"
	 viewBox="0 0 1280 800" enable-background="new 0 0 1280 800" xml:space="preserve">
<g>
	<g>
		<path fill="#063462" d="M720,354.3c-7.6,0-19-3.8-22.9-11.4c-15.2-15.2-15.2-34.3,0-49.5L982.9,7.6c11.4-11.4,34.3-11.4,49.5,0
			c15.2,15.2,15.2,34.3,0,49.5L746.7,342.9C739,350.5,727.6,354.3,720,354.3z"/>
	</g>
	<g>
		<path fill="#063462" d="M529.5,800C369.5,800,240,670.5,240,510.5S369.5,221,529.5,221S819,350.5,819,510.5S689.5,800,529.5,800z
			 M529.5,293.3c-121.9,0-221,99-221,221s99,221,221,221s221-99,221-221S651.4,293.3,529.5,293.3z"/>
	</g>
	<g>
		<path fill="#063462" d="M1005.7,293.3c-19,0-34.3-15.2-34.3-34.3V68.6H784.8c-19,0-34.3-15.2-34.3-34.3S765.7,0,784.8,0h221
			c19,0,34.3,15.2,34.3,34.3v221C1040,278.1,1024.8,293.3,1005.7,293.3z"/>
	</g>
</g>
</svg>
