<?xml version="1.0" encoding="utf-8"?>
<!-- Generator: Adobe Illustrator 17.1.0, SVG Export Plug-In . SVG Version: 6.00 Build 0)  -->
<!DOCTYPE svg PUBLIC "-//W3C//DTD SVG 1.1//EN" "http://www.w3.org/Graphics/SVG/1.1/DTD/svg11.dtd">
<svg version="1.1" id="Fakultät_Detail_Kopie_Kopie_Kopie_2_Kopie_2_Kopie_3_Kopie_Kopie_2_Kopie_2"
	 xmlns="http://www.w3.org/2000/svg" xmlns:xlink="http://www.w3.org/1999/xlink" x="0px" y="0px" viewBox="0 0 1200 330"
	 enable-background="new 0 0 1200 330" xml:space="preserve">
<g>
	<g>
		<linearGradient id="SVGID_1_" gradientUnits="userSpaceOnUse" x1="1192.7736" y1="165" x2="0.2484" y2="165">
			<stop  offset="0" style="stop-color:#063462"/>
			<stop  offset="0.4192" style="stop-color:#083361"/>
			<stop  offset="0.5702" style="stop-color:#0F315D"/>
			<stop  offset="0.6778" style="stop-color:#1A2D57"/>
			<stop  offset="0.7648" style="stop-color:#2B284E"/>
			<stop  offset="0.8393" style="stop-color:#412043"/>
			<stop  offset="0.9053" style="stop-color:#5D1734"/>
			<stop  offset="0.9635" style="stop-color:#7C0D24"/>
			<stop  offset="1" style="stop-color:#940517"/>
		</linearGradient>
		<rect x="0" fill="url(#SVGID_1_)" width="1200" height="330"/>
	</g>
</g>
<path fill="#FFFFFF" d="M518.9,49c-5.3,0-9.6-4.3-9.6-9.5s4.3-9.5,9.6-9.5h161.8c5.3,0,9.6,4.3,9.6,9.5S686,49,680.7,49H518.9z"/>
<g>
	<path fill="#2A212B" d="M520.2,43.3c0,0.3-0.2,0.6-0.6,0.6s-0.6-0.3-0.6-0.6v-7.7c0-0.3,0.2-0.6,0.6-0.6s0.6,0.3,0.6,0.6V43.3z"/>
	<path fill="#2A212B" d="M528.1,43.9c-0.2,0-0.4-0.1-0.5-0.2l-4.1-6.2v5.9c0,0.3-0.2,0.6-0.6,0.6s-0.6-0.3-0.6-0.6v-7.7
		c0-0.3,0.2-0.6,0.6-0.6c0.2,0,0.4,0.1,0.5,0.3l4.1,6.2v-5.9c0-0.3,0.2-0.6,0.6-0.6c0.3,0,0.6,0.2,0.6,0.6v7.7
		C528.6,43.6,528.4,43.9,528.1,43.9z"/>
	<path fill="#2A212B" d="M536.9,42.9c-0.8,0.7-1.6,1.1-2.9,1.1c-2.3,0-3.7-1.8-3.7-4.5s1.5-4.5,3.6-4.5c1.1,0,2,0.5,2.6,1.2
		c0.1,0.1,0.2,0.2,0.2,0.4c0,0.3-0.2,0.5-0.6,0.5c-0.2,0-0.3-0.1-0.5-0.2c-0.5-0.5-1-0.8-1.7-0.8c-1.5,0-2.5,1.3-2.5,3.4
		s0.9,3.5,2.6,3.5c0.7,0,1.3-0.1,1.9-0.6v-1.8h-1.5c-0.3,0-0.5-0.2-0.5-0.5c0-0.3,0.2-0.5,0.5-0.5h2c0.4,0,0.6,0.2,0.6,0.6v2.5
		C537,42.6,537,42.8,536.9,42.9z"/>
	<path fill="#2A212B" d="M540.1,38.8h2.2c0.3,0,0.5,0.2,0.5,0.5c0,0.3-0.2,0.5-0.5,0.5h-2.2v2.8h3.7c0.3,0,0.5,0.2,0.5,0.5
		c0,0.3-0.2,0.5-0.5,0.5h-4.2c-0.4,0-0.6-0.3-0.6-0.6v-7.5c0-0.3,0.3-0.6,0.6-0.6h4.1c0.3,0,0.5,0.2,0.5,0.5c0,0.3-0.2,0.5-0.5,0.5
		h-3.5V38.8z"/>
	<path fill="#2A212B" d="M551.4,43.9c-0.2,0-0.4-0.1-0.5-0.2l-4.1-6.2v5.9c0,0.3-0.2,0.6-0.6,0.6s-0.6-0.3-0.6-0.6v-7.7
		c0-0.3,0.2-0.6,0.6-0.6c0.2,0,0.4,0.1,0.5,0.3l4.1,6.2v-5.9c0-0.3,0.2-0.6,0.6-0.6c0.3,0,0.6,0.2,0.6,0.6v7.7
		C552,43.6,551.8,43.9,551.4,43.9z"/>
	<path fill="#2A212B" d="M555.3,43.3c0,0.3-0.2,0.6-0.6,0.6s-0.6-0.3-0.6-0.6v-7.7c0-0.3,0.2-0.6,0.6-0.6s0.6,0.3,0.6,0.6V43.3z"/>
	<path fill="#2A212B" d="M558.6,38.8h2.2c0.3,0,0.5,0.2,0.5,0.5c0,0.3-0.2,0.5-0.5,0.5h-2.2v2.8h3.7c0.3,0,0.5,0.2,0.5,0.5
		c0,0.3-0.2,0.5-0.5,0.5H558c-0.4,0-0.6-0.3-0.6-0.6v-7.5c0-0.3,0.3-0.6,0.6-0.6h4.1c0.3,0,0.5,0.2,0.5,0.5c0,0.3-0.2,0.5-0.5,0.5
		h-3.5V38.8z"/>
	<path fill="#2A212B" d="M569.4,35.6c0-0.3,0.2-0.6,0.6-0.6c0.3,0,0.6,0.3,0.6,0.6v5c0,2.1-1.2,3.3-3.2,3.3s-3.2-1.2-3.2-3.3v-5
		c0-0.3,0.2-0.6,0.6-0.6s0.6,0.3,0.6,0.6v5.1c0,1.4,0.7,2.1,2,2.1c1.3,0,2-0.8,2-2.1V35.6z"/>
	<path fill="#2A212B" d="M573.2,35.1h2.5c1.8,0,2.9,0.9,2.9,2.6c0,1.1-0.6,2-1.7,2.3l1.6,3c0.1,0.1,0.1,0.2,0.1,0.3
		c0,0.3-0.2,0.6-0.6,0.6c-0.3,0-0.4-0.1-0.5-0.3l-1.7-3.4h-2.1v3.1c0,0.3-0.3,0.6-0.6,0.6c-0.3,0-0.6-0.2-0.6-0.6v-7.6
		C572.6,35.4,572.8,35.1,573.2,35.1z M573.8,39.2h2.2c1,0,1.5-0.6,1.5-1.5c0-0.9-0.6-1.5-1.5-1.5h-2.2V39.2z"/>
	<path fill="#2A212B" d="M587.1,41.6l1.9-6.2c0.1-0.3,0.2-0.4,0.5-0.4c0.3,0,0.5,0.2,0.5,0.5c0,0.1,0,0.1,0,0.2l-2.4,7.7
		c-0.1,0.2-0.2,0.4-0.5,0.4c-0.3,0-0.5-0.1-0.5-0.4l-1.7-6.2l-1.7,6.2c-0.1,0.2-0.2,0.4-0.5,0.4c-0.3,0-0.5-0.2-0.5-0.4l-2.4-7.7
		c0-0.1,0-0.2,0-0.2c0-0.3,0.2-0.5,0.5-0.5c0.3,0,0.5,0.2,0.5,0.4l1.9,6.2l1.8-6.2c0.1-0.2,0.2-0.4,0.5-0.4c0.3,0,0.5,0.1,0.5,0.4
		L587.1,41.6z"/>
	<path fill="#2A212B" d="M592.6,43.3c0,0.3-0.2,0.6-0.6,0.6s-0.6-0.3-0.6-0.6v-7.7c0-0.3,0.2-0.6,0.6-0.6s0.6,0.3,0.6,0.6V43.3z"/>
	<path fill="#2A212B" d="M597.3,43.9c-1.2,0-2.1-0.5-2.7-1c-0.2-0.2-0.3-0.4-0.3-0.6c0-0.3,0.2-0.5,0.5-0.5c0.2,0,0.3,0.1,0.5,0.2
		c0.5,0.5,1.2,0.9,2,0.9c1.2,0,1.7-0.6,1.7-1.2c0-0.8-0.7-1.2-2.1-1.8c-1.8-0.8-2.5-1.5-2.5-2.7c0-1.5,1.2-2.2,2.8-2.2
		c0.7,0,1.3,0.1,1.9,0.4c0.4,0.2,0.8,0.5,0.8,0.8c0,0.3-0.2,0.5-0.5,0.5c-0.2,0-0.3-0.1-0.5-0.2c-0.5-0.4-1.1-0.6-1.8-0.6
		c-1,0-1.7,0.4-1.7,1.1c0,0.7,0.6,1.1,1.8,1.7c1.6,0.8,2.7,1.4,2.7,2.8C600.2,42.8,599.3,43.9,597.3,43.9z"/>
	<path fill="#2A212B" d="M604.3,43.9c-1.2,0-2.1-0.5-2.7-1c-0.2-0.2-0.3-0.4-0.3-0.6c0-0.3,0.2-0.5,0.5-0.5c0.2,0,0.3,0.1,0.5,0.2
		c0.5,0.5,1.2,0.9,2,0.9c1.2,0,1.7-0.6,1.7-1.2c0-0.8-0.7-1.2-2.1-1.8c-1.8-0.8-2.5-1.5-2.5-2.7c0-1.5,1.2-2.2,2.8-2.2
		c0.7,0,1.3,0.1,1.9,0.4c0.4,0.2,0.8,0.5,0.8,0.8c0,0.3-0.2,0.5-0.5,0.5c-0.2,0-0.3-0.1-0.5-0.2c-0.5-0.4-1.1-0.6-1.8-0.6
		c-1,0-1.7,0.4-1.7,1.1c0,0.7,0.6,1.1,1.8,1.7c1.6,0.8,2.7,1.4,2.7,2.8C607.2,42.8,606.3,43.9,604.3,43.9z"/>
	<path fill="#2A212B" d="M610,38.8h2.2c0.3,0,0.5,0.2,0.5,0.5c0,0.3-0.2,0.5-0.5,0.5H610v2.8h3.7c0.3,0,0.5,0.2,0.5,0.5
		c0,0.3-0.2,0.5-0.5,0.5h-4.2c-0.4,0-0.6-0.3-0.6-0.6v-7.5c0-0.3,0.3-0.6,0.6-0.6h4.1c0.3,0,0.5,0.2,0.5,0.5c0,0.3-0.2,0.5-0.5,0.5
		H610V38.8z"/>
	<path fill="#2A212B" d="M621.3,43.9c-0.2,0-0.4-0.1-0.5-0.2l-4.1-6.2v5.9c0,0.3-0.2,0.6-0.6,0.6s-0.6-0.3-0.6-0.6v-7.7
		c0-0.3,0.2-0.6,0.6-0.6c0.2,0,0.4,0.1,0.5,0.3l4.1,6.2v-5.9c0-0.3,0.2-0.6,0.6-0.6c0.3,0,0.6,0.2,0.6,0.6v7.7
		C621.9,43.6,621.7,43.9,621.3,43.9z"/>
	<path fill="#2A212B" d="M626.5,43.9c-1.2,0-2.1-0.5-2.7-1c-0.2-0.2-0.3-0.4-0.3-0.6c0-0.3,0.2-0.5,0.5-0.5c0.2,0,0.3,0.1,0.5,0.2
		c0.5,0.5,1.2,0.9,2,0.9c1.2,0,1.7-0.6,1.7-1.2c0-0.8-0.7-1.2-2.1-1.8c-1.8-0.8-2.5-1.5-2.5-2.7c0-1.5,1.2-2.2,2.8-2.2
		c0.7,0,1.3,0.1,1.9,0.4c0.4,0.2,0.8,0.5,0.8,0.8c0,0.3-0.2,0.5-0.5,0.5c-0.2,0-0.3-0.1-0.5-0.2c-0.5-0.4-1.1-0.6-1.8-0.6
		c-1,0-1.7,0.4-1.7,1.1c0,0.7,0.6,1.1,1.8,1.7c1.6,0.8,2.7,1.4,2.7,2.8C629.4,42.8,628.5,43.9,626.5,43.9z"/>
	<path fill="#2A212B" d="M636.9,36.3c0.1,0.1,0.1,0.3,0.1,0.4c0,0.3-0.2,0.5-0.5,0.5c-0.2,0-0.4-0.1-0.5-0.3c-0.4-0.6-1-0.9-1.7-0.9
		c-1.5,0-2.5,1.4-2.5,3.4s1,3.4,2.5,3.4c0.8,0,1.3-0.4,1.7-0.9c0.1-0.2,0.3-0.3,0.5-0.3c0.3,0,0.5,0.2,0.5,0.5c0,0.1,0,0.3-0.1,0.4
		c-0.6,0.8-1.4,1.4-2.7,1.4c-2.2,0-3.6-1.9-3.6-4.5s1.4-4.5,3.6-4.5C635.5,35,636.3,35.6,636.9,36.3z"/>
	<path fill="#2A212B" d="M639.8,43.3c0,0.3-0.2,0.6-0.6,0.6c-0.3,0-0.6-0.3-0.6-0.6v-7.7c0-0.3,0.2-0.6,0.6-0.6
		c0.3,0,0.6,0.3,0.6,0.6v3.2h3.8v-3.2c0-0.3,0.2-0.6,0.6-0.6c0.3,0,0.6,0.3,0.6,0.6v7.7c0,0.3-0.2,0.6-0.6,0.6
		c-0.3,0-0.6-0.3-0.6-0.6v-3.4h-3.8V43.3z"/>
	<path fill="#2A212B" d="M653.1,43.1c0,0.1,0.1,0.2,0.1,0.2c0,0.3-0.2,0.5-0.6,0.5c-0.3,0-0.4-0.1-0.5-0.4l-0.7-1.8h-3.5l-0.7,1.8
		c-0.1,0.2-0.2,0.4-0.5,0.4c-0.4,0-0.6-0.2-0.6-0.5c0-0.1,0-0.2,0.1-0.2l2.9-7.7c0.1-0.3,0.2-0.4,0.6-0.4c0.3,0,0.5,0.1,0.6,0.4
		L653.1,43.1z M649.7,36.9l-1.4,3.8h2.7L649.7,36.9z"/>
	<path fill="#2A212B" d="M655.8,43.3c0,0.3-0.2,0.6-0.6,0.6c-0.3,0-0.6-0.3-0.6-0.6v-7.6c0-0.3,0.3-0.6,0.6-0.6h4.1
		c0.3,0,0.5,0.2,0.5,0.5c0,0.3-0.2,0.5-0.5,0.5h-3.6v2.6h2.2c0.3,0,0.5,0.2,0.5,0.5c0,0.3-0.2,0.5-0.5,0.5h-2.2V43.3z"/>
	<path fill="#2A212B" d="M662.8,36.2h-2c-0.3,0-0.5-0.2-0.5-0.5c0-0.3,0.2-0.5,0.5-0.5h5.2c0.3,0,0.5,0.2,0.5,0.5
		c0,0.3-0.2,0.5-0.5,0.5h-2v7.1c0,0.3-0.2,0.6-0.6,0.6s-0.6-0.3-0.6-0.6V36.2z"/>
	<path fill="#2A212B" d="M668.8,38.8h2.2c0.3,0,0.5,0.2,0.5,0.5c0,0.3-0.2,0.5-0.5,0.5h-2.2v2.8h3.7c0.3,0,0.5,0.2,0.5,0.5
		c0,0.3-0.2,0.5-0.5,0.5h-4.2c-0.4,0-0.6-0.3-0.6-0.6v-7.5c0-0.3,0.3-0.6,0.6-0.6h4.1c0.3,0,0.5,0.2,0.5,0.5c0,0.3-0.2,0.5-0.5,0.5
		h-3.5V38.8z"/>
	<path fill="#2A212B" d="M680.1,43.9c-0.2,0-0.4-0.1-0.5-0.2l-4.1-6.2v5.9c0,0.3-0.2,0.6-0.6,0.6s-0.6-0.3-0.6-0.6v-7.7
		c0-0.3,0.2-0.6,0.6-0.6c0.2,0,0.4,0.1,0.5,0.3l4.1,6.2v-5.9c0-0.3,0.2-0.6,0.6-0.6c0.3,0,0.6,0.2,0.6,0.6v7.7
		C680.7,43.6,680.5,43.9,680.1,43.9z"/>
</g>
<g>
	<path fill="#FFFFFF" d="M139.4,44.9c0,0.4-0.3,0.7-0.7,0.7s-0.7-0.3-0.7-0.7v-8.8c0-0.4,0.3-0.7,0.7-0.7h4.8c0.3,0,0.6,0.3,0.6,0.6
		c0,0.4-0.3,0.6-0.6,0.6h-4.1v3h2.5c0.3,0,0.6,0.3,0.6,0.6c0,0.3-0.3,0.6-0.6,0.6h-2.5V44.9z"/>
	<path fill="#FFFFFF" d="M146.3,35.5h2.9c2.1,0,3.4,1,3.4,3c0,1.2-0.7,2.3-1.9,2.7l1.8,3.5c0.1,0.1,0.1,0.2,0.1,0.3
		c0,0.3-0.2,0.7-0.7,0.7c-0.3,0-0.5-0.1-0.6-0.4l-2-3.9H147v3.6c0,0.4-0.3,0.7-0.7,0.7c-0.4,0-0.7-0.3-0.7-0.7v-8.7
		C145.6,35.7,145.9,35.5,146.3,35.5z M147,40.1h2.5c1.2,0,1.7-0.7,1.7-1.7c0-1-0.6-1.7-1.7-1.7H147V40.1z"/>
	<path fill="#FFFFFF" d="M161.9,44.7c0,0.1,0.1,0.2,0.1,0.3c0,0.3-0.2,0.6-0.7,0.6c-0.3,0-0.5-0.2-0.6-0.4l-0.8-2.1h-4l-0.8,2.1
		c-0.1,0.2-0.3,0.4-0.6,0.4c-0.4,0-0.7-0.3-0.7-0.6c0-0.1,0-0.2,0.1-0.3l3.3-8.9c0.1-0.3,0.3-0.5,0.6-0.5c0.4,0,0.5,0.2,0.6,0.5
		L161.9,44.7z M157.9,37.5l-1.6,4.4h3.1L157.9,37.5z"/>
	<path fill="#FFFFFF" d="M169.3,36c0-0.4,0.3-0.7,0.7-0.7c0.4,0,0.7,0.3,0.7,0.7v5.8c0,2.4-1.3,3.8-3.7,3.8s-3.7-1.4-3.7-3.8V36
		c0-0.4,0.3-0.7,0.7-0.7c0.4,0,0.7,0.3,0.7,0.7v5.9c0,1.6,0.8,2.5,2.3,2.5c1.5,0,2.3-0.9,2.3-2.5V36z"/>
	<path fill="#FFFFFF" d="M174.3,39.7h2.5c0.3,0,0.6,0.3,0.6,0.6c0,0.3-0.3,0.6-0.6,0.6h-2.5v3.3h4.2c0.3,0,0.6,0.3,0.6,0.6
		c0,0.3-0.3,0.6-0.6,0.6h-4.9c-0.4,0-0.7-0.3-0.7-0.7v-8.6c0-0.4,0.3-0.7,0.7-0.7h4.8c0.3,0,0.6,0.3,0.6,0.6c0,0.4-0.3,0.6-0.6,0.6
		h-4.1V39.7z"/>
	<path fill="#FFFFFF" d="M187.4,45.6c-0.2,0-0.4-0.1-0.6-0.3l-4.7-7.2v6.8c0,0.3-0.3,0.6-0.6,0.6s-0.6-0.3-0.6-0.6V36
		c0-0.4,0.3-0.6,0.6-0.6c0.3,0,0.4,0.1,0.6,0.3l4.7,7.2V36c0-0.4,0.3-0.6,0.6-0.6c0.4,0,0.6,0.3,0.6,0.6v8.9
		C188,45.2,187.8,45.6,187.4,45.6z"/>
	<path fill="#FFFFFF" d="M147.6,80.9c-5.3,0-8.4-3.7-8.4-8.7c0-7.4,4-13.7,10-17c0.5-0.3,0.9-0.5,1.6-0.5c0.6,0,0.9,0.3,0.9,0.8
		c0,0.5-0.5,0.8-1.1,1.1c-5,2.7-7.9,6.8-9.4,12.4c1.2-2.4,3.9-3.7,6.8-3.7c4.4,0,7.7,2.9,7.7,7.7C155.8,77.2,152.8,80.9,147.6,80.9z
		 M141.6,73c0,3.4,2,6.1,6.1,6.1c3.8,0,6-2.6,6-6c0-3.3-2.1-5.9-5.8-5.9C144.3,67.1,141.6,69.6,141.6,73z"/>
	<path fill="#FFFFFF" d="M168.7,80.9c-6.1,0-9.2-5.8-9.2-13.1c0-7.3,3.1-13.1,9.2-13.1s9.2,5.8,9.2,13.1
		C177.9,75.1,174.8,80.9,168.7,80.9z M175.7,67.8c0-6.2-2.1-11.2-7-11.2s-7,5-7,11.2c0,6.2,2.1,11.2,7,11.2S175.7,74,175.7,67.8z"/>
	<path fill="#FFFFFF" d="M195.9,56.8c-5.1,7-8,12.8-8,22.8v0.1c0,0.6-0.4,1.1-1.1,1.1s-1.1-0.5-1.1-1.1v-0.2
		c0-9.4,2.9-15.9,7.6-22.4h-12.5c-0.5,0-1-0.4-1-0.9s0.4-1,1-1h14.3c0.7,0,1.1,0.3,1.1,0.9C196.2,56.4,196.1,56.6,195.9,56.8z"/>
</g>
<g>
	<path fill="#FFFFFF" d="M38.4,44.7c0,0.1,0.1,0.2,0.1,0.3c0,0.3-0.2,0.6-0.7,0.6c-0.3,0-0.5-0.2-0.6-0.4l-0.8-2.1h-4l-0.8,2.1
		c-0.1,0.2-0.3,0.4-0.6,0.4c-0.4,0-0.7-0.3-0.7-0.6c0-0.1,0-0.2,0.1-0.3l3.3-8.9c0.1-0.3,0.3-0.5,0.6-0.5c0.4,0,0.5,0.2,0.6,0.5
		L38.4,44.7z M34.4,37.5l-1.6,4.4H36L34.4,37.5z"/>
	<path fill="#FFFFFF" d="M46.7,45.6c-0.2,0-0.4-0.1-0.6-0.3l-4.7-7.2v6.8c0,0.3-0.3,0.6-0.6,0.6s-0.6-0.3-0.6-0.6V36
		c0-0.4,0.3-0.6,0.6-0.6c0.3,0,0.4,0.1,0.6,0.3l4.7,7.2V36c0-0.4,0.3-0.6,0.6-0.6c0.4,0,0.6,0.3,0.6,0.6v8.9
		C47.3,45.2,47.1,45.6,46.7,45.6z"/>
	<path fill="#FFFFFF" d="M51.6,36.7h-2.3c-0.3,0-0.6-0.3-0.6-0.6c0-0.3,0.3-0.6,0.6-0.6h6c0.3,0,0.6,0.3,0.6,0.6
		c0,0.4-0.3,0.6-0.6,0.6h-2.3v8.2c0,0.4-0.3,0.7-0.7,0.7c-0.4,0-0.7-0.3-0.7-0.7V36.7z"/>
	<path fill="#FFFFFF" d="M58.5,39.7H61c0.3,0,0.6,0.3,0.6,0.6c0,0.3-0.3,0.6-0.6,0.6h-2.5v3.3h4.2c0.3,0,0.6,0.3,0.6,0.6
		c0,0.3-0.3,0.6-0.6,0.6h-4.9c-0.4,0-0.7-0.3-0.7-0.7v-8.6c0-0.4,0.3-0.7,0.7-0.7h4.8c0.3,0,0.6,0.3,0.6,0.6c0,0.4-0.3,0.6-0.6,0.6
		h-4.1V39.7z"/>
	<path fill="#FFFFFF" d="M66.5,44.9c0,0.4-0.3,0.7-0.7,0.7s-0.7-0.3-0.7-0.7V36c0-0.4,0.3-0.7,0.7-0.7s0.7,0.3,0.7,0.7V44.9z"/>
	<path fill="#FFFFFF" d="M70.3,44.2h3.9c0.3,0,0.6,0.3,0.6,0.6c0,0.3-0.3,0.6-0.6,0.6h-4.6c-0.4,0-0.7-0.3-0.7-0.7V36
		c0-0.4,0.3-0.7,0.7-0.7s0.7,0.3,0.7,0.7V44.2z"/>
	<path fill="#FFFFFF" d="M37.5,80.7c-0.6,0-1.1-0.5-1.1-1.1V57.2l-4.4,1.4c-0.2,0-0.3,0.1-0.5,0.1c-0.5,0-1.1-0.3-1.1-1
		s0.3-0.8,0.8-1l5.5-1.7c0.3-0.1,0.5-0.2,0.8-0.2c0.7,0,1.1,0.4,1.1,1.1v23.7C38.6,80.2,38.2,80.7,37.5,80.7z"/>
	<path fill="#FFFFFF" d="M59.1,80.4H45.2c-0.5,0-1-0.5-1-1v-1.3c0-5.5,3.4-7.8,7-10.1c4.6-3.1,6.4-4.5,6.4-7.3c0-2.7-2.1-4-5.4-4
		c-2.3,0-4.1,0.7-5.9,2.1c-0.2,0.2-0.4,0.3-0.7,0.3c-0.6,0-1-0.4-1-1c0-0.6,0.4-0.9,1-1.3c1.7-1.2,4-2.1,6.8-2.1
		c4.2,0,7.5,1.9,7.5,6c0,2.9-1.8,5.1-6.8,8.4c-4.7,3.1-6.5,4.8-6.5,8.7v0.6h12.7c0.6,0,1,0.4,1,0.9S59.7,80.4,59.1,80.4z"/>
	<path fill="#FFFFFF" d="M66.1,77.6c0.9,0,1.6,0.7,1.6,1.6c0,0.9-0.7,1.6-1.6,1.6c-0.9,0-1.6-0.7-1.6-1.6
		C64.5,78.2,65.2,77.6,66.1,77.6z"/>
	<path fill="#FFFFFF" d="M76.1,80.7c-0.6,0-1.1-0.5-1.1-1.1V57.2l-4.4,1.4c-0.2,0-0.3,0.1-0.5,0.1c-0.5,0-1.1-0.3-1.1-1
		s0.3-0.8,0.8-1l5.5-1.7c0.3-0.1,0.5-0.2,0.8-0.2c0.7,0,1.1,0.4,1.1,1.1v23.7C77.2,80.2,76.7,80.7,76.1,80.7z"/>
	<path fill="#FFFFFF" d="M88.5,67c-3.3,0-5.4-2.8-5.4-6.2c0-3.4,2.1-6.2,5.4-6.2c3.3,0,5.4,2.8,5.4,6.2C93.9,64.2,91.8,67,88.5,67z
		 M88.5,65.3c2.3,0,3.5-2.2,3.5-4.5s-1.2-4.5-3.5-4.5c-2.3,0-3.5,2.2-3.5,4.5S86.2,65.3,88.5,65.3z M103.1,56.4L88.3,80.4
		c-0.2,0.3-0.5,0.5-0.8,0.5c-0.6,0-1-0.4-1-1c0-0.3,0.2-0.5,0.3-0.6l14.9-23.9c0.2-0.4,0.5-0.6,0.8-0.6c0.5,0,1,0.3,1,0.9
		C103.4,56,103.3,56.2,103.1,56.4z M101.5,80.9c-3.3,0-5.4-2.8-5.4-6.2s2.1-6.2,5.4-6.2c3.3,0,5.4,2.8,5.4,6.2
		S104.8,80.9,101.5,80.9z M101.5,79.2c2.3,0,3.5-2.2,3.5-4.5s-1.2-4.5-3.5-4.5c-2.3,0-3.5,2.2-3.5,4.5S99.2,79.2,101.5,79.2z"/>
</g>
<g>
	<path fill="#FFFFFF" d="M232.7,45.4h-5.4c-0.4,0-0.6-0.3-0.6-0.6c0-0.1,0.1-0.3,0.1-0.4l4.7-7.8h-4.2c-0.4,0-0.6-0.2-0.6-0.6
		c0-0.3,0.3-0.6,0.6-0.6h5.3c0.3,0,0.6,0.2,0.6,0.6c0,0.2-0.1,0.3-0.1,0.4l-4.7,7.8h4.3c0.3,0,0.6,0.2,0.6,0.6
		C233.3,45.2,233,45.4,232.7,45.4z"/>
	<path fill="#FFFFFF" d="M241.1,36c0-0.4,0.3-0.7,0.7-0.7c0.4,0,0.7,0.3,0.7,0.7v5.8c0,2.4-1.3,3.8-3.7,3.8c-2.3,0-3.7-1.4-3.7-3.8
		V36c0-0.4,0.3-0.7,0.7-0.7c0.4,0,0.7,0.3,0.7,0.7v5.9c0,1.6,0.8,2.5,2.3,2.5c1.5,0,2.3-0.9,2.3-2.5V36z"/>
	<path fill="#FFFFFF" d="M245.6,46.9c-0.1,0.2-0.2,0.4-0.6,0.4c-0.3,0-0.6-0.2-0.6-0.5c0-0.1,0-0.2,0-0.2l3.4-11.4
		c0.1-0.3,0.2-0.4,0.6-0.4c0.4,0,0.6,0.2,0.6,0.6c0,0.1,0,0.2,0,0.3L245.6,46.9z"/>
	<path fill="#FFFFFF" d="M257.8,44.7c0,0.1,0.1,0.2,0.1,0.3c0,0.3-0.2,0.6-0.7,0.6c-0.3,0-0.5-0.2-0.6-0.4l-0.8-2.1h-4l-0.8,2.1
		c-0.1,0.2-0.3,0.4-0.6,0.4c-0.4,0-0.7-0.3-0.7-0.6c0-0.1,0-0.2,0.1-0.3l3.3-8.9c0.1-0.3,0.3-0.5,0.6-0.5c0.4,0,0.5,0.2,0.6,0.5
		L257.8,44.7z M253.8,37.5l-1.6,4.4h3.1L253.8,37.5z"/>
	<path fill="#FFFFFF" d="M263,45.4h-2.8c-0.4,0-0.7-0.3-0.7-0.7v-8.6c0-0.4,0.3-0.7,0.7-0.7h2.7c1.8,0,2.9,1,2.9,2.5
		c0,1-0.6,1.9-1.5,2.2c1.2,0.3,2,1,2,2.4C266.4,44.2,265.3,45.4,263,45.4z M262.9,36.7h-2v3h2c1,0,1.5-0.8,1.5-1.5
		C264.5,37.2,263.9,36.7,262.9,36.7z M263.1,40.9h-2.2v3.3h2.2c1.3,0,1.9-0.7,1.9-1.6C265,41.5,264.3,40.9,263.1,40.9z"/>
	<path fill="#FFFFFF" d="M271.2,45.6c-1.3,0-2.4-0.5-3.1-1.2c-0.2-0.2-0.3-0.4-0.3-0.7c0-0.4,0.2-0.6,0.6-0.6c0.2,0,0.3,0.1,0.5,0.3
		c0.6,0.6,1.3,1,2.4,1c1.4,0,1.9-0.6,1.9-1.4c0-0.9-0.8-1.4-2.4-2.1c-2.1-0.9-2.8-1.7-2.8-3.1c0-1.7,1.4-2.5,3.3-2.5
		c0.8,0,1.5,0.2,2.2,0.5c0.5,0.2,0.9,0.6,0.9,1c0,0.3-0.2,0.6-0.6,0.6c-0.2,0-0.4-0.1-0.5-0.2c-0.6-0.4-1.2-0.6-2-0.6
		c-1.1,0-1.9,0.4-1.9,1.3c0,0.8,0.6,1.3,2.1,1.9c1.9,0.9,3.1,1.6,3.1,3.2C274.5,44.4,273.4,45.6,271.2,45.6z"/>
	<path fill="#FFFFFF" d="M278.1,36.7h-2.3c-0.3,0-0.6-0.3-0.6-0.6c0-0.3,0.3-0.6,0.6-0.6h6c0.3,0,0.6,0.3,0.6,0.6
		c0,0.4-0.3,0.6-0.6,0.6h-2.3v8.2c0,0.4-0.3,0.7-0.7,0.7c-0.4,0-0.7-0.3-0.7-0.7V36.7z"/>
	<path fill="#FFFFFF" d="M285.2,44.9c0,0.4-0.3,0.7-0.7,0.7s-0.7-0.3-0.7-0.7V36c0-0.4,0.3-0.7,0.7-0.7s0.7,0.3,0.7,0.7V44.9z"/>
	<path fill="#FFFFFF" d="M289,39.7h2.5c0.3,0,0.6,0.3,0.6,0.6c0,0.3-0.3,0.6-0.6,0.6H289v3.3h4.2c0.3,0,0.6,0.3,0.6,0.6
		c0,0.3-0.3,0.6-0.6,0.6h-4.9c-0.4,0-0.7-0.3-0.7-0.7v-8.6c0-0.4,0.3-0.7,0.7-0.7h4.8c0.3,0,0.6,0.3,0.6,0.6c0,0.4-0.3,0.6-0.6,0.6
		H289V39.7z"/>
	<path fill="#FFFFFF" d="M302.3,44.4c-0.9,0.8-1.9,1.2-3.3,1.2c-2.6,0-4.2-2-4.2-5.2c0-3.1,1.8-5.2,4.2-5.2c1.3,0,2.3,0.6,3,1.4
		c0.1,0.1,0.2,0.3,0.2,0.5c0,0.3-0.2,0.6-0.6,0.6c-0.2,0-0.4-0.1-0.5-0.3c-0.6-0.6-1.1-0.9-2-0.9c-1.7,0-2.8,1.5-2.8,3.9
		c0,2.4,1.1,4,3,4c0.8,0,1.5-0.2,2.1-0.7v-2.1h-1.7c-0.3,0-0.6-0.3-0.6-0.6c0-0.3,0.3-0.6,0.6-0.6h2.3c0.4,0,0.7,0.3,0.7,0.7v2.8
		C302.5,44.1,302.4,44.3,302.3,44.4z"/>
	<path fill="#FFFFFF" d="M243.7,69.1h-6.3v6.5c0,0.6-0.4,1.1-1,1.1c-0.6,0-1-0.5-1-1v-6.6h-6.3c-0.6,0-1-0.4-1-0.9c0-0.5,0.5-1,1-1
		h6.3v-6.5c0-0.6,0.5-1.1,1.1-1.1c0.6,0,1,0.5,1,1v6.6h6.3c0.5,0,1,0.4,1,1C244.7,68.7,244.3,69.1,243.7,69.1z"/>
	<path fill="#FFFFFF" d="M257.5,80.9c-5.3,0-8.4-3.7-8.4-8.7c0-7.4,4-13.7,10-17c0.5-0.3,0.9-0.5,1.6-0.5c0.6,0,0.9,0.3,0.9,0.8
		c0,0.5-0.5,0.8-1.1,1.1c-5,2.7-7.9,6.8-9.4,12.4c1.2-2.4,3.9-3.7,6.8-3.7c4.4,0,7.7,2.9,7.7,7.7C265.7,77.2,262.6,80.9,257.5,80.9z
		 M251.4,73c0,3.4,2,6.1,6.1,6.1c3.8,0,6-2.6,6-6c0-3.3-2.1-5.9-5.8-5.9C254.2,67.1,251.4,69.6,251.4,73z"/>
	<path fill="#FFFFFF" d="M275.2,67c-3.3,0-5.4-2.8-5.4-6.2c0-3.4,2.1-6.2,5.4-6.2c3.3,0,5.4,2.8,5.4,6.2
		C280.6,64.2,278.5,67,275.2,67z M275.2,65.3c2.3,0,3.5-2.2,3.5-4.5s-1.2-4.5-3.5-4.5c-2.3,0-3.5,2.2-3.5,4.5S272.9,65.3,275.2,65.3
		z M289.9,56.4L275,80.4c-0.2,0.3-0.5,0.5-0.8,0.5c-0.6,0-1-0.4-1-1c0-0.3,0.2-0.5,0.3-0.6l14.9-23.9c0.2-0.4,0.5-0.6,0.8-0.6
		c0.5,0,1,0.3,1,0.9C290.2,56,290,56.2,289.9,56.4z M288.3,80.9c-3.3,0-5.4-2.8-5.4-6.2s2.1-6.2,5.4-6.2c3.3,0,5.4,2.8,5.4,6.2
		S291.6,80.9,288.3,80.9z M288.3,79.2c2.3,0,3.5-2.2,3.5-4.5s-1.2-4.5-3.5-4.5c-2.3,0-3.5,2.2-3.5,4.5S286,79.2,288.3,79.2z"/>
</g>
<g>
	<path fill="#FFFFFF" d="M646.2,319.6h-4.8c-0.2,0-0.3-0.2-0.3-0.3v-0.5c0-1.9,1.2-2.7,2.4-3.5c1.6-1.1,2.2-1.5,2.2-2.5
		c0-0.9-0.7-1.4-1.9-1.4c-0.8,0-1.4,0.2-2,0.7c-0.1,0.1-0.1,0.1-0.2,0.1c-0.2,0-0.4-0.1-0.4-0.3s0.1-0.3,0.3-0.5
		c0.6-0.4,1.4-0.7,2.3-0.7c1.4,0,2.6,0.6,2.6,2.1c0,1-0.6,1.8-2.3,2.9c-1.6,1.1-2.2,1.7-2.2,3v0.2h4.3c0.2,0,0.3,0.1,0.3,0.3
		C646.5,319.5,646.4,319.6,646.2,319.6z"/>
	<path fill="#FFFFFF" d="M650.9,319.8c-2.1,0-3.1-2-3.1-4.5s1.1-4.5,3.1-4.5s3.1,2,3.1,4.5S653,319.8,650.9,319.8z M653.3,315.3
		c0-2.1-0.7-3.8-2.4-3.8c-1.7,0-2.4,1.7-2.4,3.8s0.7,3.8,2.4,3.8C652.6,319.1,653.3,317.4,653.3,315.3z"/>
	<path fill="#FFFFFF" d="M658.6,319.8c-2.1,0-3.1-2-3.1-4.5s1.1-4.5,3.1-4.5s3.1,2,3.1,4.5S660.7,319.8,658.6,319.8z M661,315.3
		c0-2.1-0.7-3.8-2.4-3.8c-1.7,0-2.4,1.7-2.4,3.8s0.7,3.8,2.4,3.8C660.3,319.1,661,317.4,661,315.3z"/>
	<path fill="#FFFFFF" d="M666.1,319.8c-1.8,0-2.9-1.3-2.9-3c0-2.5,1.4-4.7,3.4-5.8c0.2-0.1,0.3-0.2,0.5-0.2c0.2,0,0.3,0.1,0.3,0.3
		c0,0.2-0.2,0.3-0.4,0.4c-1.7,0.9-2.7,2.3-3.2,4.3c0.4-0.8,1.3-1.3,2.3-1.3c1.5,0,2.6,1,2.6,2.6
		C668.9,318.5,667.9,319.8,666.1,319.8z M664.1,317.1c0,1.2,0.7,2.1,2.1,2.1c1.3,0,2.1-0.9,2.1-2.1c0-1.1-0.7-2-2-2
		C665,315.1,664.1,315.9,664.1,317.1z"/>
</g>
<g>
	<path fill="#FFFFFF" d="M748.3,319.6h-4.8c-0.2,0-0.3-0.2-0.3-0.3v-0.5c0-1.9,1.2-2.7,2.4-3.5c1.6-1.1,2.2-1.5,2.2-2.5
		c0-0.9-0.7-1.4-1.9-1.4c-0.8,0-1.4,0.2-2,0.7c-0.1,0.1-0.1,0.1-0.2,0.1c-0.2,0-0.4-0.1-0.4-0.3s0.1-0.3,0.3-0.5
		c0.6-0.4,1.4-0.7,2.3-0.7c1.4,0,2.6,0.6,2.6,2.1c0,1-0.6,1.8-2.3,2.9c-1.6,1.1-2.2,1.7-2.2,3v0.2h4.3c0.2,0,0.3,0.1,0.3,0.3
		C748.7,319.5,748.5,319.6,748.3,319.6z"/>
	<path fill="#FFFFFF" d="M753.1,319.8c-2.1,0-3.1-2-3.1-4.5s1.1-4.5,3.1-4.5s3.1,2,3.1,4.5S755.2,319.8,753.1,319.8z M755.5,315.3
		c0-2.1-0.7-3.8-2.4-3.8s-2.4,1.7-2.4,3.8s0.7,3.8,2.4,3.8S755.5,317.4,755.5,315.3z"/>
	<path fill="#FFFFFF" d="M760.8,319.8c-2.1,0-3.1-2-3.1-4.5s1.1-4.5,3.1-4.5s3.1,2,3.1,4.5S762.9,319.8,760.8,319.8z M763.2,315.3
		c0-2.1-0.7-3.8-2.4-3.8c-1.7,0-2.4,1.7-2.4,3.8s0.7,3.8,2.4,3.8C762.4,319.1,763.2,317.4,763.2,315.3z"/>
	<path fill="#FFFFFF" d="M770.1,311.5c-1.8,2.4-2.7,4.4-2.7,7.8v0c0,0.2-0.1,0.4-0.4,0.4c-0.2,0-0.4-0.2-0.4-0.4v-0.1
		c0-3.2,1-5.4,2.6-7.7h-4.3c-0.2,0-0.3-0.1-0.3-0.3s0.1-0.3,0.3-0.3h4.9c0.2,0,0.4,0.1,0.4,0.3C770.2,311.4,770.1,311.5,770.1,311.5
		z"/>
</g>
<g>
	<path fill="#FFFFFF" d="M849.2,319.6h-4.8c-0.2,0-0.3-0.2-0.3-0.3v-0.5c0-1.9,1.2-2.7,2.4-3.5c1.6-1.1,2.2-1.5,2.2-2.5
		c0-0.9-0.7-1.4-1.9-1.4c-0.8,0-1.4,0.2-2,0.7c-0.1,0.1-0.1,0.1-0.2,0.1c-0.2,0-0.4-0.1-0.4-0.3s0.1-0.3,0.3-0.5
		c0.6-0.4,1.4-0.7,2.3-0.7c1.4,0,2.6,0.6,2.6,2.1c0,1-0.6,1.8-2.3,2.9c-1.6,1.1-2.2,1.7-2.2,3v0.2h4.3c0.2,0,0.3,0.1,0.3,0.3
		C849.6,319.5,849.4,319.6,849.2,319.6z"/>
	<path fill="#FFFFFF" d="M853.9,319.8c-2.1,0-3.1-2-3.1-4.5s1.1-4.5,3.1-4.5s3.1,2,3.1,4.5S856,319.8,853.9,319.8z M856.3,315.3
		c0-2.1-0.7-3.8-2.4-3.8c-1.7,0-2.4,1.7-2.4,3.8s0.7,3.8,2.4,3.8C855.6,319.1,856.3,317.4,856.3,315.3z"/>
	<path fill="#FFFFFF" d="M861.6,319.8c-2.1,0-3.1-2-3.1-4.5s1.1-4.5,3.1-4.5s3.1,2,3.1,4.5S863.7,319.8,861.6,319.8z M864,315.3
		c0-2.1-0.7-3.8-2.4-3.8c-1.7,0-2.4,1.7-2.4,3.8s0.7,3.8,2.4,3.8C863.3,319.1,864,317.4,864,315.3z"/>
	<path fill="#FFFFFF" d="M869.2,310.8c1.5,0,2.5,0.9,2.5,2.2c0,0.8-0.5,1.5-1.3,2c1,0.3,1.8,1.1,1.8,2.3c0,1.4-1.1,2.5-2.9,2.5
		c-1.9,0-2.9-1.2-2.9-2.5c0-1.2,0.8-2,1.8-2.3c-0.9-0.4-1.3-1.2-1.3-2C866.8,311.7,867.7,310.8,869.2,310.8z M867,317.2
		c0,1.1,0.9,1.9,2.2,1.9c1.4,0,2.2-0.8,2.2-1.9c0-1.2-1-1.9-2.2-1.9C868,315.3,867,316,867,317.2z M869.2,314.7c1,0,1.7-0.7,1.7-1.7
		c0-1-0.7-1.6-1.7-1.6c-1,0-1.7,0.6-1.7,1.6C867.5,314,868.2,314.7,869.2,314.7z"/>
</g>
<g>
	<path fill="#FFFFFF" d="M1053.9,319.6h-4.8c-0.2,0-0.3-0.2-0.3-0.3v-0.5c0-1.9,1.2-2.7,2.4-3.5c1.6-1.1,2.2-1.5,2.2-2.5
		c0-0.9-0.7-1.4-1.9-1.4c-0.8,0-1.4,0.2-2,0.7c-0.1,0.1-0.1,0.1-0.2,0.1c-0.2,0-0.4-0.1-0.4-0.3s0.1-0.3,0.3-0.5
		c0.6-0.4,1.4-0.7,2.3-0.7c1.4,0,2.6,0.6,2.6,2.1c0,1-0.6,1.8-2.3,2.9c-1.6,1.1-2.2,1.7-2.2,3v0.2h4.3c0.2,0,0.3,0.1,0.3,0.3
		C1054.3,319.5,1054.1,319.6,1053.9,319.6z"/>
	<path fill="#FFFFFF" d="M1058.7,319.8c-2.1,0-3.1-2-3.1-4.5s1.1-4.5,3.1-4.5s3.1,2,3.1,4.5S1060.7,319.8,1058.7,319.8z M1061,315.3
		c0-2.1-0.7-3.8-2.4-3.8c-1.7,0-2.4,1.7-2.4,3.8s0.7,3.8,2.4,3.8C1060.3,319.1,1061,317.4,1061,315.3z"/>
	<path fill="#FFFFFF" d="M1065.1,319.7c-0.2,0-0.4-0.2-0.4-0.4v-7.7l-1.5,0.5c-0.1,0-0.1,0-0.2,0c-0.2,0-0.4-0.1-0.4-0.3
		c0-0.2,0.1-0.3,0.3-0.3l1.9-0.6c0.1,0,0.2-0.1,0.3-0.1c0.2,0,0.4,0.1,0.4,0.4v8.1C1065.5,319.6,1065.3,319.7,1065.1,319.7z"/>
	<path fill="#FFFFFF" d="M1070.5,319.8c-2.1,0-3.1-2-3.1-4.5s1.1-4.5,3.1-4.5s3.1,2,3.1,4.5S1072.6,319.8,1070.5,319.8z
		 M1072.9,315.3c0-2.1-0.7-3.8-2.4-3.8c-1.7,0-2.4,1.7-2.4,3.8s0.7,3.8,2.4,3.8C1072.1,319.1,1072.9,317.4,1072.9,315.3z"/>
</g>
<g>
	<path fill="#FFFFFF" d="M1153.2,319.6h-4.8c-0.2,0-0.3-0.2-0.3-0.3v-0.5c0-1.9,1.2-2.7,2.4-3.5c1.6-1.1,2.2-1.5,2.2-2.5
		c0-0.9-0.7-1.4-1.9-1.4c-0.8,0-1.4,0.2-2,0.7c-0.1,0.1-0.1,0.1-0.2,0.1c-0.2,0-0.4-0.1-0.4-0.3s0.1-0.3,0.3-0.5
		c0.6-0.4,1.4-0.7,2.3-0.7c1.4,0,2.6,0.6,2.6,2.1c0,1-0.6,1.8-2.3,2.9c-1.6,1.1-2.2,1.7-2.2,3v0.2h4.3c0.2,0,0.3,0.1,0.3,0.3
		C1153.5,319.5,1153.4,319.6,1153.2,319.6z"/>
	<path fill="#FFFFFF" d="M1157.9,319.8c-2.1,0-3.1-2-3.1-4.5s1.1-4.5,3.1-4.5s3.1,2,3.1,4.5S1160,319.8,1157.9,319.8z M1160.3,315.3
		c0-2.1-0.7-3.8-2.4-3.8c-1.7,0-2.4,1.7-2.4,3.8s0.7,3.8,2.4,3.8C1159.6,319.1,1160.3,317.4,1160.3,315.3z"/>
	<path fill="#FFFFFF" d="M1164.3,319.7c-0.2,0-0.4-0.2-0.4-0.4v-7.7l-1.5,0.5c-0.1,0-0.1,0-0.2,0c-0.2,0-0.4-0.1-0.4-0.3
		c0-0.2,0.1-0.3,0.3-0.3l1.9-0.6c0.1,0,0.2-0.1,0.3-0.1c0.2,0,0.4,0.1,0.4,0.4v8.1C1164.7,319.6,1164.6,319.7,1164.3,319.7z"/>
	<path fill="#FFFFFF" d="M1168.5,319.7c-0.2,0-0.4-0.2-0.4-0.4v-7.7l-1.5,0.5c-0.1,0-0.1,0-0.2,0c-0.2,0-0.4-0.1-0.4-0.3
		c0-0.2,0.1-0.3,0.3-0.3l1.9-0.6c0.1,0,0.2-0.1,0.3-0.1c0.2,0,0.4,0.1,0.4,0.4v8.1C1168.8,319.6,1168.7,319.7,1168.5,319.7z"/>
</g>
<g>
	<path fill="#FFFFFF" d="M441.8,319.6h-4.8c-0.2,0-0.3-0.2-0.3-0.3v-0.5c0-1.9,1.2-2.7,2.4-3.5c1.6-1.1,2.2-1.5,2.2-2.5
		c0-0.9-0.7-1.4-1.9-1.4c-0.8,0-1.4,0.2-2,0.7c-0.1,0.1-0.1,0.1-0.2,0.1c-0.2,0-0.4-0.1-0.4-0.3s0.1-0.3,0.3-0.5
		c0.6-0.4,1.4-0.7,2.3-0.7c1.4,0,2.6,0.6,2.6,2.1c0,1-0.6,1.8-2.3,2.9c-1.6,1.1-2.2,1.7-2.2,3v0.2h4.3c0.2,0,0.3,0.1,0.3,0.3
		C442.2,319.5,442,319.6,441.8,319.6z"/>
	<path fill="#FFFFFF" d="M446.6,319.8c-2.1,0-3.1-2-3.1-4.5s1.1-4.5,3.1-4.5s3.1,2,3.1,4.5S448.6,319.8,446.6,319.8z M448.9,315.3
		c0-2.1-0.7-3.8-2.4-3.8c-1.7,0-2.4,1.7-2.4,3.8s0.7,3.8,2.4,3.8C448.2,319.1,448.9,317.4,448.9,315.3z"/>
	<path fill="#FFFFFF" d="M454.3,319.8c-2.1,0-3.1-2-3.1-4.5s1.1-4.5,3.1-4.5s3.1,2,3.1,4.5S456.3,319.8,454.3,319.8z M456.6,315.3
		c0-2.1-0.7-3.8-2.4-3.8c-1.7,0-2.4,1.7-2.4,3.8s0.7,3.8,2.4,3.8C455.9,319.1,456.6,317.4,456.6,315.3z"/>
	<path fill="#FFFFFF" d="M464.7,317.2h-1.2v2.2c0,0.2-0.1,0.4-0.4,0.4c-0.2,0-0.4-0.2-0.4-0.4v-2.2h-4c-0.2,0-0.3-0.1-0.3-0.3
		c0-0.1,0-0.2,0.1-0.2l4.3-5.6c0.1-0.1,0.2-0.2,0.3-0.2c0.2,0,0.4,0.1,0.4,0.4v5.3h1.1c0.2,0,0.3,0.1,0.3,0.3
		S464.8,317.2,464.7,317.2z M462.8,312.1l-3.4,4.4h3.4V312.1z"/>
</g>
<g>
	<path fill="#FFFFFF" d="M339.8,319.6H335c-0.2,0-0.3-0.2-0.3-0.3v-0.5c0-1.9,1.2-2.7,2.4-3.5c1.6-1.1,2.2-1.5,2.2-2.5
		c0-0.9-0.7-1.4-1.9-1.4c-0.8,0-1.4,0.2-2,0.7c-0.1,0.1-0.1,0.1-0.2,0.1c-0.2,0-0.4-0.1-0.4-0.3s0.1-0.3,0.3-0.5
		c0.6-0.4,1.4-0.7,2.3-0.7c1.4,0,2.6,0.6,2.6,2.1c0,1-0.6,1.8-2.3,2.9c-1.6,1.1-2.2,1.7-2.2,3v0.2h4.3c0.2,0,0.3,0.1,0.3,0.3
		C340.1,319.5,340,319.6,339.8,319.6z"/>
	<path fill="#FFFFFF" d="M344.5,319.8c-2.1,0-3.1-2-3.1-4.5s1.1-4.5,3.1-4.5s3.1,2,3.1,4.5S346.6,319.8,344.5,319.8z M346.9,315.3
		c0-2.1-0.7-3.8-2.4-3.8c-1.7,0-2.4,1.7-2.4,3.8s0.7,3.8,2.4,3.8C346.2,319.1,346.9,317.4,346.9,315.3z"/>
	<path fill="#FFFFFF" d="M352.2,319.8c-2.1,0-3.1-2-3.1-4.5s1.1-4.5,3.1-4.5s3.1,2,3.1,4.5S354.3,319.8,352.2,319.8z M354.6,315.3
		c0-2.1-0.7-3.8-2.4-3.8c-1.7,0-2.4,1.7-2.4,3.8s0.7,3.8,2.4,3.8C353.9,319.1,354.6,317.4,354.6,315.3z"/>
	<path fill="#FFFFFF" d="M359.3,319.8c-1.1,0-1.9-0.4-2.5-0.9c-0.2-0.1-0.3-0.3-0.3-0.5c0-0.2,0.2-0.3,0.3-0.3
		c0.1,0,0.2,0.1,0.3,0.1c0.5,0.6,1.2,0.9,2.2,0.9c1.2,0,2.2-0.7,2.2-1.9s-0.8-1.9-2.3-1.9h-0.8c-0.2,0-0.4-0.1-0.4-0.3
		c0-0.2,0.1-0.3,0.3-0.3h0.7c1.2,0,1.9-0.8,1.9-1.7s-0.7-1.5-1.8-1.5c-0.6,0-1.1,0.2-1.6,0.5c-0.1,0.1-0.2,0.1-0.3,0.1
		c-0.2,0-0.3-0.1-0.3-0.3c0-0.2,0.1-0.3,0.3-0.4c0.6-0.4,1.3-0.6,2-0.6c1.5,0,2.5,0.8,2.5,2.1c0,0.9-0.5,1.6-1.4,2
		c1,0.2,1.8,1,1.8,2.3C362.2,318.6,361.2,319.8,359.3,319.8z"/>
</g>
<g>
	<path fill="#FFFFFF" d="M237.9,319.6h-4.8c-0.2,0-0.3-0.2-0.3-0.3v-0.5c0-1.9,1.2-2.7,2.4-3.5c1.6-1.1,2.2-1.5,2.2-2.5
		c0-0.9-0.7-1.4-1.9-1.4c-0.8,0-1.4,0.2-2,0.7c-0.1,0.1-0.1,0.1-0.2,0.1c-0.2,0-0.4-0.1-0.4-0.3s0.1-0.3,0.3-0.5
		c0.6-0.4,1.4-0.7,2.3-0.7c1.4,0,2.6,0.6,2.6,2.1c0,1-0.6,1.8-2.3,2.9c-1.6,1.1-2.2,1.7-2.2,3v0.2h4.3c0.2,0,0.3,0.1,0.3,0.3
		C238.2,319.5,238.1,319.6,237.9,319.6z"/>
	<path fill="#FFFFFF" d="M242.6,319.8c-2.1,0-3.1-2-3.1-4.5s1.1-4.5,3.1-4.5s3.1,2,3.1,4.5S244.7,319.8,242.6,319.8z M245,315.3
		c0-2.1-0.7-3.8-2.4-3.8c-1.7,0-2.4,1.7-2.4,3.8s0.7,3.8,2.4,3.8C244.3,319.1,245,317.4,245,315.3z"/>
	<path fill="#FFFFFF" d="M250.3,319.8c-2.1,0-3.1-2-3.1-4.5s1.1-4.5,3.1-4.5s3.1,2,3.1,4.5S252.4,319.8,250.3,319.8z M252.7,315.3
		c0-2.1-0.7-3.8-2.4-3.8c-1.7,0-2.4,1.7-2.4,3.8s0.7,3.8,2.4,3.8C252,319.1,252.7,317.4,252.7,315.3z"/>
	<path fill="#FFFFFF" d="M260,319.6h-4.8c-0.2,0-0.3-0.2-0.3-0.3v-0.5c0-1.9,1.2-2.7,2.4-3.5c1.6-1.1,2.2-1.5,2.2-2.5
		c0-0.9-0.7-1.4-1.9-1.4c-0.8,0-1.4,0.2-2,0.7c-0.1,0.1-0.1,0.1-0.2,0.1c-0.2,0-0.4-0.1-0.4-0.3s0.1-0.3,0.3-0.5
		c0.6-0.4,1.4-0.7,2.3-0.7c1.4,0,2.6,0.6,2.6,2.1c0,1-0.6,1.8-2.3,2.9c-1.6,1.1-2.2,1.7-2.2,3v0.2h4.3c0.2,0,0.3,0.1,0.3,0.3
		C260.4,319.5,260.2,319.6,260,319.6z"/>
</g>
<g>
	<path fill="#FFFFFF" d="M138.7,319.6h-4.8c-0.2,0-0.3-0.2-0.3-0.3v-0.5c0-1.9,1.2-2.7,2.4-3.5c1.6-1.1,2.2-1.5,2.2-2.5
		c0-0.9-0.7-1.4-1.9-1.4c-0.8,0-1.4,0.2-2,0.7c-0.1,0.1-0.1,0.1-0.2,0.1c-0.2,0-0.4-0.1-0.4-0.3s0.1-0.3,0.3-0.5
		c0.6-0.4,1.4-0.7,2.3-0.7c1.4,0,2.6,0.6,2.6,2.1c0,1-0.6,1.8-2.3,2.9c-1.6,1.1-2.2,1.7-2.2,3v0.2h4.3c0.2,0,0.3,0.1,0.3,0.3
		C139,319.5,138.8,319.6,138.7,319.6z"/>
	<path fill="#FFFFFF" d="M143.4,319.8c-2.1,0-3.1-2-3.1-4.5s1.1-4.5,3.1-4.5s3.1,2,3.1,4.5S145.5,319.8,143.4,319.8z M145.8,315.3
		c0-2.1-0.7-3.8-2.4-3.8c-1.7,0-2.4,1.7-2.4,3.8s0.7,3.8,2.4,3.8C145,319.1,145.8,317.4,145.8,315.3z"/>
	<path fill="#FFFFFF" d="M151.1,319.8c-2.1,0-3.1-2-3.1-4.5s1.1-4.5,3.1-4.5s3.1,2,3.1,4.5S153.2,319.8,151.1,319.8z M153.5,315.3
		c0-2.1-0.7-3.8-2.4-3.8c-1.7,0-2.4,1.7-2.4,3.8s0.7,3.8,2.4,3.8C152.7,319.1,153.5,317.4,153.5,315.3z"/>
	<path fill="#FFFFFF" d="M157.5,319.7c-0.2,0-0.4-0.2-0.4-0.4v-7.7l-1.5,0.5c-0.1,0-0.1,0-0.2,0c-0.2,0-0.4-0.1-0.4-0.3
		c0-0.2,0.1-0.3,0.3-0.3l1.9-0.6c0.1,0,0.2-0.1,0.3-0.1c0.2,0,0.4,0.1,0.4,0.4v8.1C157.9,319.6,157.7,319.7,157.5,319.7z"/>
</g>
<g>
	<path fill="#FFFFFF" d="M35.9,319.6h-4.8c-0.2,0-0.3-0.2-0.3-0.3v-0.5c0-1.9,1.2-2.7,2.4-3.5c1.6-1.1,2.2-1.5,2.2-2.5
		c0-0.9-0.7-1.4-1.9-1.4c-0.8,0-1.4,0.2-2,0.7c-0.1,0.1-0.1,0.1-0.2,0.1c-0.2,0-0.4-0.1-0.4-0.3s0.1-0.3,0.3-0.5
		c0.6-0.4,1.4-0.7,2.3-0.7c1.4,0,2.6,0.6,2.6,2.1c0,1-0.6,1.8-2.3,2.9c-1.6,1.1-2.2,1.7-2.2,3v0.2h4.3c0.2,0,0.3,0.1,0.3,0.3
		C36.2,319.5,36,319.6,35.9,319.6z"/>
	<path fill="#FFFFFF" d="M40.6,319.8c-2.1,0-3.1-2-3.1-4.5s1.1-4.5,3.1-4.5s3.1,2,3.1,4.5S42.7,319.8,40.6,319.8z M43,315.3
		c0-2.1-0.7-3.8-2.4-3.8c-1.7,0-2.4,1.7-2.4,3.8s0.7,3.8,2.4,3.8C42.2,319.1,43,317.4,43,315.3z"/>
	<path fill="#FFFFFF" d="M48.3,319.8c-2.1,0-3.1-2-3.1-4.5s1.1-4.5,3.1-4.5s3.1,2,3.1,4.5S50.4,319.8,48.3,319.8z M50.7,315.3
		c0-2.1-0.7-3.8-2.4-3.8c-1.7,0-2.4,1.7-2.4,3.8s0.7,3.8,2.4,3.8C49.9,319.1,50.7,317.4,50.7,315.3z"/>
	<path fill="#FFFFFF" d="M56,319.8c-2.1,0-3.1-2-3.1-4.5s1.1-4.5,3.1-4.5s3.1,2,3.1,4.5S58.1,319.8,56,319.8z M58.4,315.3
		c0-2.1-0.7-3.8-2.4-3.8c-1.7,0-2.4,1.7-2.4,3.8s0.7,3.8,2.4,3.8C57.6,319.1,58.4,317.4,58.4,315.3z"/>
</g>
<line opacity="0.65" fill="none" stroke="#FFFFFF" stroke-linecap="round" stroke-linejoin="round" stroke-miterlimit="10" x1="96.5" y1="320" x2="96.5" y2="330"/>
<line opacity="0.65" fill="none" stroke="#FFFFFF" stroke-linecap="round" stroke-linejoin="round" stroke-miterlimit="10" x1="195.5" y1="320" x2="195.5" y2="330"/>
<line opacity="0.65" fill="none" stroke="#FFFFFF" stroke-linecap="round" stroke-linejoin="round" stroke-miterlimit="10" x1="297.5" y1="320" x2="297.5" y2="330"/>
<line opacity="0.65" fill="none" stroke="#FFFFFF" stroke-linecap="round" stroke-linejoin="round" stroke-miterlimit="10" x1="399.5" y1="320" x2="399.5" y2="330"/>
<line opacity="0.65" fill="none" stroke="#FFFFFF" stroke-linecap="round" stroke-linejoin="round" stroke-miterlimit="10" x1="706.5" y1="320" x2="706.5" y2="330"/>
<line opacity="0.65" fill="none" stroke="#FFFFFF" stroke-linecap="round" stroke-linejoin="round" stroke-miterlimit="10" x1="806.5" y1="320" x2="806.5" y2="330"/>
<line opacity="0.65" fill="none" stroke="#FFFFFF" stroke-linecap="round" stroke-linejoin="round" stroke-miterlimit="10" x1="909.5" y1="320" x2="909.5" y2="330"/>
<line opacity="0.65" fill="none" stroke="#FFFFFF" stroke-linecap="round" stroke-linejoin="round" stroke-miterlimit="10" x1="1011.5" y1="320" x2="1011.5" y2="330"/>
<line opacity="0.65" fill="none" stroke="#FFFFFF" stroke-linecap="round" stroke-linejoin="round" stroke-miterlimit="10" x1="1110.5" y1="320" x2="1110.5" y2="330"/>
<polygon opacity="0.25" fill="#0F0623" points="1011,330 910,330 910,170 961.2,164.1 1011,161 "/>
<g>
	<path fill="#FFFFFF" d="M544.1,319.6h-4.8c-0.2,0-0.3-0.2-0.3-0.3v-0.5c0-1.9,1.2-2.7,2.4-3.5c1.6-1.1,2.2-1.5,2.2-2.5
		c0-0.9-0.7-1.4-1.9-1.4c-0.8,0-1.4,0.2-2,0.7c-0.1,0.1-0.1,0.1-0.2,0.1c-0.2,0-0.4-0.1-0.4-0.3s0.1-0.3,0.3-0.5
		c0.6-0.4,1.4-0.7,2.3-0.7c1.4,0,2.6,0.6,2.6,2.1c0,1-0.6,1.8-2.3,2.9c-1.6,1.1-2.2,1.7-2.2,3v0.2h4.3c0.2,0,0.3,0.1,0.3,0.3
		C544.4,319.5,544.3,319.6,544.1,319.6z"/>
	<path fill="#FFFFFF" d="M548.8,319.8c-2.1,0-3.1-2-3.1-4.5s1.1-4.5,3.1-4.5s3.1,2,3.1,4.5S550.9,319.8,548.8,319.8z M551.2,315.3
		c0-2.1-0.7-3.8-2.4-3.8c-1.7,0-2.4,1.7-2.4,3.8s0.7,3.8,2.4,3.8C550.5,319.1,551.2,317.4,551.2,315.3z"/>
	<path fill="#FFFFFF" d="M556.5,319.8c-2.1,0-3.1-2-3.1-4.5s1.1-4.5,3.1-4.5s3.1,2,3.1,4.5S558.6,319.8,556.5,319.8z M558.9,315.3
		c0-2.1-0.7-3.8-2.4-3.8c-1.7,0-2.4,1.7-2.4,3.8s0.7,3.8,2.4,3.8C558.2,319.1,558.9,317.4,558.9,315.3z"/>
	<path fill="#FFFFFF" d="M563.8,319.8c-1.1,0-2-0.4-2.6-1.1c-0.1-0.1-0.1-0.1-0.1-0.3c0-0.2,0.1-0.3,0.3-0.3c0.1,0,0.2,0.1,0.2,0.1
		c0.6,0.6,1.1,0.9,2.1,0.9c1.4,0,2.1-1,2.1-2.2c0-1.3-0.8-2.1-2-2.1c-0.7,0-1.3,0.3-1.8,0.7c-0.1,0.1-0.2,0.2-0.4,0.2
		c-0.3,0-0.4-0.2-0.4-0.4l0.4-4c0-0.2,0.2-0.3,0.4-0.3h3.7c0.2,0,0.3,0.1,0.3,0.3c0,0.2-0.1,0.3-0.3,0.3h-3.3l-0.3,3.2
		c0.5-0.4,1.1-0.6,1.8-0.6c1.7,0,2.7,1.2,2.7,2.7C566.7,318.5,565.7,319.8,563.8,319.8z"/>
</g>
<line opacity="0.65" fill="none" stroke="#FFFFFF" stroke-linecap="round" stroke-linejoin="round" stroke-miterlimit="10" x1="501.5" y1="320" x2="501.5" y2="330"/>
<line opacity="0.65" fill="none" stroke="#FFFFFF" stroke-linecap="round" stroke-linejoin="round" stroke-miterlimit="10" x1="603.5" y1="320" x2="603.5" y2="330"/>
<g>
	<path fill="#FFFFFF" d="M334.4,44.1c-0.8-0.9-1.2-2.3-1.2-3.7c0-2.8,1.6-5.2,4.2-5.2c1,0,1.8,0.3,2.4,0.9l1-1.5
		c0.1-0.1,0.1-0.2,0.3-0.2c0.2,0,0.4,0.2,0.4,0.4c0,0.1,0,0.2-0.1,0.3l-1.1,1.6c0.8,0.9,1.2,2.3,1.2,3.7c0,2.8-1.6,5.2-4.2,5.2
		c-1,0-1.8-0.3-2.4-0.9l-1,1.4c-0.1,0.1-0.2,0.2-0.3,0.2c-0.2,0-0.4-0.2-0.4-0.4c0-0.1,0-0.1,0.1-0.2L334.4,44.1z M335.2,43l4-5.8
		c-0.5-0.4-1-0.7-1.7-0.7c-1.9,0-2.8,1.9-2.8,4C334.6,41.4,334.8,42.3,335.2,43z M339.7,37.9l-4,5.8c0.4,0.4,1,0.7,1.7,0.7
		c1.9,0,2.8-1.9,2.8-4C340.3,39.5,340.1,38.6,339.7,37.9z"/>
	<path fill="#FFFFFF" d="M354.5,44.7c0,0.1,0.1,0.2,0.1,0.3c0,0.3-0.2,0.6-0.7,0.6c-0.3,0-0.5-0.2-0.6-0.4l-0.8-2.1h-4l-0.8,2.1
		c-0.1,0.2-0.3,0.4-0.6,0.4c-0.4,0-0.7-0.3-0.7-0.6c0-0.1,0-0.2,0.1-0.3l3.3-8.9c0.1-0.3,0.3-0.5,0.6-0.5c0.4,0,0.5,0.2,0.6,0.5
		L354.5,44.7z M350.6,37.5l-1.6,4.4h3.1L350.6,37.5z"/>
	<path fill="#FFFFFF" d="M357.6,44.2h3.9c0.3,0,0.6,0.3,0.6,0.6c0,0.3-0.3,0.6-0.6,0.6h-4.6c-0.4,0-0.7-0.3-0.7-0.7V36
		c0-0.4,0.3-0.7,0.7-0.7s0.7,0.3,0.7,0.7V44.2z"/>
	<path fill="#FFFFFF" d="M364.1,36.7h-2.3c-0.3,0-0.6-0.3-0.6-0.6c0-0.3,0.3-0.6,0.6-0.6h6c0.3,0,0.6,0.3,0.6,0.6
		c0,0.4-0.3,0.6-0.6,0.6h-2.3v8.2c0,0.4-0.3,0.7-0.7,0.7c-0.4,0-0.7-0.3-0.7-0.7V36.7z"/>
	<path fill="#FFFFFF" d="M371,39.7h2.5c0.3,0,0.6,0.3,0.6,0.6c0,0.3-0.3,0.6-0.6,0.6H371v3.3h4.2c0.3,0,0.6,0.3,0.6,0.6
		c0,0.3-0.3,0.6-0.6,0.6h-4.9c-0.4,0-0.7-0.3-0.7-0.7v-8.6c0-0.4,0.3-0.7,0.7-0.7h4.8c0.3,0,0.6,0.3,0.6,0.6c0,0.4-0.3,0.6-0.6,0.6
		H371V39.7z"/>
	<path fill="#FFFFFF" d="M378.3,35.5h2.9c2.1,0,3.4,1,3.4,3c0,1.2-0.7,2.3-1.9,2.7l1.8,3.5c0.1,0.1,0.1,0.2,0.1,0.3
		c0,0.3-0.2,0.7-0.7,0.7c-0.3,0-0.5-0.1-0.6-0.4l-2-3.9h-2.4v3.6c0,0.4-0.3,0.7-0.7,0.7c-0.4,0-0.7-0.3-0.7-0.7v-8.7
		C377.6,35.7,377.9,35.5,378.3,35.5z M378.9,40.1h2.5c1.2,0,1.7-0.7,1.7-1.7c0-1-0.6-1.7-1.7-1.7h-2.5V40.1z"/>
	<path fill="#FFFFFF" d="M349.7,80.4h-13.9c-0.5,0-1-0.5-1-1v-1.3c0-5.5,3.4-7.8,7-10.1c4.6-3.1,6.4-4.5,6.4-7.3c0-2.7-2.1-4-5.4-4
		c-2.3,0-4.1,0.7-5.9,2.1c-0.2,0.2-0.4,0.3-0.7,0.3c-0.6,0-1-0.4-1-1c0-0.6,0.4-0.9,1-1.3c1.7-1.2,4-2.1,6.8-2.1
		c4.2,0,7.5,1.9,7.5,6c0,2.9-1.8,5.1-6.8,8.4c-4.7,3.1-6.5,4.8-6.5,8.7v0.6h12.7c0.6,0,1,0.4,1,0.9S350.2,80.4,349.7,80.4z"/>
	<path fill="#FFFFFF" d="M362.7,80.9c-5.3,0-8.4-3.7-8.4-8.7c0-7.4,4-13.7,10-17c0.5-0.3,0.9-0.5,1.6-0.5c0.6,0,0.9,0.3,0.9,0.8
		c0,0.5-0.5,0.8-1.1,1.1c-5,2.7-7.9,6.8-9.4,12.4c1.2-2.4,3.9-3.7,6.8-3.7c4.4,0,7.7,2.9,7.7,7.7C370.8,77.2,367.8,80.9,362.7,80.9z
		 M356.6,73c0,3.4,2,6.1,6.1,6.1c3.8,0,6-2.6,6-6c0-3.3-2.1-5.9-5.8-5.9C359.4,67.1,356.6,69.6,356.6,73z"/>
	<path fill="#FFFFFF" d="M376.4,77.6c0.9,0,1.6,0.7,1.6,1.6c0,0.9-0.7,1.6-1.6,1.6c-0.9,0-1.6-0.7-1.6-1.6
		C374.8,78.2,375.5,77.6,376.4,77.6z"/>
	<path fill="#FFFFFF" d="M390.7,80.9c-3.2,0-5.9-1.3-7.6-3.3c-0.2-0.2-0.3-0.4-0.3-0.8c0-0.6,0.4-0.9,0.9-0.9c0.4,0,0.6,0.2,0.7,0.3
		c1.8,1.8,3.3,2.7,6.2,2.7c4.1,0,6.2-3,6.2-6.3c0-3.7-2.2-6-5.8-6c-2.1,0-3.7,0.8-5.1,2c-0.3,0.3-0.6,0.5-1.1,0.5
		c-0.8,0-1.1-0.6-1.1-1.3l1.3-11.8c0.1-0.7,0.5-1,1.1-1h10.7c0.5,0,1,0.4,1,0.9c0,0.5-0.4,1-1,1H387l-1,9.4c1.5-1.3,3.3-1.7,5.2-1.7
		c4.9,0,7.8,3.5,7.8,7.8C399.1,77,396.2,80.9,390.7,80.9z"/>
</g>
<g>
	<g>
		<path fill="#FFFFFF" d="M892.6,44.9c0,0.4-0.3,0.6-0.6,0.6s-0.6-0.3-0.6-0.6v-6l-2.6,6.2c-0.1,0.2-0.3,0.4-0.6,0.4
			c-0.3,0-0.5-0.2-0.6-0.4L885,39v6c0,0.4-0.3,0.6-0.6,0.6c-0.4,0-0.6-0.3-0.6-0.6V36c0-0.4,0.3-0.6,0.6-0.6c0.3,0,0.5,0.1,0.6,0.4
			l3.2,7.7l3.2-7.7c0.1-0.3,0.3-0.4,0.6-0.4c0.4,0,0.6,0.2,0.6,0.6V44.9z"/>
		<path fill="#FFFFFF" d="M902.4,44.7c0,0.1,0.1,0.2,0.1,0.3c0,0.3-0.2,0.6-0.7,0.6c-0.3,0-0.5-0.2-0.6-0.4l-0.8-2.1h-4l-0.8,2.1
			c-0.1,0.2-0.3,0.4-0.6,0.4c-0.4,0-0.7-0.3-0.7-0.6c0-0.1,0-0.2,0.1-0.3l3.3-8.9c0.1-0.3,0.3-0.5,0.6-0.5c0.4,0,0.5,0.2,0.6,0.5
			L902.4,44.7z M897.1,33c0.4,0,0.7,0.3,0.7,0.7c0,0.4-0.3,0.7-0.7,0.7s-0.7-0.3-0.7-0.7C896.4,33.4,896.7,33,897.1,33z M898.4,37.5
			l-1.6,4.4h3.2L898.4,37.5z M899.6,33c0.4,0,0.7,0.3,0.7,0.7c0,0.4-0.3,0.7-0.7,0.7s-0.7-0.3-0.7-0.7C898.9,33.4,899.3,33,899.6,33
			z"/>
		<path fill="#FFFFFF" d="M910.7,45.6c-0.2,0-0.4-0.1-0.6-0.3l-4.7-7.2v6.8c0,0.3-0.3,0.6-0.6,0.6s-0.6-0.3-0.6-0.6V36
			c0-0.4,0.3-0.6,0.6-0.6c0.3,0,0.4,0.1,0.6,0.3l4.7,7.2V36c0-0.4,0.3-0.6,0.6-0.6c0.4,0,0.6,0.3,0.6,0.6v8.9
			C911.3,45.2,911.1,45.6,910.7,45.6z"/>
		<path fill="#FFFFFF" d="M920.3,45.6c-0.2,0-0.4-0.1-0.6-0.3l-4.7-7.2v6.8c0,0.3-0.3,0.6-0.6,0.6s-0.6-0.3-0.6-0.6V36
			c0-0.4,0.3-0.6,0.6-0.6c0.3,0,0.4,0.1,0.6,0.3l4.7,7.2V36c0-0.4,0.3-0.6,0.6-0.6c0.4,0,0.6,0.3,0.6,0.6v8.9
			C920.9,45.2,920.7,45.6,920.3,45.6z"/>
		<path fill="#FFFFFF" d="M924.7,39.7h2.5c0.3,0,0.6,0.3,0.6,0.6c0,0.3-0.3,0.6-0.6,0.6h-2.5v3.3h4.2c0.3,0,0.6,0.3,0.6,0.6
			c0,0.3-0.3,0.6-0.6,0.6H924c-0.4,0-0.7-0.3-0.7-0.7v-8.6c0-0.4,0.3-0.7,0.7-0.7h4.8c0.3,0,0.6,0.3,0.6,0.6c0,0.4-0.3,0.6-0.6,0.6
			h-4.1V39.7z"/>
		<path fill="#FFFFFF" d="M931.9,35.5h2.9c2.1,0,3.4,1,3.4,3c0,1.2-0.7,2.3-1.9,2.7l1.8,3.5c0.1,0.1,0.1,0.2,0.1,0.3
			c0,0.3-0.2,0.7-0.7,0.7c-0.3,0-0.5-0.1-0.6-0.4l-2-3.9h-2.4v3.6c0,0.4-0.3,0.7-0.7,0.7c-0.4,0-0.7-0.3-0.7-0.7v-8.7
			C931.2,35.7,931.5,35.5,931.9,35.5z M932.6,40.1h2.5c1.2,0,1.7-0.7,1.7-1.7c0-1-0.6-1.7-1.7-1.7h-2.5V40.1z"/>
		<path fill="#FFFFFF" d="M901.7,73.3h-3.4v6.3c0,0.6-0.4,1.1-1.1,1.1c-0.6,0-1.1-0.5-1.1-1.1v-6.4h-11.8c-0.6,0-1-0.4-1-0.9
			c0-0.3,0.1-0.5,0.3-0.7l12.7-16.3c0.3-0.4,0.5-0.5,1-0.5c0.6,0,1,0.4,1,1.1v15.5h3.3c0.5,0,1,0.4,1,0.9S902.3,73.3,901.7,73.3z
			 M896.2,58.5l-9.8,12.9h9.8V58.5z"/>
		<path fill="#FFFFFF" d="M922.6,73.3h-3.4v6.3c0,0.6-0.4,1.1-1.1,1.1c-0.6,0-1.1-0.5-1.1-1.1v-6.4h-11.8c-0.6,0-1-0.4-1-0.9
			c0-0.3,0.1-0.5,0.3-0.7l12.7-16.3c0.3-0.4,0.5-0.5,1-0.5c0.6,0,1,0.4,1,1.1v15.5h3.3c0.5,0,1,0.4,1,0.9S923.1,73.3,922.6,73.3z
			 M917.1,58.5l-9.8,12.9h9.8V58.5z"/>
		<path fill="#FFFFFF" d="M935.5,80.9c-6.1,0-9.2-5.8-9.2-13.1c0-7.3,3.1-13.1,9.2-13.1s9.2,5.8,9.2,13.1
			C944.7,75.1,941.6,80.9,935.5,80.9z M942.5,67.8c0-6.2-2.1-11.2-7-11.2s-7,5-7,11.2c0,6.2,2.1,11.2,7,11.2S942.5,74,942.5,67.8z"
			/>
		<path fill="#FFFFFF" d="M957.5,80.9c-5.3,0-8.4-3.7-8.4-8.7c0-7.4,4-13.7,10-17c0.5-0.3,0.9-0.5,1.6-0.5c0.6,0,0.9,0.3,0.9,0.8
			c0,0.5-0.5,0.8-1.1,1.1c-5,2.7-7.9,6.8-9.4,12.4c1.2-2.4,3.9-3.7,6.8-3.7c4.4,0,7.7,2.9,7.7,7.7C965.6,77.2,962.6,80.9,957.5,80.9
			z M951.4,73c0,3.4,2,6.1,6.1,6.1c3.8,0,6-2.6,6-6c0-3.3-2.1-5.9-5.8-5.9C954.2,67.1,951.4,69.6,951.4,73z"/>
	</g>
	<g>
		<path fill="#FFFFFF" d="M772.1,44.7c0,0.1,0.1,0.2,0.1,0.3c0,0.3-0.2,0.6-0.7,0.6c-0.3,0-0.5-0.2-0.6-0.4l-0.8-2.1h-4l-0.8,2.1
			c-0.1,0.2-0.3,0.4-0.6,0.4c-0.4,0-0.7-0.3-0.7-0.6c0-0.1,0-0.2,0.1-0.3l3.3-8.9c0.1-0.3,0.3-0.5,0.6-0.5c0.4,0,0.5,0.2,0.6,0.5
			L772.1,44.7z M768.2,37.5l-1.6,4.4h3.1L768.2,37.5z"/>
		<path fill="#FFFFFF" d="M780.4,45.6c-0.2,0-0.4-0.1-0.6-0.3l-4.7-7.2v6.8c0,0.3-0.3,0.6-0.6,0.6s-0.6-0.3-0.6-0.6V36
			c0-0.4,0.3-0.6,0.6-0.6c0.3,0,0.4,0.1,0.6,0.3l4.7,7.2V36c0-0.4,0.3-0.6,0.6-0.6c0.4,0,0.6,0.3,0.6,0.6v8.9
			C781.1,45.2,780.8,45.6,780.4,45.6z"/>
		<path fill="#FFFFFF" d="M785.3,36.7H783c-0.3,0-0.6-0.3-0.6-0.6c0-0.3,0.3-0.6,0.6-0.6h6c0.3,0,0.6,0.3,0.6,0.6
			c0,0.4-0.3,0.6-0.6,0.6h-2.3v8.2c0,0.4-0.3,0.7-0.7,0.7c-0.4,0-0.7-0.3-0.7-0.7V36.7z"/>
		<path fill="#FFFFFF" d="M792.2,39.7h2.5c0.3,0,0.6,0.3,0.6,0.6c0,0.3-0.3,0.6-0.6,0.6h-2.5v3.3h4.2c0.3,0,0.6,0.3,0.6,0.6
			c0,0.3-0.3,0.6-0.6,0.6h-4.9c-0.4,0-0.7-0.3-0.7-0.7v-8.6c0-0.4,0.3-0.7,0.7-0.7h4.8c0.3,0,0.6,0.3,0.6,0.6c0,0.4-0.3,0.6-0.6,0.6
			h-4.1V39.7z"/>
		<path fill="#FFFFFF" d="M800.2,44.9c0,0.4-0.3,0.7-0.7,0.7s-0.7-0.3-0.7-0.7V36c0-0.4,0.3-0.7,0.7-0.7s0.7,0.3,0.7,0.7V44.9z"/>
		<path fill="#FFFFFF" d="M804,44.2h3.9c0.3,0,0.6,0.3,0.6,0.6c0,0.3-0.3,0.6-0.6,0.6h-4.6c-0.4,0-0.7-0.3-0.7-0.7V36
			c0-0.4,0.3-0.7,0.7-0.7s0.7,0.3,0.7,0.7V44.2z"/>
		<path fill="#FFFFFF" d="M774.6,54.7c4.4,0,7.2,2.6,7.2,6.4c0,2.2-1.4,4.5-3.9,5.7c3,0.9,5.3,3.2,5.3,6.7c0,4-3.2,7.4-8.6,7.4
			c-5.4,0-8.6-3.4-8.6-7.4c0-3.5,2.3-5.9,5.3-6.7c-2.5-1.2-3.9-3.5-3.9-5.7C767.4,57.3,770.2,54.7,774.6,54.7z M768.1,73.4
			c0,3.3,2.5,5.6,6.5,5.6s6.5-2.3,6.5-5.6c0-3.6-3-5.6-6.5-5.6C771.1,67.8,768.1,69.9,768.1,73.4z M774.6,66c3,0,5.1-2.2,5.1-4.9
			c0-2.9-2.1-4.7-5.1-4.7c-3,0-5.1,1.7-5.1,4.7C769.5,63.8,771.5,66,774.6,66z"/>
		<path fill="#FFFFFF" d="M801.6,56.8c-5.1,7-8,12.8-8,22.8v0.1c0,0.6-0.4,1.1-1.1,1.1s-1.1-0.5-1.1-1.1v-0.2
			c0-9.4,2.9-15.9,7.6-22.4h-12.5c-0.5,0-1-0.4-1-0.9s0.4-1,1-1h14.3c0.7,0,1.1,0.3,1.1,0.9C801.9,56.4,801.8,56.6,801.6,56.8z"/>
		<path fill="#FFFFFF" d="M802.3,77.6c0.9,0,1.6,0.7,1.6,1.6c0,0.9-0.7,1.6-1.6,1.6c-0.9,0-1.6-0.7-1.6-1.6
			C800.7,78.2,801.4,77.6,802.3,77.6z"/>
		<path fill="#FFFFFF" d="M815.5,54.7c5.5,0,8.4,3.6,8.4,8.7c0,7.3-4,13.7-10,17c-0.5,0.3-1,0.5-1.6,0.5c-0.6,0-1-0.3-1-0.8
			c0-0.5,0.5-0.8,1.1-1.1c5.3-2.8,8.1-7.4,9.4-12.4c-1.2,2.4-4,3.7-6.8,3.7c-4.6,0-7.7-3.2-7.7-7.7S810.7,54.7,815.5,54.7z
			 M821.6,62.6c0-3.4-2-6.1-6.1-6.1c-3.6,0-6,2.7-6,6c0,3.5,1.8,5.9,5.8,5.9C818.8,68.4,821.6,66,821.6,62.6z"/>
		<path fill="#FFFFFF" d="M834.1,67c-3.3,0-5.4-2.8-5.4-6.2c0-3.4,2.1-6.2,5.4-6.2c3.3,0,5.4,2.8,5.4,6.2
			C839.5,64.2,837.4,67,834.1,67z M834.1,65.3c2.3,0,3.5-2.2,3.5-4.5s-1.2-4.5-3.5-4.5c-2.3,0-3.5,2.2-3.5,4.5
			S831.8,65.3,834.1,65.3z M848.8,56.4l-14.9,23.9c-0.2,0.3-0.5,0.5-0.8,0.5c-0.6,0-1-0.4-1-1c0-0.3,0.2-0.5,0.3-0.6l14.9-23.9
			c0.2-0.4,0.5-0.6,0.8-0.6c0.5,0,1,0.3,1,0.9C849.1,56,848.9,56.2,848.8,56.4z M847.2,80.9c-3.3,0-5.4-2.8-5.4-6.2s2.1-6.2,5.4-6.2
			c3.3,0,5.4,2.8,5.4,6.2S850.5,80.9,847.2,80.9z M847.2,79.2c2.3,0,3.5-2.2,3.5-4.5s-1.2-4.5-3.5-4.5c-2.3,0-3.5,2.2-3.5,4.5
			S844.9,79.2,847.2,79.2z"/>
	</g>
	<g>
		<path fill="#FFFFFF" d="M1002.1,45.4h-5.4c-0.4,0-0.6-0.3-0.6-0.6c0-0.1,0.1-0.3,0.1-0.4l4.7-7.8h-4.2c-0.4,0-0.6-0.2-0.6-0.6
			c0-0.3,0.3-0.6,0.6-0.6h5.3c0.3,0,0.6,0.2,0.6,0.6c0,0.2-0.1,0.3-0.1,0.4l-4.7,7.8h4.3c0.3,0,0.6,0.2,0.6,0.6
			C1002.7,45.2,1002.4,45.4,1002.1,45.4z"/>
		<path fill="#FFFFFF" d="M1010.6,36c0-0.4,0.3-0.7,0.7-0.7c0.4,0,0.7,0.3,0.7,0.7v5.8c0,2.4-1.3,3.8-3.7,3.8
			c-2.3,0-3.7-1.4-3.7-3.8V36c0-0.4,0.3-0.7,0.7-0.7c0.4,0,0.7,0.3,0.7,0.7v5.9c0,1.6,0.8,2.5,2.3,2.5c1.5,0,2.3-0.9,2.3-2.5V36z"/>
		<path fill="#FFFFFF" d="M1015,46.9c-0.1,0.2-0.2,0.4-0.6,0.4c-0.3,0-0.6-0.2-0.6-0.5c0-0.1,0-0.2,0-0.2l3.4-11.4
			c0.1-0.3,0.2-0.4,0.6-0.4c0.4,0,0.6,0.2,0.6,0.6c0,0.1,0,0.2,0,0.3L1015,46.9z"/>
		<path fill="#FFFFFF" d="M1027.2,44.7c0,0.1,0.1,0.2,0.1,0.3c0,0.3-0.2,0.6-0.7,0.6c-0.3,0-0.5-0.2-0.6-0.4l-0.8-2.1h-4l-0.8,2.1
			c-0.1,0.2-0.3,0.4-0.6,0.4c-0.4,0-0.7-0.3-0.7-0.6c0-0.1,0-0.2,0.1-0.3l3.3-8.9c0.1-0.3,0.3-0.5,0.6-0.5c0.4,0,0.5,0.2,0.6,0.5
			L1027.2,44.7z M1023.2,37.5l-1.6,4.4h3.1L1023.2,37.5z"/>
		<path fill="#FFFFFF" d="M1032.4,45.4h-2.8c-0.4,0-0.7-0.3-0.7-0.7v-8.6c0-0.4,0.3-0.7,0.7-0.7h2.7c1.8,0,2.9,1,2.9,2.5
			c0,1-0.6,1.9-1.5,2.2c1.2,0.3,2,1,2,2.4C1035.8,44.2,1034.7,45.4,1032.4,45.4z M1032.3,36.7h-2v3h2c1,0,1.5-0.8,1.5-1.5
			C1033.9,37.2,1033.3,36.7,1032.3,36.7z M1032.5,40.9h-2.2v3.3h2.2c1.3,0,1.9-0.7,1.9-1.6C1034.4,41.5,1033.7,40.9,1032.5,40.9z"/>
		<path fill="#FFFFFF" d="M1040.6,45.6c-1.3,0-2.4-0.5-3.1-1.2c-0.2-0.2-0.3-0.4-0.3-0.7c0-0.4,0.2-0.6,0.6-0.6
			c0.2,0,0.3,0.1,0.5,0.3c0.6,0.6,1.3,1,2.4,1c1.4,0,1.9-0.6,1.9-1.4c0-0.9-0.8-1.4-2.4-2.1c-2.1-0.9-2.8-1.7-2.8-3.1
			c0-1.7,1.4-2.5,3.3-2.5c0.8,0,1.5,0.2,2.2,0.5c0.5,0.2,0.9,0.6,0.9,1c0,0.3-0.2,0.6-0.6,0.6c-0.2,0-0.4-0.1-0.5-0.2
			c-0.6-0.4-1.2-0.6-2-0.6c-1.1,0-1.9,0.4-1.9,1.3c0,0.8,0.6,1.3,2.1,1.9c1.9,0.9,3.1,1.6,3.1,3.2
			C1043.9,44.4,1042.9,45.6,1040.6,45.6z"/>
		<path fill="#FFFFFF" d="M1047.6,36.7h-2.3c-0.3,0-0.6-0.3-0.6-0.6c0-0.3,0.3-0.6,0.6-0.6h6c0.3,0,0.6,0.3,0.6,0.6
			c0,0.4-0.3,0.6-0.6,0.6h-2.3v8.2c0,0.4-0.3,0.7-0.7,0.7c-0.4,0-0.7-0.3-0.7-0.7V36.7z"/>
		<path fill="#FFFFFF" d="M1054.6,44.9c0,0.4-0.3,0.7-0.7,0.7s-0.7-0.3-0.7-0.7V36c0-0.4,0.3-0.7,0.7-0.7s0.7,0.3,0.7,0.7V44.9z"/>
		<path fill="#FFFFFF" d="M1058.4,39.7h2.5c0.3,0,0.6,0.3,0.6,0.6c0,0.3-0.3,0.6-0.6,0.6h-2.5v3.3h4.2c0.3,0,0.6,0.3,0.6,0.6
			c0,0.3-0.3,0.6-0.6,0.6h-4.9c-0.4,0-0.7-0.3-0.7-0.7v-8.6c0-0.4,0.3-0.7,0.7-0.7h4.8c0.3,0,0.6,0.3,0.6,0.6c0,0.4-0.3,0.6-0.6,0.6
			h-4.1V39.7z"/>
		<path fill="#FFFFFF" d="M1071.7,44.4c-0.9,0.8-1.9,1.2-3.3,1.2c-2.6,0-4.2-2-4.2-5.2c0-3.1,1.8-5.2,4.2-5.2c1.3,0,2.3,0.6,3,1.4
			c0.1,0.1,0.2,0.3,0.2,0.5c0,0.3-0.2,0.6-0.6,0.6c-0.2,0-0.4-0.1-0.5-0.3c-0.6-0.6-1.1-0.9-2-0.9c-1.7,0-2.8,1.5-2.8,3.9
			c0,2.4,1.1,4,3,4c0.8,0,1.5-0.2,2.1-0.7v-2.1h-1.7c-0.3,0-0.6-0.3-0.6-0.6c0-0.3,0.3-0.6,0.6-0.6h2.3c0.4,0,0.7,0.3,0.7,0.7v2.8
			C1071.9,44.1,1071.8,44.3,1071.7,44.4z"/>
		<path fill="#FFFFFF" d="M1006.9,71.9h-8.4c-0.5,0-1-0.4-1-0.9c0-0.5,0.4-1,1-1h8.4c0.5,0,1,0.4,1,1
			C1007.8,71.5,1007.4,71.9,1006.9,71.9z"/>
		<path fill="#FFFFFF" d="M1029.4,73.3h-3.4v6.3c0,0.6-0.4,1.1-1.1,1.1c-0.6,0-1.1-0.5-1.1-1.1v-6.4h-11.8c-0.6,0-1-0.4-1-0.9
			c0-0.3,0.1-0.5,0.3-0.7l12.7-16.3c0.3-0.4,0.5-0.5,1-0.5c0.6,0,1,0.4,1,1.1v15.5h3.3c0.5,0,1,0.4,1,0.9S1030,73.3,1029.4,73.3z
			 M1023.9,58.5l-9.8,12.9h9.8V58.5z"/>
		<path fill="#FFFFFF" d="M1039,67c-3.3,0-5.4-2.8-5.4-6.2c0-3.4,2.1-6.2,5.4-6.2c3.3,0,5.4,2.8,5.4,6.2
			C1044.4,64.2,1042.3,67,1039,67z M1039,65.3c2.3,0,3.5-2.2,3.5-4.5s-1.2-4.5-3.5-4.5c-2.3,0-3.5,2.2-3.5,4.5
			S1036.7,65.3,1039,65.3z M1053.7,56.4l-14.9,23.9c-0.2,0.3-0.5,0.5-0.8,0.5c-0.6,0-1-0.4-1-1c0-0.3,0.2-0.5,0.3-0.6l14.9-23.9
			c0.2-0.4,0.5-0.6,0.8-0.6c0.5,0,1,0.3,1,0.9C1054,56,1053.8,56.2,1053.7,56.4z M1052.1,80.9c-3.3,0-5.4-2.8-5.4-6.2
			s2.1-6.2,5.4-6.2c3.3,0,5.4,2.8,5.4,6.2S1055.4,80.9,1052.1,80.9z M1052.1,79.2c2.3,0,3.5-2.2,3.5-4.5s-1.2-4.5-3.5-4.5
			c-2.3,0-3.5,2.2-3.5,4.5S1049.8,79.2,1052.1,79.2z"/>
	</g>
	<g>
		<path fill="#FFFFFF" d="M1103.5,44.1c-0.8-0.9-1.2-2.3-1.2-3.7c0-2.8,1.6-5.2,4.2-5.2c1,0,1.8,0.3,2.4,0.9l1-1.5
			c0.1-0.1,0.1-0.2,0.3-0.2c0.2,0,0.4,0.2,0.4,0.4c0,0.1,0,0.2-0.1,0.3l-1.1,1.6c0.8,0.9,1.2,2.3,1.2,3.7c0,2.8-1.6,5.2-4.2,5.2
			c-1,0-1.8-0.3-2.4-0.9l-1,1.4c-0.1,0.1-0.2,0.2-0.3,0.2c-0.2,0-0.4-0.2-0.4-0.4c0-0.1,0-0.1,0.1-0.2L1103.5,44.1z M1104.3,43
			l4-5.8c-0.5-0.4-1-0.7-1.7-0.7c-1.9,0-2.8,1.9-2.8,4C1103.7,41.4,1103.9,42.3,1104.3,43z M1108.8,37.9l-4,5.8
			c0.4,0.4,1,0.7,1.7,0.7c1.9,0,2.8-1.9,2.8-4C1109.4,39.5,1109.2,38.6,1108.8,37.9z"/>
		<path fill="#FFFFFF" d="M1123.7,44.7c0,0.1,0.1,0.2,0.1,0.3c0,0.3-0.2,0.6-0.7,0.6c-0.3,0-0.5-0.2-0.6-0.4l-0.8-2.1h-4l-0.8,2.1
			c-0.1,0.2-0.3,0.4-0.6,0.4c-0.4,0-0.7-0.3-0.7-0.6c0-0.1,0-0.2,0.1-0.3l3.3-8.9c0.1-0.3,0.3-0.5,0.6-0.5c0.4,0,0.5,0.2,0.6,0.5
			L1123.7,44.7z M1119.7,37.5l-1.6,4.4h3.1L1119.7,37.5z"/>
		<path fill="#FFFFFF" d="M1126.8,44.2h3.9c0.3,0,0.6,0.3,0.6,0.6c0,0.3-0.3,0.6-0.6,0.6h-4.6c-0.4,0-0.7-0.3-0.7-0.7V36
			c0-0.4,0.3-0.7,0.7-0.7s0.7,0.3,0.7,0.7V44.2z"/>
		<path fill="#FFFFFF" d="M1133.2,36.7h-2.3c-0.3,0-0.6-0.3-0.6-0.6c0-0.3,0.3-0.6,0.6-0.6h6c0.3,0,0.6,0.3,0.6,0.6
			c0,0.4-0.3,0.6-0.6,0.6h-2.3v8.2c0,0.4-0.3,0.7-0.7,0.7c-0.4,0-0.7-0.3-0.7-0.7V36.7z"/>
		<path fill="#FFFFFF" d="M1140.2,39.7h2.5c0.3,0,0.6,0.3,0.6,0.6c0,0.3-0.3,0.6-0.6,0.6h-2.5v3.3h4.2c0.3,0,0.6,0.3,0.6,0.6
			c0,0.3-0.3,0.6-0.6,0.6h-4.9c-0.4,0-0.7-0.3-0.7-0.7v-8.6c0-0.4,0.3-0.7,0.7-0.7h4.8c0.3,0,0.6,0.3,0.6,0.6c0,0.4-0.3,0.6-0.6,0.6
			h-4.1V39.7z"/>
		<path fill="#FFFFFF" d="M1147.4,35.5h2.9c2.1,0,3.4,1,3.4,3c0,1.2-0.7,2.3-1.9,2.7l1.8,3.5c0.1,0.1,0.1,0.2,0.1,0.3
			c0,0.3-0.2,0.7-0.7,0.7c-0.3,0-0.5-0.1-0.6-0.4l-2-3.9h-2.4v3.6c0,0.4-0.3,0.7-0.7,0.7c-0.4,0-0.7-0.3-0.7-0.7v-8.7
			C1146.7,35.7,1147,35.5,1147.4,35.5z M1148.1,40.1h2.5c1.2,0,1.7-0.7,1.7-1.7c0-1-0.6-1.7-1.7-1.7h-2.5V40.1z"/>
		<path fill="#FFFFFF" d="M1118.8,80.4h-13.9c-0.5,0-1-0.5-1-1v-1.3c0-5.5,3.4-7.8,7-10.1c4.6-3.1,6.4-4.5,6.4-7.3
			c0-2.7-2.1-4-5.4-4c-2.3,0-4.1,0.7-5.9,2.1c-0.2,0.2-0.4,0.3-0.7,0.3c-0.6,0-1-0.4-1-1c0-0.6,0.4-0.9,1-1.3c1.7-1.2,4-2.1,6.8-2.1
			c4.2,0,7.5,1.9,7.5,6c0,2.9-1.8,5.1-6.8,8.4c-4.7,3.1-6.5,4.8-6.5,8.7v0.6h12.7c0.6,0,1,0.4,1,0.9S1119.3,80.4,1118.8,80.4z"/>
		<path fill="#FFFFFF" d="M1131,80.9c-3.3,0-5.6-1.1-7.4-2.7c-0.5-0.4-0.8-0.9-0.8-1.4c0-0.6,0.5-1,1-1c0.4,0,0.6,0.2,0.8,0.4
			c1.6,1.7,3.4,2.7,6.4,2.7c3.6,0,6.3-2.1,6.3-5.5c0-3.3-2.4-5.5-6.6-5.5h-2.2c-0.6,0-1-0.4-1-1c0-0.6,0.4-1,1-1h2.1
			c3.5,0,5.7-2.2,5.7-4.9c0-2.7-1.9-4.4-5.1-4.4c-1.9,0-3.3,0.5-4.7,1.4c-0.3,0.2-0.6,0.3-0.9,0.3c-0.6,0-0.9-0.4-0.9-0.9
			c0-0.6,0.3-0.9,0.8-1.2c1.7-1.1,3.9-1.6,5.8-1.6c4.5,0,7.3,2.4,7.3,6.2c0,2.5-1.5,4.7-4.2,6c2.8,0.6,5.4,3,5.4,6.6
			C1139.5,77.5,1136.5,80.9,1131,80.9z"/>
		<path fill="#FFFFFF" d="M1145.4,77.6c0.9,0,1.6,0.7,1.6,1.6c0,0.9-0.7,1.6-1.6,1.6c-0.9,0-1.6-0.7-1.6-1.6
			C1143.8,78.2,1144.5,77.6,1145.4,77.6z"/>
		<path fill="#FFFFFF" d="M1159.7,80.9c-3.2,0-5.9-1.3-7.6-3.3c-0.2-0.2-0.3-0.4-0.3-0.8c0-0.6,0.4-0.9,0.9-0.9
			c0.4,0,0.6,0.2,0.7,0.3c1.8,1.8,3.3,2.7,6.2,2.7c4.1,0,6.2-3,6.2-6.3c0-3.7-2.2-6-5.8-6c-2.1,0-3.7,0.8-5.1,2
			c-0.3,0.3-0.6,0.5-1.1,0.5c-0.8,0-1.1-0.6-1.1-1.3l1.3-11.8c0.1-0.7,0.5-1,1.1-1h10.7c0.5,0,1,0.4,1,0.9c0,0.5-0.4,1-1,1h-9.8
			l-1,9.4c1.5-1.3,3.3-1.7,5.2-1.7c4.9,0,7.8,3.5,7.8,7.8C1168.1,77,1165.2,80.9,1159.7,80.9z"/>
	</g>
</g>
<g>
	<path fill="#FFFFFF" d="M951.8,319.6H947c-0.2,0-0.3-0.2-0.3-0.3v-0.5c0-1.9,1.2-2.7,2.4-3.5c1.6-1.1,2.2-1.5,2.2-2.5
		c0-0.9-0.7-1.4-1.9-1.4c-0.8,0-1.4,0.2-2,0.7c-0.1,0.1-0.1,0.1-0.2,0.1c-0.2,0-0.4-0.1-0.4-0.3s0.1-0.3,0.3-0.5
		c0.6-0.4,1.4-0.7,2.3-0.7c1.4,0,2.6,0.6,2.6,2.1c0,1-0.6,1.8-2.3,2.9c-1.6,1.1-2.2,1.7-2.2,3v0.2h4.3c0.2,0,0.3,0.1,0.3,0.3
		C952.1,319.5,952,319.6,951.8,319.6z"/>
	<path fill="#FFFFFF" d="M956.5,319.8c-2.1,0-3.1-2-3.1-4.5s1.1-4.5,3.1-4.5s3.1,2,3.1,4.5S958.6,319.8,956.5,319.8z M958.9,315.3
		c0-2.1-0.7-3.8-2.4-3.8c-1.7,0-2.4,1.7-2.4,3.8s0.7,3.8,2.4,3.8C958.2,319.1,958.9,317.4,958.9,315.3z"/>
	<path fill="#FFFFFF" d="M964.2,319.8c-2.1,0-3.1-2-3.1-4.5s1.1-4.5,3.1-4.5s3.1,2,3.1,4.5S966.3,319.8,964.2,319.8z M966.6,315.3
		c0-2.1-0.7-3.8-2.4-3.8c-1.7,0-2.4,1.7-2.4,3.8s0.7,3.8,2.4,3.8C965.8,319.1,966.6,317.4,966.6,315.3z"/>
	<path fill="#FFFFFF" d="M971.4,310.8c1.9,0,2.9,1.2,2.9,3c0,2.5-1.4,4.7-3.4,5.8c-0.2,0.1-0.3,0.2-0.5,0.2c-0.2,0-0.3-0.1-0.3-0.3
		c0-0.2,0.2-0.3,0.4-0.4c1.8-0.9,2.8-2.5,3.2-4.3c-0.4,0.8-1.4,1.3-2.3,1.3c-1.6,0-2.6-1.1-2.6-2.6
		C968.6,312,969.8,310.8,971.4,310.8z M973.5,313.5c0-1.2-0.7-2.1-2.1-2.1c-1.2,0-2.1,0.9-2.1,2.1c0,1.2,0.6,2,2,2
		C972.5,315.5,973.5,314.7,973.5,313.5z"/>
</g>
<polyline fill="none" stroke="#257DFF" stroke-width="3" stroke-linecap="round" stroke-miterlimit="10" points="1147.2,148.8 
	1047.8,158.4 948.4,164.9 848.9,176.8 749.5,182.5 650.1,187.8 550.7,190.9 451.3,194.6 351.9,194.2 252.5,192.8 153,199.6 
	53.6,205.6 "/>
<polyline fill="none" stroke="#E04244" stroke-width="3" stroke-linecap="round" stroke-linejoin="round" stroke-miterlimit="10" points="
	1147.2,277.9 1047.8,279.8 948.4,281.2 848.9,283.8 749.5,285.3 650.1,286.3 550.7,287.8 451.3,287.9 351.9,288.5 252.5,288.8 
	153,289.5 53.6,291.3 "/>
<g>
	<circle fill="#257DFF" cx="1147" cy="148.5" r="4"/>
</g>
<g>
	<circle fill="#E04244" cx="1147" cy="277.5" r="4"/>
</g>
<g>
	<circle fill="#257DFF" cx="1047" cy="158.5" r="4"/>
</g>
<g>
	<circle fill="#E04244" cx="1047" cy="279.5" r="4"/>
</g>
<g>
	<circle fill="#257DFF" cx="948" cy="164.5" r="4"/>
</g>
<g>
	<circle fill="#E04244" cx="948" cy="281.5" r="4"/>
</g>
<g>
	<circle fill="#257DFF" cx="848" cy="176.5" r="4"/>
</g>
<g>
	<circle fill="#E04244" cx="848" cy="283.5" r="4"/>
</g>
<g>
	<circle fill="#257DFF" cx="748" cy="182.5" r="4"/>
</g>
<g>
	<circle fill="#E04244" cx="748" cy="285.5" r="4"/>
</g>
<g>
	<circle fill="#257DFF" cx="649" cy="187.5" r="4"/>
</g>
<g>
	<circle fill="#E04244" cx="649" cy="286.5" r="4"/>
</g>
<g>
	<circle fill="#E04244" cx="549" cy="287.5" r="4"/>
</g>
<g>
	<circle fill="#257DFF" cx="451" cy="194.5" r="4"/>
</g>
<g>
	<circle fill="#E04244" cx="451" cy="287.5" r="4"/>
</g>
<g>
	<circle fill="#257DFF" cx="350" cy="194.5" r="4"/>
</g>
<g>
	<circle fill="#E04244" cx="350" cy="288.5" r="4"/>
</g>
<g>
	<circle fill="#257DFF" cx="252" cy="192.5" r="4"/>
</g>
<g>
	<circle fill="#E04244" cx="252" cy="288.5" r="4"/>
</g>
<g>
	<circle fill="#257DFF" cx="152" cy="199.5" r="4"/>
</g>
<g>
	<circle fill="#E04244" cx="152" cy="289.5" r="4"/>
</g>
<g>
	<circle fill="#257DFF" cx="53" cy="205.5" r="4"/>
</g>
<g>
	<circle fill="#E04244" cx="53" cy="291.5" r="4"/>
</g>
<g>
	<circle fill="#257DFF" cx="549" cy="191.5" r="4"/>
</g>
</svg>
