<?xml version="1.0" encoding="utf-8"?>
<!-- Generator: Adobe Illustrator 17.1.0, SVG Export Plug-In . SVG Version: 6.00 Build 0)  -->
<!DOCTYPE svg PUBLIC "-//W3C//DTD SVG 1.1//EN" "http://www.w3.org/Graphics/SVG/1.1/DTD/svg11.dtd">
<svg version="1.1" id="Fakultät_Detail_Kopie_Kopie_Kopie_2_Kopie_2_Kopie_3_Kopie_Kopie_2"
	 xmlns="http://www.w3.org/2000/svg" xmlns:xlink="http://www.w3.org/1999/xlink" x="0px" y="0px" viewBox="0 0 1200 235"
	 enable-background="new 0 0 1200 235" xml:space="preserve">
<g>
	<g>
		<linearGradient id="SVGID_1_" gradientUnits="userSpaceOnUse" x1="1192.7736" y1="117.5" x2="0.2484" y2="117.5">
			<stop  offset="0" style="stop-color:#063462"/>
			<stop  offset="2.274573e-02" style="stop-color:#12305C"/>
			<stop  offset="0.1007" style="stop-color:#34254A"/>
			<stop  offset="0.1866" style="stop-color:#521B3A"/>
			<stop  offset="0.281" style="stop-color:#6A132D"/>
			<stop  offset="0.3872" style="stop-color:#7D0D23"/>
			<stop  offset="0.512" style="stop-color:#8A081C"/>
			<stop  offset="0.6731" style="stop-color:#920618"/>
			<stop  offset="1" style="stop-color:#940517"/>
		</linearGradient>
		<rect x="0" fill="url(#SVGID_1_)" width="1200" height="235"/>
	</g>
</g>
<g>
	<path fill="#FFFFFF" d="M646.2,224.6h-4.8c-0.2,0-0.3-0.2-0.3-0.3v-0.5c0-1.9,1.2-2.7,2.4-3.5c1.6-1.1,2.2-1.5,2.2-2.5
		c0-0.9-0.7-1.4-1.9-1.4c-0.8,0-1.4,0.2-2,0.7c-0.1,0.1-0.1,0.1-0.2,0.1c-0.2,0-0.4-0.1-0.4-0.3s0.1-0.3,0.3-0.5
		c0.6-0.4,1.4-0.7,2.3-0.7c1.4,0,2.6,0.6,2.6,2.1c0,1-0.6,1.8-2.3,2.9c-1.6,1.1-2.2,1.7-2.2,3v0.2h4.3c0.2,0,0.3,0.1,0.3,0.3
		C646.5,224.5,646.4,224.6,646.2,224.6z"/>
	<path fill="#FFFFFF" d="M650.9,224.8c-2.1,0-3.1-2-3.1-4.5s1.1-4.5,3.1-4.5s3.1,2,3.1,4.5S653,224.8,650.9,224.8z M653.3,220.3
		c0-2.1-0.7-3.8-2.4-3.8c-1.7,0-2.4,1.7-2.4,3.8s0.7,3.8,2.4,3.8C652.6,224.1,653.3,222.4,653.3,220.3z"/>
	<path fill="#FFFFFF" d="M658.6,224.8c-2.1,0-3.1-2-3.1-4.5s1.1-4.5,3.1-4.5s3.1,2,3.1,4.5S660.7,224.8,658.6,224.8z M661,220.3
		c0-2.1-0.7-3.8-2.4-3.8c-1.7,0-2.4,1.7-2.4,3.8s0.7,3.8,2.4,3.8C660.3,224.1,661,222.4,661,220.3z"/>
	<path fill="#FFFFFF" d="M666.1,224.8c-1.8,0-2.9-1.3-2.9-3c0-2.5,1.4-4.7,3.4-5.8c0.2-0.1,0.3-0.2,0.5-0.2c0.2,0,0.3,0.1,0.3,0.3
		c0,0.2-0.2,0.3-0.4,0.4c-1.7,0.9-2.7,2.3-3.2,4.3c0.4-0.8,1.3-1.3,2.3-1.3c1.5,0,2.6,1,2.6,2.6
		C668.9,223.5,667.9,224.8,666.1,224.8z M664.1,222.1c0,1.2,0.7,2.1,2.1,2.1c1.3,0,2.1-0.9,2.1-2.1c0-1.1-0.7-2-2-2
		C665,220.1,664.1,220.9,664.1,222.1z"/>
</g>
<g>
	<path fill="#FFFFFF" d="M748.3,224.6h-4.8c-0.2,0-0.3-0.2-0.3-0.3v-0.5c0-1.9,1.2-2.7,2.4-3.5c1.6-1.1,2.2-1.5,2.2-2.5
		c0-0.9-0.7-1.4-1.9-1.4c-0.8,0-1.4,0.2-2,0.7c-0.1,0.1-0.1,0.1-0.2,0.1c-0.2,0-0.4-0.1-0.4-0.3s0.1-0.3,0.3-0.5
		c0.6-0.4,1.4-0.7,2.3-0.7c1.4,0,2.6,0.6,2.6,2.1c0,1-0.6,1.8-2.3,2.9c-1.6,1.1-2.2,1.7-2.2,3v0.2h4.3c0.2,0,0.3,0.1,0.3,0.3
		C748.7,224.5,748.5,224.6,748.3,224.6z"/>
	<path fill="#FFFFFF" d="M753.1,224.8c-2.1,0-3.1-2-3.1-4.5s1.1-4.5,3.1-4.5s3.1,2,3.1,4.5S755.2,224.8,753.1,224.8z M755.5,220.3
		c0-2.1-0.7-3.8-2.4-3.8s-2.4,1.7-2.4,3.8s0.7,3.8,2.4,3.8S755.5,222.4,755.5,220.3z"/>
	<path fill="#FFFFFF" d="M760.8,224.8c-2.1,0-3.1-2-3.1-4.5s1.1-4.5,3.1-4.5s3.1,2,3.1,4.5S762.9,224.8,760.8,224.8z M763.2,220.3
		c0-2.1-0.7-3.8-2.4-3.8c-1.7,0-2.4,1.7-2.4,3.8s0.7,3.8,2.4,3.8C762.4,224.1,763.2,222.4,763.2,220.3z"/>
	<path fill="#FFFFFF" d="M770.1,216.5c-1.8,2.4-2.7,4.4-2.7,7.8v0c0,0.2-0.1,0.4-0.4,0.4c-0.2,0-0.4-0.2-0.4-0.4v-0.1
		c0-3.2,1-5.4,2.6-7.7h-4.3c-0.2,0-0.3-0.1-0.3-0.3s0.1-0.3,0.3-0.3h4.9c0.2,0,0.4,0.1,0.4,0.3C770.2,216.4,770.1,216.5,770.1,216.5
		z"/>
</g>
<g>
	<path fill="#FFFFFF" d="M849.2,224.6h-4.8c-0.2,0-0.3-0.2-0.3-0.3v-0.5c0-1.9,1.2-2.7,2.4-3.5c1.6-1.1,2.2-1.5,2.2-2.5
		c0-0.9-0.7-1.4-1.9-1.4c-0.8,0-1.4,0.2-2,0.7c-0.1,0.1-0.1,0.1-0.2,0.1c-0.2,0-0.4-0.1-0.4-0.3s0.1-0.3,0.3-0.5
		c0.6-0.4,1.4-0.7,2.3-0.7c1.4,0,2.6,0.6,2.6,2.1c0,1-0.6,1.8-2.3,2.9c-1.6,1.1-2.2,1.7-2.2,3v0.2h4.3c0.2,0,0.3,0.1,0.3,0.3
		C849.6,224.5,849.4,224.6,849.2,224.6z"/>
	<path fill="#FFFFFF" d="M853.9,224.8c-2.1,0-3.1-2-3.1-4.5s1.1-4.5,3.1-4.5s3.1,2,3.1,4.5S856,224.8,853.9,224.8z M856.3,220.3
		c0-2.1-0.7-3.8-2.4-3.8c-1.7,0-2.4,1.7-2.4,3.8s0.7,3.8,2.4,3.8C855.6,224.1,856.3,222.4,856.3,220.3z"/>
	<path fill="#FFFFFF" d="M861.6,224.8c-2.1,0-3.1-2-3.1-4.5s1.1-4.5,3.1-4.5s3.1,2,3.1,4.5S863.7,224.8,861.6,224.8z M864,220.3
		c0-2.1-0.7-3.8-2.4-3.8c-1.7,0-2.4,1.7-2.4,3.8s0.7,3.8,2.4,3.8C863.3,224.1,864,222.4,864,220.3z"/>
	<path fill="#FFFFFF" d="M869.2,215.8c1.5,0,2.5,0.9,2.5,2.2c0,0.8-0.5,1.5-1.3,2c1,0.3,1.8,1.1,1.8,2.3c0,1.4-1.1,2.5-2.9,2.5
		c-1.9,0-2.9-1.2-2.9-2.5c0-1.2,0.8-2,1.8-2.3c-0.9-0.4-1.3-1.2-1.3-2C866.8,216.7,867.7,215.8,869.2,215.8z M867,222.2
		c0,1.1,0.9,1.9,2.2,1.9c1.4,0,2.2-0.8,2.2-1.9c0-1.2-1-1.9-2.2-1.9C868,220.3,867,221,867,222.2z M869.2,219.7c1,0,1.7-0.7,1.7-1.7
		c0-1-0.7-1.6-1.7-1.6c-1,0-1.7,0.6-1.7,1.6C867.5,219,868.2,219.7,869.2,219.7z"/>
</g>
<g>
	<path fill="#FFFFFF" d="M951.8,224.6H947c-0.2,0-0.3-0.2-0.3-0.3v-0.5c0-1.9,1.2-2.7,2.4-3.5c1.6-1.1,2.2-1.5,2.2-2.5
		c0-0.9-0.7-1.4-1.9-1.4c-0.8,0-1.4,0.2-2,0.7c-0.1,0.1-0.1,0.1-0.2,0.1c-0.2,0-0.4-0.1-0.4-0.3s0.1-0.3,0.3-0.5
		c0.6-0.4,1.4-0.7,2.3-0.7c1.4,0,2.6,0.6,2.6,2.1c0,1-0.6,1.8-2.3,2.9c-1.6,1.1-2.2,1.7-2.2,3v0.2h4.3c0.2,0,0.3,0.1,0.3,0.3
		C952.1,224.5,952,224.6,951.8,224.6z"/>
	<path fill="#FFFFFF" d="M956.5,224.8c-2.1,0-3.1-2-3.1-4.5s1.1-4.5,3.1-4.5s3.1,2,3.1,4.5S958.6,224.8,956.5,224.8z M958.9,220.3
		c0-2.1-0.7-3.8-2.4-3.8c-1.7,0-2.4,1.7-2.4,3.8s0.7,3.8,2.4,3.8C958.2,224.1,958.9,222.4,958.9,220.3z"/>
	<path fill="#FFFFFF" d="M964.2,224.8c-2.1,0-3.1-2-3.1-4.5s1.1-4.5,3.1-4.5s3.1,2,3.1,4.5S966.3,224.8,964.2,224.8z M966.6,220.3
		c0-2.1-0.7-3.8-2.4-3.8c-1.7,0-2.4,1.7-2.4,3.8s0.7,3.8,2.4,3.8C965.8,224.1,966.6,222.4,966.6,220.3z"/>
	<path fill="#FFFFFF" d="M971.4,215.8c1.9,0,2.9,1.2,2.9,3c0,2.5-1.4,4.7-3.4,5.8c-0.2,0.1-0.3,0.2-0.5,0.2c-0.2,0-0.3-0.1-0.3-0.3
		c0-0.2,0.2-0.3,0.4-0.4c1.8-0.9,2.8-2.5,3.2-4.3c-0.4,0.8-1.4,1.3-2.3,1.3c-1.6,0-2.6-1.1-2.6-2.6
		C968.6,217,969.8,215.8,971.4,215.8z M973.5,218.5c0-1.2-0.7-2.1-2.1-2.1c-1.2,0-2.1,0.9-2.1,2.1c0,1.2,0.6,2,2,2
		C972.5,220.5,973.5,219.7,973.5,218.5z"/>
</g>
<g>
	<path fill="#FFFFFF" d="M1053.9,224.6h-4.8c-0.2,0-0.3-0.2-0.3-0.3v-0.5c0-1.9,1.2-2.7,2.4-3.5c1.6-1.1,2.2-1.5,2.2-2.5
		c0-0.9-0.7-1.4-1.9-1.4c-0.8,0-1.4,0.2-2,0.7c-0.1,0.1-0.1,0.1-0.2,0.1c-0.2,0-0.4-0.1-0.4-0.3s0.1-0.3,0.3-0.5
		c0.6-0.4,1.4-0.7,2.3-0.7c1.4,0,2.6,0.6,2.6,2.1c0,1-0.6,1.8-2.3,2.9c-1.6,1.1-2.2,1.7-2.2,3v0.2h4.3c0.2,0,0.3,0.1,0.3,0.3
		C1054.3,224.5,1054.1,224.6,1053.9,224.6z"/>
	<path fill="#FFFFFF" d="M1058.7,224.8c-2.1,0-3.1-2-3.1-4.5s1.1-4.5,3.1-4.5s3.1,2,3.1,4.5S1060.7,224.8,1058.7,224.8z M1061,220.3
		c0-2.1-0.7-3.8-2.4-3.8c-1.7,0-2.4,1.7-2.4,3.8s0.7,3.8,2.4,3.8C1060.3,224.1,1061,222.4,1061,220.3z"/>
	<path fill="#FFFFFF" d="M1065.1,224.7c-0.2,0-0.4-0.2-0.4-0.4v-7.7l-1.5,0.5c-0.1,0-0.1,0-0.2,0c-0.2,0-0.4-0.1-0.4-0.3
		c0-0.2,0.1-0.3,0.3-0.3l1.9-0.6c0.1,0,0.2-0.1,0.3-0.1c0.2,0,0.4,0.1,0.4,0.4v8.1C1065.5,224.6,1065.3,224.7,1065.1,224.7z"/>
	<path fill="#FFFFFF" d="M1070.5,224.8c-2.1,0-3.1-2-3.1-4.5s1.1-4.5,3.1-4.5s3.1,2,3.1,4.5S1072.6,224.8,1070.5,224.8z
		 M1072.9,220.3c0-2.1-0.7-3.8-2.4-3.8c-1.7,0-2.4,1.7-2.4,3.8s0.7,3.8,2.4,3.8C1072.1,224.1,1072.9,222.4,1072.9,220.3z"/>
</g>
<g>
	<path fill="#FFFFFF" d="M1153.2,224.6h-4.8c-0.2,0-0.3-0.2-0.3-0.3v-0.5c0-1.9,1.2-2.7,2.4-3.5c1.6-1.1,2.2-1.5,2.2-2.5
		c0-0.9-0.7-1.4-1.9-1.4c-0.8,0-1.4,0.2-2,0.7c-0.1,0.1-0.1,0.1-0.2,0.1c-0.2,0-0.4-0.1-0.4-0.3s0.1-0.3,0.3-0.5
		c0.6-0.4,1.4-0.7,2.3-0.7c1.4,0,2.6,0.6,2.6,2.1c0,1-0.6,1.8-2.3,2.9c-1.6,1.1-2.2,1.7-2.2,3v0.2h4.3c0.2,0,0.3,0.1,0.3,0.3
		C1153.5,224.5,1153.4,224.6,1153.2,224.6z"/>
	<path fill="#FFFFFF" d="M1157.9,224.8c-2.1,0-3.1-2-3.1-4.5s1.1-4.5,3.1-4.5s3.1,2,3.1,4.5S1160,224.8,1157.9,224.8z M1160.3,220.3
		c0-2.1-0.7-3.8-2.4-3.8c-1.7,0-2.4,1.7-2.4,3.8s0.7,3.8,2.4,3.8C1159.6,224.1,1160.3,222.4,1160.3,220.3z"/>
	<path fill="#FFFFFF" d="M1164.3,224.7c-0.2,0-0.4-0.2-0.4-0.4v-7.7l-1.5,0.5c-0.1,0-0.1,0-0.2,0c-0.2,0-0.4-0.1-0.4-0.3
		c0-0.2,0.1-0.3,0.3-0.3l1.9-0.6c0.1,0,0.2-0.1,0.3-0.1c0.2,0,0.4,0.1,0.4,0.4v8.1C1164.7,224.6,1164.6,224.7,1164.3,224.7z"/>
	<path fill="#FFFFFF" d="M1168.5,224.7c-0.2,0-0.4-0.2-0.4-0.4v-7.7l-1.5,0.5c-0.1,0-0.1,0-0.2,0c-0.2,0-0.4-0.1-0.4-0.3
		c0-0.2,0.1-0.3,0.3-0.3l1.9-0.6c0.1,0,0.2-0.1,0.3-0.1c0.2,0,0.4,0.1,0.4,0.4v8.1C1168.8,224.6,1168.7,224.7,1168.5,224.7z"/>
</g>
<g>
	<path fill="#FFFFFF" d="M441.8,224.6h-4.8c-0.2,0-0.3-0.2-0.3-0.3v-0.5c0-1.9,1.2-2.7,2.4-3.5c1.6-1.1,2.2-1.5,2.2-2.5
		c0-0.9-0.7-1.4-1.9-1.4c-0.8,0-1.4,0.2-2,0.7c-0.1,0.1-0.1,0.1-0.2,0.1c-0.2,0-0.4-0.1-0.4-0.3s0.1-0.3,0.3-0.5
		c0.6-0.4,1.4-0.7,2.3-0.7c1.4,0,2.6,0.6,2.6,2.1c0,1-0.6,1.8-2.3,2.9c-1.6,1.1-2.2,1.7-2.2,3v0.2h4.3c0.2,0,0.3,0.1,0.3,0.3
		C442.2,224.5,442,224.6,441.8,224.6z"/>
	<path fill="#FFFFFF" d="M446.6,224.8c-2.1,0-3.1-2-3.1-4.5s1.1-4.5,3.1-4.5s3.1,2,3.1,4.5S448.6,224.8,446.6,224.8z M448.9,220.3
		c0-2.1-0.7-3.8-2.4-3.8c-1.7,0-2.4,1.7-2.4,3.8s0.7,3.8,2.4,3.8C448.2,224.1,448.9,222.4,448.9,220.3z"/>
	<path fill="#FFFFFF" d="M454.3,224.8c-2.1,0-3.1-2-3.1-4.5s1.1-4.5,3.1-4.5s3.1,2,3.1,4.5S456.3,224.8,454.3,224.8z M456.6,220.3
		c0-2.1-0.7-3.8-2.4-3.8c-1.7,0-2.4,1.7-2.4,3.8s0.7,3.8,2.4,3.8C455.9,224.1,456.6,222.4,456.6,220.3z"/>
	<path fill="#FFFFFF" d="M464.7,222.2h-1.2v2.2c0,0.2-0.1,0.4-0.4,0.4c-0.2,0-0.4-0.2-0.4-0.4v-2.2h-4c-0.2,0-0.3-0.1-0.3-0.3
		c0-0.1,0-0.2,0.1-0.2l4.3-5.6c0.1-0.1,0.2-0.2,0.3-0.2c0.2,0,0.4,0.1,0.4,0.4v5.3h1.1c0.2,0,0.3,0.1,0.3,0.3
		S464.8,222.2,464.7,222.2z M462.8,217.1l-3.4,4.4h3.4V217.1z"/>
</g>
<g>
	<path fill="#FFFFFF" d="M237.9,224.6h-4.8c-0.2,0-0.3-0.2-0.3-0.3v-0.5c0-1.9,1.2-2.7,2.4-3.5c1.6-1.1,2.2-1.5,2.2-2.5
		c0-0.9-0.7-1.4-1.9-1.4c-0.8,0-1.4,0.2-2,0.7c-0.1,0.1-0.1,0.1-0.2,0.1c-0.2,0-0.4-0.1-0.4-0.3s0.1-0.3,0.3-0.5
		c0.6-0.4,1.4-0.7,2.3-0.7c1.4,0,2.6,0.6,2.6,2.1c0,1-0.6,1.8-2.3,2.9c-1.6,1.1-2.2,1.7-2.2,3v0.2h4.3c0.2,0,0.3,0.1,0.3,0.3
		C238.2,224.5,238.1,224.6,237.9,224.6z"/>
	<path fill="#FFFFFF" d="M242.6,224.8c-2.1,0-3.1-2-3.1-4.5s1.1-4.5,3.1-4.5s3.1,2,3.1,4.5S244.7,224.8,242.6,224.8z M245,220.3
		c0-2.1-0.7-3.8-2.4-3.8c-1.7,0-2.4,1.7-2.4,3.8s0.7,3.8,2.4,3.8C244.3,224.1,245,222.4,245,220.3z"/>
	<path fill="#FFFFFF" d="M250.3,224.8c-2.1,0-3.1-2-3.1-4.5s1.1-4.5,3.1-4.5s3.1,2,3.1,4.5S252.4,224.8,250.3,224.8z M252.7,220.3
		c0-2.1-0.7-3.8-2.4-3.8c-1.7,0-2.4,1.7-2.4,3.8s0.7,3.8,2.4,3.8C252,224.1,252.7,222.4,252.7,220.3z"/>
	<path fill="#FFFFFF" d="M260,224.6h-4.8c-0.2,0-0.3-0.2-0.3-0.3v-0.5c0-1.9,1.2-2.7,2.4-3.5c1.6-1.1,2.2-1.5,2.2-2.5
		c0-0.9-0.7-1.4-1.9-1.4c-0.8,0-1.4,0.2-2,0.7c-0.1,0.1-0.1,0.1-0.2,0.1c-0.2,0-0.4-0.1-0.4-0.3s0.1-0.3,0.3-0.5
		c0.6-0.4,1.4-0.7,2.3-0.7c1.4,0,2.6,0.6,2.6,2.1c0,1-0.6,1.8-2.3,2.9c-1.6,1.1-2.2,1.7-2.2,3v0.2h4.3c0.2,0,0.3,0.1,0.3,0.3
		C260.4,224.5,260.2,224.6,260,224.6z"/>
</g>
<g>
	<path fill="#FFFFFF" d="M138.7,224.6h-4.8c-0.2,0-0.3-0.2-0.3-0.3v-0.5c0-1.9,1.2-2.7,2.4-3.5c1.6-1.1,2.2-1.5,2.2-2.5
		c0-0.9-0.7-1.4-1.9-1.4c-0.8,0-1.4,0.2-2,0.7c-0.1,0.1-0.1,0.1-0.2,0.1c-0.2,0-0.4-0.1-0.4-0.3s0.1-0.3,0.3-0.5
		c0.6-0.4,1.4-0.7,2.3-0.7c1.4,0,2.6,0.6,2.6,2.1c0,1-0.6,1.8-2.3,2.9c-1.6,1.1-2.2,1.7-2.2,3v0.2h4.3c0.2,0,0.3,0.1,0.3,0.3
		C139,224.5,138.8,224.6,138.7,224.6z"/>
	<path fill="#FFFFFF" d="M143.4,224.8c-2.1,0-3.1-2-3.1-4.5s1.1-4.5,3.1-4.5s3.1,2,3.1,4.5S145.5,224.8,143.4,224.8z M145.8,220.3
		c0-2.1-0.7-3.8-2.4-3.8c-1.7,0-2.4,1.7-2.4,3.8s0.7,3.8,2.4,3.8C145,224.1,145.8,222.4,145.8,220.3z"/>
	<path fill="#FFFFFF" d="M151.1,224.8c-2.1,0-3.1-2-3.1-4.5s1.1-4.5,3.1-4.5s3.1,2,3.1,4.5S153.2,224.8,151.1,224.8z M153.5,220.3
		c0-2.1-0.7-3.8-2.4-3.8c-1.7,0-2.4,1.7-2.4,3.8s0.7,3.8,2.4,3.8C152.7,224.1,153.5,222.4,153.5,220.3z"/>
	<path fill="#FFFFFF" d="M157.5,224.7c-0.2,0-0.4-0.2-0.4-0.4v-7.7l-1.5,0.5c-0.1,0-0.1,0-0.2,0c-0.2,0-0.4-0.1-0.4-0.3
		c0-0.2,0.1-0.3,0.3-0.3l1.9-0.6c0.1,0,0.2-0.1,0.3-0.1c0.2,0,0.4,0.1,0.4,0.4v8.1C157.9,224.6,157.7,224.7,157.5,224.7z"/>
</g>
<g>
	<path fill="#FFFFFF" d="M35.9,224.6h-4.8c-0.2,0-0.3-0.2-0.3-0.3v-0.5c0-1.9,1.2-2.7,2.4-3.5c1.6-1.1,2.2-1.5,2.2-2.5
		c0-0.9-0.7-1.4-1.9-1.4c-0.8,0-1.4,0.2-2,0.7c-0.1,0.1-0.1,0.1-0.2,0.1c-0.2,0-0.4-0.1-0.4-0.3s0.1-0.3,0.3-0.5
		c0.6-0.4,1.4-0.7,2.3-0.7c1.4,0,2.6,0.6,2.6,2.1c0,1-0.6,1.8-2.3,2.9c-1.6,1.1-2.2,1.7-2.2,3v0.2h4.3c0.2,0,0.3,0.1,0.3,0.3
		C36.2,224.5,36,224.6,35.9,224.6z"/>
	<path fill="#FFFFFF" d="M40.6,224.8c-2.1,0-3.1-2-3.1-4.5s1.1-4.5,3.1-4.5s3.1,2,3.1,4.5S42.7,224.8,40.6,224.8z M43,220.3
		c0-2.1-0.7-3.8-2.4-3.8c-1.7,0-2.4,1.7-2.4,3.8s0.7,3.8,2.4,3.8C42.2,224.1,43,222.4,43,220.3z"/>
	<path fill="#FFFFFF" d="M48.3,224.8c-2.1,0-3.1-2-3.1-4.5s1.1-4.5,3.1-4.5s3.1,2,3.1,4.5S50.4,224.8,48.3,224.8z M50.7,220.3
		c0-2.1-0.7-3.8-2.4-3.8c-1.7,0-2.4,1.7-2.4,3.8s0.7,3.8,2.4,3.8C49.9,224.1,50.7,222.4,50.7,220.3z"/>
	<path fill="#FFFFFF" d="M56,224.8c-2.1,0-3.1-2-3.1-4.5s1.1-4.5,3.1-4.5s3.1,2,3.1,4.5S58.1,224.8,56,224.8z M58.4,220.3
		c0-2.1-0.7-3.8-2.4-3.8c-1.7,0-2.4,1.7-2.4,3.8s0.7,3.8,2.4,3.8C57.6,224.1,58.4,222.4,58.4,220.3z"/>
</g>
<line opacity="0.65" fill="none" stroke="#FFFFFF" stroke-linecap="round" stroke-linejoin="round" stroke-miterlimit="10" x1="96.5" y1="225" x2="96.5" y2="235"/>
<line opacity="0.65" fill="none" stroke="#FFFFFF" stroke-linecap="round" stroke-linejoin="round" stroke-miterlimit="10" x1="195.5" y1="225" x2="195.5" y2="235"/>
<line opacity="0.65" fill="none" stroke="#FFFFFF" stroke-linecap="round" stroke-linejoin="round" stroke-miterlimit="10" x1="297.5" y1="225" x2="297.5" y2="235"/>
<line opacity="0.65" fill="none" stroke="#FFFFFF" stroke-linecap="round" stroke-linejoin="round" stroke-miterlimit="10" x1="399.5" y1="225" x2="399.5" y2="235"/>
<line opacity="0.65" fill="none" stroke="#FFFFFF" stroke-linecap="round" stroke-linejoin="round" stroke-miterlimit="10" x1="706.5" y1="225" x2="706.5" y2="235"/>
<line opacity="0.65" fill="none" stroke="#FFFFFF" stroke-linecap="round" stroke-linejoin="round" stroke-miterlimit="10" x1="806.5" y1="225" x2="806.5" y2="235"/>
<line opacity="0.65" fill="none" stroke="#FFFFFF" stroke-linecap="round" stroke-linejoin="round" stroke-miterlimit="10" x1="909.5" y1="225" x2="909.5" y2="235"/>
<line opacity="0.65" fill="none" stroke="#FFFFFF" stroke-linecap="round" stroke-linejoin="round" stroke-miterlimit="10" x1="1011.5" y1="225" x2="1011.5" y2="235"/>
<line opacity="0.65" fill="none" stroke="#FFFFFF" stroke-linecap="round" stroke-linejoin="round" stroke-miterlimit="10" x1="1110.5" y1="225" x2="1110.5" y2="235"/>
<polygon opacity="0.25" fill="#0F0623" points="399,235 298,235 298,165 351.2,159.1 399,162 "/>
<g>
	<path fill="#FFFFFF" d="M544.1,224.6h-4.8c-0.2,0-0.3-0.2-0.3-0.3v-0.5c0-1.9,1.2-2.7,2.4-3.5c1.6-1.1,2.2-1.5,2.2-2.5
		c0-0.9-0.7-1.4-1.9-1.4c-0.8,0-1.4,0.2-2,0.7c-0.1,0.1-0.1,0.1-0.2,0.1c-0.2,0-0.4-0.1-0.4-0.3s0.1-0.3,0.3-0.5
		c0.6-0.4,1.4-0.7,2.3-0.7c1.4,0,2.6,0.6,2.6,2.1c0,1-0.6,1.8-2.3,2.9c-1.6,1.1-2.2,1.7-2.2,3v0.2h4.3c0.2,0,0.3,0.1,0.3,0.3
		C544.4,224.5,544.3,224.6,544.1,224.6z"/>
	<path fill="#FFFFFF" d="M548.8,224.8c-2.1,0-3.1-2-3.1-4.5s1.1-4.5,3.1-4.5s3.1,2,3.1,4.5S550.9,224.8,548.8,224.8z M551.2,220.3
		c0-2.1-0.7-3.8-2.4-3.8c-1.7,0-2.4,1.7-2.4,3.8s0.7,3.8,2.4,3.8C550.5,224.1,551.2,222.4,551.2,220.3z"/>
	<path fill="#FFFFFF" d="M556.5,224.8c-2.1,0-3.1-2-3.1-4.5s1.1-4.5,3.1-4.5s3.1,2,3.1,4.5S558.6,224.8,556.5,224.8z M558.9,220.3
		c0-2.1-0.7-3.8-2.4-3.8c-1.7,0-2.4,1.7-2.4,3.8s0.7,3.8,2.4,3.8C558.2,224.1,558.9,222.4,558.9,220.3z"/>
	<path fill="#FFFFFF" d="M563.8,224.8c-1.1,0-2-0.4-2.6-1.1c-0.1-0.1-0.1-0.1-0.1-0.3c0-0.2,0.1-0.3,0.3-0.3c0.1,0,0.2,0.1,0.2,0.1
		c0.6,0.6,1.1,0.9,2.1,0.9c1.4,0,2.1-1,2.1-2.2c0-1.3-0.8-2.1-2-2.1c-0.7,0-1.3,0.3-1.8,0.7c-0.1,0.1-0.2,0.2-0.4,0.2
		c-0.3,0-0.4-0.2-0.4-0.4l0.4-4c0-0.2,0.2-0.3,0.4-0.3h3.7c0.2,0,0.3,0.1,0.3,0.3c0,0.2-0.1,0.3-0.3,0.3h-3.3l-0.3,3.2
		c0.5-0.4,1.1-0.6,1.8-0.6c1.7,0,2.7,1.2,2.7,2.7C566.7,223.5,565.7,224.8,563.8,224.8z"/>
</g>
<line opacity="0.65" fill="none" stroke="#FFFFFF" stroke-linecap="round" stroke-linejoin="round" stroke-miterlimit="10" x1="501.5" y1="225" x2="501.5" y2="235"/>
<line opacity="0.65" fill="none" stroke="#FFFFFF" stroke-linecap="round" stroke-linejoin="round" stroke-miterlimit="10" x1="603.5" y1="225" x2="603.5" y2="235"/>
<g>
	<path fill="#FFFFFF" d="M339.8,224.6H335c-0.2,0-0.3-0.2-0.3-0.3v-0.5c0-1.9,1.2-2.7,2.4-3.5c1.6-1.1,2.2-1.5,2.2-2.5
		c0-0.9-0.7-1.4-1.9-1.4c-0.8,0-1.4,0.2-2,0.7c-0.1,0.1-0.1,0.1-0.2,0.1c-0.2,0-0.4-0.1-0.4-0.3s0.1-0.3,0.3-0.5
		c0.6-0.4,1.4-0.7,2.3-0.7c1.4,0,2.6,0.6,2.6,2.1c0,1-0.6,1.8-2.3,2.9c-1.6,1.1-2.2,1.7-2.2,3v0.2h4.3c0.2,0,0.3,0.1,0.3,0.3
		C340.1,224.5,340,224.6,339.8,224.6z"/>
	<path fill="#FFFFFF" d="M344.5,224.8c-2.1,0-3.1-2-3.1-4.5s1.1-4.5,3.1-4.5s3.1,2,3.1,4.5S346.6,224.8,344.5,224.8z M346.9,220.3
		c0-2.1-0.7-3.8-2.4-3.8c-1.7,0-2.4,1.7-2.4,3.8s0.7,3.8,2.4,3.8C346.2,224.1,346.9,222.4,346.9,220.3z"/>
	<path fill="#FFFFFF" d="M352.2,224.8c-2.1,0-3.1-2-3.1-4.5s1.1-4.5,3.1-4.5s3.1,2,3.1,4.5S354.3,224.8,352.2,224.8z M354.6,220.3
		c0-2.1-0.7-3.8-2.4-3.8c-1.7,0-2.4,1.7-2.4,3.8s0.7,3.8,2.4,3.8C353.9,224.1,354.6,222.4,354.6,220.3z"/>
	<path fill="#FFFFFF" d="M359.3,224.8c-1.1,0-1.9-0.4-2.5-0.9c-0.2-0.1-0.3-0.3-0.3-0.5c0-0.2,0.2-0.3,0.3-0.3
		c0.1,0,0.2,0.1,0.3,0.1c0.5,0.6,1.2,0.9,2.2,0.9c1.2,0,2.2-0.7,2.2-1.9s-0.8-1.9-2.3-1.9h-0.8c-0.2,0-0.4-0.1-0.4-0.3
		c0-0.2,0.1-0.3,0.3-0.3h0.7c1.2,0,1.9-0.8,1.9-1.7s-0.7-1.5-1.8-1.5c-0.6,0-1.1,0.2-1.6,0.5c-0.1,0.1-0.2,0.1-0.3,0.1
		c-0.2,0-0.3-0.1-0.3-0.3c0-0.2,0.1-0.3,0.3-0.4c0.6-0.4,1.3-0.6,2-0.6c1.5,0,2.5,0.8,2.5,2.1c0,0.9-0.5,1.6-1.4,2
		c1,0.2,1.8,1,1.8,2.3C362.2,223.6,361.2,224.8,359.3,224.8z"/>
</g>
<polyline fill="none" stroke="#257DFF" stroke-width="3" stroke-linecap="round" stroke-miterlimit="10" points="1147.2,175.2 
	1047.8,172.5 948.4,178.3 848.9,176.2 749.5,179.2 650.1,186.3 550.7,193.1 451.3,190 351.9,193.1 252.5,194.3 153,196.2 
	53.6,200.8 "/>
<polyline fill="none" stroke="#E04244" stroke-width="3" stroke-linecap="round" stroke-linejoin="round" stroke-miterlimit="10" points="
	1147.2,117.6 1047.8,97.2 948.4,99.1 848.9,89.2 749.5,90.1 650.1,124.9 550.7,151.4 451.3,163.1 351.9,160.1 252.5,168.7 153,177 
	53.6,186.5 "/>
<g>
	<circle fill="#E04244" cx="1147" cy="117.5" r="4"/>
</g>
<g>
	<circle fill="#257DFF" cx="1147" cy="175.5" r="4"/>
</g>
<g>
	<circle fill="#E04244" cx="1048" cy="97.5" r="4"/>
</g>
<g>
	<circle fill="#257DFF" cx="1048" cy="172.5" r="4"/>
</g>
<g>
	<circle fill="#E04244" cx="948" cy="98.5" r="4"/>
</g>
<g>
	<circle fill="#257DFF" cx="948" cy="178.5" r="4"/>
</g>
<g>
	<circle fill="#257DFF" cx="848" cy="176.5" r="4"/>
</g>
<g>
	<circle fill="#E04244" cx="848" cy="89.5" r="4"/>
</g>
<g>
	<circle fill="#E04244" cx="749" cy="90.5" r="4"/>
</g>
<g>
	<circle fill="#257DFF" cx="749" cy="179.5" r="4"/>
</g>
<g>
	<circle fill="#E04244" cx="650" cy="125.5" r="4"/>
</g>
<g>
	<circle fill="#257DFF" cx="650" cy="186.5" r="4"/>
</g>
<g>
	<circle fill="#E04244" cx="550" cy="151.5" r="4"/>
</g>
<g>
	<circle fill="#257DFF" cx="550" cy="193.5" r="4"/>
</g>
<g>
	<circle fill="#E04244" cx="451" cy="162.5" r="4"/>
</g>
<g>
	<circle fill="#257DFF" cx="451" cy="190.5" r="4"/>
</g>
<g>
	<circle fill="#E04244" cx="351" cy="160.5" r="4"/>
</g>
<g>
	<circle fill="#257DFF" cx="351" cy="192.5" r="4"/>
</g>
<g>
	<circle fill="#E04244" cx="252" cy="168.5" r="4"/>
</g>
<g>
	<circle fill="#257DFF" cx="252" cy="194.5" r="4"/>
</g>
<g>
	<circle fill="#E04244" cx="151" cy="176.5" r="4"/>
</g>
<g>
	<circle fill="#257DFF" cx="151" cy="196.5" r="4"/>
</g>
<g>
	<circle fill="#E04244" cx="54" cy="186.5" r="4"/>
</g>
<g>
	<circle fill="#257DFF" cx="54" cy="200.5" r="4"/>
</g>
<path fill="#FFFFFF" d="M525.9,49c-5.3,0-9.6-4.3-9.6-9.5s4.3-9.5,9.6-9.5h147.8c5.3,0,9.6,4.3,9.6,9.5S679,49,673.7,49H525.9z"/>
<g>
	<path fill="#2A212B" d="M535,43.1c0,0.1,0.1,0.2,0.1,0.2c0,0.3-0.2,0.5-0.6,0.5c-0.3,0-0.4-0.1-0.5-0.4l-0.7-1.8h-3.5l-0.7,1.8
		c-0.1,0.2-0.2,0.4-0.5,0.4c-0.4,0-0.6-0.2-0.6-0.5c0-0.1,0-0.2,0.1-0.2l2.9-7.7c0.1-0.3,0.2-0.4,0.6-0.4c0.3,0,0.5,0.1,0.6,0.4
		L535,43.1z M531.5,36.9l-1.4,3.8h2.7L531.5,36.9z"/>
	<path fill="#2A212B" d="M542.2,43.9c-0.2,0-0.4-0.1-0.5-0.2l-4.1-6.2v5.9c0,0.3-0.2,0.6-0.6,0.6s-0.6-0.3-0.6-0.6v-7.7
		c0-0.3,0.2-0.6,0.6-0.6c0.2,0,0.4,0.1,0.5,0.3l4.1,6.2v-5.9c0-0.3,0.2-0.6,0.6-0.6c0.3,0,0.6,0.2,0.6,0.6v7.7
		C542.7,43.6,542.5,43.9,542.2,43.9z"/>
	<path fill="#2A212B" d="M551,42.9c-0.8,0.7-1.6,1.1-2.9,1.1c-2.3,0-3.7-1.8-3.7-4.5s1.5-4.5,3.6-4.5c1.1,0,2,0.5,2.6,1.2
		c0.1,0.1,0.2,0.2,0.2,0.4c0,0.3-0.2,0.5-0.6,0.5c-0.2,0-0.3-0.1-0.5-0.2c-0.5-0.5-1-0.8-1.7-0.8c-1.5,0-2.5,1.3-2.5,3.4
		s0.9,3.5,2.6,3.5c0.7,0,1.3-0.1,1.9-0.6v-1.8h-1.5c-0.3,0-0.5-0.2-0.5-0.5c0-0.3,0.2-0.5,0.5-0.5h2c0.4,0,0.6,0.2,0.6,0.6v2.5
		C551.1,42.6,551.1,42.8,551,42.9z"/>
	<path fill="#2A212B" d="M554.2,38.8h2.2c0.3,0,0.5,0.2,0.5,0.5c0,0.3-0.2,0.5-0.5,0.5h-2.2v2.8h3.7c0.3,0,0.5,0.2,0.5,0.5
		c0,0.3-0.2,0.5-0.5,0.5h-4.2c-0.4,0-0.6-0.3-0.6-0.6v-7.5c0-0.3,0.3-0.6,0.6-0.6h4.1c0.3,0,0.5,0.2,0.5,0.5c0,0.3-0.2,0.5-0.5,0.5
		h-3.5V38.8z"/>
	<path fill="#2A212B" d="M566.6,41.6l1.9-6.2c0.1-0.3,0.2-0.4,0.5-0.4c0.3,0,0.5,0.2,0.5,0.5c0,0.1,0,0.1,0,0.2l-2.4,7.7
		c-0.1,0.2-0.2,0.4-0.5,0.4c-0.3,0-0.5-0.1-0.5-0.4l-1.7-6.2l-1.7,6.2c-0.1,0.2-0.2,0.4-0.5,0.4c-0.3,0-0.5-0.2-0.5-0.4l-2.4-7.7
		c0-0.1,0-0.2,0-0.2c0-0.3,0.2-0.5,0.5-0.5c0.3,0,0.5,0.2,0.5,0.4l1.9,6.2l1.8-6.2c0.1-0.2,0.2-0.4,0.5-0.4c0.3,0,0.5,0.1,0.5,0.4
		L566.6,41.6z"/>
	<path fill="#2A212B" d="M576.6,43.1c0,0.1,0.1,0.2,0.1,0.2c0,0.3-0.2,0.5-0.6,0.5c-0.3,0-0.4-0.1-0.5-0.4l-0.7-1.8h-3.5l-0.7,1.8
		c-0.1,0.2-0.2,0.4-0.5,0.4c-0.4,0-0.6-0.2-0.6-0.5c0-0.1,0-0.2,0.1-0.2l2.9-7.7c0.1-0.3,0.2-0.4,0.6-0.4c0.3,0,0.5,0.1,0.6,0.4
		L576.6,43.1z M573.1,36.9l-1.4,3.8h2.7L573.1,36.9z"/>
	<path fill="#2A212B" d="M583.8,43.9c-0.2,0-0.4-0.1-0.5-0.2l-4.1-6.2v5.9c0,0.3-0.2,0.6-0.6,0.6s-0.6-0.3-0.6-0.6v-7.7
		c0-0.3,0.2-0.6,0.6-0.6c0.2,0,0.4,0.1,0.5,0.3l4.1,6.2v-5.9c0-0.3,0.2-0.6,0.6-0.6c0.3,0,0.6,0.2,0.6,0.6v7.7
		C584.3,43.6,584.1,43.9,583.8,43.9z"/>
	<path fill="#2A212B" d="M588.9,43.8H587c-0.3,0-0.6-0.3-0.6-0.6v-7.5c0-0.3,0.3-0.6,0.6-0.6h1.9c2.4,0,3.8,1.8,3.8,4.3
		C592.7,42,591.4,43.8,588.9,43.8z M588.9,36.2h-1.3v6.5h1.3c1.8,0,2.6-1.5,2.6-3.3S590.7,36.2,588.9,36.2z"/>
	<path fill="#2A212B" d="M595.6,36.2h-2c-0.3,0-0.5-0.2-0.5-0.5c0-0.3,0.2-0.5,0.5-0.5h5.2c0.3,0,0.5,0.2,0.5,0.5
		c0,0.3-0.2,0.5-0.5,0.5h-2v7.1c0,0.3-0.2,0.6-0.6,0.6s-0.6-0.3-0.6-0.6V36.2z"/>
	<path fill="#2A212B" d="M601.6,38.8h2.2c0.3,0,0.5,0.2,0.5,0.5c0,0.3-0.2,0.5-0.5,0.5h-2.2v2.8h3.7c0.3,0,0.5,0.2,0.5,0.5
		c0,0.3-0.2,0.5-0.5,0.5H601c-0.4,0-0.6-0.3-0.6-0.6v-7.5c0-0.3,0.3-0.6,0.6-0.6h4.1c0.3,0,0.5,0.2,0.5,0.5c0,0.3-0.2,0.5-0.5,0.5
		h-3.5V38.8z"/>
	<path fill="#2A212B" d="M611.9,42.7h3.4c0.3,0,0.5,0.2,0.5,0.5c0,0.3-0.2,0.5-0.5,0.5h-4c-0.3,0-0.6-0.3-0.6-0.6v-7.6
		c0-0.3,0.2-0.6,0.6-0.6c0.3,0,0.6,0.3,0.6,0.6V42.7z"/>
	<path fill="#2A212B" d="M618.4,43.3c0,0.3-0.2,0.6-0.6,0.6s-0.6-0.3-0.6-0.6v-7.7c0-0.3,0.2-0.6,0.6-0.6s0.6,0.3,0.6,0.6V43.3z"/>
	<path fill="#2A212B" d="M626.2,43.9c-0.2,0-0.4-0.1-0.5-0.2l-4.1-6.2v5.9c0,0.3-0.2,0.6-0.6,0.6s-0.6-0.3-0.6-0.6v-7.7
		c0-0.3,0.2-0.6,0.6-0.6c0.2,0,0.4,0.1,0.5,0.3l4.1,6.2v-5.9c0-0.3,0.2-0.6,0.6-0.6c0.3,0,0.6,0.2,0.6,0.6v7.7
		C626.7,43.6,626.5,43.9,626.2,43.9z"/>
	<path fill="#2A212B" d="M635,42.9c-0.8,0.7-1.6,1.1-2.9,1.1c-2.3,0-3.7-1.8-3.7-4.5s1.5-4.5,3.6-4.5c1.1,0,2,0.5,2.6,1.2
		c0.1,0.1,0.2,0.2,0.2,0.4c0,0.3-0.2,0.5-0.6,0.5c-0.2,0-0.3-0.1-0.5-0.2c-0.5-0.5-1-0.8-1.7-0.8c-1.5,0-2.5,1.3-2.5,3.4
		s0.9,3.5,2.6,3.5c0.7,0,1.3-0.1,1.9-0.6v-1.8h-1.5c-0.3,0-0.5-0.2-0.5-0.5c0-0.3,0.2-0.5,0.5-0.5h2c0.4,0,0.6,0.2,0.6,0.6v2.5
		C635.2,42.6,635.1,42.8,635,42.9z"/>
	<path fill="#2A212B" d="M642.2,35.6c0-0.3,0.2-0.6,0.6-0.6c0.3,0,0.6,0.3,0.6,0.6v5c0,2.1-1.2,3.3-3.2,3.3c-2,0-3.2-1.2-3.2-3.3v-5
		c0-0.3,0.2-0.6,0.6-0.6s0.6,0.3,0.6,0.6v5.1c0,1.4,0.7,2.1,2,2.1c1.3,0,2-0.8,2-2.1V35.6z"/>
	<path fill="#2A212B" d="M646.6,43.3c0,0.3-0.2,0.6-0.6,0.6s-0.6-0.3-0.6-0.6v-7.7c0-0.3,0.2-0.6,0.6-0.6s0.6,0.3,0.6,0.6V43.3z"/>
	<path fill="#2A212B" d="M651.3,43.9c-1.2,0-2.1-0.5-2.7-1c-0.2-0.2-0.3-0.4-0.3-0.6c0-0.3,0.2-0.5,0.5-0.5c0.2,0,0.3,0.1,0.5,0.2
		c0.5,0.5,1.2,0.9,2,0.9c1.2,0,1.7-0.6,1.7-1.2c0-0.8-0.7-1.2-2.1-1.8c-1.8-0.8-2.5-1.5-2.5-2.7c0-1.5,1.2-2.2,2.8-2.2
		c0.7,0,1.3,0.1,1.9,0.4c0.4,0.2,0.8,0.5,0.8,0.8c0,0.3-0.2,0.5-0.5,0.5c-0.2,0-0.3-0.1-0.5-0.2c-0.5-0.4-1.1-0.6-1.8-0.6
		c-1,0-1.7,0.4-1.7,1.1c0,0.7,0.6,1.1,1.8,1.7c1.6,0.8,2.7,1.4,2.7,2.8C654.2,42.8,653.2,43.9,651.3,43.9z"/>
	<path fill="#2A212B" d="M657.3,36.2h-2c-0.3,0-0.5-0.2-0.5-0.5c0-0.3,0.2-0.5,0.5-0.5h5.2c0.3,0,0.5,0.2,0.5,0.5
		c0,0.3-0.2,0.5-0.5,0.5h-2v7.1c0,0.3-0.2,0.6-0.6,0.6s-0.6-0.3-0.6-0.6V36.2z"/>
	<path fill="#2A212B" d="M663.4,43.3c0,0.3-0.2,0.6-0.6,0.6s-0.6-0.3-0.6-0.6v-7.7c0-0.3,0.2-0.6,0.6-0.6s0.6,0.3,0.6,0.6V43.3z"/>
	<path fill="#2A212B" d="M666.1,35c0.3,0,0.6,0.3,0.6,0.6v4l3.5-4.4c0.1-0.2,0.2-0.2,0.4-0.2c0.3,0,0.5,0.2,0.5,0.5
		c0,0.2-0.1,0.3-0.2,0.4l-2,2.5l2.4,4.6c0.1,0.1,0.1,0.2,0.1,0.3c0,0.3-0.3,0.5-0.6,0.5c-0.3,0-0.4-0.1-0.5-0.3l-2.2-4.2l-1.5,1.8
		v2.1c0,0.3-0.2,0.6-0.6,0.6c-0.3,0-0.6-0.3-0.6-0.6v-7.7C665.5,35.3,665.8,35,666.1,35z"/>
</g>
<g>
	<path fill="#FFFFFF" d="M160.4,44.9c0,0.4-0.3,0.7-0.7,0.7s-0.7-0.3-0.7-0.7v-8.8c0-0.4,0.3-0.7,0.7-0.7h4.8c0.3,0,0.6,0.3,0.6,0.6
		c0,0.4-0.3,0.6-0.6,0.6h-4.1v3h2.5c0.3,0,0.6,0.3,0.6,0.6c0,0.3-0.3,0.6-0.6,0.6h-2.5V44.9z"/>
	<path fill="#FFFFFF" d="M167.3,35.5h2.9c2.1,0,3.4,1,3.4,3c0,1.2-0.7,2.3-1.9,2.7l1.8,3.5c0.1,0.1,0.1,0.2,0.1,0.3
		c0,0.3-0.2,0.7-0.7,0.7c-0.3,0-0.5-0.1-0.6-0.4l-2-3.9H168v3.6c0,0.4-0.3,0.7-0.7,0.7c-0.4,0-0.7-0.3-0.7-0.7v-8.7
		C166.6,35.7,166.9,35.5,167.3,35.5z M168,40.1h2.5c1.2,0,1.7-0.7,1.7-1.7c0-1-0.6-1.7-1.7-1.7H168V40.1z"/>
	<path fill="#FFFFFF" d="M182.9,44.7c0,0.1,0.1,0.2,0.1,0.3c0,0.3-0.2,0.6-0.7,0.6c-0.3,0-0.5-0.2-0.6-0.4l-0.8-2.1h-4l-0.8,2.1
		c-0.1,0.2-0.3,0.4-0.6,0.4c-0.4,0-0.7-0.3-0.7-0.6c0-0.1,0-0.2,0.1-0.3l3.3-8.9c0.1-0.3,0.3-0.5,0.6-0.5c0.4,0,0.5,0.2,0.6,0.5
		L182.9,44.7z M178.9,37.5l-1.6,4.4h3.1L178.9,37.5z"/>
	<path fill="#FFFFFF" d="M190.3,36c0-0.4,0.3-0.7,0.7-0.7c0.4,0,0.7,0.3,0.7,0.7v5.8c0,2.4-1.3,3.8-3.7,3.8s-3.7-1.4-3.7-3.8V36
		c0-0.4,0.3-0.7,0.7-0.7c0.4,0,0.7,0.3,0.7,0.7v5.9c0,1.6,0.8,2.5,2.3,2.5c1.5,0,2.3-0.9,2.3-2.5V36z"/>
	<path fill="#FFFFFF" d="M195.3,39.7h2.5c0.3,0,0.6,0.3,0.6,0.6c0,0.3-0.3,0.6-0.6,0.6h-2.5v3.3h4.2c0.3,0,0.6,0.3,0.6,0.6
		c0,0.3-0.3,0.6-0.6,0.6h-4.9c-0.4,0-0.7-0.3-0.7-0.7v-8.6c0-0.4,0.3-0.7,0.7-0.7h4.8c0.3,0,0.6,0.3,0.6,0.6c0,0.4-0.3,0.6-0.6,0.6
		h-4.1V39.7z"/>
	<path fill="#FFFFFF" d="M208.4,45.6c-0.2,0-0.4-0.1-0.6-0.3l-4.7-7.2v6.8c0,0.3-0.3,0.6-0.6,0.6s-0.6-0.3-0.6-0.6V36
		c0-0.4,0.3-0.6,0.6-0.6c0.3,0,0.4,0.1,0.6,0.3l4.7,7.2V36c0-0.4,0.3-0.6,0.6-0.6c0.4,0,0.6,0.3,0.6,0.6v8.9
		C209,45.2,208.8,45.6,208.4,45.6z"/>
	<path fill="#FFFFFF" d="M165.5,80.7c-0.6,0-1.1-0.5-1.1-1.1V57.2l-4.4,1.4c-0.2,0-0.3,0.1-0.5,0.1c-0.5,0-1.1-0.3-1.1-1
		s0.3-0.8,0.8-1l5.5-1.7c0.3-0.1,0.5-0.2,0.8-0.2c0.7,0,1.1,0.4,1.1,1.1v23.7C166.6,80.2,166.1,80.7,165.5,80.7z"/>
	<path fill="#FFFFFF" d="M179.8,54.7c5.5,0,8.4,3.6,8.4,8.7c0,7.3-4,13.7-10,17c-0.5,0.3-1,0.5-1.6,0.5c-0.6,0-1-0.3-1-0.8
		c0-0.5,0.5-0.8,1.1-1.1c5.3-2.8,8.1-7.4,9.4-12.4c-1.2,2.4-4,3.7-6.8,3.7c-4.6,0-7.7-3.2-7.7-7.7S175,54.7,179.8,54.7z M185.9,62.6
		c0-3.4-2-6.1-6.1-6.1c-3.6,0-6,2.7-6,6c0,3.5,1.8,5.9,5.8,5.9C183.1,68.4,185.9,66,185.9,62.6z"/>
	<path fill="#FFFFFF" d="M206.3,56.8c-5.1,7-8,12.8-8,22.8v0.1c0,0.6-0.4,1.1-1.1,1.1s-1.1-0.5-1.1-1.1v-0.2
		c0-9.4,2.9-15.9,7.6-22.4h-12.5c-0.5,0-1-0.4-1-0.9s0.4-1,1-1h14.3c0.7,0,1.1,0.3,1.1,0.9C206.5,56.4,206.4,56.6,206.3,56.8z"/>
</g>
<g>
	<path fill="#FFFFFF" d="M38.4,44.7c0,0.1,0.1,0.2,0.1,0.3c0,0.3-0.2,0.6-0.7,0.6c-0.3,0-0.5-0.2-0.6-0.4l-0.8-2.1h-4l-0.8,2.1
		c-0.1,0.2-0.3,0.4-0.6,0.4c-0.4,0-0.7-0.3-0.7-0.6c0-0.1,0-0.2,0.1-0.3l3.3-8.9c0.1-0.3,0.3-0.5,0.6-0.5c0.4,0,0.5,0.2,0.6,0.5
		L38.4,44.7z M34.4,37.5l-1.6,4.4H36L34.4,37.5z"/>
	<path fill="#FFFFFF" d="M46.7,45.6c-0.2,0-0.4-0.1-0.6-0.3l-4.7-7.2v6.8c0,0.3-0.3,0.6-0.6,0.6s-0.6-0.3-0.6-0.6V36
		c0-0.4,0.3-0.6,0.6-0.6c0.3,0,0.4,0.1,0.6,0.3l4.7,7.2V36c0-0.4,0.3-0.6,0.6-0.6c0.4,0,0.6,0.3,0.6,0.6v8.9
		C47.3,45.2,47.1,45.6,46.7,45.6z"/>
	<path fill="#FFFFFF" d="M51.6,36.7h-2.3c-0.3,0-0.6-0.3-0.6-0.6c0-0.3,0.3-0.6,0.6-0.6h6c0.3,0,0.6,0.3,0.6,0.6
		c0,0.4-0.3,0.6-0.6,0.6h-2.3v8.2c0,0.4-0.3,0.7-0.7,0.7c-0.4,0-0.7-0.3-0.7-0.7V36.7z"/>
	<path fill="#FFFFFF" d="M58.5,39.7H61c0.3,0,0.6,0.3,0.6,0.6c0,0.3-0.3,0.6-0.6,0.6h-2.5v3.3h4.2c0.3,0,0.6,0.3,0.6,0.6
		c0,0.3-0.3,0.6-0.6,0.6h-4.9c-0.4,0-0.7-0.3-0.7-0.7v-8.6c0-0.4,0.3-0.7,0.7-0.7h4.8c0.3,0,0.6,0.3,0.6,0.6c0,0.4-0.3,0.6-0.6,0.6
		h-4.1V39.7z"/>
	<path fill="#FFFFFF" d="M66.5,44.9c0,0.4-0.3,0.7-0.7,0.7s-0.7-0.3-0.7-0.7V36c0-0.4,0.3-0.7,0.7-0.7s0.7,0.3,0.7,0.7V44.9z"/>
	<path fill="#FFFFFF" d="M70.3,44.2h3.9c0.3,0,0.6,0.3,0.6,0.6c0,0.3-0.3,0.6-0.6,0.6h-4.6c-0.4,0-0.7-0.3-0.7-0.7V36
		c0-0.4,0.3-0.7,0.7-0.7s0.7,0.3,0.7,0.7V44.2z"/>
	<path fill="#FFFFFF" d="M40.9,54.7c4.4,0,7.2,2.6,7.2,6.4c0,2.2-1.4,4.5-3.9,5.7c3,0.9,5.3,3.2,5.3,6.7c0,4-3.2,7.4-8.6,7.4
		c-5.4,0-8.6-3.4-8.6-7.4c0-3.5,2.3-5.9,5.3-6.7c-2.5-1.2-3.9-3.5-3.9-5.7C33.7,57.3,36.5,54.7,40.9,54.7z M34.4,73.4
		c0,3.3,2.5,5.6,6.5,5.6s6.5-2.3,6.5-5.6c0-3.6-3-5.6-6.5-5.6C37.4,67.8,34.4,69.9,34.4,73.4z M40.9,66c3,0,5.1-2.2,5.1-4.9
		c0-2.9-2.1-4.7-5.1-4.7c-3,0-5.1,1.7-5.1,4.7C35.8,63.8,37.8,66,40.9,66z"/>
	<path fill="#FFFFFF" d="M68.8,80.4H54.9c-0.5,0-1-0.5-1-1v-1.3c0-5.5,3.4-7.8,7-10.1c4.6-3.1,6.4-4.5,6.4-7.3c0-2.7-2.1-4-5.4-4
		c-2.3,0-4.1,0.7-5.9,2.1c-0.2,0.2-0.4,0.3-0.7,0.3c-0.6,0-1-0.4-1-1c0-0.6,0.4-0.9,1-1.3c1.7-1.2,4-2.1,6.8-2.1
		c4.2,0,7.5,1.9,7.5,6c0,2.9-1.8,5.1-6.8,8.4c-4.7,3.1-6.5,4.8-6.5,8.7v0.6h12.7c0.6,0,1,0.4,1,0.9S69.4,80.4,68.8,80.4z"/>
	<path fill="#FFFFFF" d="M75.8,77.6c0.9,0,1.6,0.7,1.6,1.6c0,0.9-0.7,1.6-1.6,1.6c-0.9,0-1.6-0.7-1.6-1.6
		C74.2,78.2,74.9,77.6,75.8,77.6z"/>
	<path fill="#FFFFFF" d="M90.1,54.7c4.4,0,7.2,2.6,7.2,6.4c0,2.2-1.4,4.5-3.9,5.7c3,0.9,5.3,3.2,5.3,6.7c0,4-3.2,7.4-8.6,7.4
		c-5.4,0-8.6-3.4-8.6-7.4c0-3.5,2.3-5.9,5.3-6.7c-2.5-1.2-3.9-3.5-3.9-5.7C82.9,57.3,85.7,54.7,90.1,54.7z M83.6,73.4
		c0,3.3,2.5,5.6,6.5,5.6s6.5-2.3,6.5-5.6c0-3.6-3-5.6-6.5-5.6C86.6,67.8,83.6,69.9,83.6,73.4z M90.1,66c3,0,5.1-2.2,5.1-4.9
		c0-2.9-2.1-4.7-5.1-4.7c-3,0-5.1,1.7-5.1,4.7C85,63.8,87,66,90.1,66z"/>
	<path fill="#FFFFFF" d="M108.8,67c-3.3,0-5.4-2.8-5.4-6.2c0-3.4,2.1-6.2,5.4-6.2c3.3,0,5.4,2.8,5.4,6.2
		C114.2,64.2,112.1,67,108.8,67z M108.8,65.3c2.3,0,3.5-2.2,3.5-4.5s-1.2-4.5-3.5-4.5c-2.3,0-3.5,2.2-3.5,4.5S106.5,65.3,108.8,65.3
		z M123.5,56.4l-14.9,23.9c-0.2,0.3-0.5,0.5-0.8,0.5c-0.6,0-1-0.4-1-1c0-0.3,0.2-0.5,0.3-0.6L122,55.4c0.2-0.4,0.5-0.6,0.8-0.6
		c0.5,0,1,0.3,1,0.9C123.7,56,123.6,56.2,123.5,56.4z M121.8,80.9c-3.3,0-5.4-2.8-5.4-6.2s2.1-6.2,5.4-6.2c3.3,0,5.4,2.8,5.4,6.2
		S125.1,80.9,121.8,80.9z M121.8,79.2c2.3,0,3.5-2.2,3.5-4.5s-1.2-4.5-3.5-4.5c-2.3,0-3.5,2.2-3.5,4.5S119.6,79.2,121.8,79.2z"/>
</g>
<g>
	<path fill="#FFFFFF" d="M245.7,45.4h-5.4c-0.4,0-0.6-0.3-0.6-0.6c0-0.1,0.1-0.3,0.1-0.4l4.7-7.8h-4.2c-0.4,0-0.6-0.2-0.6-0.6
		c0-0.3,0.3-0.6,0.6-0.6h5.3c0.3,0,0.6,0.2,0.6,0.6c0,0.2-0.1,0.3-0.1,0.4l-4.7,7.8h4.3c0.3,0,0.6,0.2,0.6,0.6
		C246.3,45.2,246,45.4,245.7,45.4z"/>
	<path fill="#FFFFFF" d="M254.1,36c0-0.4,0.3-0.7,0.7-0.7c0.4,0,0.7,0.3,0.7,0.7v5.8c0,2.4-1.3,3.8-3.7,3.8c-2.3,0-3.7-1.4-3.7-3.8
		V36c0-0.4,0.3-0.7,0.7-0.7c0.4,0,0.7,0.3,0.7,0.7v5.9c0,1.6,0.8,2.5,2.3,2.5c1.5,0,2.3-0.9,2.3-2.5V36z"/>
	<path fill="#FFFFFF" d="M258.6,46.9c-0.1,0.2-0.2,0.4-0.6,0.4c-0.3,0-0.6-0.2-0.6-0.5c0-0.1,0-0.2,0-0.2l3.4-11.4
		c0.1-0.3,0.2-0.4,0.6-0.4c0.4,0,0.6,0.2,0.6,0.6c0,0.1,0,0.2,0,0.3L258.6,46.9z"/>
	<path fill="#FFFFFF" d="M270.8,44.7c0,0.1,0.1,0.2,0.1,0.3c0,0.3-0.2,0.6-0.7,0.6c-0.3,0-0.5-0.2-0.6-0.4l-0.8-2.1h-4l-0.8,2.1
		c-0.1,0.2-0.3,0.4-0.6,0.4c-0.4,0-0.7-0.3-0.7-0.6c0-0.1,0-0.2,0.1-0.3l3.3-8.9c0.1-0.3,0.3-0.5,0.6-0.5c0.4,0,0.5,0.2,0.6,0.5
		L270.8,44.7z M266.8,37.5l-1.6,4.4h3.1L266.8,37.5z"/>
	<path fill="#FFFFFF" d="M276,45.4h-2.8c-0.4,0-0.7-0.3-0.7-0.7v-8.6c0-0.4,0.3-0.7,0.7-0.7h2.7c1.8,0,2.9,1,2.9,2.5
		c0,1-0.6,1.9-1.5,2.2c1.2,0.3,2,1,2,2.4C279.4,44.2,278.3,45.4,276,45.4z M275.9,36.7h-2v3h2c1,0,1.5-0.8,1.5-1.5
		C277.5,37.2,276.9,36.7,275.9,36.7z M276.1,40.9h-2.2v3.3h2.2c1.3,0,1.9-0.7,1.9-1.6C278,41.5,277.3,40.9,276.1,40.9z"/>
	<path fill="#FFFFFF" d="M284.2,45.6c-1.3,0-2.4-0.5-3.1-1.2c-0.2-0.2-0.3-0.4-0.3-0.7c0-0.4,0.2-0.6,0.6-0.6c0.2,0,0.3,0.1,0.5,0.3
		c0.6,0.6,1.3,1,2.4,1c1.4,0,1.9-0.6,1.9-1.4c0-0.9-0.8-1.4-2.4-2.1c-2.1-0.9-2.8-1.7-2.8-3.1c0-1.7,1.4-2.5,3.3-2.5
		c0.8,0,1.5,0.2,2.2,0.5c0.5,0.2,0.9,0.6,0.9,1c0,0.3-0.2,0.6-0.6,0.6c-0.2,0-0.4-0.1-0.5-0.2c-0.6-0.4-1.2-0.6-2-0.6
		c-1.1,0-1.9,0.4-1.9,1.3c0,0.8,0.6,1.3,2.1,1.9c1.9,0.9,3.1,1.6,3.1,3.2C287.5,44.4,286.4,45.6,284.2,45.6z"/>
	<path fill="#FFFFFF" d="M291.1,36.7h-2.3c-0.3,0-0.6-0.3-0.6-0.6c0-0.3,0.3-0.6,0.6-0.6h6c0.3,0,0.6,0.3,0.6,0.6
		c0,0.4-0.3,0.6-0.6,0.6h-2.3v8.2c0,0.4-0.3,0.7-0.7,0.7c-0.4,0-0.7-0.3-0.7-0.7V36.7z"/>
	<path fill="#FFFFFF" d="M298.2,44.9c0,0.4-0.3,0.7-0.7,0.7s-0.7-0.3-0.7-0.7V36c0-0.4,0.3-0.7,0.7-0.7s0.7,0.3,0.7,0.7V44.9z"/>
	<path fill="#FFFFFF" d="M302,39.7h2.5c0.3,0,0.6,0.3,0.6,0.6c0,0.3-0.3,0.6-0.6,0.6H302v3.3h4.2c0.3,0,0.6,0.3,0.6,0.6
		c0,0.3-0.3,0.6-0.6,0.6h-4.9c-0.4,0-0.7-0.3-0.7-0.7v-8.6c0-0.4,0.3-0.7,0.7-0.7h4.8c0.3,0,0.6,0.3,0.6,0.6c0,0.4-0.3,0.6-0.6,0.6
		H302V39.7z"/>
	<path fill="#FFFFFF" d="M315.3,44.4c-0.9,0.8-1.9,1.2-3.3,1.2c-2.6,0-4.2-2-4.2-5.2c0-3.1,1.8-5.2,4.2-5.2c1.3,0,2.3,0.6,3,1.4
		c0.1,0.1,0.2,0.3,0.2,0.5c0,0.3-0.2,0.6-0.6,0.6c-0.2,0-0.4-0.1-0.5-0.3c-0.6-0.6-1.1-0.9-2-0.9c-1.7,0-2.8,1.5-2.8,3.9
		c0,2.4,1.1,4,3,4c0.8,0,1.5-0.2,2.1-0.7v-2.1h-1.7c-0.3,0-0.6-0.3-0.6-0.6c0-0.3,0.3-0.6,0.6-0.6h2.3c0.4,0,0.7,0.3,0.7,0.7v2.8
		C315.5,44.1,315.4,44.3,315.3,44.4z"/>
	<path fill="#FFFFFF" d="M256.7,69.1h-6.3v6.5c0,0.6-0.4,1.1-1,1.1c-0.6,0-1-0.5-1-1v-6.6h-6.3c-0.6,0-1-0.4-1-0.9c0-0.5,0.5-1,1-1
		h6.3v-6.5c0-0.6,0.5-1.1,1.1-1.1c0.6,0,1,0.5,1,1v6.6h6.3c0.5,0,1,0.4,1,1C257.7,68.7,257.3,69.1,256.7,69.1z"/>
	<path fill="#FFFFFF" d="M270.5,80.9c-5.3,0-8.4-3.7-8.4-8.7c0-7.4,4-13.7,10-17c0.5-0.3,0.9-0.5,1.6-0.5c0.6,0,0.9,0.3,0.9,0.8
		c0,0.5-0.5,0.8-1.1,1.1c-5,2.7-7.9,6.8-9.4,12.4c1.2-2.4,3.9-3.7,6.8-3.7c4.4,0,7.7,2.9,7.7,7.7C278.7,77.2,275.6,80.9,270.5,80.9z
		 M264.4,73c0,3.4,2,6.1,6.1,6.1c3.8,0,6-2.6,6-6c0-3.3-2.1-5.9-5.8-5.9C267.2,67.1,264.4,69.6,264.4,73z"/>
	<path fill="#FFFFFF" d="M288.2,67c-3.3,0-5.4-2.8-5.4-6.2c0-3.4,2.1-6.2,5.4-6.2c3.3,0,5.4,2.8,5.4,6.2
		C293.6,64.2,291.5,67,288.2,67z M288.2,65.3c2.3,0,3.5-2.2,3.5-4.5s-1.2-4.5-3.5-4.5c-2.3,0-3.5,2.2-3.5,4.5S285.9,65.3,288.2,65.3
		z M302.9,56.4L288,80.4c-0.2,0.3-0.5,0.5-0.8,0.5c-0.6,0-1-0.4-1-1c0-0.3,0.2-0.5,0.3-0.6l14.9-23.9c0.2-0.4,0.5-0.6,0.8-0.6
		c0.5,0,1,0.3,1,0.9C303.2,56,303,56.2,302.9,56.4z M301.3,80.9c-3.3,0-5.4-2.8-5.4-6.2s2.1-6.2,5.4-6.2c3.3,0,5.4,2.8,5.4,6.2
		S304.6,80.9,301.3,80.9z M301.3,79.2c2.3,0,3.5-2.2,3.5-4.5s-1.2-4.5-3.5-4.5c-2.3,0-3.5,2.2-3.5,4.5S299,79.2,301.3,79.2z"/>
</g>
<g>
	<path fill="#FFFFFF" d="M347.4,44.1c-0.8-0.9-1.2-2.3-1.2-3.7c0-2.8,1.6-5.2,4.2-5.2c1,0,1.8,0.3,2.4,0.9l1-1.5
		c0.1-0.1,0.1-0.2,0.3-0.2c0.2,0,0.4,0.2,0.4,0.4c0,0.1,0,0.2-0.1,0.3l-1.1,1.6c0.8,0.9,1.2,2.3,1.2,3.7c0,2.8-1.6,5.2-4.2,5.2
		c-1,0-1.8-0.3-2.4-0.9l-1,1.4c-0.1,0.1-0.2,0.2-0.3,0.2c-0.2,0-0.4-0.2-0.4-0.4c0-0.1,0-0.1,0.1-0.2L347.4,44.1z M348.2,43l4-5.8
		c-0.5-0.4-1-0.7-1.7-0.7c-1.9,0-2.8,1.9-2.8,4C347.6,41.4,347.8,42.3,348.2,43z M352.7,37.9l-4,5.8c0.4,0.4,1,0.7,1.7,0.7
		c1.9,0,2.8-1.9,2.8-4C353.3,39.5,353.1,38.6,352.7,37.9z"/>
	<path fill="#FFFFFF" d="M367.5,44.7c0,0.1,0.1,0.2,0.1,0.3c0,0.3-0.2,0.6-0.7,0.6c-0.3,0-0.5-0.2-0.6-0.4l-0.8-2.1h-4l-0.8,2.1
		c-0.1,0.2-0.3,0.4-0.6,0.4c-0.4,0-0.7-0.3-0.7-0.6c0-0.1,0-0.2,0.1-0.3l3.3-8.9c0.1-0.3,0.3-0.5,0.6-0.5c0.4,0,0.5,0.2,0.6,0.5
		L367.5,44.7z M363.6,37.5l-1.6,4.4h3.1L363.6,37.5z"/>
	<path fill="#FFFFFF" d="M370.6,44.2h3.9c0.3,0,0.6,0.3,0.6,0.6c0,0.3-0.3,0.6-0.6,0.6h-4.6c-0.4,0-0.7-0.3-0.7-0.7V36
		c0-0.4,0.3-0.7,0.7-0.7s0.7,0.3,0.7,0.7V44.2z"/>
	<path fill="#FFFFFF" d="M377.1,36.7h-2.3c-0.3,0-0.6-0.3-0.6-0.6c0-0.3,0.3-0.6,0.6-0.6h6c0.3,0,0.6,0.3,0.6,0.6
		c0,0.4-0.3,0.6-0.6,0.6h-2.3v8.2c0,0.4-0.3,0.7-0.7,0.7c-0.4,0-0.7-0.3-0.7-0.7V36.7z"/>
	<path fill="#FFFFFF" d="M384,39.7h2.5c0.3,0,0.6,0.3,0.6,0.6c0,0.3-0.3,0.6-0.6,0.6H384v3.3h4.2c0.3,0,0.6,0.3,0.6,0.6
		c0,0.3-0.3,0.6-0.6,0.6h-4.9c-0.4,0-0.7-0.3-0.7-0.7v-8.6c0-0.4,0.3-0.7,0.7-0.7h4.8c0.3,0,0.6,0.3,0.6,0.6c0,0.4-0.3,0.6-0.6,0.6
		H384V39.7z"/>
	<path fill="#FFFFFF" d="M391.3,35.5h2.9c2.1,0,3.4,1,3.4,3c0,1.2-0.7,2.3-1.9,2.7l1.8,3.5c0.1,0.1,0.1,0.2,0.1,0.3
		c0,0.3-0.2,0.7-0.7,0.7c-0.3,0-0.5-0.1-0.6-0.4l-2-3.9h-2.4v3.6c0,0.4-0.3,0.7-0.7,0.7c-0.4,0-0.7-0.3-0.7-0.7v-8.7
		C390.6,35.7,390.9,35.5,391.3,35.5z M391.9,40.1h2.5c1.2,0,1.7-0.7,1.7-1.7c0-1-0.6-1.7-1.7-1.7h-2.5V40.1z"/>
	<path fill="#FFFFFF" d="M362.7,80.4h-13.9c-0.5,0-1-0.5-1-1v-1.3c0-5.5,3.4-7.8,7-10.1c4.6-3.1,6.4-4.5,6.4-7.3c0-2.7-2.1-4-5.4-4
		c-2.3,0-4.1,0.7-5.9,2.1c-0.2,0.2-0.4,0.3-0.7,0.3c-0.6,0-1-0.4-1-1c0-0.6,0.4-0.9,1-1.3c1.7-1.2,4-2.1,6.8-2.1
		c4.2,0,7.5,1.9,7.5,6c0,2.9-1.8,5.1-6.8,8.4c-4.7,3.1-6.5,4.8-6.5,8.7v0.6h12.7c0.6,0,1,0.4,1,0.9S363.2,80.4,362.7,80.4z"/>
	<path fill="#FFFFFF" d="M375.7,80.9c-5.3,0-8.4-3.7-8.4-8.7c0-7.4,4-13.7,10-17c0.5-0.3,0.9-0.5,1.6-0.5c0.6,0,0.9,0.3,0.9,0.8
		c0,0.5-0.5,0.8-1.1,1.1c-5,2.7-7.9,6.8-9.4,12.4c1.2-2.4,3.9-3.7,6.8-3.7c4.4,0,7.7,2.9,7.7,7.7C383.8,77.2,380.8,80.9,375.7,80.9z
		 M369.6,73c0,3.4,2,6.1,6.1,6.1c3.8,0,6-2.6,6-6c0-3.3-2.1-5.9-5.8-5.9C372.4,67.1,369.6,69.6,369.6,73z"/>
	<path fill="#FFFFFF" d="M389.4,77.6c0.9,0,1.6,0.7,1.6,1.6c0,0.9-0.7,1.6-1.6,1.6c-0.9,0-1.6-0.7-1.6-1.6
		C387.8,78.2,388.5,77.6,389.4,77.6z"/>
	<path fill="#FFFFFF" d="M403.7,80.9c-3.2,0-5.9-1.3-7.6-3.3c-0.2-0.2-0.3-0.4-0.3-0.8c0-0.6,0.4-0.9,0.9-0.9c0.4,0,0.6,0.2,0.7,0.3
		c1.8,1.8,3.3,2.7,6.2,2.7c4.1,0,6.2-3,6.2-6.3c0-3.7-2.2-6-5.8-6c-2.1,0-3.7,0.8-5.1,2c-0.3,0.3-0.6,0.5-1.1,0.5
		c-0.8,0-1.1-0.6-1.1-1.3l1.3-11.8c0.1-0.7,0.5-1,1.1-1h10.7c0.5,0,1,0.4,1,0.9c0,0.5-0.4,1-1,1H400l-1,9.4c1.5-1.3,3.3-1.7,5.2-1.7
		c4.9,0,7.8,3.5,7.8,7.8C412.1,77,409.2,80.9,403.7,80.9z"/>
</g>
<g>
	<g>
		<path fill="#FFFFFF" d="M918.6,44.9c0,0.4-0.3,0.6-0.6,0.6s-0.6-0.3-0.6-0.6v-6l-2.6,6.2c-0.1,0.2-0.3,0.4-0.6,0.4
			c-0.3,0-0.5-0.2-0.6-0.4L911,39v6c0,0.4-0.3,0.6-0.6,0.6c-0.4,0-0.6-0.3-0.6-0.6V36c0-0.4,0.3-0.6,0.6-0.6c0.3,0,0.5,0.1,0.6,0.4
			l3.2,7.7l3.2-7.7c0.1-0.3,0.3-0.4,0.6-0.4c0.4,0,0.6,0.2,0.6,0.6V44.9z"/>
		<path fill="#FFFFFF" d="M928.4,44.7c0,0.1,0.1,0.2,0.1,0.3c0,0.3-0.2,0.6-0.7,0.6c-0.3,0-0.5-0.2-0.6-0.4l-0.8-2.1h-4l-0.8,2.1
			c-0.1,0.2-0.3,0.4-0.6,0.4c-0.4,0-0.7-0.3-0.7-0.6c0-0.1,0-0.2,0.1-0.3l3.3-8.9c0.1-0.3,0.3-0.5,0.6-0.5c0.4,0,0.5,0.2,0.6,0.5
			L928.4,44.7z M923.1,33c0.4,0,0.7,0.3,0.7,0.7c0,0.4-0.3,0.7-0.7,0.7s-0.7-0.3-0.7-0.7C922.4,33.4,922.7,33,923.1,33z M924.4,37.5
			l-1.6,4.4h3.2L924.4,37.5z M925.6,33c0.4,0,0.7,0.3,0.7,0.7c0,0.4-0.3,0.7-0.7,0.7s-0.7-0.3-0.7-0.7C924.9,33.4,925.3,33,925.6,33
			z"/>
		<path fill="#FFFFFF" d="M936.7,45.6c-0.2,0-0.4-0.1-0.6-0.3l-4.7-7.2v6.8c0,0.3-0.3,0.6-0.6,0.6s-0.6-0.3-0.6-0.6V36
			c0-0.4,0.3-0.6,0.6-0.6c0.3,0,0.4,0.1,0.6,0.3l4.7,7.2V36c0-0.4,0.3-0.6,0.6-0.6c0.4,0,0.6,0.3,0.6,0.6v8.9
			C937.3,45.2,937.1,45.6,936.7,45.6z"/>
		<path fill="#FFFFFF" d="M946.3,45.6c-0.2,0-0.4-0.1-0.6-0.3l-4.7-7.2v6.8c0,0.3-0.3,0.6-0.6,0.6s-0.6-0.3-0.6-0.6V36
			c0-0.4,0.3-0.6,0.6-0.6c0.3,0,0.4,0.1,0.6,0.3l4.7,7.2V36c0-0.4,0.3-0.6,0.6-0.6c0.4,0,0.6,0.3,0.6,0.6v8.9
			C946.9,45.2,946.7,45.6,946.3,45.6z"/>
		<path fill="#FFFFFF" d="M950.7,39.7h2.5c0.3,0,0.6,0.3,0.6,0.6c0,0.3-0.3,0.6-0.6,0.6h-2.5v3.3h4.2c0.3,0,0.6,0.3,0.6,0.6
			c0,0.3-0.3,0.6-0.6,0.6H950c-0.4,0-0.7-0.3-0.7-0.7v-8.6c0-0.4,0.3-0.7,0.7-0.7h4.8c0.3,0,0.6,0.3,0.6,0.6c0,0.4-0.3,0.6-0.6,0.6
			h-4.1V39.7z"/>
		<path fill="#FFFFFF" d="M957.9,35.5h2.9c2.1,0,3.4,1,3.4,3c0,1.2-0.7,2.3-1.9,2.7l1.8,3.5c0.1,0.1,0.1,0.2,0.1,0.3
			c0,0.3-0.2,0.7-0.7,0.7c-0.3,0-0.5-0.1-0.6-0.4l-2-3.9h-2.4v3.6c0,0.4-0.3,0.7-0.7,0.7c-0.4,0-0.7-0.3-0.7-0.7v-8.7
			C957.2,35.7,957.5,35.5,957.9,35.5z M958.6,40.1h2.5c1.2,0,1.7-0.7,1.7-1.7c0-1-0.6-1.7-1.7-1.7h-2.5V40.1z"/>
		<path fill="#FFFFFF" d="M927.7,73.3h-3.4v6.3c0,0.6-0.4,1.1-1.1,1.1c-0.6,0-1.1-0.5-1.1-1.1v-6.4h-11.8c-0.6,0-1-0.4-1-0.9
			c0-0.3,0.1-0.5,0.3-0.7l12.7-16.3c0.3-0.4,0.5-0.5,1-0.5c0.6,0,1,0.4,1,1.1v15.5h3.3c0.5,0,1,0.4,1,0.9S928.3,73.3,927.7,73.3z
			 M922.2,58.5l-9.8,12.9h9.8V58.5z"/>
		<path fill="#FFFFFF" d="M936.7,80.7c-0.6,0-1.1-0.5-1.1-1.1V57.2l-4.4,1.4c-0.2,0-0.3,0.1-0.5,0.1c-0.5,0-1.1-0.3-1.1-1
			s0.3-0.8,0.8-1l5.5-1.7c0.3-0.1,0.5-0.2,0.8-0.2c0.7,0,1.1,0.4,1.1,1.1v23.7C937.8,80.2,937.3,80.7,936.7,80.7z"/>
	</g>
	<g>
		<path fill="#FFFFFF" d="M806.1,44.7c0,0.1,0.1,0.2,0.1,0.3c0,0.3-0.2,0.6-0.7,0.6c-0.3,0-0.5-0.2-0.6-0.4l-0.8-2.1h-4l-0.8,2.1
			c-0.1,0.2-0.3,0.4-0.6,0.4c-0.4,0-0.7-0.3-0.7-0.6c0-0.1,0-0.2,0.1-0.3l3.3-8.9c0.1-0.3,0.3-0.5,0.6-0.5c0.4,0,0.5,0.2,0.6,0.5
			L806.1,44.7z M802.2,37.5l-1.6,4.4h3.1L802.2,37.5z"/>
		<path fill="#FFFFFF" d="M814.4,45.6c-0.2,0-0.4-0.1-0.6-0.3l-4.7-7.2v6.8c0,0.3-0.3,0.6-0.6,0.6s-0.6-0.3-0.6-0.6V36
			c0-0.4,0.3-0.6,0.6-0.6c0.3,0,0.4,0.1,0.6,0.3l4.7,7.2V36c0-0.4,0.3-0.6,0.6-0.6c0.4,0,0.6,0.3,0.6,0.6v8.9
			C815.1,45.2,814.8,45.6,814.4,45.6z"/>
		<path fill="#FFFFFF" d="M819.3,36.7H817c-0.3,0-0.6-0.3-0.6-0.6c0-0.3,0.3-0.6,0.6-0.6h6c0.3,0,0.6,0.3,0.6,0.6
			c0,0.4-0.3,0.6-0.6,0.6h-2.3v8.2c0,0.4-0.3,0.7-0.7,0.7c-0.4,0-0.7-0.3-0.7-0.7V36.7z"/>
		<path fill="#FFFFFF" d="M826.2,39.7h2.5c0.3,0,0.6,0.3,0.6,0.6c0,0.3-0.3,0.6-0.6,0.6h-2.5v3.3h4.2c0.3,0,0.6,0.3,0.6,0.6
			c0,0.3-0.3,0.6-0.6,0.6h-4.9c-0.4,0-0.7-0.3-0.7-0.7v-8.6c0-0.4,0.3-0.7,0.7-0.7h4.8c0.3,0,0.6,0.3,0.6,0.6c0,0.4-0.3,0.6-0.6,0.6
			h-4.1V39.7z"/>
		<path fill="#FFFFFF" d="M834.2,44.9c0,0.4-0.3,0.7-0.7,0.7s-0.7-0.3-0.7-0.7V36c0-0.4,0.3-0.7,0.7-0.7s0.7,0.3,0.7,0.7V44.9z"/>
		<path fill="#FFFFFF" d="M838,44.2h3.9c0.3,0,0.6,0.3,0.6,0.6c0,0.3-0.3,0.6-0.6,0.6h-4.6c-0.4,0-0.7-0.3-0.7-0.7V36
			c0-0.4,0.3-0.7,0.7-0.7s0.7,0.3,0.7,0.7V44.2z"/>
		<path fill="#FFFFFF" d="M805.2,80.7c-0.6,0-1.1-0.5-1.1-1.1V57.2l-4.4,1.4c-0.2,0-0.3,0.1-0.5,0.1c-0.5,0-1.1-0.3-1.1-1
			s0.3-0.8,0.8-1l5.5-1.7c0.3-0.1,0.5-0.2,0.8-0.2c0.7,0,1.1,0.4,1.1,1.1v23.7C806.3,80.2,805.9,80.7,805.2,80.7z"/>
		<path fill="#FFFFFF" d="M826.6,56.8c-5.1,7-8,12.8-8,22.8v0.1c0,0.6-0.4,1.1-1.1,1.1s-1.1-0.5-1.1-1.1v-0.2
			c0-9.4,2.9-15.9,7.6-22.4h-12.5c-0.5,0-1-0.4-1-0.9s0.4-1,1-1h14.3c0.7,0,1.1,0.3,1.1,0.9C826.9,56.4,826.7,56.6,826.6,56.8z"/>
		<path fill="#FFFFFF" d="M827.3,77.6c0.9,0,1.6,0.7,1.6,1.6c0,0.9-0.7,1.6-1.6,1.6c-0.9,0-1.6-0.7-1.6-1.6
			C825.7,78.2,826.4,77.6,827.3,77.6z"/>
		<path fill="#FFFFFF" d="M849,80.4h-13.9c-0.5,0-1-0.5-1-1v-1.3c0-5.5,3.4-7.8,7-10.1c4.6-3.1,6.4-4.5,6.4-7.3c0-2.7-2.1-4-5.4-4
			c-2.3,0-4.1,0.7-5.9,2.1c-0.2,0.2-0.4,0.3-0.7,0.3c-0.6,0-1-0.4-1-1c0-0.6,0.4-0.9,1-1.3c1.7-1.2,4-2.1,6.8-2.1
			c4.2,0,7.5,1.9,7.5,6c0,2.9-1.8,5.1-6.8,8.4c-4.7,3.1-6.5,4.8-6.5,8.7v0.6H849c0.6,0,1,0.4,1,0.9S849.5,80.4,849,80.4z"/>
		<path fill="#FFFFFF" d="M859.5,67c-3.3,0-5.4-2.8-5.4-6.2c0-3.4,2.1-6.2,5.4-6.2c3.3,0,5.4,2.8,5.4,6.2
			C864.9,64.2,862.8,67,859.5,67z M859.5,65.3c2.3,0,3.5-2.2,3.5-4.5s-1.2-4.5-3.5-4.5c-2.3,0-3.5,2.2-3.5,4.5
			S857.3,65.3,859.5,65.3z M874.2,56.4l-14.9,23.9c-0.2,0.3-0.5,0.5-0.8,0.5c-0.6,0-1-0.4-1-1c0-0.3,0.2-0.5,0.3-0.6l14.9-23.9
			c0.2-0.4,0.5-0.6,0.8-0.6c0.5,0,1,0.3,1,0.9C874.5,56,874.4,56.2,874.2,56.4z M872.6,80.9c-3.3,0-5.4-2.8-5.4-6.2s2.1-6.2,5.4-6.2
			c3.3,0,5.4,2.8,5.4,6.2S875.9,80.9,872.6,80.9z M872.6,79.2c2.3,0,3.5-2.2,3.5-4.5s-1.2-4.5-3.5-4.5c-2.3,0-3.5,2.2-3.5,4.5
			S870.3,79.2,872.6,79.2z"/>
	</g>
	<g>
		<path fill="#FFFFFF" d="M1001.1,45.4h-5.4c-0.4,0-0.6-0.3-0.6-0.6c0-0.1,0.1-0.3,0.1-0.4l4.7-7.8h-4.2c-0.4,0-0.6-0.2-0.6-0.6
			c0-0.3,0.3-0.6,0.6-0.6h5.3c0.3,0,0.6,0.2,0.6,0.6c0,0.2-0.1,0.3-0.1,0.4l-4.7,7.8h4.3c0.3,0,0.6,0.2,0.6,0.6
			C1001.7,45.2,1001.4,45.4,1001.1,45.4z"/>
		<path fill="#FFFFFF" d="M1009.6,36c0-0.4,0.3-0.7,0.7-0.7c0.4,0,0.7,0.3,0.7,0.7v5.8c0,2.4-1.3,3.8-3.7,3.8
			c-2.3,0-3.7-1.4-3.7-3.8V36c0-0.4,0.3-0.7,0.7-0.7c0.4,0,0.7,0.3,0.7,0.7v5.9c0,1.6,0.8,2.5,2.3,2.5c1.5,0,2.3-0.9,2.3-2.5V36z"/>
		<path fill="#FFFFFF" d="M1014,46.9c-0.1,0.2-0.2,0.4-0.6,0.4c-0.3,0-0.6-0.2-0.6-0.5c0-0.1,0-0.2,0-0.2l3.4-11.4
			c0.1-0.3,0.2-0.4,0.6-0.4c0.4,0,0.6,0.2,0.6,0.6c0,0.1,0,0.2,0,0.3L1014,46.9z"/>
		<path fill="#FFFFFF" d="M1026.2,44.7c0,0.1,0.1,0.2,0.1,0.3c0,0.3-0.2,0.6-0.7,0.6c-0.3,0-0.5-0.2-0.6-0.4l-0.8-2.1h-4l-0.8,2.1
			c-0.1,0.2-0.3,0.4-0.6,0.4c-0.4,0-0.7-0.3-0.7-0.6c0-0.1,0-0.2,0.1-0.3l3.3-8.9c0.1-0.3,0.3-0.5,0.6-0.5c0.4,0,0.5,0.2,0.6,0.5
			L1026.2,44.7z M1022.2,37.5l-1.6,4.4h3.1L1022.2,37.5z"/>
		<path fill="#FFFFFF" d="M1031.4,45.4h-2.8c-0.4,0-0.7-0.3-0.7-0.7v-8.6c0-0.4,0.3-0.7,0.7-0.7h2.7c1.8,0,2.9,1,2.9,2.5
			c0,1-0.6,1.9-1.5,2.2c1.2,0.3,2,1,2,2.4C1034.8,44.2,1033.7,45.4,1031.4,45.4z M1031.3,36.7h-2v3h2c1,0,1.5-0.8,1.5-1.5
			C1032.9,37.2,1032.3,36.7,1031.3,36.7z M1031.5,40.9h-2.2v3.3h2.2c1.3,0,1.9-0.7,1.9-1.6C1033.4,41.5,1032.7,40.9,1031.5,40.9z"/>
		<path fill="#FFFFFF" d="M1039.6,45.6c-1.3,0-2.4-0.5-3.1-1.2c-0.2-0.2-0.3-0.4-0.3-0.7c0-0.4,0.2-0.6,0.6-0.6
			c0.2,0,0.3,0.1,0.5,0.3c0.6,0.6,1.3,1,2.4,1c1.4,0,1.9-0.6,1.9-1.4c0-0.9-0.8-1.4-2.4-2.1c-2.1-0.9-2.8-1.7-2.8-3.1
			c0-1.7,1.4-2.5,3.3-2.5c0.8,0,1.5,0.2,2.2,0.5c0.5,0.2,0.9,0.6,0.9,1c0,0.3-0.2,0.6-0.6,0.6c-0.2,0-0.4-0.1-0.5-0.2
			c-0.6-0.4-1.2-0.6-2-0.6c-1.1,0-1.9,0.4-1.9,1.3c0,0.8,0.6,1.3,2.1,1.9c1.9,0.9,3.1,1.6,3.1,3.2
			C1042.9,44.4,1041.9,45.6,1039.6,45.6z"/>
		<path fill="#FFFFFF" d="M1046.6,36.7h-2.3c-0.3,0-0.6-0.3-0.6-0.6c0-0.3,0.3-0.6,0.6-0.6h6c0.3,0,0.6,0.3,0.6,0.6
			c0,0.4-0.3,0.6-0.6,0.6h-2.3v8.2c0,0.4-0.3,0.7-0.7,0.7c-0.4,0-0.7-0.3-0.7-0.7V36.7z"/>
		<path fill="#FFFFFF" d="M1053.6,44.9c0,0.4-0.3,0.7-0.7,0.7s-0.7-0.3-0.7-0.7V36c0-0.4,0.3-0.7,0.7-0.7s0.7,0.3,0.7,0.7V44.9z"/>
		<path fill="#FFFFFF" d="M1057.4,39.7h2.5c0.3,0,0.6,0.3,0.6,0.6c0,0.3-0.3,0.6-0.6,0.6h-2.5v3.3h4.2c0.3,0,0.6,0.3,0.6,0.6
			c0,0.3-0.3,0.6-0.6,0.6h-4.9c-0.4,0-0.7-0.3-0.7-0.7v-8.6c0-0.4,0.3-0.7,0.7-0.7h4.8c0.3,0,0.6,0.3,0.6,0.6c0,0.4-0.3,0.6-0.6,0.6
			h-4.1V39.7z"/>
		<path fill="#FFFFFF" d="M1070.7,44.4c-0.9,0.8-1.9,1.2-3.3,1.2c-2.6,0-4.2-2-4.2-5.2c0-3.1,1.8-5.2,4.2-5.2c1.3,0,2.3,0.6,3,1.4
			c0.1,0.1,0.2,0.3,0.2,0.5c0,0.3-0.2,0.6-0.6,0.6c-0.2,0-0.4-0.1-0.5-0.3c-0.6-0.6-1.1-0.9-2-0.9c-1.7,0-2.8,1.5-2.8,3.9
			c0,2.4,1.1,4,3,4c0.8,0,1.5-0.2,2.1-0.7v-2.1h-1.7c-0.3,0-0.6-0.3-0.6-0.6c0-0.3,0.3-0.6,0.6-0.6h2.3c0.4,0,0.7,0.3,0.7,0.7v2.8
			C1070.9,44.1,1070.8,44.3,1070.7,44.4z"/>
		<path fill="#FFFFFF" d="M1005.9,71.9h-8.4c-0.5,0-1-0.4-1-0.9c0-0.5,0.4-1,1-1h8.4c0.5,0,1,0.4,1,1
			C1006.8,71.5,1006.4,71.9,1005.9,71.9z"/>
		<path fill="#FFFFFF" d="M1028.4,73.3h-3.4v6.3c0,0.6-0.4,1.1-1.1,1.1c-0.6,0-1.1-0.5-1.1-1.1v-6.4h-11.8c-0.6,0-1-0.4-1-0.9
			c0-0.3,0.1-0.5,0.3-0.7l12.7-16.3c0.3-0.4,0.5-0.5,1-0.5c0.6,0,1,0.4,1,1.1v15.5h3.3c0.5,0,1,0.4,1,0.9S1029,73.3,1028.4,73.3z
			 M1022.9,58.5l-9.8,12.9h9.8V58.5z"/>
		<path fill="#FFFFFF" d="M1038,67c-3.3,0-5.4-2.8-5.4-6.2c0-3.4,2.1-6.2,5.4-6.2c3.3,0,5.4,2.8,5.4,6.2
			C1043.4,64.2,1041.3,67,1038,67z M1038,65.3c2.3,0,3.5-2.2,3.5-4.5s-1.2-4.5-3.5-4.5c-2.3,0-3.5,2.2-3.5,4.5
			S1035.7,65.3,1038,65.3z M1052.7,56.4l-14.9,23.9c-0.2,0.3-0.5,0.5-0.8,0.5c-0.6,0-1-0.4-1-1c0-0.3,0.2-0.5,0.3-0.6l14.9-23.9
			c0.2-0.4,0.5-0.6,0.8-0.6c0.5,0,1,0.3,1,0.9C1053,56,1052.8,56.2,1052.7,56.4z M1051.1,80.9c-3.3,0-5.4-2.8-5.4-6.2
			s2.1-6.2,5.4-6.2c3.3,0,5.4,2.8,5.4,6.2S1054.4,80.9,1051.1,80.9z M1051.1,79.2c2.3,0,3.5-2.2,3.5-4.5s-1.2-4.5-3.5-4.5
			c-2.3,0-3.5,2.2-3.5,4.5S1048.8,79.2,1051.1,79.2z"/>
	</g>
	<g>
		<path fill="#FFFFFF" d="M1103.5,44.1c-0.8-0.9-1.2-2.3-1.2-3.7c0-2.8,1.6-5.2,4.2-5.2c1,0,1.8,0.3,2.4,0.9l1-1.5
			c0.1-0.1,0.1-0.2,0.3-0.2c0.2,0,0.4,0.2,0.4,0.4c0,0.1,0,0.2-0.1,0.3l-1.1,1.6c0.8,0.9,1.2,2.3,1.2,3.7c0,2.8-1.6,5.2-4.2,5.2
			c-1,0-1.8-0.3-2.4-0.9l-1,1.4c-0.1,0.1-0.2,0.2-0.3,0.2c-0.2,0-0.4-0.2-0.4-0.4c0-0.1,0-0.1,0.1-0.2L1103.5,44.1z M1104.3,43
			l4-5.8c-0.5-0.4-1-0.7-1.7-0.7c-1.9,0-2.8,1.9-2.8,4C1103.7,41.4,1103.9,42.3,1104.3,43z M1108.8,37.9l-4,5.8
			c0.4,0.4,1,0.7,1.7,0.7c1.9,0,2.8-1.9,2.8-4C1109.4,39.5,1109.2,38.6,1108.8,37.9z"/>
		<path fill="#FFFFFF" d="M1123.7,44.7c0,0.1,0.1,0.2,0.1,0.3c0,0.3-0.2,0.6-0.7,0.6c-0.3,0-0.5-0.2-0.6-0.4l-0.8-2.1h-4l-0.8,2.1
			c-0.1,0.2-0.3,0.4-0.6,0.4c-0.4,0-0.7-0.3-0.7-0.6c0-0.1,0-0.2,0.1-0.3l3.3-8.9c0.1-0.3,0.3-0.5,0.6-0.5c0.4,0,0.5,0.2,0.6,0.5
			L1123.7,44.7z M1119.7,37.5l-1.6,4.4h3.1L1119.7,37.5z"/>
		<path fill="#FFFFFF" d="M1126.8,44.2h3.9c0.3,0,0.6,0.3,0.6,0.6c0,0.3-0.3,0.6-0.6,0.6h-4.6c-0.4,0-0.7-0.3-0.7-0.7V36
			c0-0.4,0.3-0.7,0.7-0.7s0.7,0.3,0.7,0.7V44.2z"/>
		<path fill="#FFFFFF" d="M1133.2,36.7h-2.3c-0.3,0-0.6-0.3-0.6-0.6c0-0.3,0.3-0.6,0.6-0.6h6c0.3,0,0.6,0.3,0.6,0.6
			c0,0.4-0.3,0.6-0.6,0.6h-2.3v8.2c0,0.4-0.3,0.7-0.7,0.7c-0.4,0-0.7-0.3-0.7-0.7V36.7z"/>
		<path fill="#FFFFFF" d="M1140.2,39.7h2.5c0.3,0,0.6,0.3,0.6,0.6c0,0.3-0.3,0.6-0.6,0.6h-2.5v3.3h4.2c0.3,0,0.6,0.3,0.6,0.6
			c0,0.3-0.3,0.6-0.6,0.6h-4.9c-0.4,0-0.7-0.3-0.7-0.7v-8.6c0-0.4,0.3-0.7,0.7-0.7h4.8c0.3,0,0.6,0.3,0.6,0.6c0,0.4-0.3,0.6-0.6,0.6
			h-4.1V39.7z"/>
		<path fill="#FFFFFF" d="M1147.4,35.5h2.9c2.1,0,3.4,1,3.4,3c0,1.2-0.7,2.3-1.9,2.7l1.8,3.5c0.1,0.1,0.1,0.2,0.1,0.3
			c0,0.3-0.2,0.7-0.7,0.7c-0.3,0-0.5-0.1-0.6-0.4l-2-3.9h-2.4v3.6c0,0.4-0.3,0.7-0.7,0.7c-0.4,0-0.7-0.3-0.7-0.7v-8.7
			C1146.7,35.7,1147,35.5,1147.4,35.5z M1148.1,40.1h2.5c1.2,0,1.7-0.7,1.7-1.7c0-1-0.6-1.7-1.7-1.7h-2.5V40.1z"/>
		<path fill="#FFFFFF" d="M1118.8,80.4h-13.9c-0.5,0-1-0.5-1-1v-1.3c0-5.5,3.4-7.8,7-10.1c4.6-3.1,6.4-4.5,6.4-7.3
			c0-2.7-2.1-4-5.4-4c-2.3,0-4.1,0.7-5.9,2.1c-0.2,0.2-0.4,0.3-0.7,0.3c-0.6,0-1-0.4-1-1c0-0.6,0.4-0.9,1-1.3c1.7-1.2,4-2.1,6.8-2.1
			c4.2,0,7.5,1.9,7.5,6c0,2.9-1.8,5.1-6.8,8.4c-4.7,3.1-6.5,4.8-6.5,8.7v0.6h12.7c0.6,0,1,0.4,1,0.9S1119.3,80.4,1118.8,80.4z"/>
		<path fill="#FFFFFF" d="M1131,80.9c-3.3,0-5.6-1.1-7.4-2.7c-0.5-0.4-0.8-0.9-0.8-1.4c0-0.6,0.5-1,1-1c0.4,0,0.6,0.2,0.8,0.4
			c1.6,1.7,3.4,2.7,6.4,2.7c3.6,0,6.3-2.1,6.3-5.5c0-3.3-2.4-5.5-6.6-5.5h-2.2c-0.6,0-1-0.4-1-1c0-0.6,0.4-1,1-1h2.1
			c3.5,0,5.7-2.2,5.7-4.9c0-2.7-1.9-4.4-5.1-4.4c-1.9,0-3.3,0.5-4.7,1.4c-0.3,0.2-0.6,0.3-0.9,0.3c-0.6,0-0.9-0.4-0.9-0.9
			c0-0.6,0.3-0.9,0.8-1.2c1.7-1.1,3.9-1.6,5.8-1.6c4.5,0,7.3,2.4,7.3,6.2c0,2.5-1.5,4.7-4.2,6c2.8,0.6,5.4,3,5.4,6.6
			C1139.5,77.5,1136.5,80.9,1131,80.9z"/>
		<path fill="#FFFFFF" d="M1145.4,77.6c0.9,0,1.6,0.7,1.6,1.6c0,0.9-0.7,1.6-1.6,1.6c-0.9,0-1.6-0.7-1.6-1.6
			C1143.8,78.2,1144.5,77.6,1145.4,77.6z"/>
		<path fill="#FFFFFF" d="M1159.7,80.9c-3.2,0-5.9-1.3-7.6-3.3c-0.2-0.2-0.3-0.4-0.3-0.8c0-0.6,0.4-0.9,0.9-0.9
			c0.4,0,0.6,0.2,0.7,0.3c1.8,1.8,3.3,2.7,6.2,2.7c4.1,0,6.2-3,6.2-6.3c0-3.7-2.2-6-5.8-6c-2.1,0-3.7,0.8-5.1,2
			c-0.3,0.3-0.6,0.5-1.1,0.5c-0.8,0-1.1-0.6-1.1-1.3l1.3-11.8c0.1-0.7,0.5-1,1.1-1h10.7c0.5,0,1,0.4,1,0.9c0,0.5-0.4,1-1,1h-9.8
			l-1,9.4c1.5-1.3,3.3-1.7,5.2-1.7c4.9,0,7.8,3.5,7.8,7.8C1168.1,77,1165.2,80.9,1159.7,80.9z"/>
	</g>
</g>
</svg>
