<?xml version="1.0" standalone="no"?>
<!DOCTYPE svg PUBLIC "-//W3C//DTD SVG 1.1//EN" "http://www.w3.org/Graphics/SVG/1.1/DTD/svg11.dtd" >
<svg xmlns="http://www.w3.org/2000/svg">
<metadata></metadata>
<defs>
<font id="bryantregular_condensed" horiz-adv-x="518" >
<font-face units-per-em="1000" ascent="750" descent="-250" />
<missing-glyph horiz-adv-x="260" />
<glyph unicode=" "  horiz-adv-x="260" />
<glyph unicode="&#x09;" horiz-adv-x="260" />
<glyph unicode="&#xa0;" horiz-adv-x="260" />
<glyph unicode="!" horiz-adv-x="242" d="M150 360l-14 -192q-2 -18 -15 -18t-15 18l-14 192v285q0 12 8 20.5t21 8.5t21 -8.5t8 -20.5v-285zM80 35q0 17 12 29t29 12t29 -12t12 -29t-12 -29t-29 -12t-29 12t-12 29z" />
<glyph unicode="&#x22;" horiz-adv-x="350" d="M65 451v197q0 10 7.5 18t18.5 8t18.5 -8t7.5 -18v-197q0 -11 -7.5 -18.5t-18.5 -7.5t-18.5 7.5t-7.5 18.5zM233 451v197q0 10 7.5 18t18.5 8t18.5 -8t7.5 -18v-197q0 -11 -7.5 -18.5t-18.5 -7.5t-18.5 7.5t-7.5 18.5z" />
<glyph unicode="#" horiz-adv-x="641" d="M188 13q-3 -21 -23 -21q-28 0 -25 26l19 177h-83q-10 0 -18 6.5t-8 16.5q0 24 26 24h88l21 194h-84q-11 0 -18.5 6.5t-7.5 16.5q0 24 26 24h89l18 170q3 21 23 21q13 0 20 -7.5t5 -18.5l-18 -165h206l18 170q3 21 23 21q28 0 25 -26l-18 -165h83q26 0 26 -23 q0 -24 -25 -24h-89l-21 -194h84q26 0 26 -23q0 -24 -25 -24h-90l-19 -182q-3 -21 -23 -21q-13 0 -20 7.5t-5 18.5l19 177h-206zM233 436l-21 -194h206l21 194h-206z" />
<glyph unicode="$" horiz-adv-x="526" d="M468 169q0 -61 -46.5 -106t-127.5 -52v-94q0 -26 -27 -26q-12 0 -19.5 7.5t-7.5 18.5v95q-99 11 -161 73q-14 14 -14 26q0 10 7 17t17 7t23 -11q68 -63 158 -63q65 0 102.5 29.5t37.5 77.5q0 47 -36 76.5t-125 72.5q-100 48 -135.5 88.5t-35.5 99.5q0 65 48 105.5 t127 42.5v95q0 11 7.5 19t19.5 8t19.5 -8t7.5 -18v-97q61 -5 132 -53q16 -11 16 -25q0 -10 -6.5 -18t-19.5 -8q-7 0 -21 8q-74 48 -133 48q-68 0 -103.5 -25.5t-35.5 -74.5q0 -44 28.5 -72t106.5 -67q59 -30 85 -45t57.5 -39.5t43 -50.5t11.5 -61z" />
<glyph unicode="%" horiz-adv-x="757" d="M600 650q0 -8 -7 -18l-392 -630q-9 -14 -21 -14q-11 0 -18 7t-7 18q0 5 7 17l391 628q10 16 22 16q25 0 25 -24zM349 516q0 -69 -39 -115.5t-103 -46.5t-103 46.5t-39 115.5t39 115.5t103 46.5t103 -46.5t39 -115.5zM115 516q0 -48 24.5 -83t67.5 -35t67.5 35t24.5 83 t-24.5 83t-67.5 35t-67.5 -35t-24.5 -83zM692 150q0 -69 -39 -115.5t-103 -46.5t-103 46.5t-39 115.5t39 115.5t103 46.5t103 -46.5t39 -115.5zM458 150q0 -48 24.5 -83t67.5 -35t67.5 35t24.5 83t-24.5 83t-67.5 35t-67.5 -35t-24.5 -83z" />
<glyph unicode="&#x26;" horiz-adv-x="662" d="M642 29q0 -8 -8 -16q-27 -25 -71 -25q-42 0 -67 19t-58 66q-75 -85 -187 -85q-89 0 -137.5 48t-48.5 123q0 72 41.5 122t123.5 98q-67 98 -67 170q0 57 35.5 93t96.5 36q58 0 92 -35t34 -91q0 -51 -34.5 -99.5t-88.5 -84.5q103 -154 145 -216q35 62 59 129q7 17 23 17 q24 0 24 -23q0 -5 -2 -11q-30 -86 -76 -151q19 -29 29.5 -42.5t28 -26t35.5 -12.5q17 0 49 15q4 2 9 2q20 0 20 -20zM369 550q0 37 -20 60t-55 23t-56.5 -21t-21.5 -63q0 -63 58 -145q95 71 95 146zM410 111q-150 223 -155 230q-36 -24 -54 -38t-40 -36.5t-31 -48.5t-9 -58 q0 -57 34 -91.5t98 -34.5q89 0 157 77z" />
<glyph unicode="'" horiz-adv-x="182" d="M65 451v197q0 10 7.5 18t18.5 8t18.5 -8t7.5 -18v-197q0 -11 -7.5 -18.5t-18.5 -7.5t-18.5 7.5t-7.5 18.5z" />
<glyph unicode="(" horiz-adv-x="303" d="M253 670q-115 -192 -115 -400t115 -400q5 -8 5 -15q0 -11 -7 -18t-19 -7q-16 0 -23 12q-129 200 -129 428t129 428q7 12 23 12q12 0 19 -7t7 -18q0 -7 -5 -15z" />
<glyph unicode=")" horiz-adv-x="303" d="M50 670q-5 8 -5 15q0 11 7 18t19 7q15 0 23 -12q129 -200 129 -428t-129 -428q-8 -12 -23 -12q-12 0 -19 7t-7 18q0 7 5 15q115 192 115 400t-115 400z" />
<glyph unicode="*" horiz-adv-x="400" d="M253 431l-53 88l-53 -88q-6 -9 -15 -9q-17 0 -17 14q0 6 4 12l54 85h-103q-15 0 -15 15t15 15h103l-54 85q-4 6 -4 12q0 14 17 14q9 0 15 -9l53 -88l53 88q6 9 15 9q17 0 17 -14q0 -6 -4 -12l-54 -85h103q15 0 15 -15t-15 -15h-103l54 -85q4 -6 4 -12q0 -14 -17 -14 q-9 0 -15 9z" />
<glyph unicode="+" horiz-adv-x="552" d="M497 323q0 -10 -8 -17.5t-19 -7.5h-167v-172q0 -12 -7.5 -20t-19.5 -8t-19.5 8t-7.5 19v173h-167q-11 0 -19 7t-8 18q0 10 8 17.5t19 7.5h167v172q0 11 8 19.5t20 8.5t19 -7.5t7 -19.5v-173h167q11 0 19 -7t8 -18z" />
<glyph unicode="," horiz-adv-x="190" d="M125 20q0 -79 -26 -157q-11 -30 -32 -30q-25 0 -25 23q0 5 5 20q24 69 24 144v43q0 12 7.5 20t19.5 8t19.5 -8t7.5 -20v-43z" />
<glyph unicode="-" horiz-adv-x="391" d="M331 249q0 -11 -7.5 -18t-17.5 -7h-221q-11 0 -18 7t-7 18t7 18t18 7h221q10 0 17.5 -7t7.5 -18z" />
<glyph unicode="." horiz-adv-x="222" d="M70 35q0 17 12 29t29 12t29 -12t12 -29t-12 -29t-29 -12t-29 12t-12 29z" />
<glyph unicode="/" horiz-adv-x="429" d="M354 688q0 -4 -3 -16l-225 -782q-6 -20 -25 -20q-13 0 -19.5 7t-6.5 17q0 6 2 12l225 781q6 23 27 23q25 0 25 -22z" />
<glyph unicode="0" horiz-adv-x="592" d="M537 333q0 -151 -62.5 -248t-178.5 -97t-178.5 97t-62.5 248t62.5 248t178.5 97t178.5 -97t62.5 -248zM296 39q91 0 137 82t46 212t-46 212t-137 82t-137 -82t-46 -212t46 -212t137 -82z" />
<glyph unicode="1" horiz-adv-x="317" d="M227 21q0 -12 -8 -20.5t-21 -8.5t-21 8.5t-8 20.5v590l-115 -36q-12 -3 -14 -3q-11 0 -19.5 7t-8.5 19q0 19 20 26l146 46q14 4 20 4q29 0 29 -29v-624z" />
<glyph unicode="2" horiz-adv-x="521" d="M476 26q0 -11 -7.5 -18.5t-18.5 -7.5h-366q-10 0 -18 8t-8 18v35q0 42 11.5 78t25 59.5t43 50.5t48 40t56.5 39q98 66 133 103.5t35 89.5t-38 79t-105 27q-86 0 -156 -55q-10 -8 -19 -8q-11 0 -19 7t-8 18q0 16 26 35q74 54 180 54q88 0 142.5 -40t54.5 -119 q0 -58 -40 -107.5t-140 -114.5q-99 -65 -135.5 -111t-36.5 -119v-16h334q11 0 18.5 -7t7.5 -18z" />
<glyph unicode="3" horiz-adv-x="532" d="M474 183q0 -82 -60 -138.5t-163 -56.5q-117 0 -194 70q-21 19 -21 36q0 25 26 25q10 0 20 -10q67 -70 168 -70q73 0 119.5 39.5t46.5 104.5q0 67 -45.5 106.5t-128.5 39.5h-58q-11 0 -19 7.5t-8 17.5q0 11 7.5 18.5t18.5 7.5h54q67 0 108 37.5t41 92.5q0 54 -36 85.5 t-99 31.5q-66 0 -123 -37q-14 -9 -24 -9q-11 0 -18 7t-7 16q0 17 21 31q66 43 153 43q89 0 140 -43.5t51 -119.5q0 -106 -111 -157q60 -14 100.5 -60t40.5 -115z" />
<glyph unicode="4" horiz-adv-x="549" d="M529 213q0 -11 -7.5 -18t-17.5 -7h-89v-167q0 -12 -8 -20.5t-20 -8.5t-20 8t-8 20v168h-311q-26 0 -26 24q0 9 7 18l333 430q10 14 26 14q27 0 27 -29v-407h88q11 0 18.5 -7.5t7.5 -17.5zM359 238v339l-258 -339h258z" />
<glyph unicode="5" horiz-adv-x="537" d="M487 207q0 -93 -59 -156.5t-162 -63.5q-129 0 -200 87q-8 10 -8 20q0 24 25 24q10 0 19 -9q38 -38 73.5 -55t90.5 -17q78 0 120.5 48t42.5 119q0 73 -41 116t-111 43q-74 0 -135 -53q-15 -13 -30 -13t-22.5 10t-5.5 23l33 310q3 26 28 26h281q11 0 18.5 -7t7.5 -18 t-7 -18.5t-19 -7.5h-257l-26 -247q53 45 138 45q94 0 150 -58.5t56 -147.5z" />
<glyph unicode="6" horiz-adv-x="541" d="M496 196q0 -88 -58 -148t-156 -60q-102 0 -161 64t-59 166q0 143 71.5 262t191.5 185q24 13 41 13q25 0 25 -21q0 -14 -29 -29q-187 -99 -247 -327q23 46 71.5 72t106.5 26q88 0 145.5 -55t57.5 -148zM288 350q-70 0 -118 -43.5t-48 -109.5q0 -71 41.5 -116t118.5 -45 q73 0 115.5 45t42.5 114q0 68 -40.5 111.5t-111.5 43.5z" />
<glyph unicode="7" horiz-adv-x="465" d="M450 641q0 -9 -7 -18q-110 -150 -160 -281.5t-50 -317.5v-3q0 -12 -7.5 -20.5t-21.5 -8.5q-29 0 -29 29v5q1 176 50.5 313.5t148.5 275.5h-330q-11 0 -18.5 7t-7.5 18t7.5 18.5t18.5 7.5h377q29 0 29 -25z" />
<glyph unicode="8" horiz-adv-x="572" d="M97 510q0 75 51.5 121.5t137.5 46.5t137.5 -46.5t51.5 -121.5q0 -46 -27 -86.5t-75 -63.5q62 -18 100.5 -64.5t38.5 -112.5q0 -83 -61 -139t-165 -56t-165 56t-61 139q0 66 38.5 112.5t100.5 64.5q-48 23 -75 63.5t-27 86.5zM286 332q-72 0 -121 -40t-49 -108 q0 -66 46.5 -107t123.5 -41t123.5 41t46.5 107q0 68 -49 108t-121 40zM152 508q0 -54 37.5 -91t96.5 -37t96.5 37t37.5 91q0 57 -37 90t-97 33t-97 -33t-37 -90z" />
<glyph unicode="9" horiz-adv-x="542" d="M45 470q0 89 60 148.5t154 59.5q106 0 163 -63t57 -167q0 -142 -71.5 -261.5t-191.5 -185.5q-24 -13 -41 -13q-25 0 -25 21q0 14 29 29q191 100 247 327q-23 -46 -72.5 -72t-105.5 -26q-91 0 -147 57t-56 146zM253 316q70 0 118 43.5t48 109.5q0 71 -41.5 116t-118.5 45 q-70 0 -114 -46t-44 -113q0 -71 38.5 -113t113.5 -42z" />
<glyph unicode=":" horiz-adv-x="202" d="M60 35q0 17 12 29t29 12t29 -12t12 -29t-12 -29t-29 -12t-29 12t-12 29zM60 319q0 17 12 29t29 12t29 -12t12 -29t-12 -29t-29 -12t-29 12t-12 29z" />
<glyph unicode=";" horiz-adv-x="202" d="M60 319q0 17 12 29t29 12t29 -12t12 -29t-12 -29t-29 -12t-29 12t-12 29zM128 20q0 -79 -26 -157q-11 -30 -32 -30q-25 0 -25 23q0 5 5 20q24 69 24 144v43q0 12 7.5 20t19.5 8t19.5 -8t7.5 -20v-43z" />
<glyph unicode="&#x3c;" d="M453 527q0 -13 -14 -22l-317 -182l317 -182q14 -9 14 -22q0 -11 -7 -18t-17 -7q-8 0 -15 4l-348 203q-16 10 -16 22t16 22l348 203q7 4 15 4q10 0 17 -7t7 -18z" />
<glyph unicode="=" horiz-adv-x="484" d="M414 405q0 -10 -7 -17t-17 -7h-296q-10 0 -17 7t-7 17t7 17t17 7h296q10 0 17 -7t7 -17zM414 242q0 -10 -7 -17t-17 -7h-296q-10 0 -17 7t-7 17t7 17t17 7h296q10 0 17 -7t7 -17z" />
<glyph unicode="&#x3e;" d="M65 527q0 11 7 18t17 7q8 0 15 -4l348 -203q16 -10 16 -22t-16 -22l-348 -203q-7 -4 -15 -4q-10 0 -17 7t-7 18q0 13 14 22l317 182l-317 182q-14 9 -14 22z" />
<glyph unicode="?" horiz-adv-x="432" d="M387 536q0 -44 -20 -79t-67 -79q-58 -54 -71.5 -78t-13.5 -80v-44q0 -12 -7.5 -20t-21.5 -8q-13 0 -21 8t-8 20v37q0 65 16.5 100.5t66.5 80.5q48 44 68.5 75t20.5 65q0 46 -31.5 69t-86.5 23q-69 0 -129 -42q-13 -9 -21 -9q-10 0 -18 7t-8 18q0 16 25 33q65 45 154 45 q78 0 125.5 -38t47.5 -104zM150 35q0 17 12 29t29 12t29 -12t12 -29t-12 -29t-29 -12t-29 12t-12 29z" />
<glyph unicode="@" horiz-adv-x="685" d="M653 57q0 -13 -14 -20q-93 -49 -220 -49q-179 0 -271.5 99t-92.5 253q0 151 80.5 244.5t215.5 93.5q102 0 154 -51.5t52 -149.5v-277q0 -11 -7.5 -18.5t-19.5 -7.5t-19 7.5t-7 18.5v40q-33 -68 -109 -68q-64 0 -105.5 47.5t-41.5 122.5t41.5 123t104.5 48q37 0 66 -19 t44 -48v36q0 150 -153 150q-113 0 -178.5 -80.5t-65.5 -210.5q0 -137 78.5 -222.5t232.5 -85.5q99 0 203 43q6 2 12 2q9 0 14.5 -6t5.5 -15zM501 343q0 58 -28 90.5t-73 32.5t-71.5 -34t-26.5 -89q0 -56 26.5 -90t71.5 -34t73 33t28 91z" />
<glyph unicode="A" horiz-adv-x="614" d="M336 652l239 -622q3 -8 3 -13q0 -10 -8 -17.5t-22 -7.5q-18 0 -26 20l-64 166h-302l-64 -166q-8 -20 -26 -20q-14 0 -22 7.5t-8 17.5q0 5 3 13l239 622q8 22 29 22t29 -22zM440 230l-133 357l-133 -357h266z" />
<glyph unicode="B" horiz-adv-x="567" d="M524 181q0 -76 -56 -128.5t-160 -52.5h-198q-13 0 -21.5 8.5t-8.5 20.5v608q0 12 8 20.5t21 8.5h181q86 0 137.5 -44.5t51.5 -121.5q0 -51 -27.5 -90.5t-75.5 -59.5q66 -13 107 -56t41 -113zM421 494q0 55 -34 88t-95 33h-154v-246h149q61 0 97.5 36.5t36.5 88.5z M466 185q0 61 -42.5 97.5t-117.5 36.5h-168v-268h174q74 0 114 36.5t40 97.5z" />
<glyph unicode="C" horiz-adv-x="576" d="M540 543q0 -12 -8 -19.5t-20 -7.5q-15 0 -24 14q-65 97 -163 97q-102 0 -160.5 -84t-58.5 -210t58.5 -210t160.5 -84q98 0 163 97q9 14 24 14q12 0 20 -7.5t8 -19.5q0 -9 -7 -19q-78 -116 -208 -116q-129 0 -203 97t-74 248t74 248t203 97q130 0 208 -116q7 -10 7 -19z " />
<glyph unicode="D" horiz-adv-x="591" d="M551 333q0 -147 -76.5 -240t-216.5 -93h-148q-13 0 -21.5 8.5t-8.5 20.5v608q0 12 8.5 20.5t20.5 8.5h148q141 0 217.5 -93t76.5 -240zM493 333q0 121 -60 201t-179 80h-116v-562h116q119 0 179 80t60 201z" />
<glyph unicode="E" horiz-adv-x="508" d="M472 26q0 -11 -7.5 -18.5t-18.5 -7.5h-336q-13 0 -21.5 8t-8.5 21v608q0 12 8.5 20.5t20.5 8.5h334q11 0 19 -7.5t8 -18.5q0 -10 -8 -18t-18 -8h-306v-247h192q11 0 18.5 -7.5t7.5 -18.5t-7.5 -18.5t-18.5 -7.5h-192v-263h308q11 0 18.5 -7.5t7.5 -18.5z" />
<glyph unicode="F" horiz-adv-x="487" d="M138 315v-294q0 -12 -8.5 -20.5t-20.5 -8.5t-20.5 8.5t-8.5 20.5v616q0 12 8.5 20.5t20.5 8.5h336q11 0 19 -7.5t8 -18.5q0 -10 -8 -18t-18 -8h-308v-247h194q11 0 18.5 -7.5t7.5 -18.5t-7.5 -18.5t-18.5 -7.5h-194z" />
<glyph unicode="G" horiz-adv-x="623" d="M560 99q0 -11 -7 -22q-77 -89 -222 -89q-69 0 -124 29t-89 77.5t-52 109.5t-18 129q0 149 76.5 247t201.5 98q128 0 200 -98q8 -12 8 -19q0 -11 -8 -19t-20 -8q-13 0 -22 12q-64 79 -157 79q-101 0 -161 -83t-60 -209q0 -130 57.5 -212.5t168.5 -82.5q110 0 172 62v168 h-161q-11 0 -18.5 7.5t-7.5 18.5t7.5 18.5t18.5 7.5h189q28 0 28 -28v-193z" />
<glyph unicode="H" horiz-adv-x="615" d="M138 21q0 -12 -8.5 -20.5t-20.5 -8.5t-20.5 8.5t-8.5 20.5v624q0 12 8.5 20.5t20.5 8.5t20.5 -8.5t8.5 -20.5v-276h339v276q0 12 8.5 20.5t20.5 8.5t20.5 -8.5t8.5 -20.5v-624q0 -12 -8.5 -20.5t-20.5 -8.5t-20.5 8.5t-8.5 20.5v296h-339v-296z" />
<glyph unicode="I" horiz-adv-x="228" d="M143 21q0 -12 -8.5 -20.5t-20.5 -8.5t-20.5 8.5t-8.5 20.5v624q0 12 8.5 20.5t20.5 8.5t20.5 -8.5t8.5 -20.5v-624z" />
<glyph unicode="J" horiz-adv-x="498" d="M425 215q0 -102 -49 -164.5t-150 -62.5q-83 0 -129.5 40t-66.5 115q-2 8 -2 14q0 26 27 26q12 0 17.5 -5.5t8.5 -17.5q17 -62 49 -91.5t95 -29.5q142 0 142 174v432q0 12 8.5 20.5t20.5 8.5t20.5 -8.5t8.5 -20.5v-430z" />
<glyph unicode="K" horiz-adv-x="563" d="M138 278l313 383q11 13 23 13t20.5 -7.5t8.5 -17.5q0 -9 -8 -20l-181 -219l204 -376q5 -10 5 -15q0 -10 -7.5 -18.5t-19.5 -8.5q-18 0 -26 16l-192 358l-140 -169v-176q0 -12 -8 -20.5t-21 -8.5t-21 8.5t-8 20.5v624q0 12 8 20.5t21 8.5t21 -8.5t8 -20.5v-367z" />
<glyph unicode="L" horiz-adv-x="479" d="M138 52h294q11 0 18.5 -7.5t7.5 -18.5t-7.5 -18.5t-18.5 -7.5h-322q-13 0 -21.5 8t-8.5 21v616q0 12 8.5 20.5t20.5 8.5t20.5 -8.5t8.5 -20.5v-593z" />
<glyph unicode="M" horiz-adv-x="746" d="M373 84l238 569q10 21 27 21q28 0 28 -28v-626q0 -11 -8.5 -19.5t-19.5 -8.5t-19.5 8.5t-8.5 19.5v489l-209 -497q-8 -20 -28 -20t-28 20l-209 497v-489q0 -11 -8.5 -19.5t-19.5 -8.5t-19.5 8.5t-8.5 19.5v626q0 28 28 28q17 0 27 -21z" />
<glyph unicode="N" horiz-adv-x="625" d="M545 20q0 -12 -8 -20t-20 -8q-16 0 -26 16l-355 547v-535q0 -12 -8 -20t-20 -8t-20 8t-8 20v626q0 28 28 28q15 0 25 -14l356 -549v535q0 28 28 28q12 0 20 -7.5t8 -20.5v-626z" />
<glyph unicode="O" horiz-adv-x="644" d="M48 333q0 148 73 246.5t201 98.5t201 -98.5t73 -246.5t-73 -246.5t-201 -98.5t-201 98.5t-73 246.5zM538 333q0 75 -22 139.5t-73 109.5t-121 45t-121 -45t-73 -109.5t-22 -139.5t22 -139.5t73 -109.5t121 -45t121 45t73 109.5t22 139.5z" />
<glyph unicode="P" horiz-adv-x="535" d="M138 21q0 -12 -8.5 -20.5t-20.5 -8.5t-20.5 8.5t-8.5 20.5v616q0 12 8.5 20.5t20.5 8.5h202q96 0 150 -52t54 -136t-54 -136t-150 -52h-173v-269zM322 614h-184v-272h184q62 0 98.5 38t36.5 98t-36.5 98t-98.5 38z" />
<glyph unicode="Q" horiz-adv-x="644" d="M542 -92q0 -26 -26 -26q-16 0 -24 16l-57 116q-54 -26 -113 -26q-128 0 -201 98.5t-73 246.5t73 246.5t201 98.5t201 -98.5t73 -246.5q0 -92 -30 -169t-86 -122l59 -122q3 -6 3 -12zM538 333q0 75 -22 139.5t-73 109.5t-121 45t-121 -45t-73 -109.5t-22 -139.5t22 -139.5 t73 -109.5t121 -45q49 0 90 22l-53 111q-4 10 -4 15q0 25 27 25q16 0 24 -17l49 -101q41 41 62 105t21 134z" />
<glyph unicode="R" horiz-adv-x="580" d="M80 21v616q0 12 8.5 20.5t20.5 8.5h220q97 0 150.5 -51t53.5 -135q0 -67 -36.5 -115t-104.5 -64l136 -267q4 -8 4 -14q0 -11 -8.5 -19.5t-19.5 -8.5q-18 0 -27 17l-145 285h-194v-273q0 -12 -8 -20.5t-21 -8.5t-21 8.5t-8 20.5zM475 479q0 61 -36.5 98t-98.5 37h-202 v-269h199q64 0 101 37t37 97z" />
<glyph unicode="S" horiz-adv-x="530" d="M488 155q0 -73 -56.5 -120t-155.5 -47q-127 0 -207 80q-14 12 -14 27q0 24 25 24q12 0 23 -11q73 -69 173 -69q75 0 114.5 32t39.5 83q0 45 -36.5 78.5t-129.5 78.5q-112 54 -157.5 101t-45.5 107q0 74 57 116.5t153 42.5q99 0 176 -55q21 -14 21 -27q0 -11 -6.5 -19 t-18.5 -8q-9 0 -22 9q-73 49 -150 49q-70 0 -111 -26.5t-41 -81.5q0 -44 34.5 -75.5t123.5 -78.5q62 -32 94.5 -51.5t63 -45t42 -52t11.5 -61.5z" />
<glyph unicode="T" horiz-adv-x="496" d="M462 614h-185v-593q0 -12 -8.5 -20.5t-20.5 -8.5t-20.5 8.5t-8.5 20.5v593h-185q-11 0 -18.5 7.5t-7.5 18.5t7.5 18.5t18.5 7.5h428q11 0 18.5 -7.5t7.5 -18.5t-7.5 -18.5t-18.5 -7.5z" />
<glyph unicode="U" horiz-adv-x="626" d="M496 239v406q0 13 8.5 21t20.5 8q13 0 21 -8t8 -21v-404q0 -120 -65.5 -186.5t-175.5 -66.5t-175.5 66.5t-65.5 186.5v404q0 13 8 21t21 8q12 0 20.5 -8t8.5 -21v-406q0 -96 48 -147.5t135 -51.5t135 51.5t48 147.5z" />
<glyph unicode="V" horiz-adv-x="544" d="M70 655l202 -556l202 556q7 19 26 19q13 0 20.5 -7.5t7.5 -18.5q0 -6 -3 -14l-226 -621q-6 -21 -27 -21t-27 21l-226 621q-3 8 -3 14q0 11 7.5 18.5t20.5 7.5q19 0 26 -19z" />
<glyph unicode="W" horiz-adv-x="842" d="M448 653l155 -541l166 541q6 21 26 21q27 0 27 -26q0 -5 -2 -13l-191 -624q-5 -19 -26 -19t-28 23l-154 539l-154 -539q-7 -23 -28 -23t-26 19l-191 624q-2 8 -2 13q0 26 27 26q20 0 26 -21l166 -541l155 541q6 21 27 21t27 -21z" />
<glyph unicode="X" horiz-adv-x="558" d="M93 661l186 -280l186 280q8 13 25 13q12 0 19 -7.5t7 -18.5q0 -7 -6 -16l-197 -298l202 -300q5 -8 5 -16q0 -11 -8.5 -18.5t-19.5 -7.5q-15 0 -24 13l-189 282l-189 -282q-9 -13 -24 -13q-11 0 -19.5 7.5t-8.5 18.5q0 8 5 16l202 300l-197 298q-6 9 -6 16q0 11 7 18.5 t19 7.5q17 0 25 -13z" />
<glyph unicode="Y" horiz-adv-x="494" d="M66 658l181 -320l181 320q9 16 25 16q12 0 20 -7.5t8 -19.5q0 -7 -5 -16l-200 -354v-256q0 -12 -8 -20.5t-21 -8.5t-21 8.5t-8 20.5v256l-200 354q-5 9 -5 16q0 12 8 19.5t20 7.5q16 0 25 -16z" />
<glyph unicode="Z" horiz-adv-x="536" d="M489 26q0 -11 -7.5 -18.5t-18.5 -7.5h-378q-28 0 -28 24q0 8 6 17l347 575h-322q-12 0 -19.5 7t-7.5 18t7.5 18t19.5 7h370q26 0 26 -24q0 -8 -7 -18l-344 -574h330q11 0 18.5 -6.5t7.5 -17.5z" />
<glyph unicode="[" horiz-adv-x="304" d="M148 636v-735h90q11 0 18.5 -7t7.5 -18q0 -10 -7.5 -17.5t-18.5 -7.5h-120q-12 0 -20 8.5t-8 20.5v777q0 13 8 21t20 8h120q11 0 18.5 -7.5t7.5 -17.5q0 -11 -7.5 -18t-18.5 -7h-90z" />
<glyph unicode="\" horiz-adv-x="429" d="M75 688q0 22 25 22q21 0 27 -23l225 -781q2 -6 2 -12q0 -10 -6.5 -17t-19.5 -7q-19 0 -25 20l-225 782q-3 12 -3 16z" />
<glyph unicode="]" horiz-adv-x="304" d="M156 -99v735h-90q-11 0 -18.5 7t-7.5 18q0 10 7.5 17.5t18.5 7.5h120q12 0 20 -8t8 -21v-777q0 -12 -8 -20.5t-20 -8.5h-120q-11 0 -18.5 7.5t-7.5 17.5q0 11 7.5 18t18.5 7h90z" />
<glyph unicode="^" horiz-adv-x="460" d="M256 654l140 -271q4 -8 4 -13q0 -11 -7.5 -18t-19.5 -7q-16 0 -25 18l-118 233l-118 -233q-9 -18 -25 -18q-12 0 -19.5 7t-7.5 18q0 5 4 13l140 271q9 20 26 20t26 -20z" />
<glyph unicode="_" horiz-adv-x="399" d="M400 -41h-401v29h401v-29z" />
<glyph unicode="`" horiz-adv-x="303" d="M198 525q0 -10 -7.5 -17t-17.5 -7q-14 0 -23 13l-65 95q-5 8 -5 16q0 24 26 24q14 0 22 -12l65 -96q5 -8 5 -16z" />
<glyph unicode="a" horiz-adv-x="481" d="M413 264v-243q0 -12 -8 -20.5t-21 -8.5t-21 8.5t-8 20.5v22q-43 -55 -136 -55q-73 0 -117 37.5t-44 93.5q0 58 45.5 94t121.5 36q87 0 130 -53v67q0 69 -32.5 101t-99.5 32q-57 0 -111 -26q-10 -4 -17 -4q-11 0 -18 6.5t-7 16.5q0 15 19 26q56 31 139 31q89 0 137 -47 t48 -135zM232 204q-55 0 -86.5 -23t-31.5 -62q0 -40 31 -63t84 -23q52 0 89 24.5t37 61.5q0 39 -36.5 62t-86.5 23z" />
<glyph unicode="b" horiz-adv-x="520" d="M75 21v624q0 12 8.5 20.5t20.5 8.5t20.5 -8.5t8.5 -20.5v-290q51 91 154 91q83 0 135.5 -65t52.5 -164t-52.5 -164t-135.5 -65q-103 0 -154 91v-58q0 -12 -8.5 -20.5t-20.5 -8.5t-20.5 8.5t-8.5 20.5zM280 396q-63 0 -105 -52t-42 -127t42 -127t105 -52q65 0 101 51 t36 128t-36 128t-101 51z" />
<glyph unicode="c" horiz-adv-x="446" d="M408 344q0 -10 -8 -17.5t-19 -7.5q-13 0 -22 13q-44 64 -112 64q-65 0 -104.5 -52.5t-39.5 -126.5t39.5 -126.5t104.5 -52.5q68 0 112 64q9 13 22 13q11 0 19 -7.5t8 -17.5t-6 -19q-24 -37 -64.5 -60t-91.5 -23q-90 0 -145.5 66.5t-55.5 162.5t55.5 162.5t145.5 66.5 q51 0 91.5 -23t64.5 -60q6 -9 6 -19z" />
<glyph unicode="d" horiz-adv-x="520" d="M445 645v-624q0 -12 -8.5 -20.5t-20.5 -8.5t-20.5 8.5t-8.5 20.5v58q-51 -91 -154 -91q-83 0 -135.5 65t-52.5 164t52.5 164t135.5 65q103 0 154 -91v290q0 12 8.5 20.5t20.5 8.5t20.5 -8.5t8.5 -20.5zM240 396q-65 0 -101 -51t-36 -128t36 -128t101 -51q63 0 105 52 t42 127t-42 127t-105 52z" />
<glyph unicode="e" horiz-adv-x="467" d="M244 446q83 0 134 -64t51 -163q0 -24 -25 -24h-300q4 -70 39.5 -114t107.5 -44q68 0 117 64q9 13 22 13t19.5 -7.5t6.5 -17.5q0 -7 -8 -19q-60 -82 -157 -82q-101 0 -153.5 66t-52.5 163t55.5 163t143.5 66zM376 244q-6 64 -40 108.5t-91 44.5q-60 0 -97.5 -45 t-43.5 -108h272z" />
<glyph unicode="f" horiz-adv-x="305" d="M104 386h-64q-10 0 -17 7t-7 17t7 17t17 7h64v72q0 81 34.5 120.5t111.5 39.5h25q11 0 18 -7t7 -18t-7 -18t-18 -7h-21q-51 0 -71.5 -24.5t-20.5 -83.5v-74h109q10 0 17 -7t7 -17t-7 -17t-17 -7h-109v-365q0 -12 -8.5 -20.5t-20.5 -8.5q-13 0 -21 8.5t-8 20.5v365z" />
<glyph unicode="g" horiz-adv-x="520" d="M445 413v-393q0 -215 -206 -215q-87 0 -156 40q-17 10 -17 26q0 10 6.5 16t16.5 6q9 0 21 -7q57 -33 128 -33q81 0 115 41t34 121v74q-50 -89 -154 -89q-83 0 -135.5 63.5t-52.5 159.5t52.5 159.5t135.5 63.5q104 0 154 -89v56q0 12 8.5 20.5t20.5 8.5t20.5 -8.5 t8.5 -20.5zM240 397q-65 0 -101 -50.5t-36 -123.5t36 -123.5t101 -50.5q64 0 105.5 49.5t41.5 124.5t-41.5 124.5t-105.5 49.5z" />
<glyph unicode="h" d="M75 21v624q0 12 8 20.5t21 8.5t21 -8.5t8 -20.5v-289q43 90 148 90q79 0 123 -53t44 -143v-229q0 -12 -8.5 -20.5t-20.5 -8.5t-20.5 8.5t-8.5 20.5v228q0 144 -122 144q-61 0 -98 -45t-37 -115v-212q0 -12 -8.5 -20.5t-20.5 -8.5t-20.5 8.5t-8.5 20.5z" />
<glyph unicode="i" horiz-adv-x="208" d="M133 21q0 -12 -8.5 -20.5t-20.5 -8.5t-20.5 8.5t-8.5 20.5v392q0 12 8.5 20.5t20.5 8.5t20.5 -8.5t8.5 -20.5v-392zM65 566q0 16 11.5 27.5t27.5 11.5t27.5 -11.5t11.5 -27.5t-11.5 -27.5t-27.5 -11.5t-27.5 11.5t-11.5 27.5z" />
<glyph unicode="j" horiz-adv-x="208" d="M75 413q0 12 8.5 20.5t20.5 8.5t20.5 -8.5t8.5 -20.5v-471q0 -69 -30 -103t-97 -34h-16q-11 0 -18 7t-7 18q0 25 25 25h11q45 0 59.5 19.5t14.5 65.5v473zM65 566q0 16 11.5 27.5t27.5 11.5t27.5 -11.5t11.5 -27.5t-11.5 -27.5t-27.5 -11.5t-27.5 11.5t-11.5 27.5z" />
<glyph unicode="k" horiz-adv-x="441" d="M133 233l218 201q10 8 20 8q12 0 19.5 -7.5t7.5 -18.5q0 -10 -10 -20l-147 -134l162 -227q6 -8 6 -17q0 -11 -8 -18.5t-21 -7.5q-12 0 -22 13l-157 220l-68 -65v-139q0 -12 -8.5 -20.5t-20.5 -8.5t-20.5 8.5t-8.5 20.5v624q0 12 8 20.5t21 8.5q12 0 20.5 -8t8.5 -21v-412 z" />
<glyph unicode="l" horiz-adv-x="208" d="M133 21q0 -12 -8.5 -20.5t-20.5 -8.5t-20.5 8.5t-8.5 20.5v624q0 12 8.5 20.5t20.5 8.5t20.5 -8.5t8.5 -20.5v-624z" />
<glyph unicode="m" horiz-adv-x="833" d="M75 21v392q0 12 8 20.5t21 8.5t21 -8.5t8 -20.5v-57q43 90 148 90q110 0 150 -101q51 101 165 101q79 0 123 -53t44 -143v-229q0 -12 -8.5 -20.5t-20.5 -8.5t-20.5 8.5t-8.5 20.5v228q0 144 -122 144q-61 0 -98 -45t-37 -115v-212q0 -12 -8.5 -20.5t-20.5 -8.5t-20.5 8.5 t-8.5 20.5v228q0 144 -122 144q-61 0 -98 -45t-37 -115v-212q0 -12 -8.5 -20.5t-20.5 -8.5t-20.5 8.5t-8.5 20.5z" />
<glyph unicode="n" d="M75 21v392q0 12 8 20.5t21 8.5t21 -8.5t8 -20.5v-57q43 90 148 90q79 0 123 -53t44 -143v-229q0 -12 -8.5 -20.5t-20.5 -8.5t-20.5 8.5t-8.5 20.5v228q0 144 -122 144q-61 0 -98 -45t-37 -115v-212q0 -12 -8.5 -20.5t-20.5 -8.5t-20.5 8.5t-8.5 20.5z" />
<glyph unicode="o" horiz-adv-x="492" d="M246 -12q-91 0 -146 67.5t-55 161.5t55 161.5t146 67.5t146 -67.5t55 -161.5t-55 -161.5t-146 -67.5zM246 38q64 0 103.5 52t39.5 127t-39.5 127t-103.5 52t-103.5 -52t-39.5 -127t39.5 -127t103.5 -52z" />
<glyph unicode="p" horiz-adv-x="520" d="M75 -166v579q0 12 8.5 20.5t20.5 8.5t20.5 -8.5t8.5 -20.5v-58q51 91 154 91q83 0 135.5 -65t52.5 -164t-52.5 -164t-135.5 -65q-103 0 -154 91v-245q0 -12 -8.5 -20.5t-20.5 -8.5t-20.5 8.5t-8.5 20.5zM280 38q65 0 101 51t36 128t-36 128t-101 51q-63 0 -105 -52 t-42 -127t42 -127t105 -52z" />
<glyph unicode="q" horiz-adv-x="520" d="M445 413v-579q0 -12 -8.5 -20.5t-20.5 -8.5t-20.5 8.5t-8.5 20.5v245q-51 -91 -154 -91q-83 0 -135.5 65t-52.5 164t52.5 164t135.5 65q103 0 154 -91v58q0 12 8.5 20.5t20.5 8.5t20.5 -8.5t8.5 -20.5zM240 38q63 0 105 52t42 127t-42 127t-105 52q-65 0 -101 -51 t-36 -128t36 -128t101 -51z" />
<glyph unicode="r" horiz-adv-x="293" d="M286 416q0 -28 -29 -28h-1q-58 0 -90.5 -53.5t-32.5 -139.5v-174q0 -12 -8.5 -20.5t-20.5 -8.5t-20.5 8.5t-8.5 20.5v392q0 13 8 21t21 8t21 -8t8 -21v-73q10 44 44.5 73t78.5 29h2q28 0 28 -26z" />
<glyph unicode="s" horiz-adv-x="413" d="M371 106q0 -51 -40.5 -84.5t-116.5 -33.5q-92 0 -155 60q-9 9 -9 20q0 10 6.5 16t16.5 6q12 0 20 -7q58 -49 124 -49q46 0 71.5 19t25.5 50q0 32 -25 50t-86 41q-78 30 -113 61.5t-35 76.5q0 54 41.5 84t113.5 30q74 0 128 -37q21 -13 21 -28q0 -23 -25 -23q-6 0 -20 7 q-56 33 -105 33q-96 0 -96 -64q0 -31 23 -48.5t84 -42.5q83 -33 117 -61.5t34 -75.5z" />
<glyph unicode="t" horiz-adv-x="298" d="M119 572q0 12 8.5 20.5t20.5 8.5t20.5 -8.5t8.5 -20.5v-138h94q10 0 17 -7t7 -17t-7 -17t-17 -7h-94v-365q0 -12 -8.5 -20.5t-20.5 -8.5q-13 0 -21 8.5t-8 20.5v365h-80q-10 0 -17 7t-7 17t7 17t17 7h80v138z" />
<glyph unicode="u" d="M443 413v-392q0 -12 -8 -20.5t-21 -8.5t-21 8.5t-8 20.5v57q-43 -90 -148 -90q-79 0 -123 53t-44 143v229q0 12 8.5 20.5t20.5 8.5t20.5 -8.5t8.5 -20.5v-228q0 -144 122 -144q61 0 98 45t37 115v212q0 12 8.5 20.5t20.5 8.5t20.5 -8.5t8.5 -20.5z" />
<glyph unicode="v" horiz-adv-x="404" d="M68 424l134 -337l134 337q8 18 26 18q27 0 27 -26q0 -6 -3 -14l-158 -391q-7 -19 -26 -19t-26 19l-158 391q-3 8 -3 14q0 26 27 26q18 0 26 -18z" />
<glyph unicode="w" horiz-adv-x="610" d="M329 423l112 -328l99 327q6 20 25 20q27 0 27 -26q0 -3 -2 -11l-121 -395q-7 -18 -26 -18t-26 19l-112 323l-112 -323q-7 -19 -26 -19t-26 18l-121 395q-2 8 -2 11q0 26 27 26q19 0 25 -20l99 -327l112 328q6 19 24 19t24 -19z" />
<glyph unicode="x" horiz-adv-x="448" d="M224 261l124 169q9 12 21 12t19.5 -7t7.5 -18q0 -8 -6 -17l-133 -182l135 -184q6 -9 6 -16q0 -11 -7.5 -18.5t-19.5 -7.5t-21 11l-126 172l-126 -172q-9 -11 -21 -11t-19.5 7.5t-7.5 18.5q0 7 6 16l135 184l-133 182q-6 9 -6 17q0 11 7.5 18t19.5 7t21 -12z" />
<glyph unicode="y" horiz-adv-x="404" d="M389 416q0 -6 -3 -13q-84 -241 -129 -357q-61 -158 -180 -237q-8 -4 -15 -4q-11 0 -18.5 7t-7.5 18q0 15 18 28q76 55 121 140l-156 402q-4 10 -4 16q0 26 28 26q19 0 26 -21l138 -358l129 360q7 19 26 19q27 0 27 -26z" />
<glyph unicode="z" horiz-adv-x="416" d="M379 24q0 -10 -7 -17t-18 -7h-280q-10 0 -17 7t-7 17q0 9 6 18l245 344h-225q-10 0 -17 7t-7 17t7 17t17 7h274q26 0 26 -23q0 -10 -7 -20l-245 -343h230q11 0 18 -6.5t7 -17.5z" />
<glyph unicode="{" horiz-adv-x="313" d="M186 175v-245q0 -19 7 -27.5t25 -8.5h30q10 0 17.5 -7t7.5 -18t-7.5 -18t-18.5 -7h-36q-83 0 -83 88v249q0 31 -13.5 45t-45.5 14h-3q-11 0 -18.5 7t-7.5 18t7.5 18t18.5 7h3q32 0 45.5 14t13.5 45v249q0 88 83 88h36q11 0 18.5 -7t7.5 -18t-7.5 -18t-17.5 -7h-30 q-18 0 -25 -8.5t-7 -27.5v-245q0 -78 -70 -90q70 -12 70 -90z" />
<glyph unicode="|" horiz-adv-x="248" d="M148 -174q0 -10 -6.5 -17t-17.5 -7t-17.5 7t-6.5 17v885q0 10 6.5 17t17.5 7t17.5 -7t6.5 -17v-885z" />
<glyph unicode="}" horiz-adv-x="313" d="M127 -70v245q0 78 70 90q-70 12 -70 90v245q0 19 -7 27.5t-25 8.5h-30q-10 0 -17.5 7t-7.5 18t7.5 18t18.5 7h36q83 0 83 -88v-249q0 -31 13.5 -45t45.5 -14h3q11 0 18.5 -7t7.5 -18t-7.5 -18t-18.5 -7h-3q-32 0 -45.5 -14t-13.5 -45v-249q0 -88 -83 -88h-36 q-11 0 -18.5 7t-7.5 18t7.5 18t17.5 7h30q18 0 25 8.5t7 27.5z" />
<glyph unicode="~" horiz-adv-x="484" d="M330 203q-31 0 -83 29q-10 5 -22.5 12.5t-19 11t-14 7.5t-13 5.5t-11.5 1.5q-18 0 -27 -8t-28 -36q-8 -11 -13 -16q-7 -7 -16 -7q-11 0 -19.5 7t-8.5 16q0 8 6 17q3 4 27 37q30 41 76 41q29 0 83 -29q14 -7 30.5 -16.5t22.5 -13t13 -6t14 -2.5q17 0 27 8.5t28 35.5 q8 10 13 16q7 7 16 7q11 0 19.5 -6.5t8.5 -16.5q0 -8 -6 -17q-3 -4 -27 -37q-30 -41 -76 -41z" />
<glyph unicode="&#xa1;" horiz-adv-x="242" d="M136 272l14 -192v-246q0 -12 -8 -20.5t-21 -8.5t-21 8.5t-8 20.5v246l14 192q2 18 15 18t15 -18zM80 405q0 17 12 29t29 12t29 -12t12 -29t-12 -29t-29 -12t-29 12t-12 29z" />
<glyph unicode="&#xa2;" horiz-adv-x="498" d="M433 460q0 -10 -8 -17.5t-19 -7.5q-13 0 -22 13q-44 64 -112 64q-65 0 -104.5 -52.5t-39.5 -126.5t39.5 -126.5t104.5 -52.5q68 0 112 64q9 13 22 13q11 0 19 -7.5t8 -17.5t-6 -19q-45 -69 -128 -81v-87q0 -12 -8 -20.5t-20 -8.5t-20 8.5t-8 20.5v86q-79 11 -126 75 t-47 153q0 88 47 152.5t126 74.5v87q0 12 8 20.5t20 8.5t20 -8.5t8 -20.5v-87q83 -12 128 -81q6 -9 6 -19z" />
<glyph unicode="&#xa3;" horiz-adv-x="594" d="M395 678q63 0 113 -24q26 -14 26 -32q0 -24 -24 -24q-4 0 -16 5q-49 23 -96 23q-65 0 -95 -32t-30 -102v-119h199q11 0 19 -7t8 -19q0 -11 -7.5 -18t-18.5 -7h-200v-271h221q11 0 19 -7.5t8 -17.5q0 -11 -7.5 -18.5t-18.5 -7.5h-408q-11 0 -19 7t-8 18q0 26 27 26h128 v270h-112q-11 0 -19.5 7.5t-8.5 18.5t8 18t19 7h113v120q0 91 46.5 138.5t133.5 47.5z" />
<glyph unicode="&#xa4;" horiz-adv-x="610" d="M305 111q-71 0 -117 42l-70 -70q-8 -8 -18 -8t-17.5 7t-7.5 18q0 10 8 18l71 71q-44 59 -44 144q0 80 44 143l-71 72q-8 8 -8 18q0 11 7.5 18t17.5 7t18 -8l69 -70q52 42 118 42t118 -42l69 70q8 8 18 8t17.5 -7t7.5 -18q0 -10 -8 -18l-71 -72q44 -63 44 -143 q0 -85 -44 -144l71 -71q8 -8 8 -18q0 -11 -7.5 -18t-17.5 -7t-18 8l-70 70q-46 -42 -117 -42zM305 160q63 0 102 50t39 123t-39 123t-102 50t-102 -50t-39 -123t39 -123t102 -50z" />
<glyph unicode="&#xa5;" horiz-adv-x="530" d="M469 201q0 -10 -7 -17t-17 -7h-151v-156q0 -12 -8 -20.5t-21 -8.5t-21 8.5t-8 20.5v156h-151q-10 0 -17 7t-7 17t7 17t17 7h151v52l-27 53h-124q-10 0 -17 7t-7 17t7 17t17 7h99l-129 253q-5 9 -5 16q0 12 8 19.5t20 7.5q16 0 25 -16l162 -320l162 320q9 16 25 16 q12 0 20 -7.5t8 -19.5q0 -7 -5 -16l-130 -253h100q10 0 17 -7t7 -17t-7 -17t-17 -7h-124l-27 -53v-52h151q10 0 17 -7t7 -17z" />
<glyph unicode="&#xa6;" horiz-adv-x="248" d="M148 352q0 -10 -6.5 -17t-17.5 -7t-17.5 7t-6.5 17v359q0 10 6.5 17t17.5 7t17.5 -7t6.5 -17v-359zM148 -174q0 -10 -6.5 -17t-17.5 -7t-17.5 7t-6.5 17v359q0 10 6.5 17t17.5 7t17.5 -7t6.5 -17v-359z" />
<glyph unicode="&#xa7;" horiz-adv-x="528" d="M463 254q0 -36 -22.5 -71t-51.5 -55q62 -44 62 -108q0 -54 -51 -92t-133 -38q-107 0 -179 55q-20 15 -20 30q0 22 23 22q10 0 27 -11q65 -48 150 -48q54 0 89.5 22.5t35.5 59.5q0 10 -1.5 18.5t-6.5 16l-9 13.5t-14 13.5t-16.5 12t-20.5 12.5t-22.5 12.5t-27 14 t-29.5 15.5q-102 53 -140 86.5t-38 87.5q0 77 92 124q-59 49 -59 108t50 91.5t134 32.5q85 0 146 -40q21 -13 21 -29q0 -24 -23 -24q-10 0 -26 11q-53 35 -120 35q-55 0 -89.5 -18.5t-34.5 -56.5q0 -39 29.5 -64.5t107.5 -68.5q42 -23 59.5 -33.5t44 -28.5t36.5 -31.5 t18.5 -33t8.5 -42.5zM405 253q0 35 -26 57t-104 65q-70 40 -74 42q-31 -14 -53 -38t-22 -56q0 -24 17 -44.5t37 -33t63 -34.5q54 -28 103 -55q59 42 59 97z" />
<glyph unicode="&#xa8;" horiz-adv-x="385" d="M235 552q0 16 11.5 28t28.5 12t28.5 -12t11.5 -28t-11.5 -28t-28.5 -12t-28.5 12t-11.5 28zM70 552q0 16 12 28t28 12t28 -12t12 -28t-12 -28t-28 -12t-28 12t-12 28z" />
<glyph unicode="&#xa9;" horiz-adv-x="800" d="M400 678q149 0 247 -99t98 -246t-98 -246t-247 -99t-247 99t-98 246t98 246t247 99zM702 333q0 129 -85 218t-217 89t-217 -89t-85 -218t85 -218t217 -89t217 89t85 218zM414 503q81 0 130 -63q6 -8 6 -17q0 -11 -7 -17t-17 -6q-13 0 -22 11q-36 45 -90 45t-85.5 -35 t-31.5 -88t31.5 -88t85.5 -35t90 45q9 11 22 11q10 0 17 -6t7 -17q0 -9 -6 -17q-49 -63 -130 -63q-77 0 -123 48.5t-46 121.5t46 121.5t123 48.5z" />
<glyph unicode="&#xaa;" horiz-adv-x="364" d="M306 397q0 -23 -22 -23t-22 23v9q-30 -35 -87 -35q-48 0 -79 24t-31 65t30 64t80 23q57 0 87 -30v42q0 42 -20 61t-62 19q-39 0 -76 -16q-4 -2 -9 -2q-19 0 -19 18q0 11 17 20q35 19 89 19q124 0 124 -119v-162zM262 460q0 25 -22 39.5t-57 14.5q-32 0 -53 -13.5 t-21 -40.5q0 -26 20 -40.5t51 -14.5q32 0 57 15.5t25 39.5z" />
<glyph unicode="&#xab;" horiz-adv-x="550" d="M260 368q0 -12 -10 -21l-137 -134l137 -134q10 -9 10 -21q0 -10 -7.5 -17t-18.5 -7q-9 0 -18 7l-157 153q-9 9 -9 19t9 19l157 153q9 7 18 7q11 0 18.5 -7t7.5 -17zM480 368q0 -12 -10 -21l-137 -134l137 -134q10 -9 10 -21q0 -10 -7.5 -17t-18.5 -7q-9 0 -18 7l-157 153 q-9 9 -9 19t9 19l157 153q9 7 18 7q11 0 18.5 -7t7.5 -17z" />
<glyph unicode="&#xac;" horiz-adv-x="592" d="M92 282q-11 0 -19 7t-8 18q0 10 8 17.5t19 7.5h388q11 0 19 -7t8 -18v-197q0 -12 -7.5 -20t-19.5 -8t-19.5 8t-7.5 19v173h-361z" />
<glyph unicode="&#xae;" horiz-adv-x="416" d="M376 512q0 -71 -47.5 -118.5t-120.5 -47.5t-120.5 47.5t-47.5 118.5t47.5 118.5t120.5 47.5t120.5 -47.5t47.5 -118.5zM208 371q63 0 101.5 41t38.5 100t-38.5 100t-101.5 41t-101.5 -41t-38.5 -100t38.5 -100t101.5 -41zM155 439v147q0 15 15 15h46q29 0 44.5 -14.5 t15.5 -38.5q0 -33 -31 -47l30 -52q4 -7 4 -12t-4.5 -8.5t-10.5 -3.5q-9 0 -14 9l-34 62h-32v-57q0 -14 -15 -14q-14 0 -14 14zM247 548q0 27 -29 27h-34v-54h33q30 0 30 27z" />
<glyph unicode="&#xaf;" horiz-adv-x="395" d="M320 554q0 -10 -6.5 -16.5t-14.5 -6.5h-202q-8 0 -15 6.5t-7 15.5q0 10 6.5 16t15.5 6h201q9 0 15.5 -6t6.5 -15z" />
<glyph unicode="&#xb0;" horiz-adv-x="314" d="M259 575q0 -44 -28 -73.5t-74 -29.5t-74 29.5t-28 73.5t28 73.5t74 29.5t74 -29.5t28 -73.5zM98 575q0 -28 16 -46.5t43 -18.5t43 18.5t16 46.5t-16 46.5t-43 18.5t-43 -18.5t-16 -46.5z" />
<glyph unicode="&#xb1;" horiz-adv-x="602" d="M107 49h388q11 0 19 -6.5t8 -17.5q0 -10 -8 -17.5t-19 -7.5h-388q-11 0 -19 7t-8 18q0 10 8 17t19 7zM522 323q0 -10 -8 -17.5t-19 -7.5h-167v-172q0 -12 -7.5 -20t-19.5 -8t-19.5 8t-7.5 19v173h-167q-11 0 -19 7t-8 18q0 10 8 17.5t19 7.5h167v172q0 11 8 19.5t20 8.5 t19 -7.5t7 -19.5v-173h167q11 0 19 -7t8 -18z" />
<glyph unicode="&#xb2;" horiz-adv-x="222" d="M70 269q0 17 12 29t29 12t29 -12t12 -29t-12 -29t-29 -12t-29 12t-12 29z" />
<glyph unicode="&#xb3;" horiz-adv-x="222" d="M70 269q0 17 12 29t29 12t29 -12t12 -29t-12 -29t-29 -12t-29 12t-12 29z" />
<glyph unicode="&#xb4;" horiz-adv-x="303" d="M105 525q0 8 5 16l65 96q8 12 22 12q26 0 26 -24q0 -8 -5 -16l-65 -95q-9 -13 -23 -13q-10 0 -17.5 7t-7.5 17z" />
<glyph unicode="&#xb5;" d="M443 413v-392q0 -12 -8 -20.5t-21 -8.5t-21 8.5t-8 20.5v57q-43 -90 -148 -90q-66 0 -109 43v-197q0 -12 -8.5 -20.5t-20.5 -8.5t-20.5 8.5t-8.5 20.5v579q0 12 8.5 20.5t20.5 8.5t20.5 -8.5t8.5 -20.5v-228q0 -144 122 -144q61 0 98 45t37 115v212q0 12 8.5 20.5 t20.5 8.5t20.5 -8.5t8.5 -20.5z" />
<glyph unicode="&#xb6;" horiz-adv-x="539" d="M248 -168v470h-11q-85 0 -141 48t-56 134t56 134t141 48h190q11 0 19 -8t8 -19v-620q0 -11 -8 -19t-19 -8t-19 8t-8 19v600h-98v-787q0 -11 -8 -19t-19 -8t-19 8t-8 19zM248 349v270h-12q-62 0 -101 -36.5t-39 -98.5t38 -98.5t103 -36.5h11z" />
<glyph unicode="&#xb7;" horiz-adv-x="222" d="M70 269q0 17 12 29t29 12t29 -12t12 -29t-12 -29t-29 -12t-29 12t-12 29z" />
<glyph unicode="&#xb8;" horiz-adv-x="316" d="M171 -51q33 0 54 -18.5t21 -50.5q0 -34 -25.5 -54.5t-72.5 -20.5q-32 0 -62 11q-16 6 -16 18q0 22 17 22q4 0 16 -4q24 -8 46 -8q51 0 51 36q0 32 -48 32q-10 0 -21 -1.5t-16 -1.5q-20 0 -20 17q0 6 10 31l19 47h39l-22 -59q9 4 30 4z" />
<glyph unicode="&#xb9;" horiz-adv-x="222" d="M70 269q0 17 12 29t29 12t29 -12t12 -29t-12 -29t-29 -12t-29 12t-12 29z" />
<glyph unicode="&#xba;" horiz-adv-x="380" d="M325 525q0 -64 -36.5 -109t-98.5 -45t-98.5 45t-36.5 109t36.5 108.5t98.5 44.5t98.5 -44.5t36.5 -108.5zM99 525q0 -49 24 -82t67 -33t67 33t24 82t-24 81.5t-67 32.5t-67 -32.5t-24 -81.5z" />
<glyph unicode="&#xbb;" horiz-adv-x="550" d="M290 368q0 10 7.5 17t18.5 7q9 0 18 -7l157 -153q9 -9 9 -19t-9 -19l-157 -153q-9 -7 -18 -7q-11 0 -18.5 7t-7.5 17q0 12 10 21l137 134l-137 134q-10 9 -10 21zM70 368q0 10 7.5 17t18.5 7q9 0 18 -7l157 -153q9 -9 9 -19t-9 -19l-157 -153q-9 -7 -18 -7q-11 0 -18.5 7 t-7.5 17q0 12 10 21l137 134l-137 134q-10 9 -10 21z" />
<glyph unicode="&#xbc;" horiz-adv-x="222" d="M70 269q0 17 12 29t29 12t29 -12t12 -29t-12 -29t-29 -12t-29 12t-12 29z" />
<glyph unicode="&#xbd;" horiz-adv-x="222" d="M70 269q0 17 12 29t29 12t29 -12t12 -29t-12 -29t-29 -12t-29 12t-12 29z" />
<glyph unicode="&#xbe;" horiz-adv-x="222" d="M70 269q0 17 12 29t29 12t29 -12t12 -29t-12 -29t-29 -12t-29 12t-12 29z" />
<glyph unicode="&#xbf;" horiz-adv-x="432" d="M45 -58q0 15 1.5 27t8 25t9 19.5t15.5 20t15.5 16.5t20.5 19.5t20 18.5q34 32 47 46.5t24 39.5t11 57v39q0 12 7.5 20t21.5 8q13 0 21 -8t8 -20v-32q0 -62 -19 -95t-73 -82q-45 -40 -62.5 -64.5t-17.5 -55.5q0 -84 118 -84q69 0 129 42q13 9 21 9q10 0 18 -7t8 -18 q0 -16 -25 -33q-65 -45 -154 -45q-81 0 -127 36t-46 101zM285 405q0 -17 -12 -29t-29 -12t-29 12t-12 29t12 29t29 12t29 -12t12 -29z" />
<glyph unicode="&#xc0;" horiz-adv-x="614" d="M336 652l239 -622q3 -8 3 -13q0 -10 -8 -17.5t-22 -7.5q-18 0 -26 20l-64 166h-302l-64 -166q-8 -20 -26 -20q-14 0 -22 7.5t-8 17.5q0 5 3 13l239 622q8 22 29 22t29 -22zM440 230l-133 357l-133 -357h266zM262 840l58 -69q7 -8 7 -17q0 -10 -7 -17.5t-18 -7.5 q-13 0 -22 11l-58 68q-7 9 -7 18q0 10 6.5 17t19.5 8q12 0 21 -11z" />
<glyph unicode="&#xc1;" horiz-adv-x="614" d="M336 652l239 -622q3 -8 3 -13q0 -10 -8 -17.5t-22 -7.5q-18 0 -26 20l-64 166h-302l-64 -166q-8 -20 -26 -20q-14 0 -22 7.5t-8 17.5q0 5 3 13l239 622q8 22 29 22t29 -22zM440 230l-133 357l-133 -357h266zM284 771l58 69q9 11 21 11q13 -1 19.5 -8t6.5 -17q0 -9 -7 -18 l-58 -68q-9 -11 -22 -11q-11 0 -18 7.5t-7 17.5q0 9 7 17z" />
<glyph unicode="&#xc2;" horiz-adv-x="614" d="M336 652l239 -622q3 -8 3 -13q0 -10 -8 -17.5t-22 -7.5q-18 0 -26 20l-64 166h-302l-64 -166q-8 -20 -26 -20q-14 0 -22 7.5t-8 17.5q0 5 3 13l239 622q8 22 29 22t29 -22zM440 230l-133 357l-133 -357h266zM327 837l73 -71q10 -10 10 -20q0 -9 -7 -15.5t-16 -6.5 q-11 0 -22 11l-58 57l-58 -57q-11 -11 -22 -11q-9 0 -16 6.5t-7 15.5q0 10 10 20l73 71q13 11 20 11t20 -11z" />
<glyph unicode="&#xc3;" horiz-adv-x="614" d="M336 652l239 -622q3 -8 3 -13q0 -10 -8 -17.5t-22 -7.5q-18 0 -26 20l-64 166h-302l-64 -166q-8 -20 -26 -20q-14 0 -22 7.5t-8 17.5q0 5 3 13l239 622q8 22 29 22t29 -22zM440 230l-133 357l-133 -357h266zM443 795q0 -7 -5 -15q-12 -20 -18.5 -29t-18 -16.5t-26.5 -7.5 q-16 0 -67 19q-53 20 -63 20q-9 0 -14 -5t-14 -21q-7 -13 -22 -13q-9 0 -15.5 5.5t-6.5 13.5q0 6 4 14q6 10 8 13q16 23 27.5 32.5t31.5 9.5q18 0 71 -22q46 -19 56 -19q4 0 7 1t5 2.5t4.5 5t4 6t5 8.5t5.5 9q7 10 18 10q10 0 16.5 -6.5t6.5 -14.5z" />
<glyph unicode="&#xc4;" horiz-adv-x="614" d="M336 652l239 -622q3 -8 3 -13q0 -10 -8 -17.5t-22 -7.5q-18 0 -26 20l-64 166h-302l-64 -166q-8 -20 -26 -20q-14 0 -22 7.5t-8 17.5q0 5 3 13l239 622q8 22 29 22t29 -22zM440 230l-133 357l-133 -357h266zM353 776q0 16 11.5 28t28.5 12t28.5 -12t11.5 -28t-11.5 -28 t-28.5 -12t-28.5 12t-11.5 28zM181 776q0 16 11.5 28t28.5 12t28.5 -12t11.5 -28t-11.5 -28t-28.5 -12t-28.5 12t-11.5 28z" />
<glyph unicode="&#xc5;" horiz-adv-x="614" d="M378 719q0 -48 -43 -64l1 -3l239 -622q3 -8 3 -13q0 -10 -8 -17.5t-22 -7.5q-18 0 -26 20l-64 166h-302l-64 -166q-8 -20 -26 -20q-14 0 -22 7.5t-8 17.5q0 5 3 13l239 622l1 3q-43 17 -43 64q0 30 20 49t51 19t51 -19t20 -49zM440 230l-133 357l-133 -357h266zM272 719 q0 -16 9.5 -26.5t25.5 -10.5t25.5 10.5t9.5 26.5t-9.5 26.5t-25.5 10.5t-25.5 -10.5t-9.5 -26.5z" />
<glyph unicode="&#xc6;" horiz-adv-x="809" d="M632 315h-169l103 -263h181q11 0 18.5 -7.5t7.5 -18.5t-7.5 -18.5t-18.5 -7.5h-202q-18 0 -26 20l-61 158h-302l-64 -166q-8 -20 -26 -20q-14 0 -22 7.5t-8 17.5q0 5 3 13l239 614q8 22 29 22h438q11 0 19 -7.5t8 -18.5q0 -10 -8 -18t-18 -8h-399l96 -247h189 q11 0 18.5 -7.5t7.5 -18.5t-7.5 -18.5t-18.5 -7.5zM440 230l-133 349l-133 -349h266z" />
<glyph unicode="&#xc7;" horiz-adv-x="576" d="M362 -51q33 0 54 -18.5t21 -50.5q0 -34 -25.5 -54.5t-72.5 -20.5q-32 0 -62 11q-16 6 -16 18q0 22 17 22q4 0 16 -4q24 -8 46 -8q51 0 51 36q0 32 -48 32q-10 0 -21 -1.5t-16 -1.5q-20 0 -20 17q0 6 10 31l13 32q-122 7 -191.5 102.5t-69.5 241.5q0 151 74 248t203 97 q130 0 208 -116q7 -10 7 -19q0 -12 -8 -19.5t-20 -7.5q-15 0 -24 14q-65 97 -163 97q-102 0 -160.5 -84t-58.5 -210t58.5 -210t160.5 -84q98 0 163 97q9 14 24 14q12 0 20 -7.5t8 -19.5q0 -9 -7 -19q-71 -105 -185 -115l-16 -44q9 4 30 4z" />
<glyph unicode="&#xc8;" horiz-adv-x="508" d="M472 26q0 -11 -7.5 -18.5t-18.5 -7.5h-336q-13 0 -21.5 8t-8.5 21v608q0 12 8.5 20.5t20.5 8.5h334q11 0 19 -7.5t8 -18.5q0 -10 -8 -18t-18 -8h-306v-247h192q11 0 18.5 -7.5t7.5 -18.5t-7.5 -18.5t-18.5 -7.5h-192v-263h308q11 0 18.5 -7.5t7.5 -18.5zM242 840l58 -69 q7 -8 7 -17q0 -10 -7 -17.5t-18 -7.5q-13 0 -22 11l-58 68q-7 9 -7 18q0 10 6.5 17t19.5 8q12 0 21 -11z" />
<glyph unicode="&#xc9;" horiz-adv-x="508" d="M472 26q0 -11 -7.5 -18.5t-18.5 -7.5h-336q-13 0 -21.5 8t-8.5 21v608q0 12 8.5 20.5t20.5 8.5h334q11 0 19 -7.5t8 -18.5q0 -10 -8 -18t-18 -8h-306v-247h192q11 0 18.5 -7.5t7.5 -18.5t-7.5 -18.5t-18.5 -7.5h-192v-263h308q11 0 18.5 -7.5t7.5 -18.5zM241 771l58 69 q9 11 21 11q13 -1 19.5 -8t6.5 -17q0 -9 -7 -18l-58 -68q-9 -11 -22 -11q-11 0 -18 7.5t-7 17.5q0 9 7 17z" />
<glyph unicode="&#xca;" horiz-adv-x="508" d="M472 26q0 -11 -7.5 -18.5t-18.5 -7.5h-336q-13 0 -21.5 8t-8.5 21v608q0 12 8.5 20.5t20.5 8.5h334q11 0 19 -7.5t8 -18.5q0 -10 -8 -18t-18 -8h-306v-247h192q11 0 18.5 -7.5t7.5 -18.5t-7.5 -18.5t-18.5 -7.5h-192v-263h308q11 0 18.5 -7.5t7.5 -18.5zM301 837l73 -71 q10 -10 10 -20q0 -9 -7 -15.5t-16 -6.5q-11 0 -22 11l-58 57l-58 -57q-11 -11 -22 -11q-9 0 -16 6.5t-7 15.5q0 10 10 20l73 71q13 11 20 11t20 -11z" />
<glyph unicode="&#xcb;" horiz-adv-x="508" d="M472 26q0 -11 -7.5 -18.5t-18.5 -7.5h-336q-13 0 -21.5 8t-8.5 21v608q0 12 8.5 20.5t20.5 8.5h334q11 0 19 -7.5t8 -18.5q0 -10 -8 -18t-18 -8h-306v-247h192q11 0 18.5 -7.5t7.5 -18.5t-7.5 -18.5t-18.5 -7.5h-192v-263h308q11 0 18.5 -7.5t7.5 -18.5zM321 776 q0 16 11.5 28t28.5 12t28.5 -12t11.5 -28t-11.5 -28t-28.5 -12t-28.5 12t-11.5 28zM149 776q0 16 11.5 28t28.5 12t28.5 -12t11.5 -28t-11.5 -28t-28.5 -12t-28.5 12t-11.5 28z" />
<glyph unicode="&#xcc;" horiz-adv-x="228" d="M143 21q0 -12 -8.5 -20.5t-20.5 -8.5t-20.5 8.5t-8.5 20.5v624q0 12 8.5 20.5t20.5 8.5t20.5 -8.5t8.5 -20.5v-624zM78 840l58 -69q7 -8 7 -17q0 -10 -7 -17.5t-18 -7.5q-13 0 -22 11l-58 68q-7 9 -7 18q0 10 6.5 17t19.5 8q12 0 21 -11z" />
<glyph unicode="&#xcd;" horiz-adv-x="228" d="M143 21q0 -12 -8.5 -20.5t-20.5 -8.5t-20.5 8.5t-8.5 20.5v624q0 12 8.5 20.5t20.5 8.5t20.5 -8.5t8.5 -20.5v-624zM91 771l58 69q9 11 21 11q13 -1 19.5 -8t6.5 -17q0 -9 -7 -18l-58 -68q-9 -11 -22 -11q-11 0 -18 7.5t-7 17.5q0 9 7 17z" />
<glyph unicode="&#xce;" horiz-adv-x="228" d="M143 21q0 -12 -8.5 -20.5t-20.5 -8.5t-20.5 8.5t-8.5 20.5v624q0 12 8.5 20.5t20.5 8.5t20.5 -8.5t8.5 -20.5v-624zM134 837l73 -71q10 -10 10 -20q0 -9 -7 -15.5t-16 -6.5q-11 0 -22 11l-58 57l-58 -57q-11 -11 -22 -11q-9 0 -16 6.5t-7 15.5q0 10 10 20l73 71 q13 11 20 11t20 -11z" />
<glyph unicode="&#xcf;" horiz-adv-x="228" d="M143 21q0 -12 -8.5 -20.5t-20.5 -8.5t-20.5 8.5t-8.5 20.5v624q0 12 8.5 20.5t20.5 8.5t20.5 -8.5t8.5 -20.5v-624zM160 776q0 16 12 28t28 12t28 -12t12 -28t-12 -28t-28 -12t-28 12t-12 28zM-12 776q0 16 12 28t28 12t28 -12t12 -28t-12 -28t-28 -12t-28 12t-12 28z " />
<glyph unicode="&#xd0;" horiz-adv-x="631" d="M61 359h55v278q0 12 8.5 20.5t20.5 8.5h148q141 0 217.5 -93t76.5 -240t-76.5 -240t-216.5 -93h-148q-13 0 -21.5 8.5t-8.5 20.5v278h-55q-11 0 -18.5 7.5t-7.5 18.5t7.5 18.5t18.5 7.5zM529 333q0 121 -60 201t-179 80h-116v-255h135q11 0 18.5 -7.5t7.5 -18.5 t-7.5 -18.5t-18.5 -7.5h-135v-255h116q119 0 179 80t60 201z" />
<glyph unicode="&#xd1;" horiz-adv-x="625" d="M545 20q0 -12 -8 -20t-20 -8q-16 0 -26 16l-355 547v-535q0 -12 -8 -20t-20 -8t-20 8t-8 20v626q0 28 28 28q15 0 25 -14l356 -549v535q0 28 28 28q12 0 20 -7.5t8 -20.5v-626zM453 795q0 -7 -5 -15q-12 -20 -18.5 -29t-18 -16.5t-26.5 -7.5q-16 0 -67 19q-53 20 -63 20 q-9 0 -14 -5t-14 -21q-7 -13 -22 -13q-9 0 -15.5 5.5t-6.5 13.5q0 6 4 14q6 10 8 13q16 23 27.5 32.5t31.5 9.5q18 0 71 -22q46 -19 56 -19q4 0 7 1t5 2.5t4.5 5t4 6t5 8.5t5.5 9q7 10 18 10q10 0 16.5 -6.5t6.5 -14.5z" />
<glyph unicode="&#xd2;" horiz-adv-x="644" d="M48 333q0 148 73 246.5t201 98.5t201 -98.5t73 -246.5t-73 -246.5t-201 -98.5t-201 98.5t-73 246.5zM538 333q0 75 -22 139.5t-73 109.5t-121 45t-121 -45t-73 -109.5t-22 -139.5t22 -139.5t73 -109.5t121 -45t121 45t73 109.5t22 139.5zM287 840l58 -69q7 -8 7 -17 q0 -10 -7 -17.5t-18 -7.5q-13 0 -22 11l-58 68q-7 9 -7 18q0 10 6.5 17t19.5 8q12 0 21 -11z" />
<glyph unicode="&#xd3;" horiz-adv-x="644" d="M48 333q0 148 73 246.5t201 98.5t201 -98.5t73 -246.5t-73 -246.5t-201 -98.5t-201 98.5t-73 246.5zM538 333q0 75 -22 139.5t-73 109.5t-121 45t-121 -45t-73 -109.5t-22 -139.5t22 -139.5t73 -109.5t121 -45t121 45t73 109.5t22 139.5zM294 771l58 69q9 11 21 11 q13 -1 19.5 -8t6.5 -17q0 -9 -7 -18l-58 -68q-9 -11 -22 -11q-11 0 -18 7.5t-7 17.5q0 9 7 17z" />
<glyph unicode="&#xd4;" horiz-adv-x="644" d="M48 333q0 148 73 246.5t201 98.5t201 -98.5t73 -246.5t-73 -246.5t-201 -98.5t-201 98.5t-73 246.5zM538 333q0 75 -22 139.5t-73 109.5t-121 45t-121 -45t-73 -109.5t-22 -139.5t22 -139.5t73 -109.5t121 -45t121 45t73 109.5t22 139.5zM343 837l73 -71q10 -10 10 -20 q0 -9 -7 -15.5t-16 -6.5q-11 0 -22 11l-58 57l-58 -57q-11 -11 -22 -11q-9 0 -16 6.5t-7 15.5q0 10 10 20l73 71q13 11 20 11t20 -11z" />
<glyph unicode="&#xd5;" horiz-adv-x="644" d="M48 333q0 148 73 246.5t201 98.5t201 -98.5t73 -246.5t-73 -246.5t-201 -98.5t-201 98.5t-73 246.5zM538 333q0 75 -22 139.5t-73 109.5t-121 45t-121 -45t-73 -109.5t-22 -139.5t22 -139.5t73 -109.5t121 -45t121 45t73 109.5t22 139.5zM460 795q0 -7 -5 -15 q-12 -20 -18.5 -29t-18 -16.5t-26.5 -7.5q-16 0 -67 19q-53 20 -63 20q-9 0 -14 -5t-14 -21q-7 -13 -22 -13q-9 0 -15.5 5.5t-6.5 13.5q0 6 4 14q6 10 8 13q16 23 27.5 32.5t31.5 9.5q18 0 71 -22q46 -19 56 -19q4 0 7 1t5 2.5t4.5 5t4 6t5 8.5t5.5 9q7 10 18 10 q10 0 16.5 -6.5t6.5 -14.5z" />
<glyph unicode="&#xd6;" horiz-adv-x="644" d="M48 333q0 148 73 246.5t201 98.5t201 -98.5t73 -246.5t-73 -246.5t-201 -98.5t-201 98.5t-73 246.5zM538 333q0 75 -22 139.5t-73 109.5t-121 45t-121 -45t-73 -109.5t-22 -139.5t22 -139.5t73 -109.5t121 -45t121 45t73 109.5t22 139.5zM369 776q0 16 11.5 28t28.5 12 t28.5 -12t11.5 -28t-11.5 -28t-28.5 -12t-28.5 12t-11.5 28zM197 776q0 16 11.5 28t28.5 12t28.5 -12t11.5 -28t-11.5 -28t-28.5 -12t-28.5 12t-11.5 28z" />
<glyph unicode="&#xd7;" horiz-adv-x="488" d="M244 360l118 119q8 8 20 8q11 0 18.5 -7t7.5 -19q0 -11 -8 -19l-119 -119l120 -119q7 -7 7 -19q0 -11 -8 -18.5t-19 -7.5q-10 0 -19 9l-118 118l-118 -118q-9 -9 -19 -9q-11 0 -19 7.5t-8 18.5q0 12 7 19l120 119l-119 119q-8 8 -8 19q0 12 7.5 19t18.5 7q12 0 20 -8z " />
<glyph unicode="&#xd8;" horiz-adv-x="644" d="M591 692l-73 -107q78 -96 78 -252q0 -148 -73 -246.5t-201 -98.5q-99 0 -166 61l-65 -96q-10 -15 -20 -15q-23 0 -23 22q0 6 8 17l70 103q-78 96 -78 253q0 148 73 246.5t201 98.5q96 0 165 -61l68 100q8 11 17 11q10 0 17 -6t7 -15q0 -8 -5 -15zM106 333q0 -120 54 -202 l296 439q-55 57 -134 57q-70 0 -121 -45t-73 -109.5t-22 -139.5zM538 333q0 118 -54 202l-297 -440q54 -56 135 -56q70 0 121 45t73 109.5t22 139.5z" />
<glyph unicode="&#xd9;" horiz-adv-x="626" d="M496 239v406q0 13 8.5 21t20.5 8q13 0 21 -8t8 -21v-404q0 -120 -65.5 -186.5t-175.5 -66.5t-175.5 66.5t-65.5 186.5v404q0 13 8 21t21 8q12 0 20.5 -8t8.5 -21v-406q0 -96 48 -147.5t135 -51.5t135 51.5t48 147.5zM277 840l58 -69q7 -8 7 -17q0 -10 -7 -17.5t-18 -7.5 q-13 0 -22 11l-58 68q-7 9 -7 18q0 10 6.5 17t19.5 8q12 0 21 -11z" />
<glyph unicode="&#xda;" horiz-adv-x="626" d="M496 239v406q0 13 8.5 21t20.5 8q13 0 21 -8t8 -21v-404q0 -120 -65.5 -186.5t-175.5 -66.5t-175.5 66.5t-65.5 186.5v404q0 13 8 21t21 8q12 0 20.5 -8t8.5 -21v-406q0 -96 48 -147.5t135 -51.5t135 51.5t48 147.5zM279 771l58 69q9 11 21 11q13 -1 19.5 -8t6.5 -17 q0 -9 -7 -18l-58 -68q-9 -11 -22 -11q-11 0 -18 7.5t-7 17.5q0 9 7 17z" />
<glyph unicode="&#xdb;" horiz-adv-x="626" d="M496 239v406q0 13 8.5 21t20.5 8q13 0 21 -8t8 -21v-404q0 -120 -65.5 -186.5t-175.5 -66.5t-175.5 66.5t-65.5 186.5v404q0 13 8 21t21 8q12 0 20.5 -8t8.5 -21v-406q0 -96 48 -147.5t135 -51.5t135 51.5t48 147.5zM333 837l73 -71q10 -10 10 -20q0 -9 -7 -15.5 t-16 -6.5q-11 0 -22 11l-58 57l-58 -57q-11 -11 -22 -11q-9 0 -16 6.5t-7 15.5q0 10 10 20l73 71q13 11 20 11t20 -11z" />
<glyph unicode="&#xdc;" horiz-adv-x="626" d="M496 239v406q0 13 8.5 21t20.5 8q13 0 21 -8t8 -21v-404q0 -120 -65.5 -186.5t-175.5 -66.5t-175.5 66.5t-65.5 186.5v404q0 13 8 21t21 8q12 0 20.5 -8t8.5 -21v-406q0 -96 48 -147.5t135 -51.5t135 51.5t48 147.5zM359 776q0 16 11.5 28t28.5 12t28.5 -12t11.5 -28 t-11.5 -28t-28.5 -12t-28.5 12t-11.5 28zM187 776q0 16 11.5 28t28.5 12t28.5 -12t11.5 -28t-11.5 -28t-28.5 -12t-28.5 12t-11.5 28z" />
<glyph unicode="&#xdd;" horiz-adv-x="494" d="M66 658l181 -320l181 320q9 16 25 16q12 0 20 -7.5t8 -19.5q0 -7 -5 -16l-200 -354v-256q0 -12 -8 -20.5t-21 -8.5t-21 8.5t-8 20.5v256l-200 354q-5 9 -5 16q0 12 8 19.5t20 7.5q16 0 25 -16zM221 771l58 69q9 11 21 11q13 -1 19.5 -8t6.5 -17q0 -9 -7 -18l-58 -68 q-9 -11 -22 -11q-11 0 -18 7.5t-7 17.5q0 9 7 17z" />
<glyph unicode="&#xde;" horiz-adv-x="537" d="M138 21q0 -12 -8.5 -20.5t-20.5 -8.5t-20.5 8.5t-8.5 20.5v624q0 12 8.5 20.5t20.5 8.5t20.5 -8.5t8.5 -20.5v-117h173q96 0 150 -52t54 -136t-54 -136t-150 -52h-173v-131zM322 476h-184v-272h184q62 0 98.5 38t36.5 98t-36.5 98t-98.5 38z" />
<glyph unicode="&#xdf;" horiz-adv-x="567" d="M131 495v-474q0 -12 -8.5 -20.5t-20.5 -8.5t-20.5 8.5t-8.5 20.5v472q0 89 46 137t136 48q83 0 130.5 -39.5t47.5 -106.5q0 -32 -11 -56.5t-42 -64.5q-5 -7 -14 -18t-12.5 -16t-9.5 -13t-8.5 -12.5t-5.5 -10.5t-4 -11t-1 -10q0 -25 16 -40t66 -38q65 -30 93.5 -57 t28.5 -79t-39.5 -85t-110.5 -33q-90 0 -143 53q-10 10 -10 19q0 23 24 23q10 0 19 -7q50 -41 110 -41q44 0 68.5 19.5t24.5 49.5q0 32 -20.5 51.5t-68.5 40.5q-66 30 -91 54.5t-25 67.5q0 26 13 49t43 59q52 63 52 106q0 46 -33 71.5t-86 25.5q-125 0 -125 -134z" />
<glyph unicode="&#xe0;" horiz-adv-x="481" d="M413 264v-243q0 -12 -8 -20.5t-21 -8.5t-21 8.5t-8 20.5v22q-43 -55 -136 -55q-73 0 -117 37.5t-44 93.5q0 58 45.5 94t121.5 36q87 0 130 -53v67q0 69 -32.5 101t-99.5 32q-57 0 -111 -26q-10 -4 -17 -4q-11 0 -18 6.5t-7 16.5q0 15 19 26q56 31 139 31q89 0 137 -47 t48 -135zM232 204q-55 0 -86.5 -23t-31.5 -62q0 -40 31 -63t84 -23q52 0 89 24.5t37 61.5q0 39 -36.5 62t-86.5 23zM267 525q0 -10 -7.5 -17t-17.5 -7q-14 0 -23 13l-65 95q-5 8 -5 16q0 24 26 24q14 0 22 -12l65 -96q5 -8 5 -16z" />
<glyph unicode="&#xe1;" horiz-adv-x="481" d="M413 264v-243q0 -12 -8 -20.5t-21 -8.5t-21 8.5t-8 20.5v22q-43 -55 -136 -55q-73 0 -117 37.5t-44 93.5q0 58 45.5 94t121.5 36q87 0 130 -53v67q0 69 -32.5 101t-99.5 32q-57 0 -111 -26q-10 -4 -17 -4q-11 0 -18 6.5t-7 16.5q0 15 19 26q56 31 139 31q89 0 137 -47 t48 -135zM232 204q-55 0 -86.5 -23t-31.5 -62q0 -40 31 -63t84 -23q52 0 89 24.5t37 61.5q0 39 -36.5 62t-86.5 23zM202 525q0 8 5 16l65 96q8 12 22 12q26 0 26 -24q0 -8 -5 -16l-65 -95q-9 -13 -23 -13q-10 0 -17.5 7t-7.5 17z" />
<glyph unicode="&#xe2;" horiz-adv-x="481" d="M413 264v-243q0 -12 -8 -20.5t-21 -8.5t-21 8.5t-8 20.5v22q-43 -55 -136 -55q-73 0 -117 37.5t-44 93.5q0 58 45.5 94t121.5 36q87 0 130 -53v67q0 69 -32.5 101t-99.5 32q-57 0 -111 -26q-10 -4 -17 -4q-11 0 -18 6.5t-7 16.5q0 15 19 26q56 31 139 31q89 0 137 -47 t48 -135zM232 204q-55 0 -86.5 -23t-31.5 -62q0 -40 31 -63t84 -23q52 0 89 24.5t37 61.5q0 39 -36.5 62t-86.5 23zM260 627l84 -92q7 -9 7 -17q0 -9 -7 -15.5t-16 -6.5q-13 0 -22 11l-66 75l-66 -75q-9 -11 -22 -11q-9 0 -16 6.5t-7 15.5q0 8 7 17l84 92q9 11 20 11t20 -11 z" />
<glyph unicode="&#xe3;" horiz-adv-x="481" d="M413 264v-243q0 -12 -8 -20.5t-21 -8.5t-21 8.5t-8 20.5v22q-43 -55 -136 -55q-73 0 -117 37.5t-44 93.5q0 58 45.5 94t121.5 36q87 0 130 -53v67q0 69 -32.5 101t-99.5 32q-57 0 -111 -26q-10 -4 -17 -4q-11 0 -18 6.5t-7 16.5q0 15 19 26q56 31 139 31q89 0 137 -47 t48 -135zM232 204q-55 0 -86.5 -23t-31.5 -62q0 -40 31 -63t84 -23q52 0 89 24.5t37 61.5q0 39 -36.5 62t-86.5 23zM365 576q0 -7 -5 -15q-12 -21 -18 -29.5t-17.5 -16t-27.5 -7.5q-18 0 -57 19q-40 19 -53 19q-9 0 -14 -5t-14 -21q-7 -13 -22 -13q-9 0 -15.5 5.5t-6.5 13.5 q0 6 4 14q6 10 8 13q16 23 27.5 32.5t31.5 9.5q18 0 61 -21q39 -19 46 -19q4 0 7 1t5 2.5t4.5 5t4 6t5 8.5t5.5 9q7 10 18 10q10 0 16.5 -6.5t6.5 -14.5z" />
<glyph unicode="&#xe4;" horiz-adv-x="481" d="M413 264v-243q0 -12 -8 -20.5t-21 -8.5t-21 8.5t-8 20.5v22q-43 -55 -136 -55q-73 0 -117 37.5t-44 93.5q0 58 45.5 94t121.5 36q87 0 130 -53v67q0 69 -32.5 101t-99.5 32q-57 0 -111 -26q-10 -4 -17 -4q-11 0 -18 6.5t-7 16.5q0 15 19 26q56 31 139 31q89 0 137 -47 t48 -135zM232 204q-55 0 -86.5 -23t-31.5 -62q0 -40 31 -63t84 -23q52 0 89 24.5t37 61.5q0 39 -36.5 62t-86.5 23zM287 552q0 16 11.5 28t28.5 12t28.5 -12t11.5 -28t-11.5 -28t-28.5 -12t-28.5 12t-11.5 28zM122 552q0 16 12 28t28 12t28 -12t12 -28t-12 -28t-28 -12 t-28 12t-12 28z" />
<glyph unicode="&#xe5;" horiz-adv-x="481" d="M413 264v-243q0 -12 -8 -20.5t-21 -8.5t-21 8.5t-8 20.5v22q-43 -55 -136 -55q-73 0 -117 37.5t-44 93.5q0 58 45.5 94t121.5 36q87 0 130 -53v67q0 69 -32.5 101t-99.5 32q-57 0 -111 -26q-10 -4 -17 -4q-11 0 -18 6.5t-7 16.5q0 15 19 26q56 31 139 31q89 0 137 -47 t48 -135zM232 204q-55 0 -86.5 -23t-31.5 -62q0 -40 31 -63t84 -23q52 0 89 24.5t37 61.5q0 39 -36.5 62t-86.5 23zM318 556q0 -30 -20 -49t-51 -19t-51 19t-20 49t20 49t51 19t51 -19t20 -49zM212 556q0 -16 9.5 -26.5t25.5 -10.5t25.5 10.5t9.5 26.5t-9.5 26.5t-25.5 10.5 t-25.5 -10.5t-9.5 -26.5z" />
<glyph unicode="&#xe6;" horiz-adv-x="777" d="M554 446q82 0 133.5 -64t51.5 -163q0 -24 -25 -24h-300q4 -70 39.5 -114t107.5 -44q68 0 117 64q9 13 22 13t19.5 -7.5t6.5 -17.5q0 -7 -8 -19q-60 -82 -157 -82q-111 0 -167 85q-55 -85 -175 -85q-73 0 -117 37.5t-44 93.5q0 58 45.5 94t121.5 36q82 0 130 -53v67 q0 69 -32 101t-100 32q-57 0 -111 -26q-10 -4 -17 -4q-11 0 -18 6.5t-7 16.5q0 15 19 26q56 31 139 31q121 0 166 -94q57 94 160 94zM232 206q-54 0 -86 -24t-32 -63q0 -40 31 -64t84 -24q51 0 88.5 25t37.5 63q0 39 -36.5 63t-86.5 24zM687 244q-6 63 -40.5 108t-91.5 45 q-60 0 -98 -45.5t-43 -107.5h273z" />
<glyph unicode="&#xe7;" horiz-adv-x="446" d="M268 -51q33 0 54 -18.5t21 -50.5q0 -34 -25.5 -54.5t-72.5 -20.5q-32 0 -62 11q-16 6 -16 18q0 22 17 22q4 0 16 -4q24 -8 46 -8q51 0 51 36q0 32 -48 32q-10 0 -21 -1.5t-16 -1.5q-20 0 -20 17q0 6 10 31l13 33q-77 11 -123.5 75t-46.5 152q0 96 55.5 162.5t145.5 66.5 q51 0 91.5 -23t64.5 -60q6 -9 6 -19t-8 -17.5t-19 -7.5q-13 0 -22 13q-44 64 -112 64q-65 0 -104.5 -52.5t-39.5 -126.5t39.5 -126.5t104.5 -52.5q68 0 112 64q9 13 22 13q11 0 19 -7.5t8 -17.5t-6 -19q-51 -79 -148 -83l-16 -43q9 4 30 4z" />
<glyph unicode="&#xe8;" horiz-adv-x="467" d="M244 446q83 0 134 -64t51 -163q0 -24 -25 -24h-300q4 -70 39.5 -114t107.5 -44q68 0 117 64q9 13 22 13t19.5 -7.5t6.5 -17.5q0 -7 -8 -19q-60 -82 -157 -82q-101 0 -153.5 66t-52.5 163t55.5 163t143.5 66zM376 244q-6 64 -40 108.5t-91 44.5q-60 0 -97.5 -45 t-43.5 -108h272zM271 525q0 -10 -7.5 -17t-17.5 -7q-14 0 -23 13l-65 95q-5 8 -5 16q0 24 26 24q14 0 22 -12l65 -96q5 -8 5 -16z" />
<glyph unicode="&#xe9;" horiz-adv-x="467" d="M244 446q83 0 134 -64t51 -163q0 -24 -25 -24h-300q4 -70 39.5 -114t107.5 -44q68 0 117 64q9 13 22 13t19.5 -7.5t6.5 -17.5q0 -7 -8 -19q-60 -82 -157 -82q-101 0 -153.5 66t-52.5 163t55.5 163t143.5 66zM376 244q-6 64 -40 108.5t-91 44.5q-60 0 -97.5 -45 t-43.5 -108h272zM205 525q0 8 5 16l65 96q8 12 22 12q26 0 26 -24q0 -8 -5 -16l-65 -95q-9 -13 -23 -13q-10 0 -17.5 7t-7.5 17z" />
<glyph unicode="&#xea;" horiz-adv-x="467" d="M244 446q83 0 134 -64t51 -163q0 -24 -25 -24h-300q4 -70 39.5 -114t107.5 -44q68 0 117 64q9 13 22 13t19.5 -7.5t6.5 -17.5q0 -7 -8 -19q-60 -82 -157 -82q-101 0 -153.5 66t-52.5 163t55.5 163t143.5 66zM376 244q-6 64 -40 108.5t-91 44.5q-60 0 -97.5 -45 t-43.5 -108h272zM268 627l84 -92q7 -9 7 -17q0 -9 -7 -15.5t-16 -6.5q-13 0 -22 11l-66 75l-66 -75q-9 -11 -22 -11q-9 0 -16 6.5t-7 15.5q0 8 7 17l84 92q9 11 20 11t20 -11z" />
<glyph unicode="&#xeb;" horiz-adv-x="467" d="M244 446q83 0 134 -64t51 -163q0 -24 -25 -24h-300q4 -70 39.5 -114t107.5 -44q68 0 117 64q9 13 22 13t19.5 -7.5t6.5 -17.5q0 -7 -8 -19q-60 -82 -157 -82q-101 0 -153.5 66t-52.5 163t55.5 163t143.5 66zM376 244q-6 64 -40 108.5t-91 44.5q-60 0 -97.5 -45 t-43.5 -108h272zM291 552q0 16 11.5 28t28.5 12t28.5 -12t11.5 -28t-11.5 -28t-28.5 -12t-28.5 12t-11.5 28zM126 552q0 16 12 28t28 12t28 -12t12 -28t-12 -28t-28 -12t-28 12t-12 28z" />
<glyph unicode="&#xec;" horiz-adv-x="208" d="M133 21q0 -12 -8.5 -20.5t-20.5 -8.5t-20.5 8.5t-8.5 20.5v392q0 12 8.5 20.5t20.5 8.5t20.5 -8.5t8.5 -20.5v-392zM131 525q0 -10 -7.5 -17t-17.5 -7q-14 0 -23 13l-65 95q-5 8 -5 16q0 24 26 24q14 0 22 -12l65 -96q5 -8 5 -16z" />
<glyph unicode="&#xed;" horiz-adv-x="208" d="M133 21q0 -12 -8.5 -20.5t-20.5 -8.5t-20.5 8.5t-8.5 20.5v392q0 12 8.5 20.5t20.5 8.5t20.5 -8.5t8.5 -20.5v-392zM74 525q0 8 5 16l65 96q8 12 22 12q26 0 26 -24q0 -8 -5 -16l-65 -95q-9 -13 -23 -13q-10 0 -17.5 7t-7.5 17z" />
<glyph unicode="&#xee;" horiz-adv-x="208" d="M133 21q0 -12 -8.5 -20.5t-20.5 -8.5t-20.5 8.5t-8.5 20.5v392q0 12 8.5 20.5t20.5 8.5t20.5 -8.5t8.5 -20.5v-392zM124 627l84 -92q7 -9 7 -17q0 -9 -7 -15.5t-16 -6.5q-13 0 -22 11l-66 75l-66 -75q-9 -11 -22 -11q-9 0 -16 6.5t-7 15.5q0 8 7 17l84 92q9 11 20 11 t20 -11z" />
<glyph unicode="&#xef;" horiz-adv-x="208" d="M133 21q0 -12 -8.5 -20.5t-20.5 -8.5t-20.5 8.5t-8.5 20.5v392q0 12 8.5 20.5t20.5 8.5t20.5 -8.5t8.5 -20.5v-392zM147 552q0 16 11.5 28t28.5 12t28.5 -12t11.5 -28t-11.5 -28t-28.5 -12t-28.5 12t-11.5 28zM-18 552q0 16 12 28t28 12t28 -12t12 -28t-12 -28t-28 -12 t-28 12t-12 28z" />
<glyph unicode="&#xf0;" horiz-adv-x="490" d="M438 226q0 -98 -52.5 -168t-147.5 -70q-93 0 -143 63t-50 150q0 94 52 153t136 59q97 0 148 -84q-22 131 -100 206l-59 -50q-10 -8 -18 -8q-10 0 -17 7t-7 15q0 10 10 18l58 48q-50 40 -110 69q-17 8 -17 22q0 22 23 22q6 0 14 -3q76 -33 126 -80l53 44q8 7 16 7 q9 0 16 -7t7 -15q0 -12 -9 -19l-49 -40q56 -52 88 -140t32 -199zM379 201q0 76 -41 120t-97 44q-65 0 -102 -43.5t-37 -120.5q0 -75 37.5 -120t99.5 -45q65 0 102.5 47t37.5 118z" />
<glyph unicode="&#xf1;" d="M75 21v392q0 12 8 20.5t21 8.5t21 -8.5t8 -20.5v-57q43 90 148 90q79 0 123 -53t44 -143v-229q0 -12 -8.5 -20.5t-20.5 -8.5t-20.5 8.5t-8.5 20.5v228q0 144 -122 144q-61 0 -98 -45t-37 -115v-212q0 -12 -8.5 -20.5t-20.5 -8.5t-20.5 8.5t-8.5 20.5zM384 576 q0 -7 -5 -15q-12 -21 -18 -29.5t-17.5 -16t-27.5 -7.5q-18 0 -57 19q-40 19 -53 19q-9 0 -14 -5t-14 -21q-7 -13 -22 -13q-9 0 -15.5 5.5t-6.5 13.5q0 6 4 14q6 10 8 13q16 23 27.5 32.5t31.5 9.5q5 0 10 -0.5t8.5 -1.5t9.5 -3.5t9 -4l11 -5.5t13 -6q39 -19 46 -19q4 0 7 1 t5 2.5t4.5 5t4 6t5 8.5t5.5 9q7 10 18 10q10 0 16.5 -6.5t6.5 -14.5z" />
<glyph unicode="&#xf2;" horiz-adv-x="492" d="M246 -12q-91 0 -146 67.5t-55 161.5t55 161.5t146 67.5t146 -67.5t55 -161.5t-55 -161.5t-146 -67.5zM246 38q64 0 103.5 52t39.5 127t-39.5 127t-103.5 52t-103.5 -52t-39.5 -127t39.5 -127t103.5 -52zM275 525q0 -10 -7.5 -17t-17.5 -7q-14 0 -23 13l-65 95q-5 8 -5 16 q0 24 26 24q14 0 22 -12l65 -96q5 -8 5 -16z" />
<glyph unicode="&#xf3;" horiz-adv-x="492" d="M246 -12q-91 0 -146 67.5t-55 161.5t55 161.5t146 67.5t146 -67.5t55 -161.5t-55 -161.5t-146 -67.5zM246 38q64 0 103.5 52t39.5 127t-39.5 127t-103.5 52t-103.5 -52t-39.5 -127t39.5 -127t103.5 -52zM212 525q0 8 5 16l65 96q8 12 22 12q26 0 26 -24q0 -8 -5 -16 l-65 -95q-9 -13 -23 -13q-10 0 -17.5 7t-7.5 17z" />
<glyph unicode="&#xf4;" horiz-adv-x="492" d="M246 -12q-91 0 -146 67.5t-55 161.5t55 161.5t146 67.5t146 -67.5t55 -161.5t-55 -161.5t-146 -67.5zM246 38q64 0 103.5 52t39.5 127t-39.5 127t-103.5 52t-103.5 -52t-39.5 -127t39.5 -127t103.5 -52zM266 627l84 -92q7 -9 7 -17q0 -9 -7 -15.5t-16 -6.5q-13 0 -22 11 l-66 75l-66 -75q-9 -11 -22 -11q-9 0 -16 6.5t-7 15.5q0 8 7 17l84 92q9 11 20 11t20 -11z" />
<glyph unicode="&#xf5;" horiz-adv-x="492" d="M246 -12q-91 0 -146 67.5t-55 161.5t55 161.5t146 67.5t146 -67.5t55 -161.5t-55 -161.5t-146 -67.5zM246 38q64 0 103.5 52t39.5 127t-39.5 127t-103.5 52t-103.5 -52t-39.5 -127t39.5 -127t103.5 -52zM376 576q0 -7 -5 -15q-12 -21 -18 -29.5t-17.5 -16t-27.5 -7.5 q-18 0 -57 19q-40 19 -53 19q-9 0 -14 -5t-14 -21q-7 -13 -22 -13q-9 0 -15.5 5.5t-6.5 13.5q0 6 4 14q6 10 8 13q16 23 27.5 32.5t31.5 9.5q18 0 61 -21q39 -19 46 -19q4 0 7 1t5 2.5t4.5 5t4 6t5 8.5t5.5 9q7 10 18 10q10 0 16.5 -6.5t6.5 -14.5z" />
<glyph unicode="&#xf6;" horiz-adv-x="492" d="M246 -12q-91 0 -146 67.5t-55 161.5t55 161.5t146 67.5t146 -67.5t55 -161.5t-55 -161.5t-146 -67.5zM246 38q64 0 103.5 52t39.5 127t-39.5 127t-103.5 52t-103.5 -52t-39.5 -127t39.5 -127t103.5 -52zM289 552q0 16 11.5 28t28.5 12t28.5 -12t11.5 -28t-11.5 -28 t-28.5 -12t-28.5 12t-11.5 28zM124 552q0 16 12 28t28 12t28 -12t12 -28t-12 -28t-28 -12t-28 12t-12 28z" />
<glyph unicode="&#xf7;" horiz-adv-x="556" d="M496 323q0 -11 -8 -18.5t-19 -7.5h-381q-11 0 -19.5 7.5t-8.5 18.5t8 18.5t19 7.5h381q11 0 19.5 -7.5t8.5 -18.5zM237 147q0 17 12 29t29 12t29 -12t12 -29t-12 -29t-29 -12t-29 12t-12 29zM237 499q0 17 12 29t29 12t29 -12t12 -29t-12 -29t-29 -12t-29 12t-12 29z" />
<glyph unicode="&#xf8;" horiz-adv-x="492" d="M442 464l-56 -79q61 -67 61 -168q0 -94 -55 -161.5t-146 -67.5q-65 0 -112 36l-54 -77q-7 -9 -15 -9q-20 0 -20 19q0 5 6 15l54 77q-60 66 -60 168q0 94 55 161.5t146 67.5q62 0 111 -36l54 77q7 9 15 9q21 0 21 -19q0 -6 -5 -13zM246 38q64 0 103.5 52t39.5 127 q0 69 -36 121l-189 -271q35 -29 82 -29zM103 217q0 -72 35 -121l189 271q-35 29 -81 29q-64 0 -103.5 -52t-39.5 -127z" />
<glyph unicode="&#xf9;" d="M443 413v-392q0 -12 -8 -20.5t-21 -8.5t-21 8.5t-8 20.5v57q-43 -90 -148 -90q-79 0 -123 53t-44 143v229q0 12 8.5 20.5t20.5 8.5t20.5 -8.5t8.5 -20.5v-228q0 -144 122 -144q61 0 98 45t37 115v212q0 12 8.5 20.5t20.5 8.5t20.5 -8.5t8.5 -20.5zM297 525 q0 -10 -7.5 -17t-17.5 -7q-14 0 -23 13l-65 95q-5 8 -5 16q0 24 26 24q14 0 22 -12l65 -96q5 -8 5 -16z" />
<glyph unicode="&#xfa;" d="M443 413v-392q0 -12 -8 -20.5t-21 -8.5t-21 8.5t-8 20.5v57q-43 -90 -148 -90q-79 0 -123 53t-44 143v229q0 12 8.5 20.5t20.5 8.5t20.5 -8.5t8.5 -20.5v-228q0 -144 122 -144q61 0 98 45t37 115v212q0 12 8.5 20.5t20.5 8.5t20.5 -8.5t8.5 -20.5zM218 525q0 8 5 16 l65 96q8 12 22 12q26 0 26 -24q0 -8 -5 -16l-65 -95q-9 -13 -23 -13q-10 0 -17.5 7t-7.5 17z" />
<glyph unicode="&#xfb;" d="M443 413v-392q0 -12 -8 -20.5t-21 -8.5t-21 8.5t-8 20.5v57q-43 -90 -148 -90q-79 0 -123 53t-44 143v229q0 12 8.5 20.5t20.5 8.5t20.5 -8.5t8.5 -20.5v-228q0 -144 122 -144q61 0 98 45t37 115v212q0 12 8.5 20.5t20.5 8.5t20.5 -8.5t8.5 -20.5zM281 627l84 -92 q7 -9 7 -17q0 -9 -7 -15.5t-16 -6.5q-13 0 -22 11l-66 75l-66 -75q-9 -11 -22 -11q-9 0 -16 6.5t-7 15.5q0 8 7 17l84 92q9 11 20 11t20 -11z" />
<glyph unicode="&#xfc;" d="M443 413v-392q0 -12 -8 -20.5t-21 -8.5t-21 8.5t-8 20.5v57q-43 -90 -148 -90q-79 0 -123 53t-44 143v229q0 12 8.5 20.5t20.5 8.5t20.5 -8.5t8.5 -20.5v-228q0 -144 122 -144q61 0 98 45t37 115v212q0 12 8.5 20.5t20.5 8.5t20.5 -8.5t8.5 -20.5zM304 552q0 16 12 28 t28 12t28 -12t12 -28t-12 -28t-28 -12t-28 12t-12 28zM139 552q0 16 11.5 28t28.5 12t28.5 -12t11.5 -28t-11.5 -28t-28.5 -12t-28.5 12t-11.5 28z" />
<glyph unicode="&#xfd;" horiz-adv-x="404" d="M389 416q0 -6 -3 -13q-84 -241 -129 -357q-61 -158 -180 -237q-8 -4 -15 -4q-11 0 -18.5 7t-7.5 18q0 15 18 28q76 55 121 140l-156 402q-4 10 -4 16q0 26 28 26q19 0 26 -21l138 -358l129 360q7 19 26 19q27 0 27 -26zM163 525q0 8 5 16l65 96q8 12 22 12q26 0 26 -24 q0 -8 -5 -16l-65 -95q-9 -13 -23 -13q-10 0 -17.5 7t-7.5 17z" />
<glyph unicode="&#xfe;" horiz-adv-x="520" d="M75 -166v811q0 12 8.5 20.5t20.5 8.5t20.5 -8.5t8.5 -20.5v-290q51 91 154 91q83 0 135.5 -65t52.5 -164t-52.5 -164t-135.5 -65q-103 0 -154 91v-245q0 -12 -8.5 -20.5t-20.5 -8.5t-20.5 8.5t-8.5 20.5zM280 38q65 0 101 51t36 128t-36 128t-101 51q-63 0 -105 -52 t-42 -127t42 -127t105 -52z" />
<glyph unicode="&#xff;" horiz-adv-x="404" d="M389 416q0 -6 -3 -13q-84 -241 -129 -357q-61 -158 -180 -237q-8 -4 -15 -4q-11 0 -18.5 7t-7.5 18q0 15 18 28q76 55 121 140l-156 402q-4 10 -4 16q0 26 28 26q19 0 26 -21l138 -358l129 360q7 19 26 19q27 0 27 -26zM244 552q0 16 12 28t28 12t28 -12t12 -28t-12 -28 t-28 -12t-28 12t-12 28zM79 552q0 16 11.5 28t28.5 12t28.5 -12t11.5 -28t-11.5 -28t-28.5 -12t-28.5 12t-11.5 28z" />
<glyph unicode="&#x131;" horiz-adv-x="208" d="M133 21q0 -12 -8.5 -20.5t-20.5 -8.5t-20.5 8.5t-8.5 20.5v392q0 12 8.5 20.5t20.5 8.5t20.5 -8.5t8.5 -20.5v-392z" />
<glyph unicode="&#x141;" horiz-adv-x="522" d="M501 26q0 -10 -7.5 -18t-18.5 -8h-323q-12 0 -20.5 8t-8.5 21v256l-56 -16q-12 -3 -13 -3q-11 0 -18.5 7t-7.5 17q0 18 19 24l76 22v309q0 12 8 20.5t21 8.5q12 0 20.5 -8t8.5 -21v-293l118 35q8 2 12 2q25 0 25 -24q0 -19 -24 -25l-131 -38v-250h293q11 0 19 -7.5 t8 -18.5z" />
<glyph unicode="&#x142;" horiz-adv-x="315" d="M181 21q0 -12 -8.5 -20.5t-20.5 -8.5t-20.5 8.5t-8.5 20.5v241l-44 -13q-12 -3 -13 -3q-11 0 -18.5 7t-7.5 17q0 18 19 24l64 19v332q0 12 8.5 20.5t20.5 8.5t20.5 -8.5t8.5 -20.5v-316l64 19q8 2 12 2q25 0 25 -24q0 -19 -24 -25l-77 -22v-258z" />
<glyph unicode="&#x152;" horiz-adv-x="966" d="M930 26q0 -11 -7.5 -18.5t-18.5 -7.5h-336q-13 0 -21.5 8t-8.5 21v103q-32 -67 -88.5 -105.5t-127.5 -38.5q-128 0 -201 98.5t-73 246.5t73 246.5t201 98.5q147 0 216 -144v103q0 12 8.5 20.5t20.5 8.5h334q11 0 19 -7.5t8 -18.5q0 -10 -8 -18t-18 -8h-306v-247h192 q11 0 18.5 -7.5t7.5 -18.5t-7.5 -18.5t-18.5 -7.5h-192v-263h308q11 0 18.5 -7.5t7.5 -18.5zM538 333q0 75 -22 139.5t-73 109.5t-121 45t-121 -45t-73 -109.5t-22 -139.5t22 -139.5t73 -109.5t121 -45t121 45t73 109.5t22 139.5z" />
<glyph unicode="&#x153;" horiz-adv-x="812" d="M589 446q82 0 133.5 -64t51.5 -163q0 -24 -25 -24h-300q4 -70 39.5 -114t107.5 -44q68 0 117 64q9 13 22 13t19.5 -7.5t6.5 -17.5q0 -7 -8 -19q-60 -82 -157 -82q-64 0 -109.5 30t-69.5 79q-58 -109 -171 -109q-91 0 -146 67.5t-55 161.5t55 161.5t146 67.5 q113 0 172 -111q60 111 171 111zM246 38q64 0 103.5 52t39.5 127t-39.5 127t-103.5 52t-103.5 -52t-39.5 -127t39.5 -127t103.5 -52zM722 244q-6 63 -40.5 108t-91.5 45q-60 0 -98 -45.5t-43 -107.5h273z" />
<glyph unicode="&#x160;" horiz-adv-x="530" d="M488 155q0 -73 -56.5 -120t-155.5 -47q-127 0 -207 80q-14 12 -14 27q0 24 25 24q12 0 23 -11q73 -69 173 -69q75 0 114.5 32t39.5 83q0 45 -36.5 78.5t-129.5 78.5q-112 54 -157.5 101t-45.5 107q0 74 57 116.5t153 42.5q99 0 176 -55q21 -14 21 -27q0 -11 -6.5 -19 t-18.5 -8q-9 0 -22 9q-73 49 -150 49q-70 0 -111 -26.5t-41 -81.5q0 -44 34.5 -75.5t123.5 -78.5q62 -32 94.5 -51.5t63 -45t42 -52t11.5 -61.5zM369 802l-73 -71q-13 -11 -20 -11t-20 11l-73 71q-10 10 -10 20q0 9 7 15.5t16 6.5q11 0 22 -11l58 -57l58 57q11 11 22 11 q9 0 16 -6.5t7 -15.5q0 -10 -10 -20z" />
<glyph unicode="&#x161;" horiz-adv-x="413" d="M371 106q0 -51 -40.5 -84.5t-116.5 -33.5q-92 0 -155 60q-9 9 -9 20q0 10 6.5 16t16.5 6q12 0 20 -7q58 -49 124 -49q46 0 71.5 19t25.5 50q0 32 -25 50t-86 41q-78 30 -113 61.5t-35 76.5q0 54 41.5 84t113.5 30q74 0 128 -37q21 -13 21 -28q0 -23 -25 -23q-6 0 -20 7 q-56 33 -105 33q-96 0 -96 -64q0 -31 23 -48.5t84 -42.5q83 -33 117 -61.5t34 -75.5zM320 597l-84 -92q-9 -11 -20 -11t-20 11l-84 92q-7 9 -7 17q0 9 7 15.5t16 6.5q13 0 22 -11l66 -75l66 75q9 11 22 11q9 0 16 -6.5t7 -15.5q0 -8 -7 -17z" />
<glyph unicode="&#x178;" horiz-adv-x="494" d="M66 658l181 -320l181 320q9 16 25 16q12 0 20 -7.5t8 -19.5q0 -7 -5 -16l-200 -354v-256q0 -12 -8 -20.5t-21 -8.5t-21 8.5t-8 20.5v256l-200 354q-5 9 -5 16q0 12 8 19.5t20 7.5q16 0 25 -16zM293 776q0 16 11.5 28t28.5 12t28.5 -12t11.5 -28t-11.5 -28t-28.5 -12 t-28.5 12t-11.5 28zM121 776q0 16 11.5 28t28.5 12t28.5 -12t11.5 -28t-11.5 -28t-28.5 -12t-28.5 12t-11.5 28z" />
<glyph unicode="&#x17d;" horiz-adv-x="536" d="M489 26q0 -11 -7.5 -18.5t-18.5 -7.5h-378q-28 0 -28 24q0 8 6 17l347 575h-322q-12 0 -19.5 7t-7.5 18t7.5 18t19.5 7h370q26 0 26 -24q0 -8 -7 -18l-344 -574h330q11 0 18.5 -6.5t7.5 -17.5zM367 802l-73 -71q-13 -11 -20 -11t-20 11l-73 71q-10 10 -10 20q0 9 7 15.5 t16 6.5q11 0 22 -11l58 -57l58 57q11 11 22 11q9 0 16 -6.5t7 -15.5q0 -10 -10 -20z" />
<glyph unicode="&#x17e;" horiz-adv-x="416" d="M379 24q0 -10 -7 -17t-18 -7h-280q-10 0 -17 7t-7 17q0 9 6 18l245 344h-225q-10 0 -17 7t-7 17t7 17t17 7h274q26 0 26 -23q0 -10 -7 -20l-245 -343h230q11 0 18 -6.5t7 -17.5zM321 597l-84 -92q-9 -11 -20 -11t-20 11l-84 92q-7 9 -7 17q0 9 7 15.5t16 6.5q13 0 22 -11 l66 -75l66 75q9 11 22 11q9 0 16 -6.5t7 -15.5q0 -8 -7 -17z" />
<glyph unicode="&#x192;" horiz-adv-x="473" d="M438 642q0 -11 -7.5 -18.5t-20.5 -7.5h-25q-45 0 -63 -18.5t-27 -67.5l-27 -152h84q24 0 24 -22q0 -28 -30 -28h-86l-68 -387q-14 -76 -44.5 -106t-111.5 -30h-14q-27 0 -27 23q0 27 27 27h19q48 0 65.5 17.5t26.5 67.5l69 388h-60q-11 0 -18.5 6.5t-7.5 15.5q0 28 30 28 h64l28 154q13 73 45 103.5t106 30.5h22q12 0 19.5 -6.5t7.5 -17.5z" />
<glyph unicode="&#x2c6;" horiz-adv-x="362" d="M201 627l84 -92q7 -9 7 -17q0 -9 -7 -15.5t-16 -6.5q-13 0 -22 11l-66 75l-66 -75q-9 -11 -22 -11q-9 0 -16 6.5t-7 15.5q0 8 7 17l84 92q9 11 20 11t20 -11z" />
<glyph unicode="&#x2c7;" horiz-adv-x="362" d="M285 597l-84 -92q-9 -11 -20 -11t-20 11l-84 92q-7 9 -7 17q0 9 7 15.5t16 6.5q13 0 22 -11l66 -75l66 75q9 11 22 11q9 0 16 -6.5t7 -15.5q0 -8 -7 -17z" />
<glyph unicode="&#x2d8;" horiz-adv-x="378" d="M255 591q0 24 24 24t24 -24q0 -47 -30.5 -70t-83.5 -23t-83.5 23t-30.5 70q0 24 24 24t24 -24q0 -51 66 -51t66 51z" />
<glyph unicode="&#x2d9;" horiz-adv-x="228" d="M75 566q0 16 11.5 27.5t27.5 11.5t27.5 -11.5t11.5 -27.5t-11.5 -27.5t-27.5 -11.5t-27.5 11.5t-11.5 27.5z" />
<glyph unicode="&#x2da;" horiz-adv-x="292" d="M217 556q0 -30 -20 -49t-51 -19t-51 19t-20 49t20 49t51 19t51 -19t20 -49zM111 556q0 -16 9.5 -26.5t25.5 -10.5t25.5 10.5t9.5 26.5t-9.5 26.5t-25.5 10.5t-25.5 -10.5t-9.5 -26.5z" />
<glyph unicode="&#x2db;" horiz-adv-x="301" d="M208 -134q18 0 18 -18q0 -13 -13 -20q-24 -12 -59 -12q-38 0 -58.5 17.5t-20.5 48.5q0 38 34.5 68.5t78.5 49.5h33q-94 -64 -94 -115q0 -26 32 -26q12 0 27 3q20 4 22 4z" />
<glyph unicode="&#x2dc;" horiz-adv-x="400" d="M325 576q0 -7 -5 -15q-12 -21 -18 -29.5t-17.5 -16t-27.5 -7.5q-18 0 -57 19q-40 19 -53 19q-9 0 -14 -5t-14 -21q-7 -13 -22 -13q-9 0 -15.5 5.5t-6.5 13.5q0 6 4 14q6 10 8 13q16 23 27.5 32.5t31.5 9.5q18 0 61 -21q39 -19 46 -19q4 0 7 1t5 2.5t4.5 5t4 6t5 8.5 t5.5 9q7 10 18 10q10 0 16.5 -6.5t6.5 -14.5z" />
<glyph unicode="&#x2dd;" horiz-adv-x="437" d="M105 522q0 8 5 16l56 93q9 15 22 15q26 0 26 -23q0 -8 -5 -16l-56 -92q-9 -15 -22 -15q-11 0 -18.5 6t-7.5 16zM248 522q0 8 5 16l56 93q9 15 22 15q26 0 26 -23q0 -8 -5 -16l-56 -92q-9 -15 -22 -15q-11 0 -18.5 6t-7.5 16z" />
<glyph unicode="&#x3a9;" horiz-adv-x="700" d="M350 627q-103 0 -162.5 -80t-59.5 -200q0 -89 39.5 -167t103.5 -128q18 -14 18 -26q0 -11 -7 -18.5t-18 -7.5h-166q-12 0 -19.5 7t-7.5 19t7.5 19.5t18.5 7.5h98q-60 57 -92.5 134.5t-32.5 161.5q0 140 77 234.5t203 94.5t203 -94.5t77 -234.5q0 -84 -32.5 -161.5 t-92.5 -134.5h98q11 0 18.5 -7.5t7.5 -19.5t-7.5 -19t-19.5 -7h-166q-11 0 -18 7.5t-7 18.5q0 12 18 26q64 50 103.5 128t39.5 167q0 120 -59.5 200t-162.5 80z" />
<glyph unicode="&#x3c0;" horiz-adv-x="582" d="M466 -4q-100 0 -100 101v287h-166v-364q0 -11 -8 -19.5t-20 -8.5t-20 8t-8 20v364h-83q-11 0 -18.5 7.5t-7.5 17.5t7.5 17.5t18.5 7.5h450q11 0 18.5 -7.5t7.5 -17.5t-7.5 -17.5t-18.5 -7.5h-89v-283q0 -32 10 -44.5t40 -12.5h17q25 0 25 -23q0 -10 -6.5 -17.5 t-17.5 -7.5h-24z" />
<glyph unicode="&#x2013;" horiz-adv-x="528" d="M468 249q0 -11 -7 -18t-18 -7h-358q-11 0 -18 7t-7 18t7 18t18 7h358q11 0 18 -7t7 -18z" />
<glyph unicode="&#x2014;" horiz-adv-x="711" d="M651 249q0 -11 -7.5 -18t-17.5 -7h-541q-11 0 -18 7t-7 18t7 18t18 7h541q10 0 17.5 -7t7.5 -18z" />
<glyph unicode="&#x2018;" horiz-adv-x="177" d="M60 487q0 79 26 157q11 30 32 30q24 0 24 -23q0 -5 -5 -20q-24 -69 -24 -144v-43q0 -28 -26 -28q-12 0 -19.5 8t-7.5 20v43z" />
<glyph unicode="&#x2019;" horiz-adv-x="177" d="M132 603q0 -79 -26 -157q-11 -30 -32 -30q-24 0 -24 23q0 5 5 20q24 69 24 144v43q0 28 26 28q12 0 19.5 -8t7.5 -20v-43z" />
<glyph unicode="&#x201a;" horiz-adv-x="190" d="M125 20q0 -79 -26 -157q-11 -30 -32 -30q-25 0 -25 23q0 5 5 20q24 69 24 144v43q0 12 7.5 20t19.5 8t19.5 -8t7.5 -20v-43z" />
<glyph unicode="&#x201c;" horiz-adv-x="345" d="M228 487q0 79 26 157q11 30 32 30q24 0 24 -23q0 -5 -5 -20q-24 -69 -24 -144v-43q0 -28 -26 -28q-12 0 -19.5 8t-7.5 20v43zM60 487q0 79 26 157q11 30 32 30q24 0 24 -23q0 -5 -5 -20q-24 -69 -24 -144v-43q0 -28 -26 -28q-12 0 -19.5 8t-7.5 20v43z" />
<glyph unicode="&#x201d;" horiz-adv-x="345" d="M132 603q0 -79 -26 -157q-11 -30 -32 -30q-24 0 -24 23q0 5 5 20q24 69 24 144v43q0 28 26 28q12 0 19.5 -8t7.5 -20v-43zM300 603q0 -79 -26 -157q-11 -30 -32 -30q-24 0 -24 23q0 5 5 20q24 69 24 144v43q0 28 26 28q12 0 19.5 -8t7.5 -20v-43z" />
<glyph unicode="&#x201e;" horiz-adv-x="357" d="M124 20q0 -79 -26 -157q-11 -30 -32 -30q-24 0 -24 23q0 5 5 20q24 69 24 144v43q0 28 26 28q12 0 19.5 -8t7.5 -20v-43zM292 20q0 -79 -26 -157q-11 -30 -32 -30q-24 0 -24 23q0 5 5 20q24 69 24 144v43q0 28 26 28q12 0 19.5 -8t7.5 -20v-43z" />
<glyph unicode="&#x2020;" horiz-adv-x="418" d="M368 481q0 -11 -7 -18t-18 -7h-106v-508q0 -11 -8.5 -19.5t-19.5 -8.5t-19.5 8.5t-8.5 19.5v508h-106q-11 0 -18 7t-7 18t7 18t18 7h106v140q0 11 8.5 19.5t19.5 8.5t19.5 -8.5t8.5 -19.5v-140h106q11 0 18 -7t7 -18z" />
<glyph unicode="&#x2021;" horiz-adv-x="448" d="M383 113q0 -11 -7.5 -18t-17.5 -7h-106v-140q0 -11 -8.5 -19.5t-19.5 -8.5t-19.5 8.5t-8.5 19.5v140h-106q-10 0 -17.5 7t-7.5 18t7.5 18t17.5 7h106v318h-106q-10 0 -17.5 7t-7.5 18t7.5 18t17.5 7h106v140q0 11 8.5 19.5t19.5 8.5t19.5 -8.5t8.5 -19.5v-140h106 q10 0 17.5 -7t7.5 -18t-7.5 -18t-17.5 -7h-106v-318h106q10 0 17.5 -7t7.5 -18z" />
<glyph unicode="&#x2022;" horiz-adv-x="326" d="M55 322q0 45 31.5 76.5t76.5 31.5t76.5 -31.5t31.5 -76.5t-31.5 -76.5t-76.5 -31.5t-76.5 31.5t-31.5 76.5z" />
<glyph unicode="&#x2026;" horiz-adv-x="666" d="M70 35q0 17 12 29t29 12t29 -12t12 -29t-12 -29t-29 -12t-29 12t-12 29zM292 35q0 17 12 29t29 12t29 -12t12 -29t-12 -29t-29 -12t-29 12t-12 29zM514 35q0 17 12 29t29 12t29 -12t12 -29t-12 -29t-29 -12t-29 12t-12 29z" />
<glyph unicode="&#x2030;" horiz-adv-x="1113" d="M600 650q0 -8 -7 -18l-392 -630q-9 -14 -21 -14q-11 0 -18 7t-7 18q0 5 7 17l391 628q10 16 22 16q25 0 25 -24zM349 516q0 -69 -39 -115.5t-103 -46.5t-103 46.5t-39 115.5t39 115.5t103 46.5t103 -46.5t39 -115.5zM115 516q0 -48 24.5 -83t67.5 -35t67.5 35t24.5 83 t-24.5 83t-67.5 35t-67.5 -35t-24.5 -83zM692 150q0 -69 -39 -115.5t-103 -46.5t-103 46.5t-39 115.5t39 115.5t103 46.5t103 -46.5t39 -115.5zM458 150q0 -48 24.5 -83t67.5 -35t67.5 35t24.5 83t-24.5 83t-67.5 35t-67.5 -35t-24.5 -83zM1048 150q0 -69 -39 -115.5 t-103 -46.5t-103 46.5t-39 115.5t39 115.5t103 46.5t103 -46.5t39 -115.5zM814 150q0 -48 24.5 -83t67.5 -35t67.5 35t24.5 83t-24.5 83t-67.5 35t-67.5 -35t-24.5 -83z" />
<glyph unicode="&#x2039;" horiz-adv-x="330" d="M260 368q0 -12 -10 -21l-137 -134l137 -134q10 -9 10 -21q0 -10 -7.5 -17t-18.5 -7q-9 0 -18 7l-157 153q-9 9 -9 19t9 19l157 153q9 7 18 7q11 0 18.5 -7t7.5 -17z" />
<glyph unicode="&#x203a;" horiz-adv-x="330" d="M70 368q0 10 7.5 17t18.5 7q9 0 18 -7l157 -153q9 -9 9 -19t-9 -19l-157 -153q-9 -7 -18 -7q-11 0 -18.5 7t-7.5 17q0 12 10 21l137 134l-137 134q-10 9 -10 21z" />
<glyph unicode="&#x2044;" horiz-adv-x="449" d="M439 657q0 -5 -5 -15l-380 -641q-8 -13 -20 -13q-10 0 -17 6.5t-7 15.5q0 6 5 14l381 642q7 12 19 12q10 0 17 -6t7 -15z" />
<glyph unicode="&#x20ac;" horiz-adv-x="624" d="M428 409q0 -10 -7 -16.5t-17 -6.5h-219q-2 -34 -2 -53q0 -18 2 -52h219q10 0 17 -7t7 -17t-7 -16.5t-17 -6.5h-213q17 -90 61.5 -143t113.5 -53q49 0 83.5 24.5t62.5 74.5q8 16 25 16q11 0 19 -7.5t8 -19.5q0 -8 -7 -19q-70 -119 -191 -119q-96 0 -155.5 66.5 t-78.5 179.5h-68q-10 0 -17 6.5t-7 16.5t7 17t17 7h63q-2 17 -2 52q0 36 2 53h-63q-10 0 -17 6.5t-7 16.5t7 17t17 7h69q18 112 77.5 178.5t155.5 66.5q121 0 191 -119q7 -11 7 -19q0 -12 -8 -19.5t-19 -7.5q-17 0 -25 16q-28 50 -62.5 74.5t-83.5 24.5q-69 0 -113.5 -53 t-60.5 -142h212q10 0 17 -7t7 -17z" />
<glyph unicode="&#x2122;" horiz-adv-x="648" d="M448 432l94 220q8 18 21 18q20 0 20 -22v-262q0 -20 -21 -20q-20 0 -20 21v174l-74 -179q-6 -16 -20 -16t-20 16l-74 179v-174q0 -21 -20 -21q-21 0 -21 20v262q0 22 20 22q13 0 21 -18zM179 628v-241q0 -9 -6 -15t-15 -6t-15 6t-6 15v241h-72q-7 0 -13 6t-6 13t6 13 t13 6h186q7 0 13 -6t6 -13t-6 -13t-13 -6h-72z" />
<glyph unicode="&#x2202;" horiz-adv-x="532" d="M235 678q11 0 21 -5q101 -44 157.5 -128.5t56.5 -207.5q0 -163 -64 -257t-179 -94q-81 0 -125.5 48.5t-44.5 117.5q0 105 60.5 170.5t159.5 65.5q44 0 82 -21.5t56 -59.5v25q0 217 -188 300q-17 7 -17 22q0 10 6.5 17t18.5 7zM399 221q0 48 -33 82t-87 34q-74 0 -119 -50 t-45 -131q0 -54 27 -87.5t87 -33.5q77 0 123.5 56.5t46.5 129.5z" />
<glyph unicode="&#x2206;" horiz-adv-x="610" d="M330 655l235 -616q5 -12 5 -18q0 -21 -26 -21h-478q-26 0 -26 21q0 6 5 18l235 616q7 19 25 19t25 -19zM109 50h392l-196 529z" />
<glyph unicode="&#x220f;" horiz-adv-x="666" d="M600 666q10 0 18 -8t8 -18t-8 -18t-18 -8h-102v-594q0 -12 -8 -20t-20 -8t-20 8.5t-8 19.5v594h-218v-594q0 -11 -8 -19.5t-20 -8.5t-20 8t-8 20v594h-102q-10 0 -18 8t-8 18t8 18t18 8h534z" />
<glyph unicode="&#x2211;" horiz-adv-x="498" d="M341 324l-208 -342h285q10 0 17.5 -7t7.5 -18t-7.5 -18t-18.5 -7h-331q-26 0 -26 25q0 9 7 19l221 365l-221 365q-7 10 -7 19q0 25 26 25h331q11 0 18.5 -7t7.5 -18t-7.5 -18t-17.5 -7h-285l208 -342q7 -11 7 -17q0 -7 -7 -17z" />
<glyph unicode="&#x2212;" horiz-adv-x="478" d="M413 323q0 -11 -7.5 -18t-17.5 -7h-298q-10 0 -17.5 7t-7.5 18t7.5 18t17.5 7h298q10 0 17.5 -7t7.5 -18z" />
<glyph unicode="&#x221a;" horiz-adv-x="486" d="M421 651q0 -4 -2 -12l-148 -624q-7 -23 -28 -23q-13 0 -22 12l-155 220q-6 9 -6 19q0 12 8 19t18 7q15 0 23 -12l123 -175l136 575q4 21 26 21q27 0 27 -27z" />
<glyph unicode="&#x221e;" horiz-adv-x="752" d="M549 98q-90 0 -173 101q-83 -101 -173 -101q-67 0 -107.5 37t-40.5 99t40.5 99t107.5 37q90 0 173 -101q83 101 173 101q67 0 107.5 -37t40.5 -99t-40.5 -99t-107.5 -37zM549 322q-73 0 -142 -88q69 -88 142 -88q45 0 69.5 24.5t24.5 63.5t-24.5 63.5t-69.5 24.5z M203 322q-45 0 -69.5 -24.5t-24.5 -63.5t24.5 -63.5t69.5 -24.5q73 0 142 88q-69 88 -142 88z" />
<glyph unicode="&#x222b;" horiz-adv-x="385" d="M325 641q0 -11 -7 -18t-18 -7h-12q-46 0 -64.5 -19.5t-18.5 -71.5v-575q0 -73 -32 -109t-103 -36h-14q-11 0 -18.5 7t-7.5 18q0 25 25 25h10q47 0 64.5 20t17.5 69v576q0 78 32 112t105 34h16q25 0 25 -25z" />
<glyph unicode="&#x2248;" horiz-adv-x="500" d="M440 272q0 -9 -7 -16q-27 -28 -48 -41t-50 -13q-31 0 -79 22q-49 22 -67 22q-23 0 -34.5 -6.5t-32.5 -26.5q-9 -9 -18 -9q-10 0 -17 6.5t-7 15.5q0 7 6 15q25 29 48.5 41.5t55.5 12.5t82 -24q44 -21 63 -21q25 0 64 35q11 9 18 9q23 0 23 -22zM440 421q0 -9 -7 -16 q-27 -28 -48 -41t-50 -13q-31 0 -79 22q-49 22 -67 22q-23 0 -34.5 -6.5t-32.5 -26.5q-9 -9 -18 -9q-10 0 -17 6.5t-7 15.5q0 7 6 15q25 29 48.5 41.5t55.5 12.5t82 -24q44 -21 63 -21q25 0 64 35q11 9 18 9q23 0 23 -22z" />
<glyph unicode="&#x2260;" horiz-adv-x="504" d="M362 469l-23 -40h61q10 0 17 -7t7 -17t-7 -17t-17 -7h-88l-66 -115h154q10 0 17 -7t7 -17t-7 -17t-17 -7h-181l-35 -61q-9 -15 -20 -15q-9 0 -17 7t-8 15q0 7 6 16l21 38h-62q-10 0 -17 7t-7 17t7 17t17 7h89l66 115h-155q-10 0 -17 7t-7 17t7 17t17 7h182l36 63 q7 12 18 12q12 0 19 -7t7 -16q0 -4 -4 -12z" />
<glyph unicode="&#x2264;" horiz-adv-x="531" d="M436 48q10 0 17 -6.5t8 -16.5q0 -10 -7 -17.5t-17 -7.5h-347q-10 0 -17.5 7t-7.5 17t7 17t18 7h346zM435 471q0 -14 -19 -25l-265 -147l265 -147q19 -11 19 -25q0 -25 -25 -25q-7 0 -13 3l-305 171q-15 9 -15 23t15 23l305 171q6 3 13 3q25 0 25 -25z" />
<glyph unicode="&#x2265;" horiz-adv-x="531" d="M95 48h346q11 0 18 -7t7 -17t-7.5 -17t-17.5 -7h-347q-10 0 -17 7.5t-7 17.5q1 10 8 16.5t17 6.5zM96 471q0 25 25 25q7 0 13 -3l305 -171q15 -9 15 -23t-15 -23l-305 -171q-6 -3 -13 -3q-25 0 -25 25q0 14 19 25l265 147l-265 147q-19 11 -19 25z" />
<glyph unicode="&#x25ca;" horiz-adv-x="570" d="M56 316q-6 10 -6 17t6 17l208 312q8 12 21 12t21 -12l208 -312q6 -10 6 -17t-6 -17l-208 -312q-8 -12 -21 -12t-21 12zM285 65l177 268l-177 268l-177 -268z" />
<glyph unicode="&#x25fc;" horiz-adv-x="440" d="M0 440h440v-440h-440v440z" />
<glyph unicode="&#xf8ff;" horiz-adv-x="841" d="M766 333h-333v-333h-333v666h666v-333z" />
<glyph unicode="&#xfb01;" horiz-adv-x="513" d="M104 386h-64q-10 0 -17 7t-7 17t7 17t17 7h64v72q0 81 34.5 120.5t111.5 39.5h25q11 0 18 -7t7 -18t-7 -18t-18 -7h-21q-51 0 -71.5 -24.5t-20.5 -83.5v-74h109q10 0 17 -7t7 -17t-7 -17t-17 -7h-109v-365q0 -12 -8.5 -20.5t-20.5 -8.5q-13 0 -21 8.5t-8 20.5v365z M438 21q0 -12 -8.5 -20.5t-20.5 -8.5t-20.5 8.5t-8.5 20.5v392q0 12 8.5 20.5t20.5 8.5t20.5 -8.5t8.5 -20.5v-392zM370 566q0 16 11 27.5t28 11.5t28 -11.5t11 -27.5t-11 -27.5t-28 -11.5t-28 11.5t-11 27.5z" />
<glyph unicode="&#xfb02;" horiz-adv-x="513" d="M104 386h-64q-10 0 -17 7t-7 17t7 17t17 7h64v72q0 81 34.5 120.5t111.5 39.5h25q11 0 18 -7t7 -18t-7 -18t-18 -7h-21q-51 0 -71.5 -24.5t-20.5 -83.5v-74h109q10 0 17 -7t7 -17t-7 -17t-17 -7h-109v-365q0 -12 -8.5 -20.5t-20.5 -8.5q-13 0 -21 8.5t-8 20.5v365z M438 21q0 -12 -8.5 -20.5t-20.5 -8.5t-20.5 8.5t-8.5 20.5v624q0 12 8.5 20.5t20.5 8.5t20.5 -8.5t8.5 -20.5v-624z" />
<glyph horiz-adv-x="297" d="M117 771l58 69q9 11 21 11q13 -1 19.5 -8t6.5 -17q0 -9 -7 -18l-58 -68q-9 -11 -22 -11q-11 0 -18 7.5t-7 17.5q0 9 7 17z" />
<glyph horiz-adv-x="378" d="M255 811q0 24 24 24t24 -24q0 -87 -114 -87t-114 87q0 24 24 24t24 -24q0 -27 16 -36t50 -9t50 9t16 36z" />
<glyph horiz-adv-x="356" d="M271 802l-73 -71q-13 -11 -20 -11t-20 11l-73 71q-10 10 -10 20q0 9 7 15.5t16 6.5q11 0 22 -11l58 -57l58 57q11 11 22 11q9 0 16 -6.5t7 -15.5q0 -10 -10 -20z" />
<glyph horiz-adv-x="356" d="M198 837l73 -71q10 -10 10 -20q0 -9 -7 -15.5t-16 -6.5q-11 0 -22 11l-58 57l-58 -57q-11 -11 -22 -11q-9 0 -16 6.5t-7 15.5q0 10 10 20l73 71q13 11 20 11t20 -11z" />
<glyph horiz-adv-x="402" d="M247 776q0 16 11.5 28t28.5 12t28.5 -12t11.5 -28t-11.5 -28t-28.5 -12t-28.5 12t-11.5 28zM75 776q0 16 11.5 28t28.5 12t28.5 -12t11.5 -28t-11.5 -28t-28.5 -12t-28.5 12t-11.5 28z" />
<glyph horiz-adv-x="228" d="M75 780q0 16 11.5 27.5t27.5 11.5t27.5 -11.5t11.5 -27.5t-11.5 -27.5t-27.5 -11.5t-27.5 11.5t-11.5 27.5z" />
<glyph horiz-adv-x="297" d="M122 840l58 -69q7 -8 7 -17q0 -10 -7 -17.5t-18 -7.5q-13 0 -22 11l-58 68q-7 9 -7 18q0 10 6.5 17t19.5 8q12 0 21 -11z" />
<glyph horiz-adv-x="418" d="M110 751q0 8 5 16l42 69q9 15 22 15q26 0 26 -23q0 -8 -5 -16l-42 -68q-9 -15 -22 -15q-11 0 -18.5 6t-7.5 16zM263 751q0 8 5 16l42 69q9 15 22 15q26 0 26 -23q0 -8 -5 -16l-42 -68q-9 -15 -22 -15q-11 0 -18.5 6t-7.5 16z" />
<glyph horiz-adv-x="405" d="M330 773q0 -10 -6.5 -17t-14.5 -7h-212q-8 0 -15 7t-7 16q0 10 6.5 16.5t15.5 6.5h211q9 0 15.5 -6.5t6.5 -15.5z" />
<glyph horiz-adv-x="292" d="M217 785q0 -30 -20 -49t-51 -19t-51 19t-20 49t20 49t51 19t51 -19t20 -49zM111 785q0 -16 9.5 -26.5t25.5 -10.5t25.5 10.5t9.5 26.5t-9.5 26.5t-25.5 10.5t-25.5 -10.5t-9.5 -26.5z" />
<glyph horiz-adv-x="395" d="M335 795q0 -7 -5 -15q-12 -20 -18.5 -29t-18 -16.5t-26.5 -7.5q-16 0 -67 19q-53 20 -63 20q-9 0 -14 -5t-14 -21q-7 -13 -22 -13q-9 0 -15.5 5.5t-6.5 13.5q0 6 4 14q6 10 8 13q16 23 27.5 32.5t31.5 9.5q18 0 71 -22q46 -19 56 -19q4 0 7 1t5 2.5t4.5 5t4 6t5 8.5 t5.5 9q7 10 18 10q10 0 16.5 -6.5t6.5 -14.5z" />
<glyph horiz-adv-x="512" d="M437 413v-392q0 -12 -8.5 -20.5t-20.5 -8.5t-20.5 8.5t-8.5 20.5v58q-57 -91 -150 -91q-82 0 -133 65.5t-51 163.5t51 163.5t133 65.5q50 0 88.5 -25.5t61.5 -65.5v58q0 12 8.5 20.5t20.5 8.5t20.5 -8.5t8.5 -20.5zM236 396q-65 0 -99 -51.5t-34 -127.5t34 -127.5 t99 -51.5q62 0 102.5 52.5t40.5 126.5t-40.5 126.5t-102.5 52.5z" />
<glyph d="M385 88q-43 -90 -148 -90q-79 0 -123 53t-44 143v219q0 12 8.5 20.5t20.5 8.5t20.5 -8.5t8.5 -20.5v-218q0 -144 122 -144q61 0 98 45t37 115v202q0 12 8.5 20.5t20.5 8.5t20.5 -8.5t8.5 -20.5v-400q0 -99 -44.5 -153.5t-152.5 -54.5q-91 0 -153 36q-17 10 -17 26 q0 10 6.5 16t16.5 6q9 0 21 -7q53 -29 125 -29q79 0 109.5 38.5t30.5 116.5v80z" />
<glyph horiz-adv-x="512" d="M219 525q0 8 5 16l65 96q8 12 22 12q26 0 26 -24q0 -8 -5 -16l-65 -95q-9 -13 -23 -13q-10 0 -17.5 7t-7.5 17zM437 413v-392q0 -12 -8.5 -20.5t-20.5 -8.5t-20.5 8.5t-8.5 20.5v58q-57 -91 -150 -91q-82 0 -133 65.5t-51 163.5t51 163.5t133 65.5q50 0 88.5 -25.5 t61.5 -65.5v58q0 12 8.5 20.5t20.5 8.5t20.5 -8.5t8.5 -20.5zM236 396q-65 0 -99 -51.5t-34 -127.5t34 -127.5t99 -51.5q62 0 102.5 52.5t40.5 126.5t-40.5 126.5t-102.5 52.5z" />
<glyph horiz-adv-x="512" d="M282 627l84 -92q7 -9 7 -17q0 -9 -7 -15.5t-16 -6.5q-13 0 -22 11l-66 75l-66 -75q-9 -11 -22 -11q-9 0 -16 6.5t-7 15.5q0 8 7 17l84 92q9 11 20 11t20 -11zM437 413v-392q0 -12 -8.5 -20.5t-20.5 -8.5t-20.5 8.5t-8.5 20.5v58q-57 -91 -150 -91q-82 0 -133 65.5 t-51 163.5t51 163.5t133 65.5q50 0 88.5 -25.5t61.5 -65.5v58q0 12 8.5 20.5t20.5 8.5t20.5 -8.5t8.5 -20.5zM236 396q-65 0 -99 -51.5t-34 -127.5t34 -127.5t99 -51.5q62 0 102.5 52.5t40.5 126.5t-40.5 126.5t-102.5 52.5z" />
<glyph horiz-adv-x="512" d="M300 552q0 16 12 28t28 12t28 -12t12 -28t-12 -28t-28 -12t-28 12t-12 28zM135 552q0 16 11.5 28t28.5 12t28.5 -12t11.5 -28t-11.5 -28t-28.5 -12t-28.5 12t-11.5 28zM437 413v-392q0 -12 -8.5 -20.5t-20.5 -8.5t-20.5 8.5t-8.5 20.5v58q-57 -91 -150 -91 q-82 0 -133 65.5t-51 163.5t51 163.5t133 65.5q50 0 88.5 -25.5t61.5 -65.5v58q0 12 8.5 20.5t20.5 8.5t20.5 -8.5t8.5 -20.5zM236 396q-65 0 -99 -51.5t-34 -127.5t34 -127.5t99 -51.5q62 0 102.5 52.5t40.5 126.5t-40.5 126.5t-102.5 52.5z" />
<glyph horiz-adv-x="512" d="M287 525q0 -10 -7.5 -17t-17.5 -7q-14 0 -23 13l-65 95q-5 8 -5 16q0 24 26 24q14 0 22 -12l65 -96q5 -8 5 -16zM437 413v-392q0 -12 -8.5 -20.5t-20.5 -8.5t-20.5 8.5t-8.5 20.5v58q-57 -91 -150 -91q-82 0 -133 65.5t-51 163.5t51 163.5t133 65.5q50 0 88.5 -25.5 t61.5 -65.5v58q0 12 8.5 20.5t20.5 8.5t20.5 -8.5t8.5 -20.5zM236 396q-65 0 -99 -51.5t-34 -127.5t34 -127.5t99 -51.5q62 0 102.5 52.5t40.5 126.5t-40.5 126.5t-102.5 52.5z" />
<glyph horiz-adv-x="512" d="M330 556q0 -30 -20 -49t-51 -19t-51 19t-20 49t20 49t51 19t51 -19t20 -49zM224 556q0 -16 9.5 -26.5t25.5 -10.5t25.5 10.5t9.5 26.5t-9.5 26.5t-25.5 10.5t-25.5 -10.5t-9.5 -26.5zM437 413v-392q0 -12 -8.5 -20.5t-20.5 -8.5t-20.5 8.5t-8.5 20.5v58q-57 -91 -150 -91 q-82 0 -133 65.5t-51 163.5t51 163.5t133 65.5q50 0 88.5 -25.5t61.5 -65.5v58q0 12 8.5 20.5t20.5 8.5t20.5 -8.5t8.5 -20.5zM236 396q-65 0 -99 -51.5t-34 -127.5t34 -127.5t99 -51.5q62 0 102.5 52.5t40.5 126.5t-40.5 126.5t-102.5 52.5z" />
<glyph horiz-adv-x="512" d="M388 576q0 -7 -5 -15q-12 -21 -18 -29.5t-17.5 -16t-27.5 -7.5q-18 0 -57 19q-40 19 -53 19q-9 0 -14 -5t-14 -21q-7 -13 -22 -13q-9 0 -15.5 5.5t-6.5 13.5q0 6 4 14q6 10 8 13q16 23 27.5 32.5t31.5 9.5q5 0 10 -0.5t8.5 -1.5t9.5 -3.5t9 -4l11 -5.5t13 -6 q39 -19 46 -19q4 0 7 1t5 2.5t4.5 5t4 6t5 8.5t5.5 9q7 10 18 10q10 0 16.5 -6.5t6.5 -14.5zM437 413v-392q0 -12 -8.5 -20.5t-20.5 -8.5t-20.5 8.5t-8.5 20.5v58q-57 -91 -150 -91q-82 0 -133 65.5t-51 163.5t51 163.5t133 65.5q50 0 88.5 -25.5t61.5 -65.5v58 q0 12 8.5 20.5t20.5 8.5t20.5 -8.5t8.5 -20.5zM236 396q-65 0 -99 -51.5t-34 -127.5t34 -127.5t99 -51.5q62 0 102.5 52.5t40.5 126.5t-40.5 126.5t-102.5 52.5z" />
<glyph d="M220 525q0 8 5 16l65 96q8 12 22 12q26 0 26 -24q0 -8 -5 -16l-65 -95q-9 -13 -23 -13q-10 0 -17.5 7t-7.5 17zM385 88q-43 -90 -148 -90q-79 0 -123 53t-44 143v219q0 12 8.5 20.5t20.5 8.5t20.5 -8.5t8.5 -20.5v-218q0 -144 122 -144q61 0 98 45t37 115v202 q0 12 8.5 20.5t20.5 8.5t20.5 -8.5t8.5 -20.5v-400q0 -99 -44.5 -153.5t-152.5 -54.5q-91 0 -153 36q-17 10 -17 26q0 10 6.5 16t16.5 6q9 0 21 -7q53 -29 125 -29q79 0 109.5 38.5t30.5 116.5v80z" />
<glyph d="M300 552q0 16 12 28t28 12t28 -12t12 -28t-12 -28t-28 -12t-28 12t-12 28zM135 552q0 16 11.5 28t28.5 12t28.5 -12t11.5 -28t-11.5 -28t-28.5 -12t-28.5 12t-11.5 28zM385 88q-43 -90 -148 -90q-79 0 -123 53t-44 143v219q0 12 8.5 20.5t20.5 8.5t20.5 -8.5t8.5 -20.5 v-218q0 -144 122 -144q61 0 98 45t37 115v202q0 12 8.5 20.5t20.5 8.5t20.5 -8.5t8.5 -20.5v-400q0 -99 -44.5 -153.5t-152.5 -54.5q-91 0 -153 36q-17 10 -17 26q0 10 6.5 16t16.5 6q9 0 21 -7q53 -29 125 -29q79 0 109.5 38.5t30.5 116.5v80z" />
<glyph horiz-adv-x="512" d="M437 413v-392q0 -12 -8.5 -20.5t-20.5 -8.5t-20.5 8.5t-8.5 20.5v58q-57 -91 -150 -91q-82 0 -133 65.5t-51 163.5t51 163.5t133 65.5q50 0 88.5 -25.5t61.5 -65.5v58q0 12 8.5 20.5t20.5 8.5t20.5 -8.5t8.5 -20.5zM236 396q-65 0 -99 -51.5t-34 -127.5t34 -127.5 t99 -51.5q62 0 102.5 52.5t40.5 126.5t-40.5 126.5t-102.5 52.5z" />
<glyph d="M385 88q-43 -90 -148 -90q-79 0 -123 53t-44 143v219q0 12 8.5 20.5t20.5 8.5t20.5 -8.5t8.5 -20.5v-218q0 -144 122 -144q61 0 98 45t37 115v202q0 12 8.5 20.5t20.5 8.5t20.5 -8.5t8.5 -20.5v-400q0 -99 -44.5 -153.5t-152.5 -54.5q-91 0 -153 36q-17 10 -17 26 q0 10 6.5 16t16.5 6q9 0 21 -7q53 -29 125 -29q79 0 109.5 38.5t30.5 116.5v80z" />
<glyph horiz-adv-x="512" d="M219 525q0 8 5 16l65 96q8 12 22 12q26 0 26 -24q0 -8 -5 -16l-65 -95q-9 -13 -23 -13q-10 0 -17.5 7t-7.5 17zM437 413v-392q0 -12 -8.5 -20.5t-20.5 -8.5t-20.5 8.5t-8.5 20.5v58q-57 -91 -150 -91q-82 0 -133 65.5t-51 163.5t51 163.5t133 65.5q50 0 88.5 -25.5 t61.5 -65.5v58q0 12 8.5 20.5t20.5 8.5t20.5 -8.5t8.5 -20.5zM236 396q-65 0 -99 -51.5t-34 -127.5t34 -127.5t99 -51.5q62 0 102.5 52.5t40.5 126.5t-40.5 126.5t-102.5 52.5z" />
<glyph horiz-adv-x="512" d="M282 627l84 -92q7 -9 7 -17q0 -9 -7 -15.5t-16 -6.5q-13 0 -22 11l-66 75l-66 -75q-9 -11 -22 -11q-9 0 -16 6.5t-7 15.5q0 8 7 17l84 92q9 11 20 11t20 -11zM437 413v-392q0 -12 -8.5 -20.5t-20.5 -8.5t-20.5 8.5t-8.5 20.5v58q-57 -91 -150 -91q-82 0 -133 65.5 t-51 163.5t51 163.5t133 65.5q50 0 88.5 -25.5t61.5 -65.5v58q0 12 8.5 20.5t20.5 8.5t20.5 -8.5t8.5 -20.5zM236 396q-65 0 -99 -51.5t-34 -127.5t34 -127.5t99 -51.5q62 0 102.5 52.5t40.5 126.5t-40.5 126.5t-102.5 52.5z" />
<glyph horiz-adv-x="512" d="M300 552q0 16 12 28t28 12t28 -12t12 -28t-12 -28t-28 -12t-28 12t-12 28zM135 552q0 16 11.5 28t28.5 12t28.5 -12t11.5 -28t-11.5 -28t-28.5 -12t-28.5 12t-11.5 28zM437 413v-392q0 -12 -8.5 -20.5t-20.5 -8.5t-20.5 8.5t-8.5 20.5v58q-57 -91 -150 -91 q-82 0 -133 65.5t-51 163.5t51 163.5t133 65.5q50 0 88.5 -25.5t61.5 -65.5v58q0 12 8.5 20.5t20.5 8.5t20.5 -8.5t8.5 -20.5zM236 396q-65 0 -99 -51.5t-34 -127.5t34 -127.5t99 -51.5q62 0 102.5 52.5t40.5 126.5t-40.5 126.5t-102.5 52.5z" />
<glyph horiz-adv-x="512" d="M287 525q0 -10 -7.5 -17t-17.5 -7q-14 0 -23 13l-65 95q-5 8 -5 16q0 24 26 24q14 0 22 -12l65 -96q5 -8 5 -16zM437 413v-392q0 -12 -8.5 -20.5t-20.5 -8.5t-20.5 8.5t-8.5 20.5v58q-57 -91 -150 -91q-82 0 -133 65.5t-51 163.5t51 163.5t133 65.5q50 0 88.5 -25.5 t61.5 -65.5v58q0 12 8.5 20.5t20.5 8.5t20.5 -8.5t8.5 -20.5zM236 396q-65 0 -99 -51.5t-34 -127.5t34 -127.5t99 -51.5q62 0 102.5 52.5t40.5 126.5t-40.5 126.5t-102.5 52.5z" />
<glyph horiz-adv-x="512" d="M330 556q0 -30 -20 -49t-51 -19t-51 19t-20 49t20 49t51 19t51 -19t20 -49zM224 556q0 -16 9.5 -26.5t25.5 -10.5t25.5 10.5t9.5 26.5t-9.5 26.5t-25.5 10.5t-25.5 -10.5t-9.5 -26.5zM437 413v-392q0 -12 -8.5 -20.5t-20.5 -8.5t-20.5 8.5t-8.5 20.5v58q-57 -91 -150 -91 q-82 0 -133 65.5t-51 163.5t51 163.5t133 65.5q50 0 88.5 -25.5t61.5 -65.5v58q0 12 8.5 20.5t20.5 8.5t20.5 -8.5t8.5 -20.5zM236 396q-65 0 -99 -51.5t-34 -127.5t34 -127.5t99 -51.5q62 0 102.5 52.5t40.5 126.5t-40.5 126.5t-102.5 52.5z" />
<glyph horiz-adv-x="512" d="M388 576q0 -7 -5 -15q-12 -21 -18 -29.5t-17.5 -16t-27.5 -7.5q-18 0 -57 19q-40 19 -53 19q-9 0 -14 -5t-14 -21q-7 -13 -22 -13q-9 0 -15.5 5.5t-6.5 13.5q0 6 4 14q6 10 8 13q16 23 27.5 32.5t31.5 9.5q5 0 10 -0.5t8.5 -1.5t9.5 -3.5t9 -4l11 -5.5t13 -6 q39 -19 46 -19q4 0 7 1t5 2.5t4.5 5t4 6t5 8.5t5.5 9q7 10 18 10q10 0 16.5 -6.5t6.5 -14.5zM437 413v-392q0 -12 -8.5 -20.5t-20.5 -8.5t-20.5 8.5t-8.5 20.5v58q-57 -91 -150 -91q-82 0 -133 65.5t-51 163.5t51 163.5t133 65.5q50 0 88.5 -25.5t61.5 -65.5v58 q0 12 8.5 20.5t20.5 8.5t20.5 -8.5t8.5 -20.5zM236 396q-65 0 -99 -51.5t-34 -127.5t34 -127.5t99 -51.5q62 0 102.5 52.5t40.5 126.5t-40.5 126.5t-102.5 52.5z" />
<glyph d="M220 525q0 8 5 16l65 96q8 12 22 12q26 0 26 -24q0 -8 -5 -16l-65 -95q-9 -13 -23 -13q-10 0 -17.5 7t-7.5 17zM385 88q-43 -90 -148 -90q-79 0 -123 53t-44 143v219q0 12 8.5 20.5t20.5 8.5t20.5 -8.5t8.5 -20.5v-218q0 -144 122 -144q61 0 98 45t37 115v202 q0 12 8.5 20.5t20.5 8.5t20.5 -8.5t8.5 -20.5v-400q0 -99 -44.5 -153.5t-152.5 -54.5q-91 0 -153 36q-17 10 -17 26q0 10 6.5 16t16.5 6q9 0 21 -7q53 -29 125 -29q79 0 109.5 38.5t30.5 116.5v80z" />
<glyph d="M300 552q0 16 12 28t28 12t28 -12t12 -28t-12 -28t-28 -12t-28 12t-12 28zM135 552q0 16 11.5 28t28.5 12t28.5 -12t11.5 -28t-11.5 -28t-28.5 -12t-28.5 12t-11.5 28zM385 88q-43 -90 -148 -90q-79 0 -123 53t-44 143v219q0 12 8.5 20.5t20.5 8.5t20.5 -8.5t8.5 -20.5 v-218q0 -144 122 -144q61 0 98 45t37 115v202q0 12 8.5 20.5t20.5 8.5t20.5 -8.5t8.5 -20.5v-400q0 -99 -44.5 -153.5t-152.5 -54.5q-91 0 -153 36q-17 10 -17 26q0 10 6.5 16t16.5 6q9 0 21 -7q53 -29 125 -29q79 0 109.5 38.5t30.5 116.5v80z" />
<glyph horiz-adv-x="892" d="M822 333q0 -10 -6.5 -16.5t-16.5 -6.5h-656l283 -283q8 -8 8 -17t-6.5 -15.5t-17.5 -6.5q-9 0 -17 8l-321 321q-7 7 -7 16t7 16l321 321q8 8 17 8q11 0 17.5 -6.5t6.5 -15.5t-8 -17l-283 -283h656q10 0 16.5 -6.5t6.5 -16.5z" />
<glyph horiz-adv-x="892" d="M70 333q0 10 6.5 16.5t16.5 6.5h656l-283 283q-8 8 -8 17t6.5 15.5t17.5 6.5q9 0 17 -8l321 -321q7 -7 7 -16t-7 -16l-321 -321q-8 -8 -17 -8q-11 0 -17.5 6.5t-6.5 15.5t8 17l283 283h-656q-10 0 -16.5 6.5t-6.5 16.5z" />
<glyph horiz-adv-x="730" d="M100 643q0 23 23 23h458q10 0 16.5 -6.5t6.5 -16.5t-6.5 -16.5t-16.5 -6.5h-403l464 -463q8 -8 8 -17q0 -8 -7 -15.5t-17 -7.5q-9 0 -17 7l-463 464v-402q0 -10 -6.5 -16.5t-16.5 -6.5t-16.5 6.5t-6.5 16.5v457z" />
<glyph horiz-adv-x="730" d="M630 643v-457q0 -10 -6.5 -16.5t-16.5 -6.5t-16.5 6.5t-6.5 16.5v402l-463 -464q-8 -7 -17 -7q-10 0 -17 7.5t-7 15.5q0 9 8 17l464 463h-403q-10 0 -16.5 6.5t-6.5 16.5t6.5 16.5t16.5 6.5h458q23 0 23 -23z" />
<glyph horiz-adv-x="720" d="M100 23v457q0 10 6.5 16.5t16.5 6.5t16.5 -6.5t6.5 -16.5v-402l463 464q8 7 17 7q10 0 17 -7.5t7 -15.5q0 -9 -8 -17l-464 -463h403q10 0 16.5 -6.5t6.5 -16.5t-6.5 -16.5t-16.5 -6.5h-458q-23 0 -23 23z" />
<glyph horiz-adv-x="720" d="M620 23q0 -23 -23 -23h-458q-10 0 -16.5 6.5t-6.5 16.5t6.5 16.5t16.5 6.5h403l-464 463q-8 8 -8 17q0 8 7 15.5t17 7.5q9 0 17 -7l463 -464v402q0 10 6.5 16.5t16.5 6.5t16.5 -6.5t6.5 -16.5v-457z" />
<glyph horiz-adv-x="810" d="M381 16v579l-282 -282q-8 -8 -17 -8t-15.5 6.5t-6.5 17.5q0 9 8 17l321 321q7 7 16 7t16 -7l321 -321q8 -8 8 -17q0 -11 -6.5 -17.5t-15.5 -6.5t-17 8l-282 282v-579q0 -10 -7 -17t-17 -7t-17 7t-7 17z" />
<glyph horiz-adv-x="810" d="M381 71v579q0 10 7 17t17 7t17 -7t7 -17v-579l282 282q8 8 17 8t15.5 -6.5t6.5 -17.5q0 -9 -8 -17l-321 -321q-7 -7 -16 -7t-16 7l-321 321q-8 8 -8 17q0 11 6.5 17.5t15.5 6.5t17 -8z" />
<glyph horiz-adv-x="697" d="M50 217q0 9 7 16l205 205q8 8 17 8q11 0 17.5 -6.5t6.5 -15.5t-8 -17l-169 -167h488q10 0 16.5 -6.5t6.5 -16.5t-6.5 -16.5t-16.5 -6.5h-488l169 -167q8 -8 8 -17t-6.5 -15.5t-17.5 -6.5q-9 0 -17 8l-205 205q-7 7 -7 16z" />
<glyph horiz-adv-x="697" d="M647 217q0 -9 -7 -16l-205 -205q-8 -8 -17 -8q-11 0 -17.5 6.5t-6.5 15.5t8 17l169 167h-488q-10 0 -16.5 6.5t-6.5 16.5t6.5 16.5t16.5 6.5h488l-169 167q-8 8 -8 17t6.5 15.5t17.5 6.5q9 0 17 -8l205 -205q7 -7 7 -16z" />
<glyph horiz-adv-x="612" d="M90 411q0 23 23 23h296q10 0 16.5 -6.5t6.5 -16.5t-6.5 -16.5t-16.5 -6.5h-241l361 -360q8 -8 8 -17t-7.5 -16t-16.5 -7t-17 7l-360 361v-241q0 -10 -6.5 -16.5t-16.5 -6.5t-16.5 6.5t-6.5 16.5v296z" />
<glyph horiz-adv-x="612" d="M522 411v-296q0 -10 -6.5 -16.5t-16.5 -6.5t-16.5 6.5t-6.5 16.5v241l-360 -361q-8 -7 -17 -7t-16.5 7t-7.5 16t8 17l361 360h-241q-10 0 -16.5 6.5t-6.5 16.5t6.5 16.5t16.5 6.5h296q23 0 23 -23z" />
<glyph horiz-adv-x="602" d="M90 23v296q0 10 6.5 16.5t16.5 6.5t16.5 -6.5t6.5 -16.5v-241l360 361q8 7 17 7t16.5 -7t7.5 -16t-8 -17l-361 -360h241q10 0 16.5 -6.5t6.5 -16.5t-6.5 -16.5t-16.5 -6.5h-296q-23 0 -23 23z" />
<glyph horiz-adv-x="602" d="M512 23q0 -23 -23 -23h-296q-10 0 -16.5 6.5t-6.5 16.5t6.5 16.5t16.5 6.5h241l-361 360q-8 8 -8 17t7.5 16t16.5 7t17 -7l360 -361v241q0 10 6.5 16.5t16.5 6.5t16.5 -6.5t6.5 -16.5v-296z" />
<glyph horiz-adv-x="568" d="M284 446q9 0 16 -7l205 -205q8 -8 8 -17q0 -11 -6.5 -17.5t-15.5 -6.5t-17 8l-166 168v-540q0 -10 -7 -17t-17 -7t-17 7t-7 17v540l-166 -168q-8 -8 -17 -8t-15.5 6.5t-6.5 17.5q0 9 8 17l205 205q7 7 16 7z" />
<glyph horiz-adv-x="568" d="M284 -194q-9 0 -16 7l-205 205q-8 8 -8 17q0 11 6.5 17.5t15.5 6.5t17 -8l166 -168v540q0 10 7 17t17 7t17 -7t7 -17v-540l166 168q8 8 17 8t15.5 -6.5t6.5 -17.5q0 -9 -8 -17l-205 -205q-7 -7 -16 -7z" />
<glyph horiz-adv-x="866" d="M100 0v666h666v-666h-666z" />
<glyph horiz-adv-x="624" d="M95 0v434h434v-434h-434z" />
<glyph horiz-adv-x="826" d="M95 676l686 -343l-686 -343v686z" />
<glyph horiz-adv-x="569" d="M90 -12v458l434 -229z" />
<glyph horiz-adv-x="776" d="M388 678l338 -678h-676z" />
<glyph horiz-adv-x="766" d="M721 666l-338 -678l-338 678h676z" />
<glyph horiz-adv-x="578" d="M518 0h-458l229 446z" />
<glyph horiz-adv-x="568" d="M55 434h458l-229 -446z" />
</font>
</defs>
</svg>
